M48
; DRILL file {KiCad 9.0.6} date 2026-01-20T12:42:20+0100
; FORMAT={-:-/ absolute / metric / decimal}
; #@! TF.CreationDate,2026-01-20T12:42:20+01:00
; #@! TF.GenerationSoftware,Kicad,Pcbnew,9.0.6
; #@! TF.FileFunction,MixedPlating,1,4
FMAT,2
METRIC
; #@! TA.AperFunction,Plated,PTH,ViaDrill
T1C0.400
; #@! TA.AperFunction,Plated,PTH,ComponentDrill
T2C0.500
; #@! TA.AperFunction,Plated,PTH,ViaDrill
T3C1.000
; #@! TA.AperFunction,Plated,PTH,ComponentDrill
T4C1.000
; #@! TA.AperFunction,Plated,PTH,ComponentDrill
T5C1.600
; #@! TA.AperFunction,Plated,PTH,ComponentDrill
T6C3.200
; #@! TA.AperFunction,NonPlated,NPTH,ComponentDrill
T7C2.400
%
G90
G05
T1
X62.5Y-100.5
X64.0Y-96.0
X64.0Y-134.5
X67.0Y-110.5
X67.239Y-118.954
X67.5Y-115.0
X67.5Y-117.0
X67.5Y-135.0
X68.0Y-105.5
X68.5Y-101.0
X68.715Y-140.785
X69.612Y-138.221
X70.0Y-94.0
X70.377Y-121.427
X71.0Y-126.0
X71.156Y-116.0
X71.2Y-124.723
X71.215Y-118.05
X71.259Y-127.308
X71.5Y-117.0
X72.406Y-138.236
X72.5Y-99.0
X72.522Y-134.578
X74.0Y-131.0
X74.12Y-141.589
X74.5Y-117.0
X74.5Y-126.0
X75.0Y-93.5
X75.154Y-141.544
X76.0Y-126.0
X76.123Y-141.299
X77.277Y-141.275
X77.5Y-99.0
X78.5Y-117.0
X78.747Y-127.34
X78.772Y-139.336
X78.791Y-118.082
X78.806Y-124.755
X78.85Y-116.032
X78.956Y-140.544
X79.0Y-126.0
X79.0Y-132.0
X79.5Y-93.5
X79.708Y-121.396
X81.377Y-121.427
X82.0Y-126.0
X82.156Y-116.0
X82.2Y-124.723
X82.215Y-118.05
X82.259Y-127.308
X82.5Y-117.0
X83.406Y-138.236
X83.5Y-99.0
X83.522Y-134.578
X85.0Y-93.5
X85.0Y-131.0
X85.12Y-141.589
X85.5Y-117.0
X85.5Y-126.0
X86.154Y-141.544
X87.0Y-126.0
X87.123Y-141.299
X88.277Y-141.275
X88.5Y-99.0
X89.5Y-117.0
X89.747Y-127.34
X89.772Y-139.336
X89.791Y-118.082
X89.806Y-124.755
X89.85Y-116.032
X90.0Y-93.5
X90.0Y-126.0
X90.0Y-132.0
X90.0Y-140.5
X90.708Y-121.396
X92.377Y-121.427
X93.0Y-126.0
X93.156Y-116.0
X93.2Y-124.723
X93.215Y-118.05
X93.259Y-127.308
X93.5Y-117.0
X94.406Y-138.236
X94.5Y-99.0
X94.522Y-134.578
X96.0Y-93.5
X96.0Y-131.0
X96.12Y-141.589
X96.5Y-117.0
X96.5Y-126.0
X97.154Y-141.544
X98.0Y-126.0
X98.123Y-141.299
X99.277Y-141.275
X99.5Y-99.0
X100.5Y-117.0
X100.747Y-127.34
X100.772Y-139.336
X100.791Y-118.082
X100.806Y-124.755
X100.85Y-116.032
X101.0Y-93.5
X101.0Y-126.0
X101.0Y-132.0
X101.0Y-140.5
X101.708Y-121.396
X103.377Y-121.427
X104.0Y-126.0
X104.156Y-116.0
X104.2Y-124.723
X104.215Y-118.05
X104.259Y-127.308
X104.5Y-117.0
X105.406Y-138.236
X105.5Y-99.0
X105.522Y-134.578
X107.0Y-94.0
X107.0Y-131.0
X107.12Y-141.589
X107.5Y-117.0
X107.5Y-126.0
X108.154Y-141.544
X109.0Y-126.0
X109.123Y-141.299
X110.277Y-141.275
X110.5Y-99.0
X111.5Y-93.5
X111.5Y-117.0
X111.747Y-127.34
X111.772Y-139.336
X111.791Y-118.082
X111.806Y-124.755
X111.85Y-116.032
X112.0Y-126.0
X112.0Y-132.0
X112.0Y-140.5
X112.708Y-121.396
X114.377Y-121.427
X115.0Y-126.0
X115.156Y-116.0
X115.2Y-124.723
X115.215Y-118.05
X115.259Y-127.308
X115.5Y-117.0
X116.406Y-138.236
X116.5Y-99.0
X116.522Y-134.578
X118.0Y-131.0
X118.12Y-141.589
X118.5Y-117.0
X118.5Y-126.0
X119.154Y-141.544
X120.0Y-126.0
X120.123Y-141.299
X121.277Y-141.275
X121.5Y-99.0
X122.0Y-93.5
X122.5Y-117.0
X122.747Y-127.34
X122.772Y-139.336
X122.791Y-118.082
X122.806Y-124.755
X122.85Y-116.032
X123.0Y-126.0
X123.0Y-132.0
X123.0Y-140.5
X123.708Y-121.396
X125.377Y-121.427
X126.0Y-126.0
X126.156Y-116.0
X126.2Y-124.723
X126.215Y-118.05
X126.259Y-127.308
X126.5Y-117.0
X127.406Y-138.236
X127.5Y-99.0
X127.522Y-134.578
X129.0Y-131.0
X129.12Y-141.589
X129.5Y-117.0
X129.5Y-126.0
X130.154Y-141.544
X131.0Y-126.0
X131.123Y-141.299
X132.277Y-141.275
X132.5Y-99.0
X133.5Y-117.0
X133.747Y-127.34
X133.772Y-139.336
X133.791Y-118.082
X133.806Y-124.755
X133.85Y-116.032
X134.0Y-126.0
X134.0Y-132.0
X134.0Y-140.5
X134.708Y-121.396
X135.0Y-93.0
X136.377Y-121.427
X137.0Y-126.0
X137.156Y-116.0
X137.2Y-124.723
X137.215Y-118.05
X137.259Y-127.308
X137.5Y-117.0
X138.406Y-138.236
X138.5Y-99.0
X138.522Y-134.578
X140.0Y-131.0
X140.12Y-141.589
X140.5Y-117.0
X140.5Y-126.0
X141.154Y-141.544
X142.0Y-126.0
X142.123Y-141.299
X143.277Y-141.275
X143.5Y-99.0
X144.5Y-117.0
X144.747Y-127.34
X144.772Y-139.336
X144.791Y-118.082
X144.806Y-124.755
X144.85Y-116.032
X145.0Y-126.0
X145.0Y-132.0
X145.0Y-140.5
X145.708Y-121.396
X147.0Y-94.0
X147.377Y-121.427
X148.0Y-126.0
X148.156Y-116.0
X148.2Y-124.723
X148.215Y-118.05
X148.259Y-127.308
X148.5Y-117.0
X149.406Y-138.236
X149.5Y-99.0
X149.522Y-134.578
X151.0Y-131.0
X151.12Y-141.589
X151.5Y-117.0
X151.5Y-126.0
X152.154Y-141.544
X153.0Y-126.0
X153.123Y-141.299
X154.277Y-141.275
X154.5Y-99.0
X155.5Y-117.0
X155.747Y-127.34
X155.772Y-139.336
X155.791Y-118.082
X155.806Y-124.755
X155.85Y-116.032
X156.0Y-126.0
X156.0Y-132.0
X156.0Y-140.5
X156.708Y-121.396
X158.0Y-94.0
X158.377Y-121.427
X159.0Y-126.0
X159.156Y-116.0
X159.2Y-124.723
X159.215Y-118.05
X159.259Y-127.308
X159.5Y-117.0
X160.406Y-138.236
X160.5Y-99.0
X160.522Y-134.578
X162.0Y-131.0
X162.12Y-141.589
X162.5Y-117.0
X162.5Y-126.0
X163.154Y-141.544
X163.5Y-93.5
X164.0Y-126.0
X164.123Y-141.299
X165.277Y-141.275
X165.5Y-99.0
X166.5Y-117.0
X166.747Y-127.34
X166.772Y-139.336
X166.791Y-118.082
X166.806Y-124.755
X166.85Y-116.032
X167.0Y-126.0
X167.0Y-132.0
X167.0Y-140.5
X167.708Y-121.396
X169.377Y-121.427
X170.0Y-93.5
X170.0Y-126.0
X170.156Y-116.0
X170.2Y-124.723
X170.215Y-118.05
X170.259Y-127.308
X170.5Y-117.0
X171.406Y-138.236
X171.5Y-99.0
X171.522Y-134.578
X173.0Y-131.0
X173.12Y-141.589
X173.5Y-117.0
X173.5Y-126.0
X174.154Y-141.544
X175.0Y-126.0
X175.123Y-141.299
X176.277Y-141.275
X176.5Y-99.0
X177.5Y-117.0
X177.747Y-127.34
X177.772Y-139.336
X177.791Y-118.082
X177.806Y-124.755
X177.85Y-116.032
X178.0Y-126.0
X178.0Y-132.0
X178.0Y-140.5
X178.708Y-121.396
X179.5Y-93.5
X180.377Y-121.427
X181.0Y-126.0
X181.156Y-116.0
X181.2Y-124.723
X181.215Y-118.05
X181.259Y-127.308
X181.5Y-117.0
X182.406Y-138.236
X182.5Y-99.0
X182.522Y-134.578
X184.0Y-131.0
X184.12Y-141.589
X184.5Y-117.0
X184.5Y-126.0
X185.0Y-93.5
X185.154Y-141.544
X186.0Y-126.0
X186.123Y-141.299
X187.277Y-141.275
X187.5Y-99.0
X188.5Y-117.0
X188.747Y-127.34
X188.772Y-139.336
X188.791Y-118.082
X188.806Y-124.755
X188.85Y-116.032
X189.0Y-126.0
X189.0Y-132.0
X189.0Y-140.5
X189.708Y-121.396
X190.5Y-93.5
X191.377Y-121.427
X192.0Y-126.0
X192.156Y-116.0
X192.2Y-124.723
X192.215Y-118.05
X192.259Y-127.308
X192.5Y-117.0
X193.406Y-138.236
X193.5Y-99.0
X193.522Y-134.578
X195.0Y-131.0
X195.12Y-141.589
X195.5Y-117.0
X195.5Y-126.0
X196.154Y-141.544
X197.0Y-126.0
X197.123Y-141.299
X198.0Y-137.0
X198.277Y-141.275
X198.5Y-99.0
X199.5Y-117.0
X199.747Y-127.34
X199.772Y-139.336
X199.775Y-140.5
X199.791Y-118.082
X199.806Y-124.755
X199.85Y-116.032
X200.0Y-126.0
X200.0Y-132.0
X200.0Y-135.0
X200.708Y-121.396
X201.927Y-119.094
X202.0Y-98.0
X202.0Y-116.0
X202.0Y-123.0
X202.0Y-126.0
X202.262Y-133.45
X202.262Y-138.45
X202.5Y-103.5
X202.5Y-111.5
X202.5Y-129.5
X202.6Y-140.636
X203.014Y-135.316
X204.25Y-131.857
X204.5Y-116.0
X205.154Y-122.406
X205.283Y-132.619
X205.36Y-119.058
X205.507Y-138.152
X206.0Y-105.5
X206.0Y-109.0
X206.0Y-142.0
X206.291Y-138.353
X207.0Y-96.0
X207.187Y-137.877
X207.5Y-142.0
X209.0Y-100.5
X209.0Y-133.5
X209.5Y-105.0
T2
X56.1Y-88.5
X56.1Y-141.5
X56.803Y-86.803
X56.803Y-90.197
X56.803Y-139.803
X56.803Y-143.197
X58.5Y-86.1
X58.5Y-90.9
X58.5Y-139.1
X58.5Y-143.9
X60.197Y-86.803
X60.197Y-90.197
X60.197Y-139.803
X60.197Y-143.197
X60.9Y-88.5
X60.9Y-141.5
X209.1Y-88.5
X209.1Y-141.5
X209.803Y-86.803
X209.803Y-90.197
X209.803Y-139.803
X209.803Y-143.197
X211.5Y-86.1
X211.5Y-90.9
X211.5Y-139.1
X211.5Y-143.9
X213.197Y-86.803
X213.197Y-90.197
X213.197Y-139.803
X213.197Y-143.197
X213.9Y-88.5
X213.9Y-141.5
T3
X71.35Y-108.706
X74.851Y-107.295
X78.849Y-108.4
X82.35Y-108.706
X85.851Y-107.295
X89.849Y-108.4
X93.35Y-108.706
X96.851Y-107.295
X100.849Y-108.4
X104.35Y-108.706
X107.851Y-107.295
X111.849Y-108.4
X115.35Y-108.706
X118.851Y-107.295
X122.849Y-108.4
X126.35Y-108.706
X129.851Y-107.295
X133.849Y-108.4
X137.35Y-108.706
X140.851Y-107.295
X144.849Y-108.4
X148.35Y-108.706
X151.851Y-107.295
X155.849Y-108.4
X159.35Y-108.706
X162.851Y-107.295
X166.849Y-108.4
X170.35Y-108.706
X173.851Y-107.295
X177.849Y-108.4
X181.35Y-108.706
X184.851Y-107.295
X188.849Y-108.4
X192.35Y-108.706
X195.851Y-107.295
X199.849Y-108.4
T4
X61.157Y-113.11
X61.157Y-115.65
X61.157Y-118.19
X61.157Y-120.73
X61.157Y-123.27
X61.157Y-125.81
X61.157Y-128.35
X61.157Y-130.89
X63.697Y-113.11
X63.697Y-115.65
X63.697Y-118.19
X63.697Y-120.73
X63.697Y-123.27
X63.697Y-125.81
X63.697Y-128.35
X63.697Y-130.89
X207.302Y-113.11
X207.302Y-115.65
X207.302Y-118.19
X207.302Y-120.73
X207.302Y-123.27
X207.302Y-125.81
X207.302Y-128.35
X207.302Y-130.89
X209.843Y-113.11
X209.843Y-115.65
X209.843Y-118.19
X209.843Y-120.73
X209.843Y-123.27
X209.843Y-125.81
X209.843Y-128.35
X209.843Y-130.89
T5
X59.932Y-97.515
X59.932Y-102.595
X71.7Y-89.932
X76.78Y-89.932
X81.86Y-89.932
X86.94Y-89.932
X92.02Y-89.932
X97.1Y-89.932
X102.18Y-89.932
X107.26Y-89.932
X112.34Y-89.932
X117.42Y-89.932
X122.5Y-89.932
X127.58Y-89.932
X143.005Y-89.932
X148.085Y-89.932
X153.165Y-89.932
X158.245Y-89.932
X163.325Y-89.932
X168.405Y-89.932
X173.485Y-89.932
X178.565Y-89.932
X183.645Y-89.932
X188.725Y-89.932
X193.805Y-89.932
X198.885Y-89.932
X210.067Y-97.515
X210.067Y-102.595
T6
X58.5Y-88.5
X58.5Y-141.5
X211.5Y-88.5
X211.5Y-141.5
T7
X67.2Y-89.032
X132.08Y-89.032
X138.505Y-89.032
X203.385Y-89.032
M30
