%TF.GenerationSoftware,KiCad,Pcbnew,9.0.6*%
%TF.CreationDate,2026-01-20T12:42:19+01:00*%
%TF.ProjectId,spimux,7370696d-7578-42e6-9b69-6361645f7063,rev?*%
%TF.SameCoordinates,Original*%
%TF.FileFunction,Legend,Bot*%
%TF.FilePolarity,Positive*%
%FSLAX46Y46*%
G04 Gerber Fmt 4.6, Leading zero omitted, Abs format (unit mm)*
G04 Created by KiCad (PCBNEW 9.0.6) date 2026-01-20 12:42:19*
%MOMM*%
%LPD*%
G01*
G04 APERTURE LIST*
%ADD10C,0.150000*%
%ADD11C,0.120000*%
G04 APERTURE END LIST*
D10*
X55630180Y-136663220D02*
X56630180Y-136663220D01*
X56630180Y-136663220D02*
X55915895Y-136329887D01*
X55915895Y-136329887D02*
X56630180Y-135996554D01*
X56630180Y-135996554D02*
X55630180Y-135996554D01*
X55630180Y-135091792D02*
X56153990Y-135091792D01*
X56153990Y-135091792D02*
X56249228Y-135139411D01*
X56249228Y-135139411D02*
X56296847Y-135234649D01*
X56296847Y-135234649D02*
X56296847Y-135425125D01*
X56296847Y-135425125D02*
X56249228Y-135520363D01*
X55677800Y-135091792D02*
X55630180Y-135187030D01*
X55630180Y-135187030D02*
X55630180Y-135425125D01*
X55630180Y-135425125D02*
X55677800Y-135520363D01*
X55677800Y-135520363D02*
X55773038Y-135567982D01*
X55773038Y-135567982D02*
X55868276Y-135567982D01*
X55868276Y-135567982D02*
X55963514Y-135520363D01*
X55963514Y-135520363D02*
X56011133Y-135425125D01*
X56011133Y-135425125D02*
X56011133Y-135187030D01*
X56011133Y-135187030D02*
X56058752Y-135091792D01*
X55630180Y-134187030D02*
X56630180Y-134187030D01*
X55677800Y-134187030D02*
X55630180Y-134282268D01*
X55630180Y-134282268D02*
X55630180Y-134472744D01*
X55630180Y-134472744D02*
X55677800Y-134567982D01*
X55677800Y-134567982D02*
X55725419Y-134615601D01*
X55725419Y-134615601D02*
X55820657Y-134663220D01*
X55820657Y-134663220D02*
X56106371Y-134663220D01*
X56106371Y-134663220D02*
X56201609Y-134615601D01*
X56201609Y-134615601D02*
X56249228Y-134567982D01*
X56249228Y-134567982D02*
X56296847Y-134472744D01*
X56296847Y-134472744D02*
X56296847Y-134282268D01*
X56296847Y-134282268D02*
X56249228Y-134187030D01*
X55677800Y-133329887D02*
X55630180Y-133425125D01*
X55630180Y-133425125D02*
X55630180Y-133615601D01*
X55630180Y-133615601D02*
X55677800Y-133710839D01*
X55677800Y-133710839D02*
X55773038Y-133758458D01*
X55773038Y-133758458D02*
X56153990Y-133758458D01*
X56153990Y-133758458D02*
X56249228Y-133710839D01*
X56249228Y-133710839D02*
X56296847Y-133615601D01*
X56296847Y-133615601D02*
X56296847Y-133425125D01*
X56296847Y-133425125D02*
X56249228Y-133329887D01*
X56249228Y-133329887D02*
X56153990Y-133282268D01*
X56153990Y-133282268D02*
X56058752Y-133282268D01*
X56058752Y-133282268D02*
X55963514Y-133758458D01*
X55630180Y-132091791D02*
X56630180Y-132091791D01*
X56249228Y-132091791D02*
X56296847Y-131996553D01*
X56296847Y-131996553D02*
X56296847Y-131806077D01*
X56296847Y-131806077D02*
X56249228Y-131710839D01*
X56249228Y-131710839D02*
X56201609Y-131663220D01*
X56201609Y-131663220D02*
X56106371Y-131615601D01*
X56106371Y-131615601D02*
X55820657Y-131615601D01*
X55820657Y-131615601D02*
X55725419Y-131663220D01*
X55725419Y-131663220D02*
X55677800Y-131710839D01*
X55677800Y-131710839D02*
X55630180Y-131806077D01*
X55630180Y-131806077D02*
X55630180Y-131996553D01*
X55630180Y-131996553D02*
X55677800Y-132091791D01*
X56296847Y-131282267D02*
X55630180Y-131044172D01*
X56296847Y-130806077D02*
X55630180Y-131044172D01*
X55630180Y-131044172D02*
X55392085Y-131139410D01*
X55392085Y-131139410D02*
X55344466Y-131187029D01*
X55344466Y-131187029D02*
X55296847Y-131282267D01*
X55630180Y-129663219D02*
X56630180Y-129663219D01*
X55630180Y-129234648D02*
X56153990Y-129234648D01*
X56153990Y-129234648D02*
X56249228Y-129282267D01*
X56249228Y-129282267D02*
X56296847Y-129377505D01*
X56296847Y-129377505D02*
X56296847Y-129520362D01*
X56296847Y-129520362D02*
X56249228Y-129615600D01*
X56249228Y-129615600D02*
X56201609Y-129663219D01*
X56296847Y-128329886D02*
X55630180Y-128329886D01*
X56296847Y-128758457D02*
X55773038Y-128758457D01*
X55773038Y-128758457D02*
X55677800Y-128710838D01*
X55677800Y-128710838D02*
X55630180Y-128615600D01*
X55630180Y-128615600D02*
X55630180Y-128472743D01*
X55630180Y-128472743D02*
X55677800Y-128377505D01*
X55677800Y-128377505D02*
X55725419Y-128329886D01*
X55630180Y-127853695D02*
X56296847Y-127853695D01*
X56201609Y-127853695D02*
X56249228Y-127806076D01*
X56249228Y-127806076D02*
X56296847Y-127710838D01*
X56296847Y-127710838D02*
X56296847Y-127567981D01*
X56296847Y-127567981D02*
X56249228Y-127472743D01*
X56249228Y-127472743D02*
X56153990Y-127425124D01*
X56153990Y-127425124D02*
X55630180Y-127425124D01*
X56153990Y-127425124D02*
X56249228Y-127377505D01*
X56249228Y-127377505D02*
X56296847Y-127282267D01*
X56296847Y-127282267D02*
X56296847Y-127139410D01*
X56296847Y-127139410D02*
X56249228Y-127044171D01*
X56249228Y-127044171D02*
X56153990Y-126996552D01*
X56153990Y-126996552D02*
X55630180Y-126996552D01*
X55630180Y-126091791D02*
X56153990Y-126091791D01*
X56153990Y-126091791D02*
X56249228Y-126139410D01*
X56249228Y-126139410D02*
X56296847Y-126234648D01*
X56296847Y-126234648D02*
X56296847Y-126425124D01*
X56296847Y-126425124D02*
X56249228Y-126520362D01*
X55677800Y-126091791D02*
X55630180Y-126187029D01*
X55630180Y-126187029D02*
X55630180Y-126425124D01*
X55630180Y-126425124D02*
X55677800Y-126520362D01*
X55677800Y-126520362D02*
X55773038Y-126567981D01*
X55773038Y-126567981D02*
X55868276Y-126567981D01*
X55868276Y-126567981D02*
X55963514Y-126520362D01*
X55963514Y-126520362D02*
X56011133Y-126425124D01*
X56011133Y-126425124D02*
X56011133Y-126187029D01*
X56011133Y-126187029D02*
X56058752Y-126091791D01*
X56296847Y-125615600D02*
X55630180Y-125615600D01*
X56201609Y-125615600D02*
X56249228Y-125567981D01*
X56249228Y-125567981D02*
X56296847Y-125472743D01*
X56296847Y-125472743D02*
X56296847Y-125329886D01*
X56296847Y-125329886D02*
X56249228Y-125234648D01*
X56249228Y-125234648D02*
X56153990Y-125187029D01*
X56153990Y-125187029D02*
X55630180Y-125187029D01*
X55677800Y-124758457D02*
X55630180Y-124663219D01*
X55630180Y-124663219D02*
X55630180Y-124472743D01*
X55630180Y-124472743D02*
X55677800Y-124377505D01*
X55677800Y-124377505D02*
X55773038Y-124329886D01*
X55773038Y-124329886D02*
X55820657Y-124329886D01*
X55820657Y-124329886D02*
X55915895Y-124377505D01*
X55915895Y-124377505D02*
X55963514Y-124472743D01*
X55963514Y-124472743D02*
X55963514Y-124615600D01*
X55963514Y-124615600D02*
X56011133Y-124710838D01*
X56011133Y-124710838D02*
X56106371Y-124758457D01*
X56106371Y-124758457D02*
X56153990Y-124758457D01*
X56153990Y-124758457D02*
X56249228Y-124710838D01*
X56249228Y-124710838D02*
X56296847Y-124615600D01*
X56296847Y-124615600D02*
X56296847Y-124472743D01*
X56296847Y-124472743D02*
X56249228Y-124377505D01*
X55630180Y-122996552D02*
X55677800Y-123091790D01*
X55677800Y-123091790D02*
X55725419Y-123139409D01*
X55725419Y-123139409D02*
X55820657Y-123187028D01*
X55820657Y-123187028D02*
X56106371Y-123187028D01*
X56106371Y-123187028D02*
X56201609Y-123139409D01*
X56201609Y-123139409D02*
X56249228Y-123091790D01*
X56249228Y-123091790D02*
X56296847Y-122996552D01*
X56296847Y-122996552D02*
X56296847Y-122853695D01*
X56296847Y-122853695D02*
X56249228Y-122758457D01*
X56249228Y-122758457D02*
X56201609Y-122710838D01*
X56201609Y-122710838D02*
X56106371Y-122663219D01*
X56106371Y-122663219D02*
X55820657Y-122663219D01*
X55820657Y-122663219D02*
X55725419Y-122710838D01*
X55725419Y-122710838D02*
X55677800Y-122758457D01*
X55677800Y-122758457D02*
X55630180Y-122853695D01*
X55630180Y-122853695D02*
X55630180Y-122996552D01*
X56296847Y-122234647D02*
X55630180Y-122234647D01*
X56201609Y-122234647D02*
X56249228Y-122187028D01*
X56249228Y-122187028D02*
X56296847Y-122091790D01*
X56296847Y-122091790D02*
X56296847Y-121948933D01*
X56296847Y-121948933D02*
X56249228Y-121853695D01*
X56249228Y-121853695D02*
X56153990Y-121806076D01*
X56153990Y-121806076D02*
X55630180Y-121806076D01*
X56296847Y-120567980D02*
X55296847Y-120567980D01*
X56249228Y-120567980D02*
X56296847Y-120472742D01*
X56296847Y-120472742D02*
X56296847Y-120282266D01*
X56296847Y-120282266D02*
X56249228Y-120187028D01*
X56249228Y-120187028D02*
X56201609Y-120139409D01*
X56201609Y-120139409D02*
X56106371Y-120091790D01*
X56106371Y-120091790D02*
X55820657Y-120091790D01*
X55820657Y-120091790D02*
X55725419Y-120139409D01*
X55725419Y-120139409D02*
X55677800Y-120187028D01*
X55677800Y-120187028D02*
X55630180Y-120282266D01*
X55630180Y-120282266D02*
X55630180Y-120472742D01*
X55630180Y-120472742D02*
X55677800Y-120567980D01*
X55630180Y-119520361D02*
X55677800Y-119615599D01*
X55677800Y-119615599D02*
X55773038Y-119663218D01*
X55773038Y-119663218D02*
X56630180Y-119663218D01*
X55630180Y-118710837D02*
X56153990Y-118710837D01*
X56153990Y-118710837D02*
X56249228Y-118758456D01*
X56249228Y-118758456D02*
X56296847Y-118853694D01*
X56296847Y-118853694D02*
X56296847Y-119044170D01*
X56296847Y-119044170D02*
X56249228Y-119139408D01*
X55677800Y-118710837D02*
X55630180Y-118806075D01*
X55630180Y-118806075D02*
X55630180Y-119044170D01*
X55630180Y-119044170D02*
X55677800Y-119139408D01*
X55677800Y-119139408D02*
X55773038Y-119187027D01*
X55773038Y-119187027D02*
X55868276Y-119187027D01*
X55868276Y-119187027D02*
X55963514Y-119139408D01*
X55963514Y-119139408D02*
X56011133Y-119044170D01*
X56011133Y-119044170D02*
X56011133Y-118806075D01*
X56011133Y-118806075D02*
X56058752Y-118710837D01*
X56296847Y-118234646D02*
X55630180Y-118234646D01*
X56201609Y-118234646D02*
X56249228Y-118187027D01*
X56249228Y-118187027D02*
X56296847Y-118091789D01*
X56296847Y-118091789D02*
X56296847Y-117948932D01*
X56296847Y-117948932D02*
X56249228Y-117853694D01*
X56249228Y-117853694D02*
X56153990Y-117806075D01*
X56153990Y-117806075D02*
X55630180Y-117806075D01*
X55677800Y-116948932D02*
X55630180Y-117044170D01*
X55630180Y-117044170D02*
X55630180Y-117234646D01*
X55630180Y-117234646D02*
X55677800Y-117329884D01*
X55677800Y-117329884D02*
X55773038Y-117377503D01*
X55773038Y-117377503D02*
X56153990Y-117377503D01*
X56153990Y-117377503D02*
X56249228Y-117329884D01*
X56249228Y-117329884D02*
X56296847Y-117234646D01*
X56296847Y-117234646D02*
X56296847Y-117044170D01*
X56296847Y-117044170D02*
X56249228Y-116948932D01*
X56249228Y-116948932D02*
X56153990Y-116901313D01*
X56153990Y-116901313D02*
X56058752Y-116901313D01*
X56058752Y-116901313D02*
X55963514Y-117377503D01*
X56296847Y-116615598D02*
X56296847Y-116234646D01*
X56630180Y-116472741D02*
X55773038Y-116472741D01*
X55773038Y-116472741D02*
X55677800Y-116425122D01*
X55677800Y-116425122D02*
X55630180Y-116329884D01*
X55630180Y-116329884D02*
X55630180Y-116234646D01*
X55677800Y-114758455D02*
X55630180Y-114853693D01*
X55630180Y-114853693D02*
X55630180Y-115044169D01*
X55630180Y-115044169D02*
X55677800Y-115139407D01*
X55677800Y-115139407D02*
X55773038Y-115187026D01*
X55773038Y-115187026D02*
X56153990Y-115187026D01*
X56153990Y-115187026D02*
X56249228Y-115139407D01*
X56249228Y-115139407D02*
X56296847Y-115044169D01*
X56296847Y-115044169D02*
X56296847Y-114853693D01*
X56296847Y-114853693D02*
X56249228Y-114758455D01*
X56249228Y-114758455D02*
X56153990Y-114710836D01*
X56153990Y-114710836D02*
X56058752Y-114710836D01*
X56058752Y-114710836D02*
X55963514Y-115187026D01*
X55630180Y-113853693D02*
X56153990Y-113853693D01*
X56153990Y-113853693D02*
X56249228Y-113901312D01*
X56249228Y-113901312D02*
X56296847Y-113996550D01*
X56296847Y-113996550D02*
X56296847Y-114187026D01*
X56296847Y-114187026D02*
X56249228Y-114282264D01*
X55677800Y-113853693D02*
X55630180Y-113948931D01*
X55630180Y-113948931D02*
X55630180Y-114187026D01*
X55630180Y-114187026D02*
X55677800Y-114282264D01*
X55677800Y-114282264D02*
X55773038Y-114329883D01*
X55773038Y-114329883D02*
X55868276Y-114329883D01*
X55868276Y-114329883D02*
X55963514Y-114282264D01*
X55963514Y-114282264D02*
X56011133Y-114187026D01*
X56011133Y-114187026D02*
X56011133Y-113948931D01*
X56011133Y-113948931D02*
X56058752Y-113853693D01*
X55630180Y-113377502D02*
X56296847Y-113377502D01*
X56106371Y-113377502D02*
X56201609Y-113329883D01*
X56201609Y-113329883D02*
X56249228Y-113282264D01*
X56249228Y-113282264D02*
X56296847Y-113187026D01*
X56296847Y-113187026D02*
X56296847Y-113091788D01*
X56296847Y-112901311D02*
X56296847Y-112520359D01*
X56630180Y-112758454D02*
X55773038Y-112758454D01*
X55773038Y-112758454D02*
X55677800Y-112710835D01*
X55677800Y-112710835D02*
X55630180Y-112615597D01*
X55630180Y-112615597D02*
X55630180Y-112520359D01*
X55630180Y-112187025D02*
X56630180Y-112187025D01*
X55630180Y-111758454D02*
X56153990Y-111758454D01*
X56153990Y-111758454D02*
X56249228Y-111806073D01*
X56249228Y-111806073D02*
X56296847Y-111901311D01*
X56296847Y-111901311D02*
X56296847Y-112044168D01*
X56296847Y-112044168D02*
X56249228Y-112139406D01*
X56249228Y-112139406D02*
X56201609Y-112187025D01*
X56296847Y-110091787D02*
X55630180Y-110091787D01*
X56296847Y-110520358D02*
X55773038Y-110520358D01*
X55773038Y-110520358D02*
X55677800Y-110472739D01*
X55677800Y-110472739D02*
X55630180Y-110377501D01*
X55630180Y-110377501D02*
X55630180Y-110234644D01*
X55630180Y-110234644D02*
X55677800Y-110139406D01*
X55677800Y-110139406D02*
X55725419Y-110091787D01*
X55677800Y-109663215D02*
X55630180Y-109567977D01*
X55630180Y-109567977D02*
X55630180Y-109377501D01*
X55630180Y-109377501D02*
X55677800Y-109282263D01*
X55677800Y-109282263D02*
X55773038Y-109234644D01*
X55773038Y-109234644D02*
X55820657Y-109234644D01*
X55820657Y-109234644D02*
X55915895Y-109282263D01*
X55915895Y-109282263D02*
X55963514Y-109377501D01*
X55963514Y-109377501D02*
X55963514Y-109520358D01*
X55963514Y-109520358D02*
X56011133Y-109615596D01*
X56011133Y-109615596D02*
X56106371Y-109663215D01*
X56106371Y-109663215D02*
X56153990Y-109663215D01*
X56153990Y-109663215D02*
X56249228Y-109615596D01*
X56249228Y-109615596D02*
X56296847Y-109520358D01*
X56296847Y-109520358D02*
X56296847Y-109377501D01*
X56296847Y-109377501D02*
X56249228Y-109282263D01*
X55630180Y-108806072D02*
X56296847Y-108806072D01*
X56630180Y-108806072D02*
X56582561Y-108853691D01*
X56582561Y-108853691D02*
X56534942Y-108806072D01*
X56534942Y-108806072D02*
X56582561Y-108758453D01*
X56582561Y-108758453D02*
X56630180Y-108806072D01*
X56630180Y-108806072D02*
X56534942Y-108806072D01*
X56296847Y-108329882D02*
X55630180Y-108329882D01*
X56201609Y-108329882D02*
X56249228Y-108282263D01*
X56249228Y-108282263D02*
X56296847Y-108187025D01*
X56296847Y-108187025D02*
X56296847Y-108044168D01*
X56296847Y-108044168D02*
X56249228Y-107948930D01*
X56249228Y-107948930D02*
X56153990Y-107901311D01*
X56153990Y-107901311D02*
X55630180Y-107901311D01*
X56296847Y-106996549D02*
X55487323Y-106996549D01*
X55487323Y-106996549D02*
X55392085Y-107044168D01*
X55392085Y-107044168D02*
X55344466Y-107091787D01*
X55344466Y-107091787D02*
X55296847Y-107187025D01*
X55296847Y-107187025D02*
X55296847Y-107329882D01*
X55296847Y-107329882D02*
X55344466Y-107425120D01*
X55677800Y-106996549D02*
X55630180Y-107091787D01*
X55630180Y-107091787D02*
X55630180Y-107282263D01*
X55630180Y-107282263D02*
X55677800Y-107377501D01*
X55677800Y-107377501D02*
X55725419Y-107425120D01*
X55725419Y-107425120D02*
X55820657Y-107472739D01*
X55820657Y-107472739D02*
X56106371Y-107472739D01*
X56106371Y-107472739D02*
X56201609Y-107425120D01*
X56201609Y-107425120D02*
X56249228Y-107377501D01*
X56249228Y-107377501D02*
X56296847Y-107282263D01*
X56296847Y-107282263D02*
X56296847Y-107091787D01*
X56296847Y-107091787D02*
X56249228Y-106996549D01*
X56296847Y-105901310D02*
X56296847Y-105520358D01*
X56630180Y-105758453D02*
X55773038Y-105758453D01*
X55773038Y-105758453D02*
X55677800Y-105710834D01*
X55677800Y-105710834D02*
X55630180Y-105615596D01*
X55630180Y-105615596D02*
X55630180Y-105520358D01*
X55677800Y-104806072D02*
X55630180Y-104901310D01*
X55630180Y-104901310D02*
X55630180Y-105091786D01*
X55630180Y-105091786D02*
X55677800Y-105187024D01*
X55677800Y-105187024D02*
X55773038Y-105234643D01*
X55773038Y-105234643D02*
X56153990Y-105234643D01*
X56153990Y-105234643D02*
X56249228Y-105187024D01*
X56249228Y-105187024D02*
X56296847Y-105091786D01*
X56296847Y-105091786D02*
X56296847Y-104901310D01*
X56296847Y-104901310D02*
X56249228Y-104806072D01*
X56249228Y-104806072D02*
X56153990Y-104758453D01*
X56153990Y-104758453D02*
X56058752Y-104758453D01*
X56058752Y-104758453D02*
X55963514Y-105234643D01*
X55630180Y-104329881D02*
X56296847Y-104329881D01*
X56106371Y-104329881D02*
X56201609Y-104282262D01*
X56201609Y-104282262D02*
X56249228Y-104234643D01*
X56249228Y-104234643D02*
X56296847Y-104139405D01*
X56296847Y-104139405D02*
X56296847Y-104044167D01*
X55630180Y-103710833D02*
X56296847Y-103710833D01*
X56106371Y-103710833D02*
X56201609Y-103663214D01*
X56201609Y-103663214D02*
X56249228Y-103615595D01*
X56249228Y-103615595D02*
X56296847Y-103520357D01*
X56296847Y-103520357D02*
X56296847Y-103425119D01*
X55677800Y-102710833D02*
X55630180Y-102806071D01*
X55630180Y-102806071D02*
X55630180Y-102996547D01*
X55630180Y-102996547D02*
X55677800Y-103091785D01*
X55677800Y-103091785D02*
X55773038Y-103139404D01*
X55773038Y-103139404D02*
X56153990Y-103139404D01*
X56153990Y-103139404D02*
X56249228Y-103091785D01*
X56249228Y-103091785D02*
X56296847Y-102996547D01*
X56296847Y-102996547D02*
X56296847Y-102806071D01*
X56296847Y-102806071D02*
X56249228Y-102710833D01*
X56249228Y-102710833D02*
X56153990Y-102663214D01*
X56153990Y-102663214D02*
X56058752Y-102663214D01*
X56058752Y-102663214D02*
X55963514Y-103139404D01*
X55677800Y-102282261D02*
X55630180Y-102187023D01*
X55630180Y-102187023D02*
X55630180Y-101996547D01*
X55630180Y-101996547D02*
X55677800Y-101901309D01*
X55677800Y-101901309D02*
X55773038Y-101853690D01*
X55773038Y-101853690D02*
X55820657Y-101853690D01*
X55820657Y-101853690D02*
X55915895Y-101901309D01*
X55915895Y-101901309D02*
X55963514Y-101996547D01*
X55963514Y-101996547D02*
X55963514Y-102139404D01*
X55963514Y-102139404D02*
X56011133Y-102234642D01*
X56011133Y-102234642D02*
X56106371Y-102282261D01*
X56106371Y-102282261D02*
X56153990Y-102282261D01*
X56153990Y-102282261D02*
X56249228Y-102234642D01*
X56249228Y-102234642D02*
X56296847Y-102139404D01*
X56296847Y-102139404D02*
X56296847Y-101996547D01*
X56296847Y-101996547D02*
X56249228Y-101901309D01*
X56296847Y-101567975D02*
X56296847Y-101187023D01*
X56630180Y-101425118D02*
X55773038Y-101425118D01*
X55773038Y-101425118D02*
X55677800Y-101377499D01*
X55677800Y-101377499D02*
X55630180Y-101282261D01*
X55630180Y-101282261D02*
X55630180Y-101187023D01*
X55630180Y-100853689D02*
X56296847Y-100853689D01*
X56630180Y-100853689D02*
X56582561Y-100901308D01*
X56582561Y-100901308D02*
X56534942Y-100853689D01*
X56534942Y-100853689D02*
X56582561Y-100806070D01*
X56582561Y-100806070D02*
X56630180Y-100853689D01*
X56630180Y-100853689D02*
X56534942Y-100853689D01*
X55630180Y-99948928D02*
X56153990Y-99948928D01*
X56153990Y-99948928D02*
X56249228Y-99996547D01*
X56249228Y-99996547D02*
X56296847Y-100091785D01*
X56296847Y-100091785D02*
X56296847Y-100282261D01*
X56296847Y-100282261D02*
X56249228Y-100377499D01*
X55677800Y-99948928D02*
X55630180Y-100044166D01*
X55630180Y-100044166D02*
X55630180Y-100282261D01*
X55630180Y-100282261D02*
X55677800Y-100377499D01*
X55677800Y-100377499D02*
X55773038Y-100425118D01*
X55773038Y-100425118D02*
X55868276Y-100425118D01*
X55868276Y-100425118D02*
X55963514Y-100377499D01*
X55963514Y-100377499D02*
X56011133Y-100282261D01*
X56011133Y-100282261D02*
X56011133Y-100044166D01*
X56011133Y-100044166D02*
X56058752Y-99948928D01*
X55630180Y-99329880D02*
X55677800Y-99425118D01*
X55677800Y-99425118D02*
X55773038Y-99472737D01*
X55773038Y-99472737D02*
X56630180Y-99472737D01*
X55630180Y-98187022D02*
X56296847Y-98187022D01*
X56201609Y-98187022D02*
X56249228Y-98139403D01*
X56249228Y-98139403D02*
X56296847Y-98044165D01*
X56296847Y-98044165D02*
X56296847Y-97901308D01*
X56296847Y-97901308D02*
X56249228Y-97806070D01*
X56249228Y-97806070D02*
X56153990Y-97758451D01*
X56153990Y-97758451D02*
X55630180Y-97758451D01*
X56153990Y-97758451D02*
X56249228Y-97710832D01*
X56249228Y-97710832D02*
X56296847Y-97615594D01*
X56296847Y-97615594D02*
X56296847Y-97472737D01*
X56296847Y-97472737D02*
X56249228Y-97377498D01*
X56249228Y-97377498D02*
X56153990Y-97329879D01*
X56153990Y-97329879D02*
X55630180Y-97329879D01*
X55630180Y-96425118D02*
X56153990Y-96425118D01*
X56153990Y-96425118D02*
X56249228Y-96472737D01*
X56249228Y-96472737D02*
X56296847Y-96567975D01*
X56296847Y-96567975D02*
X56296847Y-96758451D01*
X56296847Y-96758451D02*
X56249228Y-96853689D01*
X55677800Y-96425118D02*
X55630180Y-96520356D01*
X55630180Y-96520356D02*
X55630180Y-96758451D01*
X55630180Y-96758451D02*
X55677800Y-96853689D01*
X55677800Y-96853689D02*
X55773038Y-96901308D01*
X55773038Y-96901308D02*
X55868276Y-96901308D01*
X55868276Y-96901308D02*
X55963514Y-96853689D01*
X55963514Y-96853689D02*
X56011133Y-96758451D01*
X56011133Y-96758451D02*
X56011133Y-96520356D01*
X56011133Y-96520356D02*
X56058752Y-96425118D01*
X56296847Y-96091784D02*
X56296847Y-95710832D01*
X56630180Y-95948927D02*
X55773038Y-95948927D01*
X55773038Y-95948927D02*
X55677800Y-95901308D01*
X55677800Y-95901308D02*
X55630180Y-95806070D01*
X55630180Y-95806070D02*
X55630180Y-95710832D01*
X55677800Y-94996546D02*
X55630180Y-95091784D01*
X55630180Y-95091784D02*
X55630180Y-95282260D01*
X55630180Y-95282260D02*
X55677800Y-95377498D01*
X55677800Y-95377498D02*
X55773038Y-95425117D01*
X55773038Y-95425117D02*
X56153990Y-95425117D01*
X56153990Y-95425117D02*
X56249228Y-95377498D01*
X56249228Y-95377498D02*
X56296847Y-95282260D01*
X56296847Y-95282260D02*
X56296847Y-95091784D01*
X56296847Y-95091784D02*
X56249228Y-94996546D01*
X56249228Y-94996546D02*
X56153990Y-94948927D01*
X56153990Y-94948927D02*
X56058752Y-94948927D01*
X56058752Y-94948927D02*
X55963514Y-95425117D01*
X55630180Y-94520355D02*
X56296847Y-94520355D01*
X56106371Y-94520355D02*
X56201609Y-94472736D01*
X56201609Y-94472736D02*
X56249228Y-94425117D01*
X56249228Y-94425117D02*
X56296847Y-94329879D01*
X56296847Y-94329879D02*
X56296847Y-94234641D01*
X55630180Y-93901307D02*
X56296847Y-93901307D01*
X56630180Y-93901307D02*
X56582561Y-93948926D01*
X56582561Y-93948926D02*
X56534942Y-93901307D01*
X56534942Y-93901307D02*
X56582561Y-93853688D01*
X56582561Y-93853688D02*
X56630180Y-93901307D01*
X56630180Y-93901307D02*
X56534942Y-93901307D01*
X55630180Y-92996546D02*
X56153990Y-92996546D01*
X56153990Y-92996546D02*
X56249228Y-93044165D01*
X56249228Y-93044165D02*
X56296847Y-93139403D01*
X56296847Y-93139403D02*
X56296847Y-93329879D01*
X56296847Y-93329879D02*
X56249228Y-93425117D01*
X55677800Y-92996546D02*
X55630180Y-93091784D01*
X55630180Y-93091784D02*
X55630180Y-93329879D01*
X55630180Y-93329879D02*
X55677800Y-93425117D01*
X55677800Y-93425117D02*
X55773038Y-93472736D01*
X55773038Y-93472736D02*
X55868276Y-93472736D01*
X55868276Y-93472736D02*
X55963514Y-93425117D01*
X55963514Y-93425117D02*
X56011133Y-93329879D01*
X56011133Y-93329879D02*
X56011133Y-93091784D01*
X56011133Y-93091784D02*
X56058752Y-92996546D01*
X55630180Y-92377498D02*
X55677800Y-92472736D01*
X55677800Y-92472736D02*
X55773038Y-92520355D01*
X55773038Y-92520355D02*
X56630180Y-92520355D01*
X55677800Y-92044164D02*
X55630180Y-91948926D01*
X55630180Y-91948926D02*
X55630180Y-91758450D01*
X55630180Y-91758450D02*
X55677800Y-91663212D01*
X55677800Y-91663212D02*
X55773038Y-91615593D01*
X55773038Y-91615593D02*
X55820657Y-91615593D01*
X55820657Y-91615593D02*
X55915895Y-91663212D01*
X55915895Y-91663212D02*
X55963514Y-91758450D01*
X55963514Y-91758450D02*
X55963514Y-91901307D01*
X55963514Y-91901307D02*
X56011133Y-91996545D01*
X56011133Y-91996545D02*
X56106371Y-92044164D01*
X56106371Y-92044164D02*
X56153990Y-92044164D01*
X56153990Y-92044164D02*
X56249228Y-91996545D01*
X56249228Y-91996545D02*
X56296847Y-91901307D01*
X56296847Y-91901307D02*
X56296847Y-91758450D01*
X56296847Y-91758450D02*
X56249228Y-91663212D01*
X91454820Y-106785714D02*
X90454820Y-106785714D01*
X91454820Y-107357142D02*
X90883391Y-106928571D01*
X90454820Y-107357142D02*
X91026248Y-106785714D01*
X90550058Y-107738095D02*
X90502439Y-107785714D01*
X90502439Y-107785714D02*
X90454820Y-107880952D01*
X90454820Y-107880952D02*
X90454820Y-108119047D01*
X90454820Y-108119047D02*
X90502439Y-108214285D01*
X90502439Y-108214285D02*
X90550058Y-108261904D01*
X90550058Y-108261904D02*
X90645296Y-108309523D01*
X90645296Y-108309523D02*
X90740534Y-108309523D01*
X90740534Y-108309523D02*
X90883391Y-108261904D01*
X90883391Y-108261904D02*
X91454820Y-107690476D01*
X91454820Y-107690476D02*
X91454820Y-108309523D01*
X90550058Y-108690476D02*
X90502439Y-108738095D01*
X90502439Y-108738095D02*
X90454820Y-108833333D01*
X90454820Y-108833333D02*
X90454820Y-109071428D01*
X90454820Y-109071428D02*
X90502439Y-109166666D01*
X90502439Y-109166666D02*
X90550058Y-109214285D01*
X90550058Y-109214285D02*
X90645296Y-109261904D01*
X90645296Y-109261904D02*
X90740534Y-109261904D01*
X90740534Y-109261904D02*
X90883391Y-109214285D01*
X90883391Y-109214285D02*
X91454820Y-108642857D01*
X91454820Y-108642857D02*
X91454820Y-109261904D01*
X135454820Y-115785714D02*
X134454820Y-115785714D01*
X135454820Y-116357142D02*
X134883391Y-115928571D01*
X134454820Y-116357142D02*
X135026248Y-115785714D01*
X134454820Y-117261904D02*
X134454820Y-116785714D01*
X134454820Y-116785714D02*
X134931010Y-116738095D01*
X134931010Y-116738095D02*
X134883391Y-116785714D01*
X134883391Y-116785714D02*
X134835772Y-116880952D01*
X134835772Y-116880952D02*
X134835772Y-117119047D01*
X134835772Y-117119047D02*
X134883391Y-117214285D01*
X134883391Y-117214285D02*
X134931010Y-117261904D01*
X134931010Y-117261904D02*
X135026248Y-117309523D01*
X135026248Y-117309523D02*
X135264343Y-117309523D01*
X135264343Y-117309523D02*
X135359581Y-117261904D01*
X135359581Y-117261904D02*
X135407201Y-117214285D01*
X135407201Y-117214285D02*
X135454820Y-117119047D01*
X135454820Y-117119047D02*
X135454820Y-116880952D01*
X135454820Y-116880952D02*
X135407201Y-116785714D01*
X135407201Y-116785714D02*
X135359581Y-116738095D01*
X134454820Y-118214285D02*
X134454820Y-117738095D01*
X134454820Y-117738095D02*
X134931010Y-117690476D01*
X134931010Y-117690476D02*
X134883391Y-117738095D01*
X134883391Y-117738095D02*
X134835772Y-117833333D01*
X134835772Y-117833333D02*
X134835772Y-118071428D01*
X134835772Y-118071428D02*
X134883391Y-118166666D01*
X134883391Y-118166666D02*
X134931010Y-118214285D01*
X134931010Y-118214285D02*
X135026248Y-118261904D01*
X135026248Y-118261904D02*
X135264343Y-118261904D01*
X135264343Y-118261904D02*
X135359581Y-118214285D01*
X135359581Y-118214285D02*
X135407201Y-118166666D01*
X135407201Y-118166666D02*
X135454820Y-118071428D01*
X135454820Y-118071428D02*
X135454820Y-117833333D01*
X135454820Y-117833333D02*
X135407201Y-117738095D01*
X135407201Y-117738095D02*
X135359581Y-117690476D01*
X206522319Y-99721666D02*
X207236604Y-99721666D01*
X207236604Y-99721666D02*
X207379461Y-99674047D01*
X207379461Y-99674047D02*
X207474700Y-99578809D01*
X207474700Y-99578809D02*
X207522319Y-99435952D01*
X207522319Y-99435952D02*
X207522319Y-99340714D01*
X206522319Y-100674047D02*
X206522319Y-100197857D01*
X206522319Y-100197857D02*
X206998509Y-100150238D01*
X206998509Y-100150238D02*
X206950890Y-100197857D01*
X206950890Y-100197857D02*
X206903271Y-100293095D01*
X206903271Y-100293095D02*
X206903271Y-100531190D01*
X206903271Y-100531190D02*
X206950890Y-100626428D01*
X206950890Y-100626428D02*
X206998509Y-100674047D01*
X206998509Y-100674047D02*
X207093747Y-100721666D01*
X207093747Y-100721666D02*
X207331842Y-100721666D01*
X207331842Y-100721666D02*
X207427080Y-100674047D01*
X207427080Y-100674047D02*
X207474700Y-100626428D01*
X207474700Y-100626428D02*
X207522319Y-100531190D01*
X207522319Y-100531190D02*
X207522319Y-100293095D01*
X207522319Y-100293095D02*
X207474700Y-100197857D01*
X207474700Y-100197857D02*
X207427080Y-100150238D01*
X190454820Y-97785714D02*
X189454820Y-97785714D01*
X190454820Y-98357142D02*
X189883391Y-97928571D01*
X189454820Y-98357142D02*
X190026248Y-97785714D01*
X190454820Y-98833333D02*
X190454820Y-99023809D01*
X190454820Y-99023809D02*
X190407201Y-99119047D01*
X190407201Y-99119047D02*
X190359581Y-99166666D01*
X190359581Y-99166666D02*
X190216724Y-99261904D01*
X190216724Y-99261904D02*
X190026248Y-99309523D01*
X190026248Y-99309523D02*
X189645296Y-99309523D01*
X189645296Y-99309523D02*
X189550058Y-99261904D01*
X189550058Y-99261904D02*
X189502439Y-99214285D01*
X189502439Y-99214285D02*
X189454820Y-99119047D01*
X189454820Y-99119047D02*
X189454820Y-98928571D01*
X189454820Y-98928571D02*
X189502439Y-98833333D01*
X189502439Y-98833333D02*
X189550058Y-98785714D01*
X189550058Y-98785714D02*
X189645296Y-98738095D01*
X189645296Y-98738095D02*
X189883391Y-98738095D01*
X189883391Y-98738095D02*
X189978629Y-98785714D01*
X189978629Y-98785714D02*
X190026248Y-98833333D01*
X190026248Y-98833333D02*
X190073867Y-98928571D01*
X190073867Y-98928571D02*
X190073867Y-99119047D01*
X190073867Y-99119047D02*
X190026248Y-99214285D01*
X190026248Y-99214285D02*
X189978629Y-99261904D01*
X189978629Y-99261904D02*
X189883391Y-99309523D01*
X189454820Y-99642857D02*
X189454820Y-100261904D01*
X189454820Y-100261904D02*
X189835772Y-99928571D01*
X189835772Y-99928571D02*
X189835772Y-100071428D01*
X189835772Y-100071428D02*
X189883391Y-100166666D01*
X189883391Y-100166666D02*
X189931010Y-100214285D01*
X189931010Y-100214285D02*
X190026248Y-100261904D01*
X190026248Y-100261904D02*
X190264343Y-100261904D01*
X190264343Y-100261904D02*
X190359581Y-100214285D01*
X190359581Y-100214285D02*
X190407201Y-100166666D01*
X190407201Y-100166666D02*
X190454820Y-100071428D01*
X190454820Y-100071428D02*
X190454820Y-99785714D01*
X190454820Y-99785714D02*
X190407201Y-99690476D01*
X190407201Y-99690476D02*
X190359581Y-99642857D01*
X124454820Y-97785714D02*
X123454820Y-97785714D01*
X124454820Y-98357142D02*
X123883391Y-97928571D01*
X123454820Y-98357142D02*
X124026248Y-97785714D01*
X123788153Y-99214285D02*
X124454820Y-99214285D01*
X123407201Y-98976190D02*
X124121486Y-98738095D01*
X124121486Y-98738095D02*
X124121486Y-99357142D01*
X123454820Y-100214285D02*
X123454820Y-99738095D01*
X123454820Y-99738095D02*
X123931010Y-99690476D01*
X123931010Y-99690476D02*
X123883391Y-99738095D01*
X123883391Y-99738095D02*
X123835772Y-99833333D01*
X123835772Y-99833333D02*
X123835772Y-100071428D01*
X123835772Y-100071428D02*
X123883391Y-100166666D01*
X123883391Y-100166666D02*
X123931010Y-100214285D01*
X123931010Y-100214285D02*
X124026248Y-100261904D01*
X124026248Y-100261904D02*
X124264343Y-100261904D01*
X124264343Y-100261904D02*
X124359581Y-100214285D01*
X124359581Y-100214285D02*
X124407201Y-100166666D01*
X124407201Y-100166666D02*
X124454820Y-100071428D01*
X124454820Y-100071428D02*
X124454820Y-99833333D01*
X124454820Y-99833333D02*
X124407201Y-99738095D01*
X124407201Y-99738095D02*
X124359581Y-99690476D01*
X69454820Y-98261905D02*
X68454820Y-98261905D01*
X69454820Y-98833333D02*
X68883391Y-98404762D01*
X68454820Y-98833333D02*
X69026248Y-98261905D01*
X68454820Y-99738095D02*
X68454820Y-99261905D01*
X68454820Y-99261905D02*
X68931010Y-99214286D01*
X68931010Y-99214286D02*
X68883391Y-99261905D01*
X68883391Y-99261905D02*
X68835772Y-99357143D01*
X68835772Y-99357143D02*
X68835772Y-99595238D01*
X68835772Y-99595238D02*
X68883391Y-99690476D01*
X68883391Y-99690476D02*
X68931010Y-99738095D01*
X68931010Y-99738095D02*
X69026248Y-99785714D01*
X69026248Y-99785714D02*
X69264343Y-99785714D01*
X69264343Y-99785714D02*
X69359581Y-99738095D01*
X69359581Y-99738095D02*
X69407201Y-99690476D01*
X69407201Y-99690476D02*
X69454820Y-99595238D01*
X69454820Y-99595238D02*
X69454820Y-99357143D01*
X69454820Y-99357143D02*
X69407201Y-99261905D01*
X69407201Y-99261905D02*
X69359581Y-99214286D01*
X168454820Y-97785714D02*
X167454820Y-97785714D01*
X168454820Y-98357142D02*
X167883391Y-97928571D01*
X167454820Y-98357142D02*
X168026248Y-97785714D01*
X167454820Y-98690476D02*
X167454820Y-99357142D01*
X167454820Y-99357142D02*
X168454820Y-98928571D01*
X167454820Y-99642857D02*
X167454820Y-100309523D01*
X167454820Y-100309523D02*
X168454820Y-99880952D01*
X157454820Y-115785714D02*
X156454820Y-115785714D01*
X157454820Y-116357142D02*
X156883391Y-115928571D01*
X156454820Y-116357142D02*
X157026248Y-115785714D01*
X156454820Y-116690476D02*
X156454820Y-117357142D01*
X156454820Y-117357142D02*
X157454820Y-116928571D01*
X157454820Y-118261904D02*
X157454820Y-117690476D01*
X157454820Y-117976190D02*
X156454820Y-117976190D01*
X156454820Y-117976190D02*
X156597677Y-117880952D01*
X156597677Y-117880952D02*
X156692915Y-117785714D01*
X156692915Y-117785714D02*
X156740534Y-117690476D01*
X80454820Y-106785714D02*
X79454820Y-106785714D01*
X80454820Y-107357142D02*
X79883391Y-106928571D01*
X79454820Y-107357142D02*
X80026248Y-106785714D01*
X80454820Y-108309523D02*
X80454820Y-107738095D01*
X80454820Y-108023809D02*
X79454820Y-108023809D01*
X79454820Y-108023809D02*
X79597677Y-107928571D01*
X79597677Y-107928571D02*
X79692915Y-107833333D01*
X79692915Y-107833333D02*
X79740534Y-107738095D01*
X79788153Y-109166666D02*
X80454820Y-109166666D01*
X79407201Y-108928571D02*
X80121486Y-108690476D01*
X80121486Y-108690476D02*
X80121486Y-109309523D01*
X190454819Y-124785714D02*
X189454819Y-124785714D01*
X190454819Y-125357142D02*
X189883390Y-124928571D01*
X189454819Y-125357142D02*
X190026247Y-124785714D01*
X190454819Y-125833333D02*
X190454819Y-126023809D01*
X190454819Y-126023809D02*
X190407200Y-126119047D01*
X190407200Y-126119047D02*
X190359580Y-126166666D01*
X190359580Y-126166666D02*
X190216723Y-126261904D01*
X190216723Y-126261904D02*
X190026247Y-126309523D01*
X190026247Y-126309523D02*
X189645295Y-126309523D01*
X189645295Y-126309523D02*
X189550057Y-126261904D01*
X189550057Y-126261904D02*
X189502438Y-126214285D01*
X189502438Y-126214285D02*
X189454819Y-126119047D01*
X189454819Y-126119047D02*
X189454819Y-125928571D01*
X189454819Y-125928571D02*
X189502438Y-125833333D01*
X189502438Y-125833333D02*
X189550057Y-125785714D01*
X189550057Y-125785714D02*
X189645295Y-125738095D01*
X189645295Y-125738095D02*
X189883390Y-125738095D01*
X189883390Y-125738095D02*
X189978628Y-125785714D01*
X189978628Y-125785714D02*
X190026247Y-125833333D01*
X190026247Y-125833333D02*
X190073866Y-125928571D01*
X190073866Y-125928571D02*
X190073866Y-126119047D01*
X190073866Y-126119047D02*
X190026247Y-126214285D01*
X190026247Y-126214285D02*
X189978628Y-126261904D01*
X189978628Y-126261904D02*
X189883390Y-126309523D01*
X189454819Y-127166666D02*
X189454819Y-126976190D01*
X189454819Y-126976190D02*
X189502438Y-126880952D01*
X189502438Y-126880952D02*
X189550057Y-126833333D01*
X189550057Y-126833333D02*
X189692914Y-126738095D01*
X189692914Y-126738095D02*
X189883390Y-126690476D01*
X189883390Y-126690476D02*
X190264342Y-126690476D01*
X190264342Y-126690476D02*
X190359580Y-126738095D01*
X190359580Y-126738095D02*
X190407200Y-126785714D01*
X190407200Y-126785714D02*
X190454819Y-126880952D01*
X190454819Y-126880952D02*
X190454819Y-127071428D01*
X190454819Y-127071428D02*
X190407200Y-127166666D01*
X190407200Y-127166666D02*
X190359580Y-127214285D01*
X190359580Y-127214285D02*
X190264342Y-127261904D01*
X190264342Y-127261904D02*
X190026247Y-127261904D01*
X190026247Y-127261904D02*
X189931009Y-127214285D01*
X189931009Y-127214285D02*
X189883390Y-127166666D01*
X189883390Y-127166666D02*
X189835771Y-127071428D01*
X189835771Y-127071428D02*
X189835771Y-126880952D01*
X189835771Y-126880952D02*
X189883390Y-126785714D01*
X189883390Y-126785714D02*
X189931009Y-126738095D01*
X189931009Y-126738095D02*
X190026247Y-126690476D01*
X113454820Y-97785714D02*
X112454820Y-97785714D01*
X113454820Y-98357142D02*
X112883391Y-97928571D01*
X112454820Y-98357142D02*
X113026248Y-97785714D01*
X112454820Y-98690476D02*
X112454820Y-99309523D01*
X112454820Y-99309523D02*
X112835772Y-98976190D01*
X112835772Y-98976190D02*
X112835772Y-99119047D01*
X112835772Y-99119047D02*
X112883391Y-99214285D01*
X112883391Y-99214285D02*
X112931010Y-99261904D01*
X112931010Y-99261904D02*
X113026248Y-99309523D01*
X113026248Y-99309523D02*
X113264343Y-99309523D01*
X113264343Y-99309523D02*
X113359581Y-99261904D01*
X113359581Y-99261904D02*
X113407201Y-99214285D01*
X113407201Y-99214285D02*
X113454820Y-99119047D01*
X113454820Y-99119047D02*
X113454820Y-98833333D01*
X113454820Y-98833333D02*
X113407201Y-98738095D01*
X113407201Y-98738095D02*
X113359581Y-98690476D01*
X112454820Y-99642857D02*
X112454820Y-100309523D01*
X112454820Y-100309523D02*
X113454820Y-99880952D01*
X91454819Y-124785714D02*
X90454819Y-124785714D01*
X91454819Y-125357142D02*
X90883390Y-124928571D01*
X90454819Y-125357142D02*
X91026247Y-124785714D01*
X90550057Y-125738095D02*
X90502438Y-125785714D01*
X90502438Y-125785714D02*
X90454819Y-125880952D01*
X90454819Y-125880952D02*
X90454819Y-126119047D01*
X90454819Y-126119047D02*
X90502438Y-126214285D01*
X90502438Y-126214285D02*
X90550057Y-126261904D01*
X90550057Y-126261904D02*
X90645295Y-126309523D01*
X90645295Y-126309523D02*
X90740533Y-126309523D01*
X90740533Y-126309523D02*
X90883390Y-126261904D01*
X90883390Y-126261904D02*
X91454819Y-125690476D01*
X91454819Y-125690476D02*
X91454819Y-126309523D01*
X90788152Y-127166666D02*
X91454819Y-127166666D01*
X90407200Y-126928571D02*
X91121485Y-126690476D01*
X91121485Y-126690476D02*
X91121485Y-127309523D01*
X168454820Y-106785714D02*
X167454820Y-106785714D01*
X168454820Y-107357142D02*
X167883391Y-106928571D01*
X167454820Y-107357142D02*
X168026248Y-106785714D01*
X167454820Y-107690476D02*
X167454820Y-108357142D01*
X167454820Y-108357142D02*
X168454820Y-107928571D01*
X167883391Y-108880952D02*
X167835772Y-108785714D01*
X167835772Y-108785714D02*
X167788153Y-108738095D01*
X167788153Y-108738095D02*
X167692915Y-108690476D01*
X167692915Y-108690476D02*
X167645296Y-108690476D01*
X167645296Y-108690476D02*
X167550058Y-108738095D01*
X167550058Y-108738095D02*
X167502439Y-108785714D01*
X167502439Y-108785714D02*
X167454820Y-108880952D01*
X167454820Y-108880952D02*
X167454820Y-109071428D01*
X167454820Y-109071428D02*
X167502439Y-109166666D01*
X167502439Y-109166666D02*
X167550058Y-109214285D01*
X167550058Y-109214285D02*
X167645296Y-109261904D01*
X167645296Y-109261904D02*
X167692915Y-109261904D01*
X167692915Y-109261904D02*
X167788153Y-109214285D01*
X167788153Y-109214285D02*
X167835772Y-109166666D01*
X167835772Y-109166666D02*
X167883391Y-109071428D01*
X167883391Y-109071428D02*
X167883391Y-108880952D01*
X167883391Y-108880952D02*
X167931010Y-108785714D01*
X167931010Y-108785714D02*
X167978629Y-108738095D01*
X167978629Y-108738095D02*
X168073867Y-108690476D01*
X168073867Y-108690476D02*
X168264343Y-108690476D01*
X168264343Y-108690476D02*
X168359581Y-108738095D01*
X168359581Y-108738095D02*
X168407201Y-108785714D01*
X168407201Y-108785714D02*
X168454820Y-108880952D01*
X168454820Y-108880952D02*
X168454820Y-109071428D01*
X168454820Y-109071428D02*
X168407201Y-109166666D01*
X168407201Y-109166666D02*
X168359581Y-109214285D01*
X168359581Y-109214285D02*
X168264343Y-109261904D01*
X168264343Y-109261904D02*
X168073867Y-109261904D01*
X168073867Y-109261904D02*
X167978629Y-109214285D01*
X167978629Y-109214285D02*
X167931010Y-109166666D01*
X167931010Y-109166666D02*
X167883391Y-109071428D01*
X113454819Y-124785714D02*
X112454819Y-124785714D01*
X113454819Y-125357142D02*
X112883390Y-124928571D01*
X112454819Y-125357142D02*
X113026247Y-124785714D01*
X112788152Y-126214285D02*
X113454819Y-126214285D01*
X112407200Y-125976190D02*
X113121485Y-125738095D01*
X113121485Y-125738095D02*
X113121485Y-126357142D01*
X112454819Y-126928571D02*
X112454819Y-127023809D01*
X112454819Y-127023809D02*
X112502438Y-127119047D01*
X112502438Y-127119047D02*
X112550057Y-127166666D01*
X112550057Y-127166666D02*
X112645295Y-127214285D01*
X112645295Y-127214285D02*
X112835771Y-127261904D01*
X112835771Y-127261904D02*
X113073866Y-127261904D01*
X113073866Y-127261904D02*
X113264342Y-127214285D01*
X113264342Y-127214285D02*
X113359580Y-127166666D01*
X113359580Y-127166666D02*
X113407200Y-127119047D01*
X113407200Y-127119047D02*
X113454819Y-127023809D01*
X113454819Y-127023809D02*
X113454819Y-126928571D01*
X113454819Y-126928571D02*
X113407200Y-126833333D01*
X113407200Y-126833333D02*
X113359580Y-126785714D01*
X113359580Y-126785714D02*
X113264342Y-126738095D01*
X113264342Y-126738095D02*
X113073866Y-126690476D01*
X113073866Y-126690476D02*
X112835771Y-126690476D01*
X112835771Y-126690476D02*
X112645295Y-126738095D01*
X112645295Y-126738095D02*
X112550057Y-126785714D01*
X112550057Y-126785714D02*
X112502438Y-126833333D01*
X112502438Y-126833333D02*
X112454819Y-126928571D01*
X190454820Y-106785714D02*
X189454820Y-106785714D01*
X190454820Y-107357142D02*
X189883391Y-106928571D01*
X189454820Y-107357142D02*
X190026248Y-106785714D01*
X190454820Y-107833333D02*
X190454820Y-108023809D01*
X190454820Y-108023809D02*
X190407201Y-108119047D01*
X190407201Y-108119047D02*
X190359581Y-108166666D01*
X190359581Y-108166666D02*
X190216724Y-108261904D01*
X190216724Y-108261904D02*
X190026248Y-108309523D01*
X190026248Y-108309523D02*
X189645296Y-108309523D01*
X189645296Y-108309523D02*
X189550058Y-108261904D01*
X189550058Y-108261904D02*
X189502439Y-108214285D01*
X189502439Y-108214285D02*
X189454820Y-108119047D01*
X189454820Y-108119047D02*
X189454820Y-107928571D01*
X189454820Y-107928571D02*
X189502439Y-107833333D01*
X189502439Y-107833333D02*
X189550058Y-107785714D01*
X189550058Y-107785714D02*
X189645296Y-107738095D01*
X189645296Y-107738095D02*
X189883391Y-107738095D01*
X189883391Y-107738095D02*
X189978629Y-107785714D01*
X189978629Y-107785714D02*
X190026248Y-107833333D01*
X190026248Y-107833333D02*
X190073867Y-107928571D01*
X190073867Y-107928571D02*
X190073867Y-108119047D01*
X190073867Y-108119047D02*
X190026248Y-108214285D01*
X190026248Y-108214285D02*
X189978629Y-108261904D01*
X189978629Y-108261904D02*
X189883391Y-108309523D01*
X189788153Y-109166666D02*
X190454820Y-109166666D01*
X189407201Y-108928571D02*
X190121486Y-108690476D01*
X190121486Y-108690476D02*
X190121486Y-109309523D01*
X168454820Y-115785714D02*
X167454820Y-115785714D01*
X168454820Y-116357142D02*
X167883391Y-115928571D01*
X167454820Y-116357142D02*
X168026248Y-115785714D01*
X167454820Y-116690476D02*
X167454820Y-117357142D01*
X167454820Y-117357142D02*
X168454820Y-116928571D01*
X168454820Y-117785714D02*
X168454820Y-117976190D01*
X168454820Y-117976190D02*
X168407201Y-118071428D01*
X168407201Y-118071428D02*
X168359581Y-118119047D01*
X168359581Y-118119047D02*
X168216724Y-118214285D01*
X168216724Y-118214285D02*
X168026248Y-118261904D01*
X168026248Y-118261904D02*
X167645296Y-118261904D01*
X167645296Y-118261904D02*
X167550058Y-118214285D01*
X167550058Y-118214285D02*
X167502439Y-118166666D01*
X167502439Y-118166666D02*
X167454820Y-118071428D01*
X167454820Y-118071428D02*
X167454820Y-117880952D01*
X167454820Y-117880952D02*
X167502439Y-117785714D01*
X167502439Y-117785714D02*
X167550058Y-117738095D01*
X167550058Y-117738095D02*
X167645296Y-117690476D01*
X167645296Y-117690476D02*
X167883391Y-117690476D01*
X167883391Y-117690476D02*
X167978629Y-117738095D01*
X167978629Y-117738095D02*
X168026248Y-117785714D01*
X168026248Y-117785714D02*
X168073867Y-117880952D01*
X168073867Y-117880952D02*
X168073867Y-118071428D01*
X168073867Y-118071428D02*
X168026248Y-118166666D01*
X168026248Y-118166666D02*
X167978629Y-118214285D01*
X167978629Y-118214285D02*
X167883391Y-118261904D01*
X157454820Y-106785714D02*
X156454820Y-106785714D01*
X157454820Y-107357142D02*
X156883391Y-106928571D01*
X156454820Y-107357142D02*
X157026248Y-106785714D01*
X156454820Y-107690476D02*
X156454820Y-108357142D01*
X156454820Y-108357142D02*
X157454820Y-107928571D01*
X156454820Y-108928571D02*
X156454820Y-109023809D01*
X156454820Y-109023809D02*
X156502439Y-109119047D01*
X156502439Y-109119047D02*
X156550058Y-109166666D01*
X156550058Y-109166666D02*
X156645296Y-109214285D01*
X156645296Y-109214285D02*
X156835772Y-109261904D01*
X156835772Y-109261904D02*
X157073867Y-109261904D01*
X157073867Y-109261904D02*
X157264343Y-109214285D01*
X157264343Y-109214285D02*
X157359581Y-109166666D01*
X157359581Y-109166666D02*
X157407201Y-109119047D01*
X157407201Y-109119047D02*
X157454820Y-109023809D01*
X157454820Y-109023809D02*
X157454820Y-108928571D01*
X157454820Y-108928571D02*
X157407201Y-108833333D01*
X157407201Y-108833333D02*
X157359581Y-108785714D01*
X157359581Y-108785714D02*
X157264343Y-108738095D01*
X157264343Y-108738095D02*
X157073867Y-108690476D01*
X157073867Y-108690476D02*
X156835772Y-108690476D01*
X156835772Y-108690476D02*
X156645296Y-108738095D01*
X156645296Y-108738095D02*
X156550058Y-108785714D01*
X156550058Y-108785714D02*
X156502439Y-108833333D01*
X156502439Y-108833333D02*
X156454820Y-108928571D01*
X213850833Y-136444819D02*
X213850833Y-137159104D01*
X213850833Y-137159104D02*
X213898452Y-137301961D01*
X213898452Y-137301961D02*
X213993690Y-137397200D01*
X213993690Y-137397200D02*
X214136547Y-137444819D01*
X214136547Y-137444819D02*
X214231785Y-137444819D01*
X212850833Y-137444819D02*
X213422261Y-137444819D01*
X213136547Y-137444819D02*
X213136547Y-136444819D01*
X213136547Y-136444819D02*
X213231785Y-136587676D01*
X213231785Y-136587676D02*
X213327023Y-136682914D01*
X213327023Y-136682914D02*
X213422261Y-136730533D01*
X102454820Y-115785714D02*
X101454820Y-115785714D01*
X102454820Y-116357142D02*
X101883391Y-115928571D01*
X101454820Y-116357142D02*
X102026248Y-115785714D01*
X101454820Y-116690476D02*
X101454820Y-117309523D01*
X101454820Y-117309523D02*
X101835772Y-116976190D01*
X101835772Y-116976190D02*
X101835772Y-117119047D01*
X101835772Y-117119047D02*
X101883391Y-117214285D01*
X101883391Y-117214285D02*
X101931010Y-117261904D01*
X101931010Y-117261904D02*
X102026248Y-117309523D01*
X102026248Y-117309523D02*
X102264343Y-117309523D01*
X102264343Y-117309523D02*
X102359581Y-117261904D01*
X102359581Y-117261904D02*
X102407201Y-117214285D01*
X102407201Y-117214285D02*
X102454820Y-117119047D01*
X102454820Y-117119047D02*
X102454820Y-116833333D01*
X102454820Y-116833333D02*
X102407201Y-116738095D01*
X102407201Y-116738095D02*
X102359581Y-116690476D01*
X102454820Y-118261904D02*
X102454820Y-117690476D01*
X102454820Y-117976190D02*
X101454820Y-117976190D01*
X101454820Y-117976190D02*
X101597677Y-117880952D01*
X101597677Y-117880952D02*
X101692915Y-117785714D01*
X101692915Y-117785714D02*
X101740534Y-117690476D01*
X102454820Y-97785714D02*
X101454820Y-97785714D01*
X102454820Y-98357142D02*
X101883391Y-97928571D01*
X101454820Y-98357142D02*
X102026248Y-97785714D01*
X101550058Y-98738095D02*
X101502439Y-98785714D01*
X101502439Y-98785714D02*
X101454820Y-98880952D01*
X101454820Y-98880952D02*
X101454820Y-99119047D01*
X101454820Y-99119047D02*
X101502439Y-99214285D01*
X101502439Y-99214285D02*
X101550058Y-99261904D01*
X101550058Y-99261904D02*
X101645296Y-99309523D01*
X101645296Y-99309523D02*
X101740534Y-99309523D01*
X101740534Y-99309523D02*
X101883391Y-99261904D01*
X101883391Y-99261904D02*
X102454820Y-98690476D01*
X102454820Y-98690476D02*
X102454820Y-99309523D01*
X102454820Y-99785714D02*
X102454820Y-99976190D01*
X102454820Y-99976190D02*
X102407201Y-100071428D01*
X102407201Y-100071428D02*
X102359581Y-100119047D01*
X102359581Y-100119047D02*
X102216724Y-100214285D01*
X102216724Y-100214285D02*
X102026248Y-100261904D01*
X102026248Y-100261904D02*
X101645296Y-100261904D01*
X101645296Y-100261904D02*
X101550058Y-100214285D01*
X101550058Y-100214285D02*
X101502439Y-100166666D01*
X101502439Y-100166666D02*
X101454820Y-100071428D01*
X101454820Y-100071428D02*
X101454820Y-99880952D01*
X101454820Y-99880952D02*
X101502439Y-99785714D01*
X101502439Y-99785714D02*
X101550058Y-99738095D01*
X101550058Y-99738095D02*
X101645296Y-99690476D01*
X101645296Y-99690476D02*
X101883391Y-99690476D01*
X101883391Y-99690476D02*
X101978629Y-99738095D01*
X101978629Y-99738095D02*
X102026248Y-99785714D01*
X102026248Y-99785714D02*
X102073867Y-99880952D01*
X102073867Y-99880952D02*
X102073867Y-100071428D01*
X102073867Y-100071428D02*
X102026248Y-100166666D01*
X102026248Y-100166666D02*
X101978629Y-100214285D01*
X101978629Y-100214285D02*
X101883391Y-100261904D01*
X146454820Y-97785714D02*
X145454820Y-97785714D01*
X146454820Y-98357142D02*
X145883391Y-97928571D01*
X145454820Y-98357142D02*
X146026248Y-97785714D01*
X145454820Y-99214285D02*
X145454820Y-99023809D01*
X145454820Y-99023809D02*
X145502439Y-98928571D01*
X145502439Y-98928571D02*
X145550058Y-98880952D01*
X145550058Y-98880952D02*
X145692915Y-98785714D01*
X145692915Y-98785714D02*
X145883391Y-98738095D01*
X145883391Y-98738095D02*
X146264343Y-98738095D01*
X146264343Y-98738095D02*
X146359581Y-98785714D01*
X146359581Y-98785714D02*
X146407201Y-98833333D01*
X146407201Y-98833333D02*
X146454820Y-98928571D01*
X146454820Y-98928571D02*
X146454820Y-99119047D01*
X146454820Y-99119047D02*
X146407201Y-99214285D01*
X146407201Y-99214285D02*
X146359581Y-99261904D01*
X146359581Y-99261904D02*
X146264343Y-99309523D01*
X146264343Y-99309523D02*
X146026248Y-99309523D01*
X146026248Y-99309523D02*
X145931010Y-99261904D01*
X145931010Y-99261904D02*
X145883391Y-99214285D01*
X145883391Y-99214285D02*
X145835772Y-99119047D01*
X145835772Y-99119047D02*
X145835772Y-98928571D01*
X145835772Y-98928571D02*
X145883391Y-98833333D01*
X145883391Y-98833333D02*
X145931010Y-98785714D01*
X145931010Y-98785714D02*
X146026248Y-98738095D01*
X146454820Y-100261904D02*
X146454820Y-99690476D01*
X146454820Y-99976190D02*
X145454820Y-99976190D01*
X145454820Y-99976190D02*
X145597677Y-99880952D01*
X145597677Y-99880952D02*
X145692915Y-99785714D01*
X145692915Y-99785714D02*
X145740534Y-99690476D01*
X157454820Y-97785714D02*
X156454820Y-97785714D01*
X157454820Y-98357142D02*
X156883391Y-97928571D01*
X156454820Y-98357142D02*
X157026248Y-97785714D01*
X156454820Y-99214285D02*
X156454820Y-99023809D01*
X156454820Y-99023809D02*
X156502439Y-98928571D01*
X156502439Y-98928571D02*
X156550058Y-98880952D01*
X156550058Y-98880952D02*
X156692915Y-98785714D01*
X156692915Y-98785714D02*
X156883391Y-98738095D01*
X156883391Y-98738095D02*
X157264343Y-98738095D01*
X157264343Y-98738095D02*
X157359581Y-98785714D01*
X157359581Y-98785714D02*
X157407201Y-98833333D01*
X157407201Y-98833333D02*
X157454820Y-98928571D01*
X157454820Y-98928571D02*
X157454820Y-99119047D01*
X157454820Y-99119047D02*
X157407201Y-99214285D01*
X157407201Y-99214285D02*
X157359581Y-99261904D01*
X157359581Y-99261904D02*
X157264343Y-99309523D01*
X157264343Y-99309523D02*
X157026248Y-99309523D01*
X157026248Y-99309523D02*
X156931010Y-99261904D01*
X156931010Y-99261904D02*
X156883391Y-99214285D01*
X156883391Y-99214285D02*
X156835772Y-99119047D01*
X156835772Y-99119047D02*
X156835772Y-98928571D01*
X156835772Y-98928571D02*
X156883391Y-98833333D01*
X156883391Y-98833333D02*
X156931010Y-98785714D01*
X156931010Y-98785714D02*
X157026248Y-98738095D01*
X157454820Y-99785714D02*
X157454820Y-99976190D01*
X157454820Y-99976190D02*
X157407201Y-100071428D01*
X157407201Y-100071428D02*
X157359581Y-100119047D01*
X157359581Y-100119047D02*
X157216724Y-100214285D01*
X157216724Y-100214285D02*
X157026248Y-100261904D01*
X157026248Y-100261904D02*
X156645296Y-100261904D01*
X156645296Y-100261904D02*
X156550058Y-100214285D01*
X156550058Y-100214285D02*
X156502439Y-100166666D01*
X156502439Y-100166666D02*
X156454820Y-100071428D01*
X156454820Y-100071428D02*
X156454820Y-99880952D01*
X156454820Y-99880952D02*
X156502439Y-99785714D01*
X156502439Y-99785714D02*
X156550058Y-99738095D01*
X156550058Y-99738095D02*
X156645296Y-99690476D01*
X156645296Y-99690476D02*
X156883391Y-99690476D01*
X156883391Y-99690476D02*
X156978629Y-99738095D01*
X156978629Y-99738095D02*
X157026248Y-99785714D01*
X157026248Y-99785714D02*
X157073867Y-99880952D01*
X157073867Y-99880952D02*
X157073867Y-100071428D01*
X157073867Y-100071428D02*
X157026248Y-100166666D01*
X157026248Y-100166666D02*
X156978629Y-100214285D01*
X156978629Y-100214285D02*
X156883391Y-100261904D01*
X102454819Y-124785714D02*
X101454819Y-124785714D01*
X102454819Y-125357142D02*
X101883390Y-124928571D01*
X101454819Y-125357142D02*
X102026247Y-124785714D01*
X101454819Y-125690476D02*
X101454819Y-126309523D01*
X101454819Y-126309523D02*
X101835771Y-125976190D01*
X101835771Y-125976190D02*
X101835771Y-126119047D01*
X101835771Y-126119047D02*
X101883390Y-126214285D01*
X101883390Y-126214285D02*
X101931009Y-126261904D01*
X101931009Y-126261904D02*
X102026247Y-126309523D01*
X102026247Y-126309523D02*
X102264342Y-126309523D01*
X102264342Y-126309523D02*
X102359580Y-126261904D01*
X102359580Y-126261904D02*
X102407200Y-126214285D01*
X102407200Y-126214285D02*
X102454819Y-126119047D01*
X102454819Y-126119047D02*
X102454819Y-125833333D01*
X102454819Y-125833333D02*
X102407200Y-125738095D01*
X102407200Y-125738095D02*
X102359580Y-125690476D01*
X101550057Y-126690476D02*
X101502438Y-126738095D01*
X101502438Y-126738095D02*
X101454819Y-126833333D01*
X101454819Y-126833333D02*
X101454819Y-127071428D01*
X101454819Y-127071428D02*
X101502438Y-127166666D01*
X101502438Y-127166666D02*
X101550057Y-127214285D01*
X101550057Y-127214285D02*
X101645295Y-127261904D01*
X101645295Y-127261904D02*
X101740533Y-127261904D01*
X101740533Y-127261904D02*
X101883390Y-127214285D01*
X101883390Y-127214285D02*
X102454819Y-126642857D01*
X102454819Y-126642857D02*
X102454819Y-127261904D01*
X168454819Y-124785714D02*
X167454819Y-124785714D01*
X168454819Y-125357142D02*
X167883390Y-124928571D01*
X167454819Y-125357142D02*
X168026247Y-124785714D01*
X167883390Y-125928571D02*
X167835771Y-125833333D01*
X167835771Y-125833333D02*
X167788152Y-125785714D01*
X167788152Y-125785714D02*
X167692914Y-125738095D01*
X167692914Y-125738095D02*
X167645295Y-125738095D01*
X167645295Y-125738095D02*
X167550057Y-125785714D01*
X167550057Y-125785714D02*
X167502438Y-125833333D01*
X167502438Y-125833333D02*
X167454819Y-125928571D01*
X167454819Y-125928571D02*
X167454819Y-126119047D01*
X167454819Y-126119047D02*
X167502438Y-126214285D01*
X167502438Y-126214285D02*
X167550057Y-126261904D01*
X167550057Y-126261904D02*
X167645295Y-126309523D01*
X167645295Y-126309523D02*
X167692914Y-126309523D01*
X167692914Y-126309523D02*
X167788152Y-126261904D01*
X167788152Y-126261904D02*
X167835771Y-126214285D01*
X167835771Y-126214285D02*
X167883390Y-126119047D01*
X167883390Y-126119047D02*
X167883390Y-125928571D01*
X167883390Y-125928571D02*
X167931009Y-125833333D01*
X167931009Y-125833333D02*
X167978628Y-125785714D01*
X167978628Y-125785714D02*
X168073866Y-125738095D01*
X168073866Y-125738095D02*
X168264342Y-125738095D01*
X168264342Y-125738095D02*
X168359580Y-125785714D01*
X168359580Y-125785714D02*
X168407200Y-125833333D01*
X168407200Y-125833333D02*
X168454819Y-125928571D01*
X168454819Y-125928571D02*
X168454819Y-126119047D01*
X168454819Y-126119047D02*
X168407200Y-126214285D01*
X168407200Y-126214285D02*
X168359580Y-126261904D01*
X168359580Y-126261904D02*
X168264342Y-126309523D01*
X168264342Y-126309523D02*
X168073866Y-126309523D01*
X168073866Y-126309523D02*
X167978628Y-126261904D01*
X167978628Y-126261904D02*
X167931009Y-126214285D01*
X167931009Y-126214285D02*
X167883390Y-126119047D01*
X167454819Y-126928571D02*
X167454819Y-127023809D01*
X167454819Y-127023809D02*
X167502438Y-127119047D01*
X167502438Y-127119047D02*
X167550057Y-127166666D01*
X167550057Y-127166666D02*
X167645295Y-127214285D01*
X167645295Y-127214285D02*
X167835771Y-127261904D01*
X167835771Y-127261904D02*
X168073866Y-127261904D01*
X168073866Y-127261904D02*
X168264342Y-127214285D01*
X168264342Y-127214285D02*
X168359580Y-127166666D01*
X168359580Y-127166666D02*
X168407200Y-127119047D01*
X168407200Y-127119047D02*
X168454819Y-127023809D01*
X168454819Y-127023809D02*
X168454819Y-126928571D01*
X168454819Y-126928571D02*
X168407200Y-126833333D01*
X168407200Y-126833333D02*
X168359580Y-126785714D01*
X168359580Y-126785714D02*
X168264342Y-126738095D01*
X168264342Y-126738095D02*
X168073866Y-126690476D01*
X168073866Y-126690476D02*
X167835771Y-126690476D01*
X167835771Y-126690476D02*
X167645295Y-126738095D01*
X167645295Y-126738095D02*
X167550057Y-126785714D01*
X167550057Y-126785714D02*
X167502438Y-126833333D01*
X167502438Y-126833333D02*
X167454819Y-126928571D01*
X146454820Y-106785714D02*
X145454820Y-106785714D01*
X146454820Y-107357142D02*
X145883391Y-106928571D01*
X145454820Y-107357142D02*
X146026248Y-106785714D01*
X145454820Y-108214285D02*
X145454820Y-108023809D01*
X145454820Y-108023809D02*
X145502439Y-107928571D01*
X145502439Y-107928571D02*
X145550058Y-107880952D01*
X145550058Y-107880952D02*
X145692915Y-107785714D01*
X145692915Y-107785714D02*
X145883391Y-107738095D01*
X145883391Y-107738095D02*
X146264343Y-107738095D01*
X146264343Y-107738095D02*
X146359581Y-107785714D01*
X146359581Y-107785714D02*
X146407201Y-107833333D01*
X146407201Y-107833333D02*
X146454820Y-107928571D01*
X146454820Y-107928571D02*
X146454820Y-108119047D01*
X146454820Y-108119047D02*
X146407201Y-108214285D01*
X146407201Y-108214285D02*
X146359581Y-108261904D01*
X146359581Y-108261904D02*
X146264343Y-108309523D01*
X146264343Y-108309523D02*
X146026248Y-108309523D01*
X146026248Y-108309523D02*
X145931010Y-108261904D01*
X145931010Y-108261904D02*
X145883391Y-108214285D01*
X145883391Y-108214285D02*
X145835772Y-108119047D01*
X145835772Y-108119047D02*
X145835772Y-107928571D01*
X145835772Y-107928571D02*
X145883391Y-107833333D01*
X145883391Y-107833333D02*
X145931010Y-107785714D01*
X145931010Y-107785714D02*
X146026248Y-107738095D01*
X145550058Y-108690476D02*
X145502439Y-108738095D01*
X145502439Y-108738095D02*
X145454820Y-108833333D01*
X145454820Y-108833333D02*
X145454820Y-109071428D01*
X145454820Y-109071428D02*
X145502439Y-109166666D01*
X145502439Y-109166666D02*
X145550058Y-109214285D01*
X145550058Y-109214285D02*
X145645296Y-109261904D01*
X145645296Y-109261904D02*
X145740534Y-109261904D01*
X145740534Y-109261904D02*
X145883391Y-109214285D01*
X145883391Y-109214285D02*
X146454820Y-108642857D01*
X146454820Y-108642857D02*
X146454820Y-109261904D01*
X69454819Y-125261905D02*
X68454819Y-125261905D01*
X69454819Y-125833333D02*
X68883390Y-125404762D01*
X68454819Y-125833333D02*
X69026247Y-125261905D01*
X68883390Y-126404762D02*
X68835771Y-126309524D01*
X68835771Y-126309524D02*
X68788152Y-126261905D01*
X68788152Y-126261905D02*
X68692914Y-126214286D01*
X68692914Y-126214286D02*
X68645295Y-126214286D01*
X68645295Y-126214286D02*
X68550057Y-126261905D01*
X68550057Y-126261905D02*
X68502438Y-126309524D01*
X68502438Y-126309524D02*
X68454819Y-126404762D01*
X68454819Y-126404762D02*
X68454819Y-126595238D01*
X68454819Y-126595238D02*
X68502438Y-126690476D01*
X68502438Y-126690476D02*
X68550057Y-126738095D01*
X68550057Y-126738095D02*
X68645295Y-126785714D01*
X68645295Y-126785714D02*
X68692914Y-126785714D01*
X68692914Y-126785714D02*
X68788152Y-126738095D01*
X68788152Y-126738095D02*
X68835771Y-126690476D01*
X68835771Y-126690476D02*
X68883390Y-126595238D01*
X68883390Y-126595238D02*
X68883390Y-126404762D01*
X68883390Y-126404762D02*
X68931009Y-126309524D01*
X68931009Y-126309524D02*
X68978628Y-126261905D01*
X68978628Y-126261905D02*
X69073866Y-126214286D01*
X69073866Y-126214286D02*
X69264342Y-126214286D01*
X69264342Y-126214286D02*
X69359580Y-126261905D01*
X69359580Y-126261905D02*
X69407200Y-126309524D01*
X69407200Y-126309524D02*
X69454819Y-126404762D01*
X69454819Y-126404762D02*
X69454819Y-126595238D01*
X69454819Y-126595238D02*
X69407200Y-126690476D01*
X69407200Y-126690476D02*
X69359580Y-126738095D01*
X69359580Y-126738095D02*
X69264342Y-126785714D01*
X69264342Y-126785714D02*
X69073866Y-126785714D01*
X69073866Y-126785714D02*
X68978628Y-126738095D01*
X68978628Y-126738095D02*
X68931009Y-126690476D01*
X68931009Y-126690476D02*
X68883390Y-126595238D01*
X157454819Y-124785714D02*
X156454819Y-124785714D01*
X157454819Y-125357142D02*
X156883390Y-124928571D01*
X156454819Y-125357142D02*
X157026247Y-124785714D01*
X156454819Y-125690476D02*
X156454819Y-126357142D01*
X156454819Y-126357142D02*
X157454819Y-125928571D01*
X156550057Y-126690476D02*
X156502438Y-126738095D01*
X156502438Y-126738095D02*
X156454819Y-126833333D01*
X156454819Y-126833333D02*
X156454819Y-127071428D01*
X156454819Y-127071428D02*
X156502438Y-127166666D01*
X156502438Y-127166666D02*
X156550057Y-127214285D01*
X156550057Y-127214285D02*
X156645295Y-127261904D01*
X156645295Y-127261904D02*
X156740533Y-127261904D01*
X156740533Y-127261904D02*
X156883390Y-127214285D01*
X156883390Y-127214285D02*
X157454819Y-126642857D01*
X157454819Y-126642857D02*
X157454819Y-127261904D01*
X179454820Y-97785714D02*
X178454820Y-97785714D01*
X179454820Y-98357142D02*
X178883391Y-97928571D01*
X178454820Y-98357142D02*
X179026248Y-97785714D01*
X178883391Y-98928571D02*
X178835772Y-98833333D01*
X178835772Y-98833333D02*
X178788153Y-98785714D01*
X178788153Y-98785714D02*
X178692915Y-98738095D01*
X178692915Y-98738095D02*
X178645296Y-98738095D01*
X178645296Y-98738095D02*
X178550058Y-98785714D01*
X178550058Y-98785714D02*
X178502439Y-98833333D01*
X178502439Y-98833333D02*
X178454820Y-98928571D01*
X178454820Y-98928571D02*
X178454820Y-99119047D01*
X178454820Y-99119047D02*
X178502439Y-99214285D01*
X178502439Y-99214285D02*
X178550058Y-99261904D01*
X178550058Y-99261904D02*
X178645296Y-99309523D01*
X178645296Y-99309523D02*
X178692915Y-99309523D01*
X178692915Y-99309523D02*
X178788153Y-99261904D01*
X178788153Y-99261904D02*
X178835772Y-99214285D01*
X178835772Y-99214285D02*
X178883391Y-99119047D01*
X178883391Y-99119047D02*
X178883391Y-98928571D01*
X178883391Y-98928571D02*
X178931010Y-98833333D01*
X178931010Y-98833333D02*
X178978629Y-98785714D01*
X178978629Y-98785714D02*
X179073867Y-98738095D01*
X179073867Y-98738095D02*
X179264343Y-98738095D01*
X179264343Y-98738095D02*
X179359581Y-98785714D01*
X179359581Y-98785714D02*
X179407201Y-98833333D01*
X179407201Y-98833333D02*
X179454820Y-98928571D01*
X179454820Y-98928571D02*
X179454820Y-99119047D01*
X179454820Y-99119047D02*
X179407201Y-99214285D01*
X179407201Y-99214285D02*
X179359581Y-99261904D01*
X179359581Y-99261904D02*
X179264343Y-99309523D01*
X179264343Y-99309523D02*
X179073867Y-99309523D01*
X179073867Y-99309523D02*
X178978629Y-99261904D01*
X178978629Y-99261904D02*
X178931010Y-99214285D01*
X178931010Y-99214285D02*
X178883391Y-99119047D01*
X178454820Y-100214285D02*
X178454820Y-99738095D01*
X178454820Y-99738095D02*
X178931010Y-99690476D01*
X178931010Y-99690476D02*
X178883391Y-99738095D01*
X178883391Y-99738095D02*
X178835772Y-99833333D01*
X178835772Y-99833333D02*
X178835772Y-100071428D01*
X178835772Y-100071428D02*
X178883391Y-100166666D01*
X178883391Y-100166666D02*
X178931010Y-100214285D01*
X178931010Y-100214285D02*
X179026248Y-100261904D01*
X179026248Y-100261904D02*
X179264343Y-100261904D01*
X179264343Y-100261904D02*
X179359581Y-100214285D01*
X179359581Y-100214285D02*
X179407201Y-100166666D01*
X179407201Y-100166666D02*
X179454820Y-100071428D01*
X179454820Y-100071428D02*
X179454820Y-99833333D01*
X179454820Y-99833333D02*
X179407201Y-99738095D01*
X179407201Y-99738095D02*
X179359581Y-99690476D01*
X69454820Y-116261905D02*
X68454820Y-116261905D01*
X69454820Y-116833333D02*
X68883391Y-116404762D01*
X68454820Y-116833333D02*
X69026248Y-116261905D01*
X68454820Y-117166667D02*
X68454820Y-117833333D01*
X68454820Y-117833333D02*
X69454820Y-117404762D01*
X69454820Y-107261905D02*
X68454820Y-107261905D01*
X69454820Y-107833333D02*
X68883391Y-107404762D01*
X68454820Y-107833333D02*
X69026248Y-107261905D01*
X68454820Y-108690476D02*
X68454820Y-108500000D01*
X68454820Y-108500000D02*
X68502439Y-108404762D01*
X68502439Y-108404762D02*
X68550058Y-108357143D01*
X68550058Y-108357143D02*
X68692915Y-108261905D01*
X68692915Y-108261905D02*
X68883391Y-108214286D01*
X68883391Y-108214286D02*
X69264343Y-108214286D01*
X69264343Y-108214286D02*
X69359581Y-108261905D01*
X69359581Y-108261905D02*
X69407201Y-108309524D01*
X69407201Y-108309524D02*
X69454820Y-108404762D01*
X69454820Y-108404762D02*
X69454820Y-108595238D01*
X69454820Y-108595238D02*
X69407201Y-108690476D01*
X69407201Y-108690476D02*
X69359581Y-108738095D01*
X69359581Y-108738095D02*
X69264343Y-108785714D01*
X69264343Y-108785714D02*
X69026248Y-108785714D01*
X69026248Y-108785714D02*
X68931010Y-108738095D01*
X68931010Y-108738095D02*
X68883391Y-108690476D01*
X68883391Y-108690476D02*
X68835772Y-108595238D01*
X68835772Y-108595238D02*
X68835772Y-108404762D01*
X68835772Y-108404762D02*
X68883391Y-108309524D01*
X68883391Y-108309524D02*
X68931010Y-108261905D01*
X68931010Y-108261905D02*
X69026248Y-108214286D01*
X91454820Y-97785714D02*
X90454820Y-97785714D01*
X91454820Y-98357142D02*
X90883391Y-97928571D01*
X90454820Y-98357142D02*
X91026248Y-97785714D01*
X90550058Y-98738095D02*
X90502439Y-98785714D01*
X90502439Y-98785714D02*
X90454820Y-98880952D01*
X90454820Y-98880952D02*
X90454820Y-99119047D01*
X90454820Y-99119047D02*
X90502439Y-99214285D01*
X90502439Y-99214285D02*
X90550058Y-99261904D01*
X90550058Y-99261904D02*
X90645296Y-99309523D01*
X90645296Y-99309523D02*
X90740534Y-99309523D01*
X90740534Y-99309523D02*
X90883391Y-99261904D01*
X90883391Y-99261904D02*
X91454820Y-98690476D01*
X91454820Y-98690476D02*
X91454820Y-99309523D01*
X91454820Y-100261904D02*
X91454820Y-99690476D01*
X91454820Y-99976190D02*
X90454820Y-99976190D01*
X90454820Y-99976190D02*
X90597677Y-99880952D01*
X90597677Y-99880952D02*
X90692915Y-99785714D01*
X90692915Y-99785714D02*
X90740534Y-99690476D01*
X190454820Y-115785714D02*
X189454820Y-115785714D01*
X190454820Y-116357142D02*
X189883391Y-115928571D01*
X189454820Y-116357142D02*
X190026248Y-115785714D01*
X190454820Y-116833333D02*
X190454820Y-117023809D01*
X190454820Y-117023809D02*
X190407201Y-117119047D01*
X190407201Y-117119047D02*
X190359581Y-117166666D01*
X190359581Y-117166666D02*
X190216724Y-117261904D01*
X190216724Y-117261904D02*
X190026248Y-117309523D01*
X190026248Y-117309523D02*
X189645296Y-117309523D01*
X189645296Y-117309523D02*
X189550058Y-117261904D01*
X189550058Y-117261904D02*
X189502439Y-117214285D01*
X189502439Y-117214285D02*
X189454820Y-117119047D01*
X189454820Y-117119047D02*
X189454820Y-116928571D01*
X189454820Y-116928571D02*
X189502439Y-116833333D01*
X189502439Y-116833333D02*
X189550058Y-116785714D01*
X189550058Y-116785714D02*
X189645296Y-116738095D01*
X189645296Y-116738095D02*
X189883391Y-116738095D01*
X189883391Y-116738095D02*
X189978629Y-116785714D01*
X189978629Y-116785714D02*
X190026248Y-116833333D01*
X190026248Y-116833333D02*
X190073867Y-116928571D01*
X190073867Y-116928571D02*
X190073867Y-117119047D01*
X190073867Y-117119047D02*
X190026248Y-117214285D01*
X190026248Y-117214285D02*
X189978629Y-117261904D01*
X189978629Y-117261904D02*
X189883391Y-117309523D01*
X189454820Y-118214285D02*
X189454820Y-117738095D01*
X189454820Y-117738095D02*
X189931010Y-117690476D01*
X189931010Y-117690476D02*
X189883391Y-117738095D01*
X189883391Y-117738095D02*
X189835772Y-117833333D01*
X189835772Y-117833333D02*
X189835772Y-118071428D01*
X189835772Y-118071428D02*
X189883391Y-118166666D01*
X189883391Y-118166666D02*
X189931010Y-118214285D01*
X189931010Y-118214285D02*
X190026248Y-118261904D01*
X190026248Y-118261904D02*
X190264343Y-118261904D01*
X190264343Y-118261904D02*
X190359581Y-118214285D01*
X190359581Y-118214285D02*
X190407201Y-118166666D01*
X190407201Y-118166666D02*
X190454820Y-118071428D01*
X190454820Y-118071428D02*
X190454820Y-117833333D01*
X190454820Y-117833333D02*
X190407201Y-117738095D01*
X190407201Y-117738095D02*
X190359581Y-117690476D01*
X80454820Y-115785714D02*
X79454820Y-115785714D01*
X80454820Y-116357142D02*
X79883391Y-115928571D01*
X79454820Y-116357142D02*
X80026248Y-115785714D01*
X80454820Y-117309523D02*
X80454820Y-116738095D01*
X80454820Y-117023809D02*
X79454820Y-117023809D01*
X79454820Y-117023809D02*
X79597677Y-116928571D01*
X79597677Y-116928571D02*
X79692915Y-116833333D01*
X79692915Y-116833333D02*
X79740534Y-116738095D01*
X79454820Y-118214285D02*
X79454820Y-117738095D01*
X79454820Y-117738095D02*
X79931010Y-117690476D01*
X79931010Y-117690476D02*
X79883391Y-117738095D01*
X79883391Y-117738095D02*
X79835772Y-117833333D01*
X79835772Y-117833333D02*
X79835772Y-118071428D01*
X79835772Y-118071428D02*
X79883391Y-118166666D01*
X79883391Y-118166666D02*
X79931010Y-118214285D01*
X79931010Y-118214285D02*
X80026248Y-118261904D01*
X80026248Y-118261904D02*
X80264343Y-118261904D01*
X80264343Y-118261904D02*
X80359581Y-118214285D01*
X80359581Y-118214285D02*
X80407201Y-118166666D01*
X80407201Y-118166666D02*
X80454820Y-118071428D01*
X80454820Y-118071428D02*
X80454820Y-117833333D01*
X80454820Y-117833333D02*
X80407201Y-117738095D01*
X80407201Y-117738095D02*
X80359581Y-117690476D01*
X124454820Y-115785714D02*
X123454820Y-115785714D01*
X124454820Y-116357142D02*
X123883391Y-115928571D01*
X123454820Y-116357142D02*
X124026248Y-115785714D01*
X123788153Y-117214285D02*
X124454820Y-117214285D01*
X123407201Y-116976190D02*
X124121486Y-116738095D01*
X124121486Y-116738095D02*
X124121486Y-117357142D01*
X123454820Y-117642857D02*
X123454820Y-118309523D01*
X123454820Y-118309523D02*
X124454820Y-117880952D01*
X80454820Y-97785714D02*
X79454820Y-97785714D01*
X80454820Y-98357142D02*
X79883391Y-97928571D01*
X79454820Y-98357142D02*
X80026248Y-97785714D01*
X80454820Y-99309523D02*
X80454820Y-98738095D01*
X80454820Y-99023809D02*
X79454820Y-99023809D01*
X79454820Y-99023809D02*
X79597677Y-98928571D01*
X79597677Y-98928571D02*
X79692915Y-98833333D01*
X79692915Y-98833333D02*
X79740534Y-98738095D01*
X79454820Y-99642857D02*
X79454820Y-100261904D01*
X79454820Y-100261904D02*
X79835772Y-99928571D01*
X79835772Y-99928571D02*
X79835772Y-100071428D01*
X79835772Y-100071428D02*
X79883391Y-100166666D01*
X79883391Y-100166666D02*
X79931010Y-100214285D01*
X79931010Y-100214285D02*
X80026248Y-100261904D01*
X80026248Y-100261904D02*
X80264343Y-100261904D01*
X80264343Y-100261904D02*
X80359581Y-100214285D01*
X80359581Y-100214285D02*
X80407201Y-100166666D01*
X80407201Y-100166666D02*
X80454820Y-100071428D01*
X80454820Y-100071428D02*
X80454820Y-99785714D01*
X80454820Y-99785714D02*
X80407201Y-99690476D01*
X80407201Y-99690476D02*
X80359581Y-99642857D01*
X91454820Y-115785714D02*
X90454820Y-115785714D01*
X91454820Y-116357142D02*
X90883391Y-115928571D01*
X90454820Y-116357142D02*
X91026248Y-115785714D01*
X90550058Y-116738095D02*
X90502439Y-116785714D01*
X90502439Y-116785714D02*
X90454820Y-116880952D01*
X90454820Y-116880952D02*
X90454820Y-117119047D01*
X90454820Y-117119047D02*
X90502439Y-117214285D01*
X90502439Y-117214285D02*
X90550058Y-117261904D01*
X90550058Y-117261904D02*
X90645296Y-117309523D01*
X90645296Y-117309523D02*
X90740534Y-117309523D01*
X90740534Y-117309523D02*
X90883391Y-117261904D01*
X90883391Y-117261904D02*
X91454820Y-116690476D01*
X91454820Y-116690476D02*
X91454820Y-117309523D01*
X90454820Y-117642857D02*
X90454820Y-118261904D01*
X90454820Y-118261904D02*
X90835772Y-117928571D01*
X90835772Y-117928571D02*
X90835772Y-118071428D01*
X90835772Y-118071428D02*
X90883391Y-118166666D01*
X90883391Y-118166666D02*
X90931010Y-118214285D01*
X90931010Y-118214285D02*
X91026248Y-118261904D01*
X91026248Y-118261904D02*
X91264343Y-118261904D01*
X91264343Y-118261904D02*
X91359581Y-118214285D01*
X91359581Y-118214285D02*
X91407201Y-118166666D01*
X91407201Y-118166666D02*
X91454820Y-118071428D01*
X91454820Y-118071428D02*
X91454820Y-117785714D01*
X91454820Y-117785714D02*
X91407201Y-117690476D01*
X91407201Y-117690476D02*
X91359581Y-117642857D01*
X113454820Y-115785714D02*
X112454820Y-115785714D01*
X113454820Y-116357142D02*
X112883391Y-115928571D01*
X112454820Y-116357142D02*
X113026248Y-115785714D01*
X112454820Y-116690476D02*
X112454820Y-117309523D01*
X112454820Y-117309523D02*
X112835772Y-116976190D01*
X112835772Y-116976190D02*
X112835772Y-117119047D01*
X112835772Y-117119047D02*
X112883391Y-117214285D01*
X112883391Y-117214285D02*
X112931010Y-117261904D01*
X112931010Y-117261904D02*
X113026248Y-117309523D01*
X113026248Y-117309523D02*
X113264343Y-117309523D01*
X113264343Y-117309523D02*
X113359581Y-117261904D01*
X113359581Y-117261904D02*
X113407201Y-117214285D01*
X113407201Y-117214285D02*
X113454820Y-117119047D01*
X113454820Y-117119047D02*
X113454820Y-116833333D01*
X113454820Y-116833333D02*
X113407201Y-116738095D01*
X113407201Y-116738095D02*
X113359581Y-116690476D01*
X113454820Y-117785714D02*
X113454820Y-117976190D01*
X113454820Y-117976190D02*
X113407201Y-118071428D01*
X113407201Y-118071428D02*
X113359581Y-118119047D01*
X113359581Y-118119047D02*
X113216724Y-118214285D01*
X113216724Y-118214285D02*
X113026248Y-118261904D01*
X113026248Y-118261904D02*
X112645296Y-118261904D01*
X112645296Y-118261904D02*
X112550058Y-118214285D01*
X112550058Y-118214285D02*
X112502439Y-118166666D01*
X112502439Y-118166666D02*
X112454820Y-118071428D01*
X112454820Y-118071428D02*
X112454820Y-117880952D01*
X112454820Y-117880952D02*
X112502439Y-117785714D01*
X112502439Y-117785714D02*
X112550058Y-117738095D01*
X112550058Y-117738095D02*
X112645296Y-117690476D01*
X112645296Y-117690476D02*
X112883391Y-117690476D01*
X112883391Y-117690476D02*
X112978629Y-117738095D01*
X112978629Y-117738095D02*
X113026248Y-117785714D01*
X113026248Y-117785714D02*
X113073867Y-117880952D01*
X113073867Y-117880952D02*
X113073867Y-118071428D01*
X113073867Y-118071428D02*
X113026248Y-118166666D01*
X113026248Y-118166666D02*
X112978629Y-118214285D01*
X112978629Y-118214285D02*
X112883391Y-118261904D01*
X124454819Y-124785714D02*
X123454819Y-124785714D01*
X124454819Y-125357142D02*
X123883390Y-124928571D01*
X123454819Y-125357142D02*
X124026247Y-124785714D01*
X123788152Y-126214285D02*
X124454819Y-126214285D01*
X123407200Y-125976190D02*
X124121485Y-125738095D01*
X124121485Y-125738095D02*
X124121485Y-126357142D01*
X123883390Y-126880952D02*
X123835771Y-126785714D01*
X123835771Y-126785714D02*
X123788152Y-126738095D01*
X123788152Y-126738095D02*
X123692914Y-126690476D01*
X123692914Y-126690476D02*
X123645295Y-126690476D01*
X123645295Y-126690476D02*
X123550057Y-126738095D01*
X123550057Y-126738095D02*
X123502438Y-126785714D01*
X123502438Y-126785714D02*
X123454819Y-126880952D01*
X123454819Y-126880952D02*
X123454819Y-127071428D01*
X123454819Y-127071428D02*
X123502438Y-127166666D01*
X123502438Y-127166666D02*
X123550057Y-127214285D01*
X123550057Y-127214285D02*
X123645295Y-127261904D01*
X123645295Y-127261904D02*
X123692914Y-127261904D01*
X123692914Y-127261904D02*
X123788152Y-127214285D01*
X123788152Y-127214285D02*
X123835771Y-127166666D01*
X123835771Y-127166666D02*
X123883390Y-127071428D01*
X123883390Y-127071428D02*
X123883390Y-126880952D01*
X123883390Y-126880952D02*
X123931009Y-126785714D01*
X123931009Y-126785714D02*
X123978628Y-126738095D01*
X123978628Y-126738095D02*
X124073866Y-126690476D01*
X124073866Y-126690476D02*
X124264342Y-126690476D01*
X124264342Y-126690476D02*
X124359580Y-126738095D01*
X124359580Y-126738095D02*
X124407200Y-126785714D01*
X124407200Y-126785714D02*
X124454819Y-126880952D01*
X124454819Y-126880952D02*
X124454819Y-127071428D01*
X124454819Y-127071428D02*
X124407200Y-127166666D01*
X124407200Y-127166666D02*
X124359580Y-127214285D01*
X124359580Y-127214285D02*
X124264342Y-127261904D01*
X124264342Y-127261904D02*
X124073866Y-127261904D01*
X124073866Y-127261904D02*
X123978628Y-127214285D01*
X123978628Y-127214285D02*
X123931009Y-127166666D01*
X123931009Y-127166666D02*
X123883390Y-127071428D01*
X146454819Y-124785714D02*
X145454819Y-124785714D01*
X146454819Y-125357142D02*
X145883390Y-124928571D01*
X145454819Y-125357142D02*
X146026247Y-124785714D01*
X145454819Y-126214285D02*
X145454819Y-126023809D01*
X145454819Y-126023809D02*
X145502438Y-125928571D01*
X145502438Y-125928571D02*
X145550057Y-125880952D01*
X145550057Y-125880952D02*
X145692914Y-125785714D01*
X145692914Y-125785714D02*
X145883390Y-125738095D01*
X145883390Y-125738095D02*
X146264342Y-125738095D01*
X146264342Y-125738095D02*
X146359580Y-125785714D01*
X146359580Y-125785714D02*
X146407200Y-125833333D01*
X146407200Y-125833333D02*
X146454819Y-125928571D01*
X146454819Y-125928571D02*
X146454819Y-126119047D01*
X146454819Y-126119047D02*
X146407200Y-126214285D01*
X146407200Y-126214285D02*
X146359580Y-126261904D01*
X146359580Y-126261904D02*
X146264342Y-126309523D01*
X146264342Y-126309523D02*
X146026247Y-126309523D01*
X146026247Y-126309523D02*
X145931009Y-126261904D01*
X145931009Y-126261904D02*
X145883390Y-126214285D01*
X145883390Y-126214285D02*
X145835771Y-126119047D01*
X145835771Y-126119047D02*
X145835771Y-125928571D01*
X145835771Y-125928571D02*
X145883390Y-125833333D01*
X145883390Y-125833333D02*
X145931009Y-125785714D01*
X145931009Y-125785714D02*
X146026247Y-125738095D01*
X145788152Y-127166666D02*
X146454819Y-127166666D01*
X145407200Y-126928571D02*
X146121485Y-126690476D01*
X146121485Y-126690476D02*
X146121485Y-127309523D01*
X102454820Y-106785714D02*
X101454820Y-106785714D01*
X102454820Y-107357142D02*
X101883391Y-106928571D01*
X101454820Y-107357142D02*
X102026248Y-106785714D01*
X101454820Y-107690476D02*
X101454820Y-108309523D01*
X101454820Y-108309523D02*
X101835772Y-107976190D01*
X101835772Y-107976190D02*
X101835772Y-108119047D01*
X101835772Y-108119047D02*
X101883391Y-108214285D01*
X101883391Y-108214285D02*
X101931010Y-108261904D01*
X101931010Y-108261904D02*
X102026248Y-108309523D01*
X102026248Y-108309523D02*
X102264343Y-108309523D01*
X102264343Y-108309523D02*
X102359581Y-108261904D01*
X102359581Y-108261904D02*
X102407201Y-108214285D01*
X102407201Y-108214285D02*
X102454820Y-108119047D01*
X102454820Y-108119047D02*
X102454820Y-107833333D01*
X102454820Y-107833333D02*
X102407201Y-107738095D01*
X102407201Y-107738095D02*
X102359581Y-107690476D01*
X101454820Y-108928571D02*
X101454820Y-109023809D01*
X101454820Y-109023809D02*
X101502439Y-109119047D01*
X101502439Y-109119047D02*
X101550058Y-109166666D01*
X101550058Y-109166666D02*
X101645296Y-109214285D01*
X101645296Y-109214285D02*
X101835772Y-109261904D01*
X101835772Y-109261904D02*
X102073867Y-109261904D01*
X102073867Y-109261904D02*
X102264343Y-109214285D01*
X102264343Y-109214285D02*
X102359581Y-109166666D01*
X102359581Y-109166666D02*
X102407201Y-109119047D01*
X102407201Y-109119047D02*
X102454820Y-109023809D01*
X102454820Y-109023809D02*
X102454820Y-108928571D01*
X102454820Y-108928571D02*
X102407201Y-108833333D01*
X102407201Y-108833333D02*
X102359581Y-108785714D01*
X102359581Y-108785714D02*
X102264343Y-108738095D01*
X102264343Y-108738095D02*
X102073867Y-108690476D01*
X102073867Y-108690476D02*
X101835772Y-108690476D01*
X101835772Y-108690476D02*
X101645296Y-108738095D01*
X101645296Y-108738095D02*
X101550058Y-108785714D01*
X101550058Y-108785714D02*
X101502439Y-108833333D01*
X101502439Y-108833333D02*
X101454820Y-108928571D01*
X135454820Y-97785714D02*
X134454820Y-97785714D01*
X135454820Y-98357142D02*
X134883391Y-97928571D01*
X134454820Y-98357142D02*
X135026248Y-97785714D01*
X134454820Y-99261904D02*
X134454820Y-98785714D01*
X134454820Y-98785714D02*
X134931010Y-98738095D01*
X134931010Y-98738095D02*
X134883391Y-98785714D01*
X134883391Y-98785714D02*
X134835772Y-98880952D01*
X134835772Y-98880952D02*
X134835772Y-99119047D01*
X134835772Y-99119047D02*
X134883391Y-99214285D01*
X134883391Y-99214285D02*
X134931010Y-99261904D01*
X134931010Y-99261904D02*
X135026248Y-99309523D01*
X135026248Y-99309523D02*
X135264343Y-99309523D01*
X135264343Y-99309523D02*
X135359581Y-99261904D01*
X135359581Y-99261904D02*
X135407201Y-99214285D01*
X135407201Y-99214285D02*
X135454820Y-99119047D01*
X135454820Y-99119047D02*
X135454820Y-98880952D01*
X135454820Y-98880952D02*
X135407201Y-98785714D01*
X135407201Y-98785714D02*
X135359581Y-98738095D01*
X134454820Y-99642857D02*
X134454820Y-100261904D01*
X134454820Y-100261904D02*
X134835772Y-99928571D01*
X134835772Y-99928571D02*
X134835772Y-100071428D01*
X134835772Y-100071428D02*
X134883391Y-100166666D01*
X134883391Y-100166666D02*
X134931010Y-100214285D01*
X134931010Y-100214285D02*
X135026248Y-100261904D01*
X135026248Y-100261904D02*
X135264343Y-100261904D01*
X135264343Y-100261904D02*
X135359581Y-100214285D01*
X135359581Y-100214285D02*
X135407201Y-100166666D01*
X135407201Y-100166666D02*
X135454820Y-100071428D01*
X135454820Y-100071428D02*
X135454820Y-99785714D01*
X135454820Y-99785714D02*
X135407201Y-99690476D01*
X135407201Y-99690476D02*
X135359581Y-99642857D01*
X80454819Y-124785714D02*
X79454819Y-124785714D01*
X80454819Y-125357142D02*
X79883390Y-124928571D01*
X79454819Y-125357142D02*
X80026247Y-124785714D01*
X80454819Y-126309523D02*
X80454819Y-125738095D01*
X80454819Y-126023809D02*
X79454819Y-126023809D01*
X79454819Y-126023809D02*
X79597676Y-125928571D01*
X79597676Y-125928571D02*
X79692914Y-125833333D01*
X79692914Y-125833333D02*
X79740533Y-125738095D01*
X79454819Y-127166666D02*
X79454819Y-126976190D01*
X79454819Y-126976190D02*
X79502438Y-126880952D01*
X79502438Y-126880952D02*
X79550057Y-126833333D01*
X79550057Y-126833333D02*
X79692914Y-126738095D01*
X79692914Y-126738095D02*
X79883390Y-126690476D01*
X79883390Y-126690476D02*
X80264342Y-126690476D01*
X80264342Y-126690476D02*
X80359580Y-126738095D01*
X80359580Y-126738095D02*
X80407200Y-126785714D01*
X80407200Y-126785714D02*
X80454819Y-126880952D01*
X80454819Y-126880952D02*
X80454819Y-127071428D01*
X80454819Y-127071428D02*
X80407200Y-127166666D01*
X80407200Y-127166666D02*
X80359580Y-127214285D01*
X80359580Y-127214285D02*
X80264342Y-127261904D01*
X80264342Y-127261904D02*
X80026247Y-127261904D01*
X80026247Y-127261904D02*
X79931009Y-127214285D01*
X79931009Y-127214285D02*
X79883390Y-127166666D01*
X79883390Y-127166666D02*
X79835771Y-127071428D01*
X79835771Y-127071428D02*
X79835771Y-126880952D01*
X79835771Y-126880952D02*
X79883390Y-126785714D01*
X79883390Y-126785714D02*
X79931009Y-126738095D01*
X79931009Y-126738095D02*
X80026247Y-126690476D01*
X179454820Y-106785714D02*
X178454820Y-106785714D01*
X179454820Y-107357142D02*
X178883391Y-106928571D01*
X178454820Y-107357142D02*
X179026248Y-106785714D01*
X178883391Y-107928571D02*
X178835772Y-107833333D01*
X178835772Y-107833333D02*
X178788153Y-107785714D01*
X178788153Y-107785714D02*
X178692915Y-107738095D01*
X178692915Y-107738095D02*
X178645296Y-107738095D01*
X178645296Y-107738095D02*
X178550058Y-107785714D01*
X178550058Y-107785714D02*
X178502439Y-107833333D01*
X178502439Y-107833333D02*
X178454820Y-107928571D01*
X178454820Y-107928571D02*
X178454820Y-108119047D01*
X178454820Y-108119047D02*
X178502439Y-108214285D01*
X178502439Y-108214285D02*
X178550058Y-108261904D01*
X178550058Y-108261904D02*
X178645296Y-108309523D01*
X178645296Y-108309523D02*
X178692915Y-108309523D01*
X178692915Y-108309523D02*
X178788153Y-108261904D01*
X178788153Y-108261904D02*
X178835772Y-108214285D01*
X178835772Y-108214285D02*
X178883391Y-108119047D01*
X178883391Y-108119047D02*
X178883391Y-107928571D01*
X178883391Y-107928571D02*
X178931010Y-107833333D01*
X178931010Y-107833333D02*
X178978629Y-107785714D01*
X178978629Y-107785714D02*
X179073867Y-107738095D01*
X179073867Y-107738095D02*
X179264343Y-107738095D01*
X179264343Y-107738095D02*
X179359581Y-107785714D01*
X179359581Y-107785714D02*
X179407201Y-107833333D01*
X179407201Y-107833333D02*
X179454820Y-107928571D01*
X179454820Y-107928571D02*
X179454820Y-108119047D01*
X179454820Y-108119047D02*
X179407201Y-108214285D01*
X179407201Y-108214285D02*
X179359581Y-108261904D01*
X179359581Y-108261904D02*
X179264343Y-108309523D01*
X179264343Y-108309523D02*
X179073867Y-108309523D01*
X179073867Y-108309523D02*
X178978629Y-108261904D01*
X178978629Y-108261904D02*
X178931010Y-108214285D01*
X178931010Y-108214285D02*
X178883391Y-108119047D01*
X178454820Y-109166666D02*
X178454820Y-108976190D01*
X178454820Y-108976190D02*
X178502439Y-108880952D01*
X178502439Y-108880952D02*
X178550058Y-108833333D01*
X178550058Y-108833333D02*
X178692915Y-108738095D01*
X178692915Y-108738095D02*
X178883391Y-108690476D01*
X178883391Y-108690476D02*
X179264343Y-108690476D01*
X179264343Y-108690476D02*
X179359581Y-108738095D01*
X179359581Y-108738095D02*
X179407201Y-108785714D01*
X179407201Y-108785714D02*
X179454820Y-108880952D01*
X179454820Y-108880952D02*
X179454820Y-109071428D01*
X179454820Y-109071428D02*
X179407201Y-109166666D01*
X179407201Y-109166666D02*
X179359581Y-109214285D01*
X179359581Y-109214285D02*
X179264343Y-109261904D01*
X179264343Y-109261904D02*
X179026248Y-109261904D01*
X179026248Y-109261904D02*
X178931010Y-109214285D01*
X178931010Y-109214285D02*
X178883391Y-109166666D01*
X178883391Y-109166666D02*
X178835772Y-109071428D01*
X178835772Y-109071428D02*
X178835772Y-108880952D01*
X178835772Y-108880952D02*
X178883391Y-108785714D01*
X178883391Y-108785714D02*
X178931010Y-108738095D01*
X178931010Y-108738095D02*
X179026248Y-108690476D01*
X135454820Y-106785714D02*
X134454820Y-106785714D01*
X135454820Y-107357142D02*
X134883391Y-106928571D01*
X134454820Y-107357142D02*
X135026248Y-106785714D01*
X134454820Y-108261904D02*
X134454820Y-107785714D01*
X134454820Y-107785714D02*
X134931010Y-107738095D01*
X134931010Y-107738095D02*
X134883391Y-107785714D01*
X134883391Y-107785714D02*
X134835772Y-107880952D01*
X134835772Y-107880952D02*
X134835772Y-108119047D01*
X134835772Y-108119047D02*
X134883391Y-108214285D01*
X134883391Y-108214285D02*
X134931010Y-108261904D01*
X134931010Y-108261904D02*
X135026248Y-108309523D01*
X135026248Y-108309523D02*
X135264343Y-108309523D01*
X135264343Y-108309523D02*
X135359581Y-108261904D01*
X135359581Y-108261904D02*
X135407201Y-108214285D01*
X135407201Y-108214285D02*
X135454820Y-108119047D01*
X135454820Y-108119047D02*
X135454820Y-107880952D01*
X135454820Y-107880952D02*
X135407201Y-107785714D01*
X135407201Y-107785714D02*
X135359581Y-107738095D01*
X134788153Y-109166666D02*
X135454820Y-109166666D01*
X134407201Y-108928571D02*
X135121486Y-108690476D01*
X135121486Y-108690476D02*
X135121486Y-109309523D01*
X124454820Y-106785714D02*
X123454820Y-106785714D01*
X124454820Y-107357142D02*
X123883391Y-106928571D01*
X123454820Y-107357142D02*
X124026248Y-106785714D01*
X123788153Y-108214285D02*
X124454820Y-108214285D01*
X123407201Y-107976190D02*
X124121486Y-107738095D01*
X124121486Y-107738095D02*
X124121486Y-108357142D01*
X123454820Y-109166666D02*
X123454820Y-108976190D01*
X123454820Y-108976190D02*
X123502439Y-108880952D01*
X123502439Y-108880952D02*
X123550058Y-108833333D01*
X123550058Y-108833333D02*
X123692915Y-108738095D01*
X123692915Y-108738095D02*
X123883391Y-108690476D01*
X123883391Y-108690476D02*
X124264343Y-108690476D01*
X124264343Y-108690476D02*
X124359581Y-108738095D01*
X124359581Y-108738095D02*
X124407201Y-108785714D01*
X124407201Y-108785714D02*
X124454820Y-108880952D01*
X124454820Y-108880952D02*
X124454820Y-109071428D01*
X124454820Y-109071428D02*
X124407201Y-109166666D01*
X124407201Y-109166666D02*
X124359581Y-109214285D01*
X124359581Y-109214285D02*
X124264343Y-109261904D01*
X124264343Y-109261904D02*
X124026248Y-109261904D01*
X124026248Y-109261904D02*
X123931010Y-109214285D01*
X123931010Y-109214285D02*
X123883391Y-109166666D01*
X123883391Y-109166666D02*
X123835772Y-109071428D01*
X123835772Y-109071428D02*
X123835772Y-108880952D01*
X123835772Y-108880952D02*
X123883391Y-108785714D01*
X123883391Y-108785714D02*
X123931010Y-108738095D01*
X123931010Y-108738095D02*
X124026248Y-108690476D01*
X113454820Y-106785714D02*
X112454820Y-106785714D01*
X113454820Y-107357142D02*
X112883391Y-106928571D01*
X112454820Y-107357142D02*
X113026248Y-106785714D01*
X112454820Y-107690476D02*
X112454820Y-108309523D01*
X112454820Y-108309523D02*
X112835772Y-107976190D01*
X112835772Y-107976190D02*
X112835772Y-108119047D01*
X112835772Y-108119047D02*
X112883391Y-108214285D01*
X112883391Y-108214285D02*
X112931010Y-108261904D01*
X112931010Y-108261904D02*
X113026248Y-108309523D01*
X113026248Y-108309523D02*
X113264343Y-108309523D01*
X113264343Y-108309523D02*
X113359581Y-108261904D01*
X113359581Y-108261904D02*
X113407201Y-108214285D01*
X113407201Y-108214285D02*
X113454820Y-108119047D01*
X113454820Y-108119047D02*
X113454820Y-107833333D01*
X113454820Y-107833333D02*
X113407201Y-107738095D01*
X113407201Y-107738095D02*
X113359581Y-107690476D01*
X112883391Y-108880952D02*
X112835772Y-108785714D01*
X112835772Y-108785714D02*
X112788153Y-108738095D01*
X112788153Y-108738095D02*
X112692915Y-108690476D01*
X112692915Y-108690476D02*
X112645296Y-108690476D01*
X112645296Y-108690476D02*
X112550058Y-108738095D01*
X112550058Y-108738095D02*
X112502439Y-108785714D01*
X112502439Y-108785714D02*
X112454820Y-108880952D01*
X112454820Y-108880952D02*
X112454820Y-109071428D01*
X112454820Y-109071428D02*
X112502439Y-109166666D01*
X112502439Y-109166666D02*
X112550058Y-109214285D01*
X112550058Y-109214285D02*
X112645296Y-109261904D01*
X112645296Y-109261904D02*
X112692915Y-109261904D01*
X112692915Y-109261904D02*
X112788153Y-109214285D01*
X112788153Y-109214285D02*
X112835772Y-109166666D01*
X112835772Y-109166666D02*
X112883391Y-109071428D01*
X112883391Y-109071428D02*
X112883391Y-108880952D01*
X112883391Y-108880952D02*
X112931010Y-108785714D01*
X112931010Y-108785714D02*
X112978629Y-108738095D01*
X112978629Y-108738095D02*
X113073867Y-108690476D01*
X113073867Y-108690476D02*
X113264343Y-108690476D01*
X113264343Y-108690476D02*
X113359581Y-108738095D01*
X113359581Y-108738095D02*
X113407201Y-108785714D01*
X113407201Y-108785714D02*
X113454820Y-108880952D01*
X113454820Y-108880952D02*
X113454820Y-109071428D01*
X113454820Y-109071428D02*
X113407201Y-109166666D01*
X113407201Y-109166666D02*
X113359581Y-109214285D01*
X113359581Y-109214285D02*
X113264343Y-109261904D01*
X113264343Y-109261904D02*
X113073867Y-109261904D01*
X113073867Y-109261904D02*
X112978629Y-109214285D01*
X112978629Y-109214285D02*
X112931010Y-109166666D01*
X112931010Y-109166666D02*
X112883391Y-109071428D01*
X179454820Y-115785714D02*
X178454820Y-115785714D01*
X179454820Y-116357142D02*
X178883391Y-115928571D01*
X178454820Y-116357142D02*
X179026248Y-115785714D01*
X178883391Y-116928571D02*
X178835772Y-116833333D01*
X178835772Y-116833333D02*
X178788153Y-116785714D01*
X178788153Y-116785714D02*
X178692915Y-116738095D01*
X178692915Y-116738095D02*
X178645296Y-116738095D01*
X178645296Y-116738095D02*
X178550058Y-116785714D01*
X178550058Y-116785714D02*
X178502439Y-116833333D01*
X178502439Y-116833333D02*
X178454820Y-116928571D01*
X178454820Y-116928571D02*
X178454820Y-117119047D01*
X178454820Y-117119047D02*
X178502439Y-117214285D01*
X178502439Y-117214285D02*
X178550058Y-117261904D01*
X178550058Y-117261904D02*
X178645296Y-117309523D01*
X178645296Y-117309523D02*
X178692915Y-117309523D01*
X178692915Y-117309523D02*
X178788153Y-117261904D01*
X178788153Y-117261904D02*
X178835772Y-117214285D01*
X178835772Y-117214285D02*
X178883391Y-117119047D01*
X178883391Y-117119047D02*
X178883391Y-116928571D01*
X178883391Y-116928571D02*
X178931010Y-116833333D01*
X178931010Y-116833333D02*
X178978629Y-116785714D01*
X178978629Y-116785714D02*
X179073867Y-116738095D01*
X179073867Y-116738095D02*
X179264343Y-116738095D01*
X179264343Y-116738095D02*
X179359581Y-116785714D01*
X179359581Y-116785714D02*
X179407201Y-116833333D01*
X179407201Y-116833333D02*
X179454820Y-116928571D01*
X179454820Y-116928571D02*
X179454820Y-117119047D01*
X179454820Y-117119047D02*
X179407201Y-117214285D01*
X179407201Y-117214285D02*
X179359581Y-117261904D01*
X179359581Y-117261904D02*
X179264343Y-117309523D01*
X179264343Y-117309523D02*
X179073867Y-117309523D01*
X179073867Y-117309523D02*
X178978629Y-117261904D01*
X178978629Y-117261904D02*
X178931010Y-117214285D01*
X178931010Y-117214285D02*
X178883391Y-117119047D01*
X178454820Y-117642857D02*
X178454820Y-118309523D01*
X178454820Y-118309523D02*
X179454820Y-117880952D01*
X179454819Y-124785714D02*
X178454819Y-124785714D01*
X179454819Y-125357142D02*
X178883390Y-124928571D01*
X178454819Y-125357142D02*
X179026247Y-124785714D01*
X178883390Y-125928571D02*
X178835771Y-125833333D01*
X178835771Y-125833333D02*
X178788152Y-125785714D01*
X178788152Y-125785714D02*
X178692914Y-125738095D01*
X178692914Y-125738095D02*
X178645295Y-125738095D01*
X178645295Y-125738095D02*
X178550057Y-125785714D01*
X178550057Y-125785714D02*
X178502438Y-125833333D01*
X178502438Y-125833333D02*
X178454819Y-125928571D01*
X178454819Y-125928571D02*
X178454819Y-126119047D01*
X178454819Y-126119047D02*
X178502438Y-126214285D01*
X178502438Y-126214285D02*
X178550057Y-126261904D01*
X178550057Y-126261904D02*
X178645295Y-126309523D01*
X178645295Y-126309523D02*
X178692914Y-126309523D01*
X178692914Y-126309523D02*
X178788152Y-126261904D01*
X178788152Y-126261904D02*
X178835771Y-126214285D01*
X178835771Y-126214285D02*
X178883390Y-126119047D01*
X178883390Y-126119047D02*
X178883390Y-125928571D01*
X178883390Y-125928571D02*
X178931009Y-125833333D01*
X178931009Y-125833333D02*
X178978628Y-125785714D01*
X178978628Y-125785714D02*
X179073866Y-125738095D01*
X179073866Y-125738095D02*
X179264342Y-125738095D01*
X179264342Y-125738095D02*
X179359580Y-125785714D01*
X179359580Y-125785714D02*
X179407200Y-125833333D01*
X179407200Y-125833333D02*
X179454819Y-125928571D01*
X179454819Y-125928571D02*
X179454819Y-126119047D01*
X179454819Y-126119047D02*
X179407200Y-126214285D01*
X179407200Y-126214285D02*
X179359580Y-126261904D01*
X179359580Y-126261904D02*
X179264342Y-126309523D01*
X179264342Y-126309523D02*
X179073866Y-126309523D01*
X179073866Y-126309523D02*
X178978628Y-126261904D01*
X178978628Y-126261904D02*
X178931009Y-126214285D01*
X178931009Y-126214285D02*
X178883390Y-126119047D01*
X178883390Y-126880952D02*
X178835771Y-126785714D01*
X178835771Y-126785714D02*
X178788152Y-126738095D01*
X178788152Y-126738095D02*
X178692914Y-126690476D01*
X178692914Y-126690476D02*
X178645295Y-126690476D01*
X178645295Y-126690476D02*
X178550057Y-126738095D01*
X178550057Y-126738095D02*
X178502438Y-126785714D01*
X178502438Y-126785714D02*
X178454819Y-126880952D01*
X178454819Y-126880952D02*
X178454819Y-127071428D01*
X178454819Y-127071428D02*
X178502438Y-127166666D01*
X178502438Y-127166666D02*
X178550057Y-127214285D01*
X178550057Y-127214285D02*
X178645295Y-127261904D01*
X178645295Y-127261904D02*
X178692914Y-127261904D01*
X178692914Y-127261904D02*
X178788152Y-127214285D01*
X178788152Y-127214285D02*
X178835771Y-127166666D01*
X178835771Y-127166666D02*
X178883390Y-127071428D01*
X178883390Y-127071428D02*
X178883390Y-126880952D01*
X178883390Y-126880952D02*
X178931009Y-126785714D01*
X178931009Y-126785714D02*
X178978628Y-126738095D01*
X178978628Y-126738095D02*
X179073866Y-126690476D01*
X179073866Y-126690476D02*
X179264342Y-126690476D01*
X179264342Y-126690476D02*
X179359580Y-126738095D01*
X179359580Y-126738095D02*
X179407200Y-126785714D01*
X179407200Y-126785714D02*
X179454819Y-126880952D01*
X179454819Y-126880952D02*
X179454819Y-127071428D01*
X179454819Y-127071428D02*
X179407200Y-127166666D01*
X179407200Y-127166666D02*
X179359580Y-127214285D01*
X179359580Y-127214285D02*
X179264342Y-127261904D01*
X179264342Y-127261904D02*
X179073866Y-127261904D01*
X179073866Y-127261904D02*
X178978628Y-127214285D01*
X178978628Y-127214285D02*
X178931009Y-127166666D01*
X178931009Y-127166666D02*
X178883390Y-127071428D01*
X146454820Y-115785714D02*
X145454820Y-115785714D01*
X146454820Y-116357142D02*
X145883391Y-115928571D01*
X145454820Y-116357142D02*
X146026248Y-115785714D01*
X145454820Y-117214285D02*
X145454820Y-117023809D01*
X145454820Y-117023809D02*
X145502439Y-116928571D01*
X145502439Y-116928571D02*
X145550058Y-116880952D01*
X145550058Y-116880952D02*
X145692915Y-116785714D01*
X145692915Y-116785714D02*
X145883391Y-116738095D01*
X145883391Y-116738095D02*
X146264343Y-116738095D01*
X146264343Y-116738095D02*
X146359581Y-116785714D01*
X146359581Y-116785714D02*
X146407201Y-116833333D01*
X146407201Y-116833333D02*
X146454820Y-116928571D01*
X146454820Y-116928571D02*
X146454820Y-117119047D01*
X146454820Y-117119047D02*
X146407201Y-117214285D01*
X146407201Y-117214285D02*
X146359581Y-117261904D01*
X146359581Y-117261904D02*
X146264343Y-117309523D01*
X146264343Y-117309523D02*
X146026248Y-117309523D01*
X146026248Y-117309523D02*
X145931010Y-117261904D01*
X145931010Y-117261904D02*
X145883391Y-117214285D01*
X145883391Y-117214285D02*
X145835772Y-117119047D01*
X145835772Y-117119047D02*
X145835772Y-116928571D01*
X145835772Y-116928571D02*
X145883391Y-116833333D01*
X145883391Y-116833333D02*
X145931010Y-116785714D01*
X145931010Y-116785714D02*
X146026248Y-116738095D01*
X145454820Y-117642857D02*
X145454820Y-118261904D01*
X145454820Y-118261904D02*
X145835772Y-117928571D01*
X145835772Y-117928571D02*
X145835772Y-118071428D01*
X145835772Y-118071428D02*
X145883391Y-118166666D01*
X145883391Y-118166666D02*
X145931010Y-118214285D01*
X145931010Y-118214285D02*
X146026248Y-118261904D01*
X146026248Y-118261904D02*
X146264343Y-118261904D01*
X146264343Y-118261904D02*
X146359581Y-118214285D01*
X146359581Y-118214285D02*
X146407201Y-118166666D01*
X146407201Y-118166666D02*
X146454820Y-118071428D01*
X146454820Y-118071428D02*
X146454820Y-117785714D01*
X146454820Y-117785714D02*
X146407201Y-117690476D01*
X146407201Y-117690476D02*
X146359581Y-117642857D01*
X135454819Y-124785714D02*
X134454819Y-124785714D01*
X135454819Y-125357142D02*
X134883390Y-124928571D01*
X134454819Y-125357142D02*
X135026247Y-124785714D01*
X134454819Y-126261904D02*
X134454819Y-125785714D01*
X134454819Y-125785714D02*
X134931009Y-125738095D01*
X134931009Y-125738095D02*
X134883390Y-125785714D01*
X134883390Y-125785714D02*
X134835771Y-125880952D01*
X134835771Y-125880952D02*
X134835771Y-126119047D01*
X134835771Y-126119047D02*
X134883390Y-126214285D01*
X134883390Y-126214285D02*
X134931009Y-126261904D01*
X134931009Y-126261904D02*
X135026247Y-126309523D01*
X135026247Y-126309523D02*
X135264342Y-126309523D01*
X135264342Y-126309523D02*
X135359580Y-126261904D01*
X135359580Y-126261904D02*
X135407200Y-126214285D01*
X135407200Y-126214285D02*
X135454819Y-126119047D01*
X135454819Y-126119047D02*
X135454819Y-125880952D01*
X135454819Y-125880952D02*
X135407200Y-125785714D01*
X135407200Y-125785714D02*
X135359580Y-125738095D01*
X134454819Y-127166666D02*
X134454819Y-126976190D01*
X134454819Y-126976190D02*
X134502438Y-126880952D01*
X134502438Y-126880952D02*
X134550057Y-126833333D01*
X134550057Y-126833333D02*
X134692914Y-126738095D01*
X134692914Y-126738095D02*
X134883390Y-126690476D01*
X134883390Y-126690476D02*
X135264342Y-126690476D01*
X135264342Y-126690476D02*
X135359580Y-126738095D01*
X135359580Y-126738095D02*
X135407200Y-126785714D01*
X135407200Y-126785714D02*
X135454819Y-126880952D01*
X135454819Y-126880952D02*
X135454819Y-127071428D01*
X135454819Y-127071428D02*
X135407200Y-127166666D01*
X135407200Y-127166666D02*
X135359580Y-127214285D01*
X135359580Y-127214285D02*
X135264342Y-127261904D01*
X135264342Y-127261904D02*
X135026247Y-127261904D01*
X135026247Y-127261904D02*
X134931009Y-127214285D01*
X134931009Y-127214285D02*
X134883390Y-127166666D01*
X134883390Y-127166666D02*
X134835771Y-127071428D01*
X134835771Y-127071428D02*
X134835771Y-126880952D01*
X134835771Y-126880952D02*
X134883390Y-126785714D01*
X134883390Y-126785714D02*
X134931009Y-126738095D01*
X134931009Y-126738095D02*
X135026247Y-126690476D01*
D11*
%TO.C,J4*%
X140715000Y-89032500D02*
G75*
G02*
X136295000Y-89032500I-2210000J0D01*
G01*
X136295000Y-89032500D02*
G75*
G02*
X140715000Y-89032500I2210000J0D01*
G01*
X205595000Y-89032500D02*
G75*
G02*
X201175000Y-89032500I-2210000J0D01*
G01*
X201175000Y-89032500D02*
G75*
G02*
X205595000Y-89032500I2210000J0D01*
G01*
%TO.C,J3*%
X69410000Y-89032500D02*
G75*
G02*
X64990000Y-89032500I-2210000J0D01*
G01*
X64990000Y-89032500D02*
G75*
G02*
X69410000Y-89032500I2210000J0D01*
G01*
X134290000Y-89032500D02*
G75*
G02*
X129870000Y-89032500I-2210000J0D01*
G01*
X129870000Y-89032500D02*
G75*
G02*
X134290000Y-89032500I2210000J0D01*
G01*
%TO.C,K22*%
X91800001Y-104800000D02*
X92550001Y-104800000D01*
X91800001Y-104950000D02*
X91950001Y-104800000D01*
X91800001Y-105100000D02*
X92100001Y-104800000D01*
X91800001Y-105250000D02*
X92250001Y-104800000D01*
X91800001Y-105400000D02*
X92400001Y-104800000D01*
X91800001Y-105550000D02*
X91800001Y-104800000D01*
X91800001Y-110450000D02*
X91800001Y-111200000D01*
X91800001Y-111200000D02*
X92550001Y-111200000D01*
X101450001Y-104800000D02*
X102200001Y-104800000D01*
X101450001Y-111200000D02*
X102200001Y-111200000D01*
X102200001Y-104800000D02*
X102200001Y-105550000D01*
X102200001Y-110450000D02*
X102200001Y-111200000D01*
%TO.C,K55*%
X135800001Y-113800000D02*
X136550001Y-113800000D01*
X135800001Y-113950000D02*
X135950001Y-113800000D01*
X135800001Y-114100000D02*
X136100001Y-113800000D01*
X135800001Y-114250000D02*
X136250001Y-113800000D01*
X135800001Y-114400000D02*
X136400001Y-113800000D01*
X135800001Y-114550000D02*
X135800001Y-113800000D01*
X135800001Y-119450000D02*
X135800001Y-120200000D01*
X135800001Y-120200000D02*
X136550001Y-120200000D01*
X145450001Y-113800000D02*
X146200001Y-113800000D01*
X145450001Y-120200000D02*
X146200001Y-120200000D01*
X146200001Y-113800000D02*
X146200001Y-114550000D01*
X146200001Y-119450000D02*
X146200001Y-120200000D01*
%TO.C,J5*%
X207467500Y-97215000D02*
X207467500Y-97815000D01*
X207467500Y-97815000D02*
X208067500Y-97515000D01*
X208067500Y-97515000D02*
X207467500Y-97215000D01*
X208757500Y-94865000D02*
X208757500Y-96215000D01*
X208757500Y-94865000D02*
X218177500Y-94865000D01*
X208757500Y-98815000D02*
X208757500Y-101545000D01*
X208757500Y-105245000D02*
X208757500Y-103645000D01*
X214867500Y-94865000D02*
X214867500Y-105245000D01*
X218177500Y-94865000D02*
X218177500Y-105245000D01*
X218177500Y-105245000D02*
X208757500Y-105245000D01*
%TO.C,K93*%
X190800001Y-95800000D02*
X191550001Y-95800000D01*
X190800001Y-95950000D02*
X190950001Y-95800000D01*
X190800001Y-96100000D02*
X191100001Y-95800000D01*
X190800001Y-96250000D02*
X191250001Y-95800000D01*
X190800001Y-96400000D02*
X191400001Y-95800000D01*
X190800001Y-96550000D02*
X190800001Y-95800000D01*
X190800001Y-101450000D02*
X190800001Y-102200000D01*
X190800001Y-102200000D02*
X191550001Y-102200000D01*
X200450001Y-95800000D02*
X201200001Y-95800000D01*
X200450001Y-102200000D02*
X201200001Y-102200000D01*
X201200001Y-95800000D02*
X201200001Y-96550000D01*
X201200001Y-101450000D02*
X201200001Y-102200000D01*
%TO.C,K45*%
X124800001Y-95800000D02*
X125550001Y-95800000D01*
X124800001Y-95950000D02*
X124950001Y-95800000D01*
X124800001Y-96100000D02*
X125100001Y-95800000D01*
X124800001Y-96250000D02*
X125250001Y-95800000D01*
X124800001Y-96400000D02*
X125400001Y-95800000D01*
X124800001Y-96550000D02*
X124800001Y-95800000D01*
X124800001Y-101450000D02*
X124800001Y-102200000D01*
X124800001Y-102200000D02*
X125550001Y-102200000D01*
X134450001Y-95800000D02*
X135200001Y-95800000D01*
X134450001Y-102200000D02*
X135200001Y-102200000D01*
X135200001Y-95800000D02*
X135200001Y-96550000D01*
X135200001Y-101450000D02*
X135200001Y-102200000D01*
%TO.C,K5*%
X69800001Y-95800000D02*
X70550001Y-95800000D01*
X69800001Y-95950000D02*
X69950001Y-95800000D01*
X69800001Y-96100000D02*
X70100001Y-95800000D01*
X69800001Y-96250000D02*
X70250001Y-95800000D01*
X69800001Y-96400000D02*
X70400001Y-95800000D01*
X69800001Y-96550000D02*
X69800001Y-95800000D01*
X69800001Y-101450000D02*
X69800001Y-102200000D01*
X69800001Y-102200000D02*
X70550001Y-102200000D01*
X79450001Y-95800000D02*
X80200001Y-95800000D01*
X79450001Y-102200000D02*
X80200001Y-102200000D01*
X80200001Y-95800000D02*
X80200001Y-96550000D01*
X80200001Y-101450000D02*
X80200001Y-102200000D01*
%TO.C,K77*%
X168800001Y-95800000D02*
X169550001Y-95800000D01*
X168800001Y-95950000D02*
X168950001Y-95800000D01*
X168800001Y-96100000D02*
X169100001Y-95800000D01*
X168800001Y-96250000D02*
X169250001Y-95800000D01*
X168800001Y-96400000D02*
X169400001Y-95800000D01*
X168800001Y-96550000D02*
X168800001Y-95800000D01*
X168800001Y-101450000D02*
X168800001Y-102200000D01*
X168800001Y-102200000D02*
X169550001Y-102200000D01*
X178450001Y-95800000D02*
X179200001Y-95800000D01*
X178450001Y-102200000D02*
X179200001Y-102200000D01*
X179200001Y-95800000D02*
X179200001Y-96550000D01*
X179200001Y-101450000D02*
X179200001Y-102200000D01*
%TO.C,K71*%
X157800001Y-113800000D02*
X158550001Y-113800000D01*
X157800001Y-113950000D02*
X157950001Y-113800000D01*
X157800001Y-114100000D02*
X158100001Y-113800000D01*
X157800001Y-114250000D02*
X158250001Y-113800000D01*
X157800001Y-114400000D02*
X158400001Y-113800000D01*
X157800001Y-114550000D02*
X157800001Y-113800000D01*
X157800001Y-119450000D02*
X157800001Y-120200000D01*
X157800001Y-120200000D02*
X158550001Y-120200000D01*
X167450001Y-113800000D02*
X168200001Y-113800000D01*
X167450001Y-120200000D02*
X168200001Y-120200000D01*
X168200001Y-113800000D02*
X168200001Y-114550000D01*
X168200001Y-119450000D02*
X168200001Y-120200000D01*
%TO.C,K14*%
X80800001Y-104800000D02*
X81550001Y-104800000D01*
X80800001Y-104950000D02*
X80950001Y-104800000D01*
X80800001Y-105100000D02*
X81100001Y-104800000D01*
X80800001Y-105250000D02*
X81250001Y-104800000D01*
X80800001Y-105400000D02*
X81400001Y-104800000D01*
X80800001Y-105550000D02*
X80800001Y-104800000D01*
X80800001Y-110450000D02*
X80800001Y-111200000D01*
X80800001Y-111200000D02*
X81550001Y-111200000D01*
X90450001Y-104800000D02*
X91200001Y-104800000D01*
X90450001Y-111200000D02*
X91200001Y-111200000D01*
X91200001Y-104800000D02*
X91200001Y-105550000D01*
X91200001Y-110450000D02*
X91200001Y-111200000D01*
%TO.C,K96*%
X190800000Y-122800000D02*
X191550000Y-122800000D01*
X190800000Y-122950000D02*
X190950000Y-122800000D01*
X190800000Y-123100000D02*
X191100000Y-122800000D01*
X190800000Y-123250000D02*
X191250000Y-122800000D01*
X190800000Y-123400000D02*
X191400000Y-122800000D01*
X190800000Y-123550000D02*
X190800000Y-122800000D01*
X190800000Y-128450000D02*
X190800000Y-129200000D01*
X190800000Y-129200000D02*
X191550000Y-129200000D01*
X200450000Y-122800000D02*
X201200000Y-122800000D01*
X200450000Y-129200000D02*
X201200000Y-129200000D01*
X201200000Y-122800000D02*
X201200000Y-123550000D01*
X201200000Y-128450000D02*
X201200000Y-129200000D01*
%TO.C,K37*%
X113800001Y-95800000D02*
X114550001Y-95800000D01*
X113800001Y-95950000D02*
X113950001Y-95800000D01*
X113800001Y-96100000D02*
X114100001Y-95800000D01*
X113800001Y-96250000D02*
X114250001Y-95800000D01*
X113800001Y-96400000D02*
X114400001Y-95800000D01*
X113800001Y-96550000D02*
X113800001Y-95800000D01*
X113800001Y-101450000D02*
X113800001Y-102200000D01*
X113800001Y-102200000D02*
X114550001Y-102200000D01*
X123450001Y-95800000D02*
X124200001Y-95800000D01*
X123450001Y-102200000D02*
X124200001Y-102200000D01*
X124200001Y-95800000D02*
X124200001Y-96550000D01*
X124200001Y-101450000D02*
X124200001Y-102200000D01*
%TO.C,K24*%
X91800000Y-122800000D02*
X92550000Y-122800000D01*
X91800000Y-122950000D02*
X91950000Y-122800000D01*
X91800000Y-123100000D02*
X92100000Y-122800000D01*
X91800000Y-123250000D02*
X92250000Y-122800000D01*
X91800000Y-123400000D02*
X92400000Y-122800000D01*
X91800000Y-123550000D02*
X91800000Y-122800000D01*
X91800000Y-128450000D02*
X91800000Y-129200000D01*
X91800000Y-129200000D02*
X92550000Y-129200000D01*
X101450000Y-122800000D02*
X102200000Y-122800000D01*
X101450000Y-129200000D02*
X102200000Y-129200000D01*
X102200000Y-122800000D02*
X102200000Y-123550000D01*
X102200000Y-128450000D02*
X102200000Y-129200000D01*
%TO.C,K78*%
X168800001Y-104800000D02*
X169550001Y-104800000D01*
X168800001Y-104950000D02*
X168950001Y-104800000D01*
X168800001Y-105100000D02*
X169100001Y-104800000D01*
X168800001Y-105250000D02*
X169250001Y-104800000D01*
X168800001Y-105400000D02*
X169400001Y-104800000D01*
X168800001Y-105550000D02*
X168800001Y-104800000D01*
X168800001Y-110450000D02*
X168800001Y-111200000D01*
X168800001Y-111200000D02*
X169550001Y-111200000D01*
X178450001Y-104800000D02*
X179200001Y-104800000D01*
X178450001Y-111200000D02*
X179200001Y-111200000D01*
X179200001Y-104800000D02*
X179200001Y-105550000D01*
X179200001Y-110450000D02*
X179200001Y-111200000D01*
%TO.C,K40*%
X113800000Y-122800000D02*
X114550000Y-122800000D01*
X113800000Y-122950000D02*
X113950000Y-122800000D01*
X113800000Y-123100000D02*
X114100000Y-122800000D01*
X113800000Y-123250000D02*
X114250000Y-122800000D01*
X113800000Y-123400000D02*
X114400000Y-122800000D01*
X113800000Y-123550000D02*
X113800000Y-122800000D01*
X113800000Y-128450000D02*
X113800000Y-129200000D01*
X113800000Y-129200000D02*
X114550000Y-129200000D01*
X123450000Y-122800000D02*
X124200000Y-122800000D01*
X123450000Y-129200000D02*
X124200000Y-129200000D01*
X124200000Y-122800000D02*
X124200000Y-123550000D01*
X124200000Y-128450000D02*
X124200000Y-129200000D01*
%TO.C,K94*%
X190800001Y-104800000D02*
X191550001Y-104800000D01*
X190800001Y-104950000D02*
X190950001Y-104800000D01*
X190800001Y-105100000D02*
X191100001Y-104800000D01*
X190800001Y-105250000D02*
X191250001Y-104800000D01*
X190800001Y-105400000D02*
X191400001Y-104800000D01*
X190800001Y-105550000D02*
X190800001Y-104800000D01*
X190800001Y-110450000D02*
X190800001Y-111200000D01*
X190800001Y-111200000D02*
X191550001Y-111200000D01*
X200450001Y-104800000D02*
X201200001Y-104800000D01*
X200450001Y-111200000D02*
X201200001Y-111200000D01*
X201200001Y-104800000D02*
X201200001Y-105550000D01*
X201200001Y-110450000D02*
X201200001Y-111200000D01*
%TO.C,K79*%
X168800001Y-113800000D02*
X169550001Y-113800000D01*
X168800001Y-113950000D02*
X168950001Y-113800000D01*
X168800001Y-114100000D02*
X169100001Y-113800000D01*
X168800001Y-114250000D02*
X169250001Y-113800000D01*
X168800001Y-114400000D02*
X169400001Y-113800000D01*
X168800001Y-114550000D02*
X168800001Y-113800000D01*
X168800001Y-119450000D02*
X168800001Y-120200000D01*
X168800001Y-120200000D02*
X169550001Y-120200000D01*
X178450001Y-113800000D02*
X179200001Y-113800000D01*
X178450001Y-120200000D02*
X179200001Y-120200000D01*
X179200001Y-113800000D02*
X179200001Y-114550000D01*
X179200001Y-119450000D02*
X179200001Y-120200000D01*
%TO.C,K70*%
X157800001Y-104800000D02*
X158550001Y-104800000D01*
X157800001Y-104950000D02*
X157950001Y-104800000D01*
X157800001Y-105100000D02*
X158100001Y-104800000D01*
X157800001Y-105250000D02*
X158250001Y-104800000D01*
X157800001Y-105400000D02*
X158400001Y-104800000D01*
X157800001Y-105550000D02*
X157800001Y-104800000D01*
X157800001Y-110450000D02*
X157800001Y-111200000D01*
X157800001Y-111200000D02*
X158550001Y-111200000D01*
X167450001Y-104800000D02*
X168200001Y-104800000D01*
X167450001Y-111200000D02*
X168200001Y-111200000D01*
X168200001Y-104800000D02*
X168200001Y-105550000D01*
X168200001Y-110450000D02*
X168200001Y-111200000D01*
%TO.C,J1*%
X204952500Y-130390000D02*
X205952500Y-130890000D01*
X204952500Y-131390000D02*
X204952500Y-130390000D01*
X205952500Y-130890000D02*
X204952500Y-131390000D01*
X211572500Y-107900000D02*
X211572500Y-136100000D01*
X211572500Y-119950000D02*
X220692500Y-119950000D01*
X211572500Y-124050000D02*
X220692500Y-124050000D01*
X211572500Y-136100000D02*
X220692500Y-136100000D01*
X220692500Y-107900000D02*
X211572500Y-107900000D01*
X220692500Y-136100000D02*
X220692500Y-107900000D01*
%TO.C,K31*%
X102800001Y-113800000D02*
X103550001Y-113800000D01*
X102800001Y-113950000D02*
X102950001Y-113800000D01*
X102800001Y-114100000D02*
X103100001Y-113800000D01*
X102800001Y-114250000D02*
X103250001Y-113800000D01*
X102800001Y-114400000D02*
X103400001Y-113800000D01*
X102800001Y-114550000D02*
X102800001Y-113800000D01*
X102800001Y-119450000D02*
X102800001Y-120200000D01*
X102800001Y-120200000D02*
X103550001Y-120200000D01*
X112450001Y-113800000D02*
X113200001Y-113800000D01*
X112450001Y-120200000D02*
X113200001Y-120200000D01*
X113200001Y-113800000D02*
X113200001Y-114550000D01*
X113200001Y-119450000D02*
X113200001Y-120200000D01*
%TO.C,K29*%
X102800001Y-95800000D02*
X103550001Y-95800000D01*
X102800001Y-95950000D02*
X102950001Y-95800000D01*
X102800001Y-96100000D02*
X103100001Y-95800000D01*
X102800001Y-96250000D02*
X103250001Y-95800000D01*
X102800001Y-96400000D02*
X103400001Y-95800000D01*
X102800001Y-96550000D02*
X102800001Y-95800000D01*
X102800001Y-101450000D02*
X102800001Y-102200000D01*
X102800001Y-102200000D02*
X103550001Y-102200000D01*
X112450001Y-95800000D02*
X113200001Y-95800000D01*
X112450001Y-102200000D02*
X113200001Y-102200000D01*
X113200001Y-95800000D02*
X113200001Y-96550000D01*
X113200001Y-101450000D02*
X113200001Y-102200000D01*
%TO.C,K61*%
X146800001Y-95800000D02*
X147550001Y-95800000D01*
X146800001Y-95950000D02*
X146950001Y-95800000D01*
X146800001Y-96100000D02*
X147100001Y-95800000D01*
X146800001Y-96250000D02*
X147250001Y-95800000D01*
X146800001Y-96400000D02*
X147400001Y-95800000D01*
X146800001Y-96550000D02*
X146800001Y-95800000D01*
X146800001Y-101450000D02*
X146800001Y-102200000D01*
X146800001Y-102200000D02*
X147550001Y-102200000D01*
X156450001Y-95800000D02*
X157200001Y-95800000D01*
X156450001Y-102200000D02*
X157200001Y-102200000D01*
X157200001Y-95800000D02*
X157200001Y-96550000D01*
X157200001Y-101450000D02*
X157200001Y-102200000D01*
%TO.C,K69*%
X157800001Y-95800000D02*
X158550001Y-95800000D01*
X157800001Y-95950000D02*
X157950001Y-95800000D01*
X157800001Y-96100000D02*
X158100001Y-95800000D01*
X157800001Y-96250000D02*
X158250001Y-95800000D01*
X157800001Y-96400000D02*
X158400001Y-95800000D01*
X157800001Y-96550000D02*
X157800001Y-95800000D01*
X157800001Y-101450000D02*
X157800001Y-102200000D01*
X157800001Y-102200000D02*
X158550001Y-102200000D01*
X167450001Y-95800000D02*
X168200001Y-95800000D01*
X167450001Y-102200000D02*
X168200001Y-102200000D01*
X168200001Y-95800000D02*
X168200001Y-96550000D01*
X168200001Y-101450000D02*
X168200001Y-102200000D01*
%TO.C,K32*%
X102800000Y-122800000D02*
X103550000Y-122800000D01*
X102800000Y-122950000D02*
X102950000Y-122800000D01*
X102800000Y-123100000D02*
X103100000Y-122800000D01*
X102800000Y-123250000D02*
X103250000Y-122800000D01*
X102800000Y-123400000D02*
X103400000Y-122800000D01*
X102800000Y-123550000D02*
X102800000Y-122800000D01*
X102800000Y-128450000D02*
X102800000Y-129200000D01*
X102800000Y-129200000D02*
X103550000Y-129200000D01*
X112450000Y-122800000D02*
X113200000Y-122800000D01*
X112450000Y-129200000D02*
X113200000Y-129200000D01*
X113200000Y-122800000D02*
X113200000Y-123550000D01*
X113200000Y-128450000D02*
X113200000Y-129200000D01*
%TO.C,K80*%
X168800000Y-122800000D02*
X169550000Y-122800000D01*
X168800000Y-122950000D02*
X168950000Y-122800000D01*
X168800000Y-123100000D02*
X169100000Y-122800000D01*
X168800000Y-123250000D02*
X169250000Y-122800000D01*
X168800000Y-123400000D02*
X169400000Y-122800000D01*
X168800000Y-123550000D02*
X168800000Y-122800000D01*
X168800000Y-128450000D02*
X168800000Y-129200000D01*
X168800000Y-129200000D02*
X169550000Y-129200000D01*
X178450000Y-122800000D02*
X179200000Y-122800000D01*
X178450000Y-129200000D02*
X179200000Y-129200000D01*
X179200000Y-122800000D02*
X179200000Y-123550000D01*
X179200000Y-128450000D02*
X179200000Y-129200000D01*
%TO.C,K62*%
X146800001Y-104800000D02*
X147550001Y-104800000D01*
X146800001Y-104950000D02*
X146950001Y-104800000D01*
X146800001Y-105100000D02*
X147100001Y-104800000D01*
X146800001Y-105250000D02*
X147250001Y-104800000D01*
X146800001Y-105400000D02*
X147400001Y-104800000D01*
X146800001Y-105550000D02*
X146800001Y-104800000D01*
X146800001Y-110450000D02*
X146800001Y-111200000D01*
X146800001Y-111200000D02*
X147550001Y-111200000D01*
X156450001Y-104800000D02*
X157200001Y-104800000D01*
X156450001Y-111200000D02*
X157200001Y-111200000D01*
X157200001Y-104800000D02*
X157200001Y-105550000D01*
X157200001Y-110450000D02*
X157200001Y-111200000D01*
%TO.C,K8*%
X69800000Y-122800000D02*
X70550000Y-122800000D01*
X69800000Y-122950000D02*
X69950000Y-122800000D01*
X69800000Y-123100000D02*
X70100000Y-122800000D01*
X69800000Y-123250000D02*
X70250000Y-122800000D01*
X69800000Y-123400000D02*
X70400000Y-122800000D01*
X69800000Y-123550000D02*
X69800000Y-122800000D01*
X69800000Y-128450000D02*
X69800000Y-129200000D01*
X69800000Y-129200000D02*
X70550000Y-129200000D01*
X79450000Y-122800000D02*
X80200000Y-122800000D01*
X79450000Y-129200000D02*
X80200000Y-129200000D01*
X80200000Y-122800000D02*
X80200000Y-123550000D01*
X80200000Y-128450000D02*
X80200000Y-129200000D01*
%TO.C,K72*%
X157800000Y-122800000D02*
X158550000Y-122800000D01*
X157800000Y-122950000D02*
X157950000Y-122800000D01*
X157800000Y-123100000D02*
X158100000Y-122800000D01*
X157800000Y-123250000D02*
X158250000Y-122800000D01*
X157800000Y-123400000D02*
X158400000Y-122800000D01*
X157800000Y-123550000D02*
X157800000Y-122800000D01*
X157800000Y-128450000D02*
X157800000Y-129200000D01*
X157800000Y-129200000D02*
X158550000Y-129200000D01*
X167450000Y-122800000D02*
X168200000Y-122800000D01*
X167450000Y-129200000D02*
X168200000Y-129200000D01*
X168200000Y-122800000D02*
X168200000Y-123550000D01*
X168200000Y-128450000D02*
X168200000Y-129200000D01*
%TO.C,K85*%
X179800001Y-95800000D02*
X180550001Y-95800000D01*
X179800001Y-95950000D02*
X179950001Y-95800000D01*
X179800001Y-96100000D02*
X180100001Y-95800000D01*
X179800001Y-96250000D02*
X180250001Y-95800000D01*
X179800001Y-96400000D02*
X180400001Y-95800000D01*
X179800001Y-96550000D02*
X179800001Y-95800000D01*
X179800001Y-101450000D02*
X179800001Y-102200000D01*
X179800001Y-102200000D02*
X180550001Y-102200000D01*
X189450001Y-95800000D02*
X190200001Y-95800000D01*
X189450001Y-102200000D02*
X190200001Y-102200000D01*
X190200001Y-95800000D02*
X190200001Y-96550000D01*
X190200001Y-101450000D02*
X190200001Y-102200000D01*
%TO.C,K7*%
X69800001Y-113800000D02*
X70550001Y-113800000D01*
X69800001Y-113950000D02*
X69950001Y-113800000D01*
X69800001Y-114100000D02*
X70100001Y-113800000D01*
X69800001Y-114250000D02*
X70250001Y-113800000D01*
X69800001Y-114400000D02*
X70400001Y-113800000D01*
X69800001Y-114550000D02*
X69800001Y-113800000D01*
X69800001Y-119450000D02*
X69800001Y-120200000D01*
X69800001Y-120200000D02*
X70550001Y-120200000D01*
X79450001Y-113800000D02*
X80200001Y-113800000D01*
X79450001Y-120200000D02*
X80200001Y-120200000D01*
X80200001Y-113800000D02*
X80200001Y-114550000D01*
X80200001Y-119450000D02*
X80200001Y-120200000D01*
%TO.C,K6*%
X69800001Y-104800000D02*
X70550001Y-104800000D01*
X69800001Y-104950000D02*
X69950001Y-104800000D01*
X69800001Y-105100000D02*
X70100001Y-104800000D01*
X69800001Y-105250000D02*
X70250001Y-104800000D01*
X69800001Y-105400000D02*
X70400001Y-104800000D01*
X69800001Y-105550000D02*
X69800001Y-104800000D01*
X69800001Y-110450000D02*
X69800001Y-111200000D01*
X69800001Y-111200000D02*
X70550001Y-111200000D01*
X79450001Y-104800000D02*
X80200001Y-104800000D01*
X79450001Y-111200000D02*
X80200001Y-111200000D01*
X80200001Y-104800000D02*
X80200001Y-105550000D01*
X80200001Y-110450000D02*
X80200001Y-111200000D01*
%TO.C,K21*%
X91800001Y-95800000D02*
X92550001Y-95800000D01*
X91800001Y-95950000D02*
X91950001Y-95800000D01*
X91800001Y-96100000D02*
X92100001Y-95800000D01*
X91800001Y-96250000D02*
X92250001Y-95800000D01*
X91800001Y-96400000D02*
X92400001Y-95800000D01*
X91800001Y-96550000D02*
X91800001Y-95800000D01*
X91800001Y-101450000D02*
X91800001Y-102200000D01*
X91800001Y-102200000D02*
X92550001Y-102200000D01*
X101450001Y-95800000D02*
X102200001Y-95800000D01*
X101450001Y-102200000D02*
X102200001Y-102200000D01*
X102200001Y-95800000D02*
X102200001Y-96550000D01*
X102200001Y-101450000D02*
X102200001Y-102200000D01*
%TO.C,K95*%
X190800001Y-113800000D02*
X191550001Y-113800000D01*
X190800001Y-113950000D02*
X190950001Y-113800000D01*
X190800001Y-114100000D02*
X191100001Y-113800000D01*
X190800001Y-114250000D02*
X191250001Y-113800000D01*
X190800001Y-114400000D02*
X191400001Y-113800000D01*
X190800001Y-114550000D02*
X190800001Y-113800000D01*
X190800001Y-119450000D02*
X190800001Y-120200000D01*
X190800001Y-120200000D02*
X191550001Y-120200000D01*
X200450001Y-113800000D02*
X201200001Y-113800000D01*
X200450001Y-120200000D02*
X201200001Y-120200000D01*
X201200001Y-113800000D02*
X201200001Y-114550000D01*
X201200001Y-119450000D02*
X201200001Y-120200000D01*
%TO.C,K15*%
X80800001Y-113800000D02*
X81550001Y-113800000D01*
X80800001Y-113950000D02*
X80950001Y-113800000D01*
X80800001Y-114100000D02*
X81100001Y-113800000D01*
X80800001Y-114250000D02*
X81250001Y-113800000D01*
X80800001Y-114400000D02*
X81400001Y-113800000D01*
X80800001Y-114550000D02*
X80800001Y-113800000D01*
X80800001Y-119450000D02*
X80800001Y-120200000D01*
X80800001Y-120200000D02*
X81550001Y-120200000D01*
X90450001Y-113800000D02*
X91200001Y-113800000D01*
X90450001Y-120200000D02*
X91200001Y-120200000D01*
X91200001Y-113800000D02*
X91200001Y-114550000D01*
X91200001Y-119450000D02*
X91200001Y-120200000D01*
%TO.C,K47*%
X124800001Y-113800000D02*
X125550001Y-113800000D01*
X124800001Y-113950000D02*
X124950001Y-113800000D01*
X124800001Y-114100000D02*
X125100001Y-113800000D01*
X124800001Y-114250000D02*
X125250001Y-113800000D01*
X124800001Y-114400000D02*
X125400001Y-113800000D01*
X124800001Y-114550000D02*
X124800001Y-113800000D01*
X124800001Y-119450000D02*
X124800001Y-120200000D01*
X124800001Y-120200000D02*
X125550001Y-120200000D01*
X134450001Y-113800000D02*
X135200001Y-113800000D01*
X134450001Y-120200000D02*
X135200001Y-120200000D01*
X135200001Y-113800000D02*
X135200001Y-114550000D01*
X135200001Y-119450000D02*
X135200001Y-120200000D01*
%TO.C,K13*%
X80800001Y-95800000D02*
X81550001Y-95800000D01*
X80800001Y-95950000D02*
X80950001Y-95800000D01*
X80800001Y-96100000D02*
X81100001Y-95800000D01*
X80800001Y-96250000D02*
X81250001Y-95800000D01*
X80800001Y-96400000D02*
X81400001Y-95800000D01*
X80800001Y-96550000D02*
X80800001Y-95800000D01*
X80800001Y-101450000D02*
X80800001Y-102200000D01*
X80800001Y-102200000D02*
X81550001Y-102200000D01*
X90450001Y-95800000D02*
X91200001Y-95800000D01*
X90450001Y-102200000D02*
X91200001Y-102200000D01*
X91200001Y-95800000D02*
X91200001Y-96550000D01*
X91200001Y-101450000D02*
X91200001Y-102200000D01*
%TO.C,K23*%
X91800001Y-113800000D02*
X92550001Y-113800000D01*
X91800001Y-113950000D02*
X91950001Y-113800000D01*
X91800001Y-114100000D02*
X92100001Y-113800000D01*
X91800001Y-114250000D02*
X92250001Y-113800000D01*
X91800001Y-114400000D02*
X92400001Y-113800000D01*
X91800001Y-114550000D02*
X91800001Y-113800000D01*
X91800001Y-119450000D02*
X91800001Y-120200000D01*
X91800001Y-120200000D02*
X92550001Y-120200000D01*
X101450001Y-113800000D02*
X102200001Y-113800000D01*
X101450001Y-120200000D02*
X102200001Y-120200000D01*
X102200001Y-113800000D02*
X102200001Y-114550000D01*
X102200001Y-119450000D02*
X102200001Y-120200000D01*
%TO.C,K39*%
X113800001Y-113800000D02*
X114550001Y-113800000D01*
X113800001Y-113950000D02*
X113950001Y-113800000D01*
X113800001Y-114100000D02*
X114100001Y-113800000D01*
X113800001Y-114250000D02*
X114250001Y-113800000D01*
X113800001Y-114400000D02*
X114400001Y-113800000D01*
X113800001Y-114550000D02*
X113800001Y-113800000D01*
X113800001Y-119450000D02*
X113800001Y-120200000D01*
X113800001Y-120200000D02*
X114550001Y-120200000D01*
X123450001Y-113800000D02*
X124200001Y-113800000D01*
X123450001Y-120200000D02*
X124200001Y-120200000D01*
X124200001Y-113800000D02*
X124200001Y-114550000D01*
X124200001Y-119450000D02*
X124200001Y-120200000D01*
%TO.C,K48*%
X124800000Y-122800000D02*
X125550000Y-122800000D01*
X124800000Y-122950000D02*
X124950000Y-122800000D01*
X124800000Y-123100000D02*
X125100000Y-122800000D01*
X124800000Y-123250000D02*
X125250000Y-122800000D01*
X124800000Y-123400000D02*
X125400000Y-122800000D01*
X124800000Y-123550000D02*
X124800000Y-122800000D01*
X124800000Y-128450000D02*
X124800000Y-129200000D01*
X124800000Y-129200000D02*
X125550000Y-129200000D01*
X134450000Y-122800000D02*
X135200000Y-122800000D01*
X134450000Y-129200000D02*
X135200000Y-129200000D01*
X135200000Y-122800000D02*
X135200000Y-123550000D01*
X135200000Y-128450000D02*
X135200000Y-129200000D01*
%TO.C,K64*%
X146800000Y-122800000D02*
X147550000Y-122800000D01*
X146800000Y-122950000D02*
X146950000Y-122800000D01*
X146800000Y-123100000D02*
X147100000Y-122800000D01*
X146800000Y-123250000D02*
X147250000Y-122800000D01*
X146800000Y-123400000D02*
X147400000Y-122800000D01*
X146800000Y-123550000D02*
X146800000Y-122800000D01*
X146800000Y-128450000D02*
X146800000Y-129200000D01*
X146800000Y-129200000D02*
X147550000Y-129200000D01*
X156450000Y-122800000D02*
X157200000Y-122800000D01*
X156450000Y-129200000D02*
X157200000Y-129200000D01*
X157200000Y-122800000D02*
X157200000Y-123550000D01*
X157200000Y-128450000D02*
X157200000Y-129200000D01*
%TO.C,K30*%
X102800001Y-104800000D02*
X103550001Y-104800000D01*
X102800001Y-104950000D02*
X102950001Y-104800000D01*
X102800001Y-105100000D02*
X103100001Y-104800000D01*
X102800001Y-105250000D02*
X103250001Y-104800000D01*
X102800001Y-105400000D02*
X103400001Y-104800000D01*
X102800001Y-105550000D02*
X102800001Y-104800000D01*
X102800001Y-110450000D02*
X102800001Y-111200000D01*
X102800001Y-111200000D02*
X103550001Y-111200000D01*
X112450001Y-104800000D02*
X113200001Y-104800000D01*
X112450001Y-111200000D02*
X113200001Y-111200000D01*
X113200001Y-104800000D02*
X113200001Y-105550000D01*
X113200001Y-110450000D02*
X113200001Y-111200000D01*
%TO.C,K53*%
X135800001Y-95800000D02*
X136550001Y-95800000D01*
X135800001Y-95950000D02*
X135950001Y-95800000D01*
X135800001Y-96100000D02*
X136100001Y-95800000D01*
X135800001Y-96250000D02*
X136250001Y-95800000D01*
X135800001Y-96400000D02*
X136400001Y-95800000D01*
X135800001Y-96550000D02*
X135800001Y-95800000D01*
X135800001Y-101450000D02*
X135800001Y-102200000D01*
X135800001Y-102200000D02*
X136550001Y-102200000D01*
X145450001Y-95800000D02*
X146200001Y-95800000D01*
X145450001Y-102200000D02*
X146200001Y-102200000D01*
X146200001Y-95800000D02*
X146200001Y-96550000D01*
X146200001Y-101450000D02*
X146200001Y-102200000D01*
%TO.C,K16*%
X80800000Y-122800000D02*
X81550000Y-122800000D01*
X80800000Y-122950000D02*
X80950000Y-122800000D01*
X80800000Y-123100000D02*
X81100000Y-122800000D01*
X80800000Y-123250000D02*
X81250000Y-122800000D01*
X80800000Y-123400000D02*
X81400000Y-122800000D01*
X80800000Y-123550000D02*
X80800000Y-122800000D01*
X80800000Y-128450000D02*
X80800000Y-129200000D01*
X80800000Y-129200000D02*
X81550000Y-129200000D01*
X90450000Y-122800000D02*
X91200000Y-122800000D01*
X90450000Y-129200000D02*
X91200000Y-129200000D01*
X91200000Y-122800000D02*
X91200000Y-123550000D01*
X91200000Y-128450000D02*
X91200000Y-129200000D01*
%TO.C,K86*%
X179800001Y-104800000D02*
X180550001Y-104800000D01*
X179800001Y-104950000D02*
X179950001Y-104800000D01*
X179800001Y-105100000D02*
X180100001Y-104800000D01*
X179800001Y-105250000D02*
X180250001Y-104800000D01*
X179800001Y-105400000D02*
X180400001Y-104800000D01*
X179800001Y-105550000D02*
X179800001Y-104800000D01*
X179800001Y-110450000D02*
X179800001Y-111200000D01*
X179800001Y-111200000D02*
X180550001Y-111200000D01*
X189450001Y-104800000D02*
X190200001Y-104800000D01*
X189450001Y-111200000D02*
X190200001Y-111200000D01*
X190200001Y-104800000D02*
X190200001Y-105550000D01*
X190200001Y-110450000D02*
X190200001Y-111200000D01*
%TO.C,K54*%
X135800001Y-104800000D02*
X136550001Y-104800000D01*
X135800001Y-104950000D02*
X135950001Y-104800000D01*
X135800001Y-105100000D02*
X136100001Y-104800000D01*
X135800001Y-105250000D02*
X136250001Y-104800000D01*
X135800001Y-105400000D02*
X136400001Y-104800000D01*
X135800001Y-105550000D02*
X135800001Y-104800000D01*
X135800001Y-110450000D02*
X135800001Y-111200000D01*
X135800001Y-111200000D02*
X136550001Y-111200000D01*
X145450001Y-104800000D02*
X146200001Y-104800000D01*
X145450001Y-111200000D02*
X146200001Y-111200000D01*
X146200001Y-104800000D02*
X146200001Y-105550000D01*
X146200001Y-110450000D02*
X146200001Y-111200000D01*
%TO.C,K46*%
X124800001Y-104800000D02*
X125550001Y-104800000D01*
X124800001Y-104950000D02*
X124950001Y-104800000D01*
X124800001Y-105100000D02*
X125100001Y-104800000D01*
X124800001Y-105250000D02*
X125250001Y-104800000D01*
X124800001Y-105400000D02*
X125400001Y-104800000D01*
X124800001Y-105550000D02*
X124800001Y-104800000D01*
X124800001Y-110450000D02*
X124800001Y-111200000D01*
X124800001Y-111200000D02*
X125550001Y-111200000D01*
X134450001Y-104800000D02*
X135200001Y-104800000D01*
X134450001Y-111200000D02*
X135200001Y-111200000D01*
X135200001Y-104800000D02*
X135200001Y-105550000D01*
X135200001Y-110450000D02*
X135200001Y-111200000D01*
%TO.C,K38*%
X113800001Y-104800000D02*
X114550001Y-104800000D01*
X113800001Y-104950000D02*
X113950001Y-104800000D01*
X113800001Y-105100000D02*
X114100001Y-104800000D01*
X113800001Y-105250000D02*
X114250001Y-104800000D01*
X113800001Y-105400000D02*
X114400001Y-104800000D01*
X113800001Y-105550000D02*
X113800001Y-104800000D01*
X113800001Y-110450000D02*
X113800001Y-111200000D01*
X113800001Y-111200000D02*
X114550001Y-111200000D01*
X123450001Y-104800000D02*
X124200001Y-104800000D01*
X123450001Y-111200000D02*
X124200001Y-111200000D01*
X124200001Y-104800000D02*
X124200001Y-105550000D01*
X124200001Y-110450000D02*
X124200001Y-111200000D01*
%TO.C,K87*%
X179800001Y-113800000D02*
X180550001Y-113800000D01*
X179800001Y-113950000D02*
X179950001Y-113800000D01*
X179800001Y-114100000D02*
X180100001Y-113800000D01*
X179800001Y-114250000D02*
X180250001Y-113800000D01*
X179800001Y-114400000D02*
X180400001Y-113800000D01*
X179800001Y-114550000D02*
X179800001Y-113800000D01*
X179800001Y-119450000D02*
X179800001Y-120200000D01*
X179800001Y-120200000D02*
X180550001Y-120200000D01*
X189450001Y-113800000D02*
X190200001Y-113800000D01*
X189450001Y-120200000D02*
X190200001Y-120200000D01*
X190200001Y-113800000D02*
X190200001Y-114550000D01*
X190200001Y-119450000D02*
X190200001Y-120200000D01*
%TO.C,K88*%
X179800000Y-122800000D02*
X180550000Y-122800000D01*
X179800000Y-122950000D02*
X179950000Y-122800000D01*
X179800000Y-123100000D02*
X180100000Y-122800000D01*
X179800000Y-123250000D02*
X180250000Y-122800000D01*
X179800000Y-123400000D02*
X180400000Y-122800000D01*
X179800000Y-123550000D02*
X179800000Y-122800000D01*
X179800000Y-128450000D02*
X179800000Y-129200000D01*
X179800000Y-129200000D02*
X180550000Y-129200000D01*
X189450000Y-122800000D02*
X190200000Y-122800000D01*
X189450000Y-129200000D02*
X190200000Y-129200000D01*
X190200000Y-122800000D02*
X190200000Y-123550000D01*
X190200000Y-128450000D02*
X190200000Y-129200000D01*
%TO.C,K63*%
X146800001Y-113800000D02*
X147550001Y-113800000D01*
X146800001Y-113950000D02*
X146950001Y-113800000D01*
X146800001Y-114100000D02*
X147100001Y-113800000D01*
X146800001Y-114250000D02*
X147250001Y-113800000D01*
X146800001Y-114400000D02*
X147400001Y-113800000D01*
X146800001Y-114550000D02*
X146800001Y-113800000D01*
X146800001Y-119450000D02*
X146800001Y-120200000D01*
X146800001Y-120200000D02*
X147550001Y-120200000D01*
X156450001Y-113800000D02*
X157200001Y-113800000D01*
X156450001Y-120200000D02*
X157200001Y-120200000D01*
X157200001Y-113800000D02*
X157200001Y-114550000D01*
X157200001Y-119450000D02*
X157200001Y-120200000D01*
%TO.C,K56*%
X135800000Y-122800000D02*
X136550000Y-122800000D01*
X135800000Y-122950000D02*
X135950000Y-122800000D01*
X135800000Y-123100000D02*
X136100000Y-122800000D01*
X135800000Y-123250000D02*
X136250000Y-122800000D01*
X135800000Y-123400000D02*
X136400000Y-122800000D01*
X135800000Y-123550000D02*
X135800000Y-122800000D01*
X135800000Y-128450000D02*
X135800000Y-129200000D01*
X135800000Y-129200000D02*
X136550000Y-129200000D01*
X145450000Y-122800000D02*
X146200000Y-122800000D01*
X145450000Y-129200000D02*
X146200000Y-129200000D01*
X146200000Y-122800000D02*
X146200000Y-123550000D01*
X146200000Y-128450000D02*
X146200000Y-129200000D01*
%TD*%
M02*
