%TF.GenerationSoftware,KiCad,Pcbnew,9.0.6*%
%TF.CreationDate,2026-01-20T12:42:19+01:00*%
%TF.ProjectId,spimux,7370696d-7578-42e6-9b69-6361645f7063,rev?*%
%TF.SameCoordinates,Original*%
%TF.FileFunction,Soldermask,Top*%
%TF.FilePolarity,Negative*%
%FSLAX46Y46*%
G04 Gerber Fmt 4.6, Leading zero omitted, Abs format (unit mm)*
G04 Created by KiCad (PCBNEW 9.0.6) date 2026-01-20 12:42:19*
%MOMM*%
%LPD*%
G01*
G04 APERTURE LIST*
G04 Aperture macros list*
%AMRoundRect*
0 Rectangle with rounded corners*
0 $1 Rounding radius*
0 $2 $3 $4 $5 $6 $7 $8 $9 X,Y pos of 4 corners*
0 Add a 4 corners polygon primitive as box body*
4,1,4,$2,$3,$4,$5,$6,$7,$8,$9,$2,$3,0*
0 Add four circle primitives for the rounded corners*
1,1,$1+$1,$2,$3*
1,1,$1+$1,$4,$5*
1,1,$1+$1,$6,$7*
1,1,$1+$1,$8,$9*
0 Add four rect primitives between the rounded corners*
20,1,$1+$1,$2,$3,$4,$5,0*
20,1,$1+$1,$4,$5,$6,$7,0*
20,1,$1+$1,$6,$7,$8,$9,0*
20,1,$1+$1,$8,$9,$2,$3,0*%
G04 Aperture macros list end*
%ADD10RoundRect,0.100000X0.100000X-0.637500X0.100000X0.637500X-0.100000X0.637500X-0.100000X-0.637500X0*%
%ADD11R,0.700000X2.000000*%
%ADD12RoundRect,0.250000X0.600000X0.600000X-0.600000X0.600000X-0.600000X-0.600000X0.600000X-0.600000X0*%
%ADD13C,1.700000*%
%ADD14R,0.300000X0.800000*%
%ADD15RoundRect,0.200000X0.200000X0.275000X-0.200000X0.275000X-0.200000X-0.275000X0.200000X-0.275000X0*%
%ADD16RoundRect,0.225000X-0.250000X0.225000X-0.250000X-0.225000X0.250000X-0.225000X0.250000X0.225000X0*%
%ADD17RoundRect,0.225000X0.250000X-0.225000X0.250000X0.225000X-0.250000X0.225000X-0.250000X-0.225000X0*%
%ADD18C,0.800000*%
%ADD19C,6.400000*%
%ADD20C,2.400000*%
%ADD21RoundRect,0.333333X0.866667X1.466667X-0.866667X1.466667X-0.866667X-1.466667X0.866667X-1.466667X0*%
%ADD22O,2.400000X3.600000*%
%ADD23RoundRect,0.250000X0.450000X-0.262500X0.450000X0.262500X-0.450000X0.262500X-0.450000X-0.262500X0*%
%ADD24RoundRect,0.200000X0.275000X-0.200000X0.275000X0.200000X-0.275000X0.200000X-0.275000X-0.200000X0*%
%ADD25RoundRect,0.333333X-1.466667X0.866667X-1.466667X-0.866667X1.466667X-0.866667X1.466667X0.866667X0*%
%ADD26O,3.600000X2.400000*%
%ADD27RoundRect,0.250000X-0.600000X-0.600000X0.600000X-0.600000X0.600000X0.600000X-0.600000X0.600000X0*%
G04 APERTURE END LIST*
D10*
%TO.C,U5*%
X95369000Y-139244500D03*
X96019000Y-139244500D03*
X96669000Y-139244500D03*
X97319000Y-139244500D03*
X97969000Y-139244500D03*
X98619000Y-139244500D03*
X99269000Y-139244500D03*
X99919000Y-139244500D03*
X99919000Y-133519500D03*
X99269000Y-133519500D03*
X98619000Y-133519500D03*
X97969000Y-133519500D03*
X97319000Y-133519500D03*
X96669000Y-133519500D03*
X96019000Y-133519500D03*
X95369000Y-133519500D03*
%TD*%
D11*
%TO.C,K50*%
X144800000Y-105000000D03*
X141600000Y-105000000D03*
X139400000Y-105000000D03*
X137200000Y-105000000D03*
X137200000Y-111000000D03*
X139400000Y-111000000D03*
X141600000Y-111000000D03*
X144800000Y-111000000D03*
%TD*%
%TO.C,K91*%
X199800000Y-114000000D03*
X196600000Y-114000000D03*
X194400000Y-114000000D03*
X192200000Y-114000000D03*
X192200000Y-120000000D03*
X194400000Y-120000000D03*
X196600000Y-120000000D03*
X199800000Y-120000000D03*
%TD*%
D10*
%TO.C,U7*%
X117369000Y-139244500D03*
X118019000Y-139244500D03*
X118669000Y-139244500D03*
X119319000Y-139244500D03*
X119969000Y-139244500D03*
X120619000Y-139244500D03*
X121269000Y-139244500D03*
X121919000Y-139244500D03*
X121919000Y-133519500D03*
X121269000Y-133519500D03*
X120619000Y-133519500D03*
X119969000Y-133519500D03*
X119319000Y-133519500D03*
X118669000Y-133519500D03*
X118019000Y-133519500D03*
X117369000Y-133519500D03*
%TD*%
D12*
%TO.C,J2*%
X63697500Y-130890000D03*
D13*
X61157500Y-130890000D03*
X63697500Y-128350000D03*
X61157500Y-128350000D03*
X63697500Y-125810000D03*
X61157500Y-125810000D03*
X63697500Y-123270000D03*
X61157500Y-123270000D03*
X63697500Y-120730000D03*
X61157500Y-120730000D03*
X63697500Y-118190000D03*
X61157500Y-118190000D03*
X63697500Y-115650000D03*
X61157500Y-115650000D03*
X63697500Y-113110000D03*
X61157500Y-113110000D03*
%TD*%
D11*
%TO.C,K75*%
X177800000Y-114000000D03*
X174600000Y-114000000D03*
X172400000Y-114000000D03*
X170200000Y-114000000D03*
X170200000Y-120000000D03*
X172400000Y-120000000D03*
X174600000Y-120000000D03*
X177800000Y-120000000D03*
%TD*%
D14*
%TO.C,U1*%
X203250000Y-141550000D03*
X203750000Y-141550000D03*
X204250000Y-141550000D03*
X204750000Y-141550000D03*
X204750000Y-138450000D03*
X204250000Y-138450000D03*
X203750000Y-138450000D03*
X203250000Y-138450000D03*
%TD*%
D11*
%TO.C,K34*%
X122800000Y-105000000D03*
X119600000Y-105000000D03*
X117400000Y-105000000D03*
X115200000Y-105000000D03*
X115200000Y-111000000D03*
X117400000Y-111000000D03*
X119600000Y-111000000D03*
X122800000Y-111000000D03*
%TD*%
D10*
%TO.C,U13*%
X183369000Y-139244500D03*
X184019000Y-139244500D03*
X184669000Y-139244500D03*
X185319000Y-139244500D03*
X185969000Y-139244500D03*
X186619000Y-139244500D03*
X187269000Y-139244500D03*
X187919000Y-139244500D03*
X187919000Y-133519500D03*
X187269000Y-133519500D03*
X186619000Y-133519500D03*
X185969000Y-133519500D03*
X185319000Y-133519500D03*
X184669000Y-133519500D03*
X184019000Y-133519500D03*
X183369000Y-133519500D03*
%TD*%
D11*
%TO.C,K68*%
X166800000Y-123000000D03*
X163600000Y-123000000D03*
X161400000Y-123000000D03*
X159200000Y-123000000D03*
X159200000Y-129000000D03*
X161400000Y-129000000D03*
X163600000Y-129000000D03*
X166800000Y-129000000D03*
%TD*%
D15*
%TO.C,R5*%
X67825000Y-126500000D03*
X66175000Y-126500000D03*
%TD*%
D11*
%TO.C,K52*%
X144800000Y-123000000D03*
X141600000Y-123000000D03*
X139400000Y-123000000D03*
X137200000Y-123000000D03*
X137200000Y-129000000D03*
X139400000Y-129000000D03*
X141600000Y-129000000D03*
X144800000Y-129000000D03*
%TD*%
D16*
%TO.C,C2*%
X201500000Y-139225000D03*
X201500000Y-140775000D03*
%TD*%
D11*
%TO.C,K33*%
X122800000Y-96000000D03*
X119600000Y-96000000D03*
X117400000Y-96000000D03*
X115200000Y-96000000D03*
X115200000Y-102000000D03*
X117400000Y-102000000D03*
X119600000Y-102000000D03*
X122800000Y-102000000D03*
%TD*%
%TO.C,K74*%
X177800000Y-105000000D03*
X174600000Y-105000000D03*
X172400000Y-105000000D03*
X170200000Y-105000000D03*
X170200000Y-111000000D03*
X172400000Y-111000000D03*
X174600000Y-111000000D03*
X177800000Y-111000000D03*
%TD*%
D15*
%TO.C,R2*%
X67825000Y-131000000D03*
X66175000Y-131000000D03*
%TD*%
D11*
%TO.C,K3*%
X78800000Y-114000000D03*
X75600000Y-114000000D03*
X73400000Y-114000000D03*
X71200000Y-114000000D03*
X71200000Y-120000000D03*
X73400000Y-120000000D03*
X75600000Y-120000000D03*
X78800000Y-120000000D03*
%TD*%
%TO.C,K90*%
X199800000Y-105000000D03*
X196600000Y-105000000D03*
X194400000Y-105000000D03*
X192200000Y-105000000D03*
X192200000Y-111000000D03*
X194400000Y-111000000D03*
X196600000Y-111000000D03*
X199800000Y-111000000D03*
%TD*%
%TO.C,K44*%
X133800000Y-123000000D03*
X130600000Y-123000000D03*
X128400000Y-123000000D03*
X126200000Y-123000000D03*
X126200000Y-129000000D03*
X128400000Y-129000000D03*
X130600000Y-129000000D03*
X133800000Y-129000000D03*
%TD*%
%TO.C,K42*%
X133800000Y-105000000D03*
X130600000Y-105000000D03*
X128400000Y-105000000D03*
X126200000Y-105000000D03*
X126200000Y-111000000D03*
X128400000Y-111000000D03*
X130600000Y-111000000D03*
X133800000Y-111000000D03*
%TD*%
%TO.C,K84*%
X188800000Y-123000000D03*
X185600000Y-123000000D03*
X183400000Y-123000000D03*
X181200000Y-123000000D03*
X181200000Y-129000000D03*
X183400000Y-129000000D03*
X185600000Y-129000000D03*
X188800000Y-129000000D03*
%TD*%
%TO.C,K2*%
X78800000Y-105000000D03*
X75600000Y-105000000D03*
X73400000Y-105000000D03*
X71200000Y-105000000D03*
X71200000Y-111000000D03*
X73400000Y-111000000D03*
X75600000Y-111000000D03*
X78800000Y-111000000D03*
%TD*%
D10*
%TO.C,U9*%
X139369000Y-139244500D03*
X140019000Y-139244500D03*
X140669000Y-139244500D03*
X141319000Y-139244500D03*
X141969000Y-139244500D03*
X142619000Y-139244500D03*
X143269000Y-139244500D03*
X143919000Y-139244500D03*
X143919000Y-133519500D03*
X143269000Y-133519500D03*
X142619000Y-133519500D03*
X141969000Y-133519500D03*
X141319000Y-133519500D03*
X140669000Y-133519500D03*
X140019000Y-133519500D03*
X139369000Y-133519500D03*
%TD*%
%TO.C,U4*%
X84369000Y-139244500D03*
X85019000Y-139244500D03*
X85669000Y-139244500D03*
X86319000Y-139244500D03*
X86969000Y-139244500D03*
X87619000Y-139244500D03*
X88269000Y-139244500D03*
X88919000Y-139244500D03*
X88919000Y-133519500D03*
X88269000Y-133519500D03*
X87619000Y-133519500D03*
X86969000Y-133519500D03*
X86319000Y-133519500D03*
X85669000Y-133519500D03*
X85019000Y-133519500D03*
X84369000Y-133519500D03*
%TD*%
D17*
%TO.C,C5*%
X93834000Y-136903001D03*
X93834000Y-135353001D03*
%TD*%
D16*
%TO.C,C1*%
X201500000Y-134225000D03*
X201500000Y-135775000D03*
%TD*%
D11*
%TO.C,K19*%
X100800000Y-114000000D03*
X97600000Y-114000000D03*
X95400000Y-114000000D03*
X93200000Y-114000000D03*
X93200000Y-120000000D03*
X95400000Y-120000000D03*
X97600000Y-120000000D03*
X100800000Y-120000000D03*
%TD*%
%TO.C,K12*%
X89800000Y-123000000D03*
X86600000Y-123000000D03*
X84400000Y-123000000D03*
X82200000Y-123000000D03*
X82200000Y-129000000D03*
X84400000Y-129000000D03*
X86600000Y-129000000D03*
X89800000Y-129000000D03*
%TD*%
%TO.C,K41*%
X133800000Y-96000000D03*
X130600000Y-96000000D03*
X128400000Y-96000000D03*
X126200000Y-96000000D03*
X126200000Y-102000000D03*
X128400000Y-102000000D03*
X130600000Y-102000000D03*
X133800000Y-102000000D03*
%TD*%
D18*
%TO.C,H1*%
X56100000Y-88500000D03*
X56802944Y-86802944D03*
X56802944Y-90197056D03*
X58500000Y-86100000D03*
D19*
X58500000Y-88500000D03*
D18*
X58500000Y-90900000D03*
X60197056Y-86802944D03*
X60197056Y-90197056D03*
X60900000Y-88500000D03*
%TD*%
D11*
%TO.C,K58*%
X155800000Y-105000000D03*
X152600000Y-105000000D03*
X150400000Y-105000000D03*
X148200000Y-105000000D03*
X148200000Y-111000000D03*
X150400000Y-111000000D03*
X152600000Y-111000000D03*
X155800000Y-111000000D03*
%TD*%
D17*
%TO.C,C4*%
X82834000Y-136903001D03*
X82834000Y-135353001D03*
%TD*%
D10*
%TO.C,U11*%
X161369000Y-139244500D03*
X162019000Y-139244500D03*
X162669000Y-139244500D03*
X163319000Y-139244500D03*
X163969000Y-139244500D03*
X164619000Y-139244500D03*
X165269000Y-139244500D03*
X165919000Y-139244500D03*
X165919000Y-133519500D03*
X165269000Y-133519500D03*
X164619000Y-133519500D03*
X163969000Y-133519500D03*
X163319000Y-133519500D03*
X162669000Y-133519500D03*
X162019000Y-133519500D03*
X161369000Y-133519500D03*
%TD*%
D20*
%TO.C,J4*%
X203385000Y-89032500D03*
X138505000Y-89032500D03*
D21*
X198885000Y-89932500D03*
D22*
X193805000Y-89932500D03*
X188725000Y-89932500D03*
X183645000Y-89932500D03*
X178565000Y-89932500D03*
X173485000Y-89932500D03*
X168405000Y-89932500D03*
X163325000Y-89932500D03*
X158245000Y-89932500D03*
X153165000Y-89932500D03*
X148085000Y-89932500D03*
X143005000Y-89932500D03*
%TD*%
D11*
%TO.C,K11*%
X89800000Y-114000000D03*
X86600000Y-114000000D03*
X84400000Y-114000000D03*
X82200000Y-114000000D03*
X82200000Y-120000000D03*
X84400000Y-120000000D03*
X86600000Y-120000000D03*
X89800000Y-120000000D03*
%TD*%
D10*
%TO.C,U3*%
X73369000Y-139244500D03*
X74019000Y-139244500D03*
X74669000Y-139244500D03*
X75319000Y-139244500D03*
X75969000Y-139244500D03*
X76619000Y-139244500D03*
X77269000Y-139244500D03*
X77919000Y-139244500D03*
X77919000Y-133519500D03*
X77269000Y-133519500D03*
X76619000Y-133519500D03*
X75969000Y-133519500D03*
X75319000Y-133519500D03*
X74669000Y-133519500D03*
X74019000Y-133519500D03*
X73369000Y-133519500D03*
%TD*%
D11*
%TO.C,K17*%
X100800000Y-96000000D03*
X97600000Y-96000000D03*
X95400000Y-96000000D03*
X93200000Y-96000000D03*
X93200000Y-102000000D03*
X95400000Y-102000000D03*
X97600000Y-102000000D03*
X100800000Y-102000000D03*
%TD*%
%TO.C,K57*%
X155800000Y-96000000D03*
X152600000Y-96000000D03*
X150400000Y-96000000D03*
X148200000Y-96000000D03*
X148200000Y-102000000D03*
X150400000Y-102000000D03*
X152600000Y-102000000D03*
X155800000Y-102000000D03*
%TD*%
D10*
%TO.C,U6*%
X106369000Y-139244500D03*
X107019000Y-139244500D03*
X107669000Y-139244500D03*
X108319000Y-139244500D03*
X108969000Y-139244500D03*
X109619000Y-139244500D03*
X110269000Y-139244500D03*
X110919000Y-139244500D03*
X110919000Y-133519500D03*
X110269000Y-133519500D03*
X109619000Y-133519500D03*
X108969000Y-133519500D03*
X108319000Y-133519500D03*
X107669000Y-133519500D03*
X107019000Y-133519500D03*
X106369000Y-133519500D03*
%TD*%
D23*
%TO.C,JP1*%
X65000000Y-108912500D03*
X65000000Y-107087500D03*
%TD*%
D11*
%TO.C,K25*%
X111800000Y-96000000D03*
X108600000Y-96000000D03*
X106400000Y-96000000D03*
X104200000Y-96000000D03*
X104200000Y-102000000D03*
X106400000Y-102000000D03*
X108600000Y-102000000D03*
X111800000Y-102000000D03*
%TD*%
D15*
%TO.C,R3*%
X67825000Y-128000000D03*
X66175000Y-128000000D03*
%TD*%
D17*
%TO.C,C10*%
X148834000Y-136903001D03*
X148834000Y-135353001D03*
%TD*%
D11*
%TO.C,K66*%
X166800000Y-105000000D03*
X163600000Y-105000000D03*
X161400000Y-105000000D03*
X159200000Y-105000000D03*
X159200000Y-111000000D03*
X161400000Y-111000000D03*
X163600000Y-111000000D03*
X166800000Y-111000000D03*
%TD*%
%TO.C,K28*%
X111800000Y-123000000D03*
X108600000Y-123000000D03*
X106400000Y-123000000D03*
X104200000Y-123000000D03*
X104200000Y-129000000D03*
X106400000Y-129000000D03*
X108600000Y-129000000D03*
X111800000Y-129000000D03*
%TD*%
D24*
%TO.C,R7*%
X206000000Y-136825000D03*
X206000000Y-135175000D03*
%TD*%
D17*
%TO.C,C6*%
X104834000Y-136903001D03*
X104834000Y-135353001D03*
%TD*%
D11*
%TO.C,K20*%
X100800000Y-123000000D03*
X97600000Y-123000000D03*
X95400000Y-123000000D03*
X93200000Y-123000000D03*
X93200000Y-129000000D03*
X95400000Y-129000000D03*
X97600000Y-129000000D03*
X100800000Y-129000000D03*
%TD*%
%TO.C,K83*%
X188800000Y-114000000D03*
X185600000Y-114000000D03*
X183400000Y-114000000D03*
X181200000Y-114000000D03*
X181200000Y-120000000D03*
X183400000Y-120000000D03*
X185600000Y-120000000D03*
X188800000Y-120000000D03*
%TD*%
D23*
%TO.C,JP3*%
X204000000Y-108912500D03*
X204000000Y-107087500D03*
%TD*%
D14*
%TO.C,U2*%
X203250000Y-136550000D03*
X203750000Y-136550000D03*
X204250000Y-136550000D03*
X204750000Y-136550000D03*
X204750000Y-133450000D03*
X204250000Y-133450000D03*
X203750000Y-133450000D03*
X203250000Y-133450000D03*
%TD*%
D17*
%TO.C,C14*%
X192834000Y-136903001D03*
X192834000Y-135353001D03*
%TD*%
D10*
%TO.C,U12*%
X172369000Y-139244500D03*
X173019000Y-139244500D03*
X173669000Y-139244500D03*
X174319000Y-139244500D03*
X174969000Y-139244500D03*
X175619000Y-139244500D03*
X176269000Y-139244500D03*
X176919000Y-139244500D03*
X176919000Y-133519500D03*
X176269000Y-133519500D03*
X175619000Y-133519500D03*
X174969000Y-133519500D03*
X174319000Y-133519500D03*
X173669000Y-133519500D03*
X173019000Y-133519500D03*
X172369000Y-133519500D03*
%TD*%
D23*
%TO.C,JP4*%
X208000000Y-108912500D03*
X208000000Y-107087500D03*
%TD*%
D11*
%TO.C,K67*%
X166800000Y-114000000D03*
X163600000Y-114000000D03*
X161400000Y-114000000D03*
X159200000Y-114000000D03*
X159200000Y-120000000D03*
X161400000Y-120000000D03*
X163600000Y-120000000D03*
X166800000Y-120000000D03*
%TD*%
D24*
%TO.C,JP5*%
X68794227Y-136943808D03*
X68794227Y-135293808D03*
%TD*%
%TO.C,R1*%
X207500000Y-136825000D03*
X207500000Y-135175000D03*
%TD*%
D11*
%TO.C,K18*%
X100800000Y-105000000D03*
X97600000Y-105000000D03*
X95400000Y-105000000D03*
X93200000Y-105000000D03*
X93200000Y-111000000D03*
X95400000Y-111000000D03*
X97600000Y-111000000D03*
X100800000Y-111000000D03*
%TD*%
D18*
%TO.C,H3*%
X209100000Y-141500000D03*
X209802944Y-139802944D03*
X209802944Y-143197056D03*
X211500000Y-139100000D03*
D19*
X211500000Y-141500000D03*
D18*
X211500000Y-143900000D03*
X213197056Y-139802944D03*
X213197056Y-143197056D03*
X213900000Y-141500000D03*
%TD*%
D11*
%TO.C,K81*%
X188800000Y-96000000D03*
X185600000Y-96000000D03*
X183400000Y-96000000D03*
X181200000Y-96000000D03*
X181200000Y-102000000D03*
X183400000Y-102000000D03*
X185600000Y-102000000D03*
X188800000Y-102000000D03*
%TD*%
%TO.C,K36*%
X122800000Y-123000000D03*
X119600000Y-123000000D03*
X117400000Y-123000000D03*
X115200000Y-123000000D03*
X115200000Y-129000000D03*
X117400000Y-129000000D03*
X119600000Y-129000000D03*
X122800000Y-129000000D03*
%TD*%
D18*
%TO.C,H2*%
X209100000Y-88500000D03*
X209802944Y-86802944D03*
X209802944Y-90197056D03*
X211500000Y-86100000D03*
D19*
X211500000Y-88500000D03*
D18*
X211500000Y-90900000D03*
X213197056Y-86802944D03*
X213197056Y-90197056D03*
X213900000Y-88500000D03*
%TD*%
D15*
%TO.C,R6*%
X67825000Y-125000000D03*
X66175000Y-125000000D03*
%TD*%
D10*
%TO.C,U8*%
X128369000Y-139244500D03*
X129019000Y-139244500D03*
X129669000Y-139244500D03*
X130319000Y-139244500D03*
X130969000Y-139244500D03*
X131619000Y-139244500D03*
X132269000Y-139244500D03*
X132919000Y-139244500D03*
X132919000Y-133519500D03*
X132269000Y-133519500D03*
X131619000Y-133519500D03*
X130969000Y-133519500D03*
X130319000Y-133519500D03*
X129669000Y-133519500D03*
X129019000Y-133519500D03*
X128369000Y-133519500D03*
%TD*%
D11*
%TO.C,K73*%
X177800000Y-96000000D03*
X174600000Y-96000000D03*
X172400000Y-96000000D03*
X170200000Y-96000000D03*
X170200000Y-102000000D03*
X172400000Y-102000000D03*
X174600000Y-102000000D03*
X177800000Y-102000000D03*
%TD*%
D17*
%TO.C,C9*%
X137834000Y-136903001D03*
X137834000Y-135353001D03*
%TD*%
D10*
%TO.C,U10*%
X150369000Y-139244500D03*
X151019000Y-139244500D03*
X151669000Y-139244500D03*
X152319000Y-139244500D03*
X152969000Y-139244500D03*
X153619000Y-139244500D03*
X154269000Y-139244500D03*
X154919000Y-139244500D03*
X154919000Y-133519500D03*
X154269000Y-133519500D03*
X153619000Y-133519500D03*
X152969000Y-133519500D03*
X152319000Y-133519500D03*
X151669000Y-133519500D03*
X151019000Y-133519500D03*
X150369000Y-133519500D03*
%TD*%
D17*
%TO.C,C7*%
X115834000Y-136903001D03*
X115834000Y-135353001D03*
%TD*%
%TO.C,C13*%
X181834000Y-136903001D03*
X181834000Y-135353001D03*
%TD*%
D11*
%TO.C,K82*%
X188800000Y-105000000D03*
X185600000Y-105000000D03*
X183400000Y-105000000D03*
X181200000Y-105000000D03*
X181200000Y-111000000D03*
X183400000Y-111000000D03*
X185600000Y-111000000D03*
X188800000Y-111000000D03*
%TD*%
D17*
%TO.C,C3*%
X71834000Y-136903001D03*
X71834000Y-135353001D03*
%TD*%
D11*
%TO.C,K4*%
X78800000Y-123000000D03*
X75600000Y-123000000D03*
X73400000Y-123000000D03*
X71200000Y-123000000D03*
X71200000Y-129000000D03*
X73400000Y-129000000D03*
X75600000Y-129000000D03*
X78800000Y-129000000D03*
%TD*%
D24*
%TO.C,JP6*%
X70294227Y-136943808D03*
X70294227Y-135293808D03*
%TD*%
D17*
%TO.C,C11*%
X159834000Y-136903001D03*
X159834000Y-135353001D03*
%TD*%
D15*
%TO.C,R4*%
X67825000Y-129500000D03*
X66175000Y-129500000D03*
%TD*%
D11*
%TO.C,K43*%
X133800000Y-114000000D03*
X130600000Y-114000000D03*
X128400000Y-114000000D03*
X126200000Y-114000000D03*
X126200000Y-120000000D03*
X128400000Y-120000000D03*
X130600000Y-120000000D03*
X133800000Y-120000000D03*
%TD*%
%TO.C,K60*%
X155800000Y-123000000D03*
X152600000Y-123000000D03*
X150400000Y-123000000D03*
X148200000Y-123000000D03*
X148200000Y-129000000D03*
X150400000Y-129000000D03*
X152600000Y-129000000D03*
X155800000Y-129000000D03*
%TD*%
%TO.C,K65*%
X166800000Y-96000000D03*
X163600000Y-96000000D03*
X161400000Y-96000000D03*
X159200000Y-96000000D03*
X159200000Y-102000000D03*
X161400000Y-102000000D03*
X163600000Y-102000000D03*
X166800000Y-102000000D03*
%TD*%
D20*
%TO.C,J3*%
X132080000Y-89032500D03*
X67200000Y-89032500D03*
D21*
X127580000Y-89932500D03*
D22*
X122500000Y-89932500D03*
X117420000Y-89932500D03*
X112340000Y-89932500D03*
X107260000Y-89932500D03*
X102180000Y-89932500D03*
X97100000Y-89932500D03*
X92020000Y-89932500D03*
X86940000Y-89932500D03*
X81860000Y-89932500D03*
X76780000Y-89932500D03*
X71700000Y-89932500D03*
%TD*%
D11*
%TO.C,K1*%
X78800000Y-96000000D03*
X75600000Y-96000000D03*
X73400000Y-96000000D03*
X71200000Y-96000000D03*
X71200000Y-102000000D03*
X73400000Y-102000000D03*
X75600000Y-102000000D03*
X78800000Y-102000000D03*
%TD*%
D17*
%TO.C,C8*%
X126834000Y-136903001D03*
X126834000Y-135353001D03*
%TD*%
D11*
%TO.C,K27*%
X111800000Y-114000000D03*
X108600000Y-114000000D03*
X106400000Y-114000000D03*
X104200000Y-114000000D03*
X104200000Y-120000000D03*
X106400000Y-120000000D03*
X108600000Y-120000000D03*
X111800000Y-120000000D03*
%TD*%
%TO.C,K59*%
X155800000Y-114000000D03*
X152600000Y-114000000D03*
X150400000Y-114000000D03*
X148200000Y-114000000D03*
X148200000Y-120000000D03*
X150400000Y-120000000D03*
X152600000Y-120000000D03*
X155800000Y-120000000D03*
%TD*%
%TO.C,K76*%
X177800000Y-123000000D03*
X174600000Y-123000000D03*
X172400000Y-123000000D03*
X170200000Y-123000000D03*
X170200000Y-129000000D03*
X172400000Y-129000000D03*
X174600000Y-129000000D03*
X177800000Y-129000000D03*
%TD*%
%TO.C,K10*%
X89800000Y-105000000D03*
X86600000Y-105000000D03*
X84400000Y-105000000D03*
X82200000Y-105000000D03*
X82200000Y-111000000D03*
X84400000Y-111000000D03*
X86600000Y-111000000D03*
X89800000Y-111000000D03*
%TD*%
D23*
%TO.C,JP2*%
X62000000Y-108825000D03*
X62000000Y-107000000D03*
%TD*%
D11*
%TO.C,K92*%
X199800000Y-123000000D03*
X196600000Y-123000000D03*
X194400000Y-123000000D03*
X192200000Y-123000000D03*
X192200000Y-129000000D03*
X194400000Y-129000000D03*
X196600000Y-129000000D03*
X199800000Y-129000000D03*
%TD*%
D25*
%TO.C,J6*%
X59932500Y-97515000D03*
D26*
X59932500Y-102595000D03*
%TD*%
D11*
%TO.C,K51*%
X144800000Y-114000000D03*
X141600000Y-114000000D03*
X139400000Y-114000000D03*
X137200000Y-114000000D03*
X137200000Y-120000000D03*
X139400000Y-120000000D03*
X141600000Y-120000000D03*
X144800000Y-120000000D03*
%TD*%
%TO.C,K26*%
X111800000Y-105000000D03*
X108600000Y-105000000D03*
X106400000Y-105000000D03*
X104200000Y-105000000D03*
X104200000Y-111000000D03*
X106400000Y-111000000D03*
X108600000Y-111000000D03*
X111800000Y-111000000D03*
%TD*%
D18*
%TO.C,H4*%
X56100000Y-141500000D03*
X56802944Y-139802944D03*
X56802944Y-143197056D03*
X58500000Y-139100000D03*
D19*
X58500000Y-141500000D03*
D18*
X58500000Y-143900000D03*
X60197056Y-139802944D03*
X60197056Y-143197056D03*
X60900000Y-141500000D03*
%TD*%
D11*
%TO.C,K9*%
X89800000Y-96000000D03*
X86600000Y-96000000D03*
X84400000Y-96000000D03*
X82200000Y-96000000D03*
X82200000Y-102000000D03*
X84400000Y-102000000D03*
X86600000Y-102000000D03*
X89800000Y-102000000D03*
%TD*%
%TO.C,K89*%
X199800000Y-96000000D03*
X196600000Y-96000000D03*
X194400000Y-96000000D03*
X192200000Y-96000000D03*
X192200000Y-102000000D03*
X194400000Y-102000000D03*
X196600000Y-102000000D03*
X199800000Y-102000000D03*
%TD*%
%TO.C,K35*%
X122800000Y-114000000D03*
X119600000Y-114000000D03*
X117400000Y-114000000D03*
X115200000Y-114000000D03*
X115200000Y-120000000D03*
X117400000Y-120000000D03*
X119600000Y-120000000D03*
X122800000Y-120000000D03*
%TD*%
D10*
%TO.C,U14*%
X194369000Y-139244500D03*
X195019000Y-139244500D03*
X195669000Y-139244500D03*
X196319000Y-139244500D03*
X196969000Y-139244500D03*
X197619000Y-139244500D03*
X198269000Y-139244500D03*
X198919000Y-139244500D03*
X198919000Y-133519500D03*
X198269000Y-133519500D03*
X197619000Y-133519500D03*
X196969000Y-133519500D03*
X196319000Y-133519500D03*
X195669000Y-133519500D03*
X195019000Y-133519500D03*
X194369000Y-133519500D03*
%TD*%
D17*
%TO.C,C12*%
X170834000Y-136903001D03*
X170834000Y-135353001D03*
%TD*%
D11*
%TO.C,K49*%
X144800000Y-96000000D03*
X141600000Y-96000000D03*
X139400000Y-96000000D03*
X137200000Y-96000000D03*
X137200000Y-102000000D03*
X139400000Y-102000000D03*
X141600000Y-102000000D03*
X144800000Y-102000000D03*
%TD*%
D25*
%TO.C,J5*%
X210067500Y-97515000D03*
D26*
X210067500Y-102595000D03*
%TD*%
D27*
%TO.C,J1*%
X207302500Y-130890000D03*
D13*
X209842500Y-130890000D03*
X207302500Y-128350000D03*
X209842500Y-128350000D03*
X207302500Y-125810000D03*
X209842500Y-125810000D03*
X207302500Y-123270000D03*
X209842500Y-123270000D03*
X207302500Y-120730000D03*
X209842500Y-120730000D03*
X207302500Y-118190000D03*
X209842500Y-118190000D03*
X207302500Y-115650000D03*
X209842500Y-115650000D03*
X207302500Y-113110000D03*
X209842500Y-113110000D03*
%TD*%
M02*
