%TF.GenerationSoftware,KiCad,Pcbnew,9.0.6*%
%TF.CreationDate,2026-01-20T12:42:19+01:00*%
%TF.ProjectId,spimux,7370696d-7578-42e6-9b69-6361645f7063,rev?*%
%TF.SameCoordinates,Original*%
%TF.FileFunction,Other,User*%
%FSLAX46Y46*%
G04 Gerber Fmt 4.6, Leading zero omitted, Abs format (unit mm)*
G04 Created by KiCad (PCBNEW 9.0.6) date 2026-01-20 12:42:19*
%MOMM*%
%LPD*%
G01*
G04 APERTURE LIST*
%ADD10C,0.050000*%
G04 APERTURE END LIST*
D10*
%TO.C,J4*%
X141105000Y-89032500D02*
G75*
G02*
X135905000Y-89032500I-2600000J0D01*
G01*
X135905000Y-89032500D02*
G75*
G02*
X141105000Y-89032500I2600000J0D01*
G01*
X205985000Y-89032500D02*
G75*
G02*
X200785000Y-89032500I-2600000J0D01*
G01*
X200785000Y-89032500D02*
G75*
G02*
X205985000Y-89032500I2600000J0D01*
G01*
%TO.C,J3*%
X69800000Y-89032500D02*
G75*
G02*
X64600000Y-89032500I-2600000J0D01*
G01*
X64600000Y-89032500D02*
G75*
G02*
X69800000Y-89032500I2600000J0D01*
G01*
X134680000Y-89032500D02*
G75*
G02*
X129480000Y-89032500I-2600000J0D01*
G01*
X129480000Y-89032500D02*
G75*
G02*
X134680000Y-89032500I2600000J0D01*
G01*
%TO.C,K22*%
X91750001Y-103750000D02*
X102250001Y-103750000D01*
X91750001Y-112250000D02*
X91750001Y-103750000D01*
X102250001Y-103750000D02*
X102250001Y-112250000D01*
X102250001Y-112250000D02*
X91750001Y-112250000D01*
%TO.C,K55*%
X135750001Y-112750000D02*
X146250001Y-112750000D01*
X135750001Y-121250000D02*
X135750001Y-112750000D01*
X146250001Y-112750000D02*
X146250001Y-121250000D01*
X146250001Y-121250000D02*
X135750001Y-121250000D01*
%TO.C,J5*%
X207767500Y-94365000D02*
X218567500Y-94365000D01*
X207767500Y-105635000D02*
X207767500Y-94365000D01*
X218567500Y-94365000D02*
X218567500Y-105635000D01*
X218567500Y-105635000D02*
X207767500Y-105635000D01*
%TO.C,K93*%
X190750001Y-94750000D02*
X201250001Y-94750000D01*
X190750001Y-103250000D02*
X190750001Y-94750000D01*
X201250001Y-94750000D02*
X201250001Y-103250000D01*
X201250001Y-103250000D02*
X190750001Y-103250000D01*
%TO.C,K45*%
X124750001Y-94750000D02*
X135250001Y-94750000D01*
X124750001Y-103250000D02*
X124750001Y-94750000D01*
X135250001Y-94750000D02*
X135250001Y-103250000D01*
X135250001Y-103250000D02*
X124750001Y-103250000D01*
%TO.C,K5*%
X69750001Y-94750000D02*
X80250001Y-94750000D01*
X69750001Y-103250000D02*
X69750001Y-94750000D01*
X80250001Y-94750000D02*
X80250001Y-103250000D01*
X80250001Y-103250000D02*
X69750001Y-103250000D01*
%TO.C,K77*%
X168750001Y-94750000D02*
X179250001Y-94750000D01*
X168750001Y-103250000D02*
X168750001Y-94750000D01*
X179250001Y-94750000D02*
X179250001Y-103250000D01*
X179250001Y-103250000D02*
X168750001Y-103250000D01*
%TO.C,K71*%
X157750001Y-112750000D02*
X168250001Y-112750000D01*
X157750001Y-121250000D02*
X157750001Y-112750000D01*
X168250001Y-112750000D02*
X168250001Y-121250000D01*
X168250001Y-121250000D02*
X157750001Y-121250000D01*
%TO.C,K14*%
X80750001Y-103750000D02*
X91250001Y-103750000D01*
X80750001Y-112250000D02*
X80750001Y-103750000D01*
X91250001Y-103750000D02*
X91250001Y-112250000D01*
X91250001Y-112250000D02*
X80750001Y-112250000D01*
%TO.C,K96*%
X190750000Y-121750000D02*
X201250000Y-121750000D01*
X190750000Y-130250000D02*
X190750000Y-121750000D01*
X201250000Y-121750000D02*
X201250000Y-130250000D01*
X201250000Y-130250000D02*
X190750000Y-130250000D01*
%TO.C,K37*%
X113750001Y-94750000D02*
X124250001Y-94750000D01*
X113750001Y-103250000D02*
X113750001Y-94750000D01*
X124250001Y-94750000D02*
X124250001Y-103250000D01*
X124250001Y-103250000D02*
X113750001Y-103250000D01*
%TO.C,K24*%
X91750000Y-121750000D02*
X102250000Y-121750000D01*
X91750000Y-130250000D02*
X91750000Y-121750000D01*
X102250000Y-121750000D02*
X102250000Y-130250000D01*
X102250000Y-130250000D02*
X91750000Y-130250000D01*
%TO.C,K78*%
X168750001Y-103750000D02*
X179250001Y-103750000D01*
X168750001Y-112250000D02*
X168750001Y-103750000D01*
X179250001Y-103750000D02*
X179250001Y-112250000D01*
X179250001Y-112250000D02*
X168750001Y-112250000D01*
%TO.C,K40*%
X113750000Y-121750000D02*
X124250000Y-121750000D01*
X113750000Y-130250000D02*
X113750000Y-121750000D01*
X124250000Y-121750000D02*
X124250000Y-130250000D01*
X124250000Y-130250000D02*
X113750000Y-130250000D01*
%TO.C,K94*%
X190750001Y-103750000D02*
X201250001Y-103750000D01*
X190750001Y-112250000D02*
X190750001Y-103750000D01*
X201250001Y-103750000D02*
X201250001Y-112250000D01*
X201250001Y-112250000D02*
X190750001Y-112250000D01*
%TO.C,K79*%
X168750001Y-112750000D02*
X179250001Y-112750000D01*
X168750001Y-121250000D02*
X168750001Y-112750000D01*
X179250001Y-112750000D02*
X179250001Y-121250000D01*
X179250001Y-121250000D02*
X168750001Y-121250000D01*
%TO.C,K70*%
X157750001Y-103750000D02*
X168250001Y-103750000D01*
X157750001Y-112250000D02*
X157750001Y-103750000D01*
X168250001Y-103750000D02*
X168250001Y-112250000D01*
X168250001Y-112250000D02*
X157750001Y-112250000D01*
%TO.C,J1*%
X205952500Y-107510000D02*
X221082500Y-107510000D01*
X205952500Y-136490000D02*
X205952500Y-107510000D01*
X221082500Y-107510000D02*
X221082500Y-136490000D01*
X221082500Y-136490000D02*
X205952500Y-136490000D01*
%TO.C,K31*%
X102750001Y-112750000D02*
X113250001Y-112750000D01*
X102750001Y-121250000D02*
X102750001Y-112750000D01*
X113250001Y-112750000D02*
X113250001Y-121250000D01*
X113250001Y-121250000D02*
X102750001Y-121250000D01*
%TO.C,K29*%
X102750001Y-94750000D02*
X113250001Y-94750000D01*
X102750001Y-103250000D02*
X102750001Y-94750000D01*
X113250001Y-94750000D02*
X113250001Y-103250000D01*
X113250001Y-103250000D02*
X102750001Y-103250000D01*
%TO.C,K61*%
X146750001Y-94750000D02*
X157250001Y-94750000D01*
X146750001Y-103250000D02*
X146750001Y-94750000D01*
X157250001Y-94750000D02*
X157250001Y-103250000D01*
X157250001Y-103250000D02*
X146750001Y-103250000D01*
%TO.C,K69*%
X157750001Y-94750000D02*
X168250001Y-94750000D01*
X157750001Y-103250000D02*
X157750001Y-94750000D01*
X168250001Y-94750000D02*
X168250001Y-103250000D01*
X168250001Y-103250000D02*
X157750001Y-103250000D01*
%TO.C,K32*%
X102750000Y-121750000D02*
X113250000Y-121750000D01*
X102750000Y-130250000D02*
X102750000Y-121750000D01*
X113250000Y-121750000D02*
X113250000Y-130250000D01*
X113250000Y-130250000D02*
X102750000Y-130250000D01*
%TO.C,K80*%
X168750000Y-121750000D02*
X179250000Y-121750000D01*
X168750000Y-130250000D02*
X168750000Y-121750000D01*
X179250000Y-121750000D02*
X179250000Y-130250000D01*
X179250000Y-130250000D02*
X168750000Y-130250000D01*
%TO.C,K62*%
X146750001Y-103750000D02*
X157250001Y-103750000D01*
X146750001Y-112250000D02*
X146750001Y-103750000D01*
X157250001Y-103750000D02*
X157250001Y-112250000D01*
X157250001Y-112250000D02*
X146750001Y-112250000D01*
%TO.C,K8*%
X69750000Y-121750000D02*
X80250000Y-121750000D01*
X69750000Y-130250000D02*
X69750000Y-121750000D01*
X80250000Y-121750000D02*
X80250000Y-130250000D01*
X80250000Y-130250000D02*
X69750000Y-130250000D01*
%TO.C,K72*%
X157750000Y-121750000D02*
X168250000Y-121750000D01*
X157750000Y-130250000D02*
X157750000Y-121750000D01*
X168250000Y-121750000D02*
X168250000Y-130250000D01*
X168250000Y-130250000D02*
X157750000Y-130250000D01*
%TO.C,K85*%
X179750001Y-94750000D02*
X190250001Y-94750000D01*
X179750001Y-103250000D02*
X179750001Y-94750000D01*
X190250001Y-94750000D02*
X190250001Y-103250000D01*
X190250001Y-103250000D02*
X179750001Y-103250000D01*
%TO.C,K7*%
X69750001Y-112750000D02*
X80250001Y-112750000D01*
X69750001Y-121250000D02*
X69750001Y-112750000D01*
X80250001Y-112750000D02*
X80250001Y-121250000D01*
X80250001Y-121250000D02*
X69750001Y-121250000D01*
%TO.C,K6*%
X69750001Y-103750000D02*
X80250001Y-103750000D01*
X69750001Y-112250000D02*
X69750001Y-103750000D01*
X80250001Y-103750000D02*
X80250001Y-112250000D01*
X80250001Y-112250000D02*
X69750001Y-112250000D01*
%TO.C,K21*%
X91750001Y-94750000D02*
X102250001Y-94750000D01*
X91750001Y-103250000D02*
X91750001Y-94750000D01*
X102250001Y-94750000D02*
X102250001Y-103250000D01*
X102250001Y-103250000D02*
X91750001Y-103250000D01*
%TO.C,K95*%
X190750001Y-112750000D02*
X201250001Y-112750000D01*
X190750001Y-121250000D02*
X190750001Y-112750000D01*
X201250001Y-112750000D02*
X201250001Y-121250000D01*
X201250001Y-121250000D02*
X190750001Y-121250000D01*
%TO.C,K15*%
X80750001Y-112750000D02*
X91250001Y-112750000D01*
X80750001Y-121250000D02*
X80750001Y-112750000D01*
X91250001Y-112750000D02*
X91250001Y-121250000D01*
X91250001Y-121250000D02*
X80750001Y-121250000D01*
%TO.C,K47*%
X124750001Y-112750000D02*
X135250001Y-112750000D01*
X124750001Y-121250000D02*
X124750001Y-112750000D01*
X135250001Y-112750000D02*
X135250001Y-121250000D01*
X135250001Y-121250000D02*
X124750001Y-121250000D01*
%TO.C,K13*%
X80750001Y-94750000D02*
X91250001Y-94750000D01*
X80750001Y-103250000D02*
X80750001Y-94750000D01*
X91250001Y-94750000D02*
X91250001Y-103250000D01*
X91250001Y-103250000D02*
X80750001Y-103250000D01*
%TO.C,K23*%
X91750001Y-112750000D02*
X102250001Y-112750000D01*
X91750001Y-121250000D02*
X91750001Y-112750000D01*
X102250001Y-112750000D02*
X102250001Y-121250000D01*
X102250001Y-121250000D02*
X91750001Y-121250000D01*
%TO.C,K39*%
X113750001Y-112750000D02*
X124250001Y-112750000D01*
X113750001Y-121250000D02*
X113750001Y-112750000D01*
X124250001Y-112750000D02*
X124250001Y-121250000D01*
X124250001Y-121250000D02*
X113750001Y-121250000D01*
%TO.C,K48*%
X124750000Y-121750000D02*
X135250000Y-121750000D01*
X124750000Y-130250000D02*
X124750000Y-121750000D01*
X135250000Y-121750000D02*
X135250000Y-130250000D01*
X135250000Y-130250000D02*
X124750000Y-130250000D01*
%TO.C,K64*%
X146750000Y-121750000D02*
X157250000Y-121750000D01*
X146750000Y-130250000D02*
X146750000Y-121750000D01*
X157250000Y-121750000D02*
X157250000Y-130250000D01*
X157250000Y-130250000D02*
X146750000Y-130250000D01*
%TO.C,K30*%
X102750001Y-103750000D02*
X113250001Y-103750000D01*
X102750001Y-112250000D02*
X102750001Y-103750000D01*
X113250001Y-103750000D02*
X113250001Y-112250000D01*
X113250001Y-112250000D02*
X102750001Y-112250000D01*
%TO.C,K53*%
X135750001Y-94750000D02*
X146250001Y-94750000D01*
X135750001Y-103250000D02*
X135750001Y-94750000D01*
X146250001Y-94750000D02*
X146250001Y-103250000D01*
X146250001Y-103250000D02*
X135750001Y-103250000D01*
%TO.C,K16*%
X80750000Y-121750000D02*
X91250000Y-121750000D01*
X80750000Y-130250000D02*
X80750000Y-121750000D01*
X91250000Y-121750000D02*
X91250000Y-130250000D01*
X91250000Y-130250000D02*
X80750000Y-130250000D01*
%TO.C,K86*%
X179750001Y-103750000D02*
X190250001Y-103750000D01*
X179750001Y-112250000D02*
X179750001Y-103750000D01*
X190250001Y-103750000D02*
X190250001Y-112250000D01*
X190250001Y-112250000D02*
X179750001Y-112250000D01*
%TO.C,K54*%
X135750001Y-103750000D02*
X146250001Y-103750000D01*
X135750001Y-112250000D02*
X135750001Y-103750000D01*
X146250001Y-103750000D02*
X146250001Y-112250000D01*
X146250001Y-112250000D02*
X135750001Y-112250000D01*
%TO.C,K46*%
X124750001Y-103750000D02*
X135250001Y-103750000D01*
X124750001Y-112250000D02*
X124750001Y-103750000D01*
X135250001Y-103750000D02*
X135250001Y-112250000D01*
X135250001Y-112250000D02*
X124750001Y-112250000D01*
%TO.C,K38*%
X113750001Y-103750000D02*
X124250001Y-103750000D01*
X113750001Y-112250000D02*
X113750001Y-103750000D01*
X124250001Y-103750000D02*
X124250001Y-112250000D01*
X124250001Y-112250000D02*
X113750001Y-112250000D01*
%TO.C,K87*%
X179750001Y-112750000D02*
X190250001Y-112750000D01*
X179750001Y-121250000D02*
X179750001Y-112750000D01*
X190250001Y-112750000D02*
X190250001Y-121250000D01*
X190250001Y-121250000D02*
X179750001Y-121250000D01*
%TO.C,K88*%
X179750000Y-121750000D02*
X190250000Y-121750000D01*
X179750000Y-130250000D02*
X179750000Y-121750000D01*
X190250000Y-121750000D02*
X190250000Y-130250000D01*
X190250000Y-130250000D02*
X179750000Y-130250000D01*
%TO.C,K63*%
X146750001Y-112750000D02*
X157250001Y-112750000D01*
X146750001Y-121250000D02*
X146750001Y-112750000D01*
X157250001Y-112750000D02*
X157250001Y-121250000D01*
X157250001Y-121250000D02*
X146750001Y-121250000D01*
%TO.C,K56*%
X135750000Y-121750000D02*
X146250000Y-121750000D01*
X135750000Y-130250000D02*
X135750000Y-121750000D01*
X146250000Y-121750000D02*
X146250000Y-130250000D01*
X146250000Y-130250000D02*
X135750000Y-130250000D01*
%TD*%
M02*
