%TF.GenerationSoftware,KiCad,Pcbnew,9.0.6*%
%TF.CreationDate,2026-01-20T12:42:19+01:00*%
%TF.ProjectId,spimux,7370696d-7578-42e6-9b69-6361645f7063,rev?*%
%TF.SameCoordinates,Original*%
%TF.FileFunction,Other,User*%
%FSLAX46Y46*%
G04 Gerber Fmt 4.6, Leading zero omitted, Abs format (unit mm)*
G04 Created by KiCad (PCBNEW 9.0.6) date 2026-01-20 12:42:19*
%MOMM*%
%LPD*%
G01*
G04 APERTURE LIST*
%ADD10C,0.050000*%
G04 APERTURE END LIST*
D10*
%TO.C,U5*%
X94894000Y-132532000D02*
X94894000Y-140232000D01*
X94894000Y-140232000D02*
X100394000Y-140232000D01*
X100394000Y-132532000D02*
X94894000Y-132532000D01*
X100394000Y-140232000D02*
X100394000Y-132532000D01*
%TO.C,K50*%
X135750000Y-103750000D02*
X135750000Y-112250000D01*
X135750000Y-112250000D02*
X146250000Y-112250000D01*
X146250000Y-103750000D02*
X135750000Y-103750000D01*
X146250000Y-112250000D02*
X146250000Y-103750000D01*
%TO.C,K91*%
X190750000Y-112750000D02*
X190750000Y-121250000D01*
X190750000Y-121250000D02*
X201250000Y-121250000D01*
X201250000Y-112750000D02*
X190750000Y-112750000D01*
X201250000Y-121250000D02*
X201250000Y-112750000D01*
%TO.C,U7*%
X116894000Y-132532000D02*
X116894000Y-140232000D01*
X116894000Y-140232000D02*
X122394000Y-140232000D01*
X122394000Y-132532000D02*
X116894000Y-132532000D01*
X122394000Y-140232000D02*
X122394000Y-132532000D01*
%TO.C,J2*%
X49917500Y-107510000D02*
X49917500Y-136490000D01*
X49917500Y-136490000D02*
X65047500Y-136490000D01*
X65047500Y-107510000D02*
X49917500Y-107510000D01*
X65047500Y-136490000D02*
X65047500Y-107510000D01*
%TO.C,K75*%
X168750000Y-112750000D02*
X168750000Y-121250000D01*
X168750000Y-121250000D02*
X179250000Y-121250000D01*
X179250000Y-112750000D02*
X168750000Y-112750000D01*
X179250000Y-121250000D02*
X179250000Y-112750000D01*
%TO.C,U1*%
X202750000Y-137750000D02*
X205250000Y-137750000D01*
X202750000Y-142250000D02*
X202750000Y-137750000D01*
X205250000Y-137750000D02*
X205250000Y-142250000D01*
X205250000Y-142250000D02*
X202750000Y-142250000D01*
%TO.C,K34*%
X113750000Y-103750000D02*
X113750000Y-112250000D01*
X113750000Y-112250000D02*
X124250000Y-112250000D01*
X124250000Y-103750000D02*
X113750000Y-103750000D01*
X124250000Y-112250000D02*
X124250000Y-103750000D01*
%TO.C,U13*%
X182894000Y-132532000D02*
X182894000Y-140232000D01*
X182894000Y-140232000D02*
X188394000Y-140232000D01*
X188394000Y-132532000D02*
X182894000Y-132532000D01*
X188394000Y-140232000D02*
X188394000Y-132532000D01*
%TO.C,K68*%
X157750000Y-121750000D02*
X157750000Y-130250000D01*
X157750000Y-130250000D02*
X168250000Y-130250000D01*
X168250000Y-121750000D02*
X157750000Y-121750000D01*
X168250000Y-130250000D02*
X168250000Y-121750000D01*
%TO.C,R5*%
X65520000Y-125770000D02*
X68480000Y-125770000D01*
X65520000Y-127230000D02*
X65520000Y-125770000D01*
X68480000Y-125770000D02*
X68480000Y-127230000D01*
X68480000Y-127230000D02*
X65520000Y-127230000D01*
%TO.C,K52*%
X135750000Y-121750000D02*
X135750000Y-130250000D01*
X135750000Y-130250000D02*
X146250000Y-130250000D01*
X146250000Y-121750000D02*
X135750000Y-121750000D01*
X146250000Y-130250000D02*
X146250000Y-121750000D01*
%TO.C,C2*%
X200770000Y-138520000D02*
X202230000Y-138520000D01*
X200770000Y-141480000D02*
X200770000Y-138520000D01*
X202230000Y-138520000D02*
X202230000Y-141480000D01*
X202230000Y-141480000D02*
X200770000Y-141480000D01*
%TO.C,K33*%
X113750000Y-94750000D02*
X113750000Y-103250000D01*
X113750000Y-103250000D02*
X124250000Y-103250000D01*
X124250000Y-94750000D02*
X113750000Y-94750000D01*
X124250000Y-103250000D02*
X124250000Y-94750000D01*
%TO.C,K74*%
X168750000Y-103750000D02*
X168750000Y-112250000D01*
X168750000Y-112250000D02*
X179250000Y-112250000D01*
X179250000Y-103750000D02*
X168750000Y-103750000D01*
X179250000Y-112250000D02*
X179250000Y-103750000D01*
%TO.C,R2*%
X65520000Y-130270000D02*
X68480000Y-130270000D01*
X65520000Y-131730000D02*
X65520000Y-130270000D01*
X68480000Y-130270000D02*
X68480000Y-131730000D01*
X68480000Y-131730000D02*
X65520000Y-131730000D01*
%TO.C,K3*%
X69750000Y-112750000D02*
X69750000Y-121250000D01*
X69750000Y-121250000D02*
X80250000Y-121250000D01*
X80250000Y-112750000D02*
X69750000Y-112750000D01*
X80250000Y-121250000D02*
X80250000Y-112750000D01*
%TO.C,K90*%
X190750000Y-103750000D02*
X190750000Y-112250000D01*
X190750000Y-112250000D02*
X201250000Y-112250000D01*
X201250000Y-103750000D02*
X190750000Y-103750000D01*
X201250000Y-112250000D02*
X201250000Y-103750000D01*
%TO.C,K44*%
X124750000Y-121750000D02*
X124750000Y-130250000D01*
X124750000Y-130250000D02*
X135250000Y-130250000D01*
X135250000Y-121750000D02*
X124750000Y-121750000D01*
X135250000Y-130250000D02*
X135250000Y-121750000D01*
%TO.C,K42*%
X124750000Y-103750000D02*
X124750000Y-112250000D01*
X124750000Y-112250000D02*
X135250000Y-112250000D01*
X135250000Y-103750000D02*
X124750000Y-103750000D01*
X135250000Y-112250000D02*
X135250000Y-103750000D01*
%TO.C,K84*%
X179750000Y-121750000D02*
X179750000Y-130250000D01*
X179750000Y-130250000D02*
X190250000Y-130250000D01*
X190250000Y-121750000D02*
X179750000Y-121750000D01*
X190250000Y-130250000D02*
X190250000Y-121750000D01*
%TO.C,K2*%
X69750000Y-103750000D02*
X69750000Y-112250000D01*
X69750000Y-112250000D02*
X80250000Y-112250000D01*
X80250000Y-103750000D02*
X69750000Y-103750000D01*
X80250000Y-112250000D02*
X80250000Y-103750000D01*
%TO.C,U9*%
X138894000Y-132532000D02*
X138894000Y-140232000D01*
X138894000Y-140232000D02*
X144394000Y-140232000D01*
X144394000Y-132532000D02*
X138894000Y-132532000D01*
X144394000Y-140232000D02*
X144394000Y-132532000D01*
%TO.C,U4*%
X83894000Y-132532000D02*
X83894000Y-140232000D01*
X83894000Y-140232000D02*
X89394000Y-140232000D01*
X89394000Y-132532000D02*
X83894000Y-132532000D01*
X89394000Y-140232000D02*
X89394000Y-132532000D01*
%TO.C,C5*%
X93104000Y-134648001D02*
X94564000Y-134648001D01*
X93104000Y-137608001D02*
X93104000Y-134648001D01*
X94564000Y-134648001D02*
X94564000Y-137608001D01*
X94564000Y-137608001D02*
X93104000Y-137608001D01*
%TO.C,C1*%
X200770000Y-133520000D02*
X202230000Y-133520000D01*
X200770000Y-136480000D02*
X200770000Y-133520000D01*
X202230000Y-133520000D02*
X202230000Y-136480000D01*
X202230000Y-136480000D02*
X200770000Y-136480000D01*
%TO.C,K19*%
X91750000Y-112750000D02*
X91750000Y-121250000D01*
X91750000Y-121250000D02*
X102250000Y-121250000D01*
X102250000Y-112750000D02*
X91750000Y-112750000D01*
X102250000Y-121250000D02*
X102250000Y-112750000D01*
%TO.C,K12*%
X80750000Y-121750000D02*
X80750000Y-130250000D01*
X80750000Y-130250000D02*
X91250000Y-130250000D01*
X91250000Y-121750000D02*
X80750000Y-121750000D01*
X91250000Y-130250000D02*
X91250000Y-121750000D01*
%TO.C,K41*%
X124750000Y-94750000D02*
X124750000Y-103250000D01*
X124750000Y-103250000D02*
X135250000Y-103250000D01*
X135250000Y-94750000D02*
X124750000Y-94750000D01*
X135250000Y-103250000D02*
X135250000Y-94750000D01*
%TO.C,H1*%
X61950000Y-88500000D02*
G75*
G02*
X55050000Y-88500000I-3450000J0D01*
G01*
X55050000Y-88500000D02*
G75*
G02*
X61950000Y-88500000I3450000J0D01*
G01*
%TO.C,K58*%
X146750000Y-103750000D02*
X146750000Y-112250000D01*
X146750000Y-112250000D02*
X157250000Y-112250000D01*
X157250000Y-103750000D02*
X146750000Y-103750000D01*
X157250000Y-112250000D02*
X157250000Y-103750000D01*
%TO.C,C4*%
X82104000Y-134648001D02*
X83564000Y-134648001D01*
X82104000Y-137608001D02*
X82104000Y-134648001D01*
X83564000Y-134648001D02*
X83564000Y-137608001D01*
X83564000Y-137608001D02*
X82104000Y-137608001D01*
%TO.C,U11*%
X160894000Y-132532000D02*
X160894000Y-140232000D01*
X160894000Y-140232000D02*
X166394000Y-140232000D01*
X166394000Y-132532000D02*
X160894000Y-132532000D01*
X166394000Y-140232000D02*
X166394000Y-132532000D01*
%TO.C,J4*%
X135405000Y-81432500D02*
X135405000Y-92232500D01*
X135405000Y-92232500D02*
X206595000Y-92232500D01*
X206595000Y-81432500D02*
X135405000Y-81432500D01*
X206595000Y-92232500D02*
X206595000Y-81432500D01*
%TO.C,K11*%
X80750000Y-112750000D02*
X80750000Y-121250000D01*
X80750000Y-121250000D02*
X91250000Y-121250000D01*
X91250000Y-112750000D02*
X80750000Y-112750000D01*
X91250000Y-121250000D02*
X91250000Y-112750000D01*
%TO.C,U3*%
X72894000Y-132532000D02*
X72894000Y-140232000D01*
X72894000Y-140232000D02*
X78394000Y-140232000D01*
X78394000Y-132532000D02*
X72894000Y-132532000D01*
X78394000Y-140232000D02*
X78394000Y-132532000D01*
%TO.C,K17*%
X91750000Y-94750000D02*
X91750000Y-103250000D01*
X91750000Y-103250000D02*
X102250000Y-103250000D01*
X102250000Y-94750000D02*
X91750000Y-94750000D01*
X102250000Y-103250000D02*
X102250000Y-94750000D01*
%TO.C,K57*%
X146750000Y-94750000D02*
X146750000Y-103250000D01*
X146750000Y-103250000D02*
X157250000Y-103250000D01*
X157250000Y-94750000D02*
X146750000Y-94750000D01*
X157250000Y-103250000D02*
X157250000Y-94750000D01*
%TO.C,U6*%
X105894000Y-132532000D02*
X105894000Y-140232000D01*
X105894000Y-140232000D02*
X111394000Y-140232000D01*
X111394000Y-132532000D02*
X105894000Y-132532000D01*
X111394000Y-140232000D02*
X111394000Y-132532000D01*
%TO.C,JP1*%
X64050000Y-106320000D02*
X65950000Y-106320000D01*
X64050000Y-109680000D02*
X64050000Y-106320000D01*
X65950000Y-106320000D02*
X65950000Y-109680000D01*
X65950000Y-109680000D02*
X64050000Y-109680000D01*
%TO.C,K25*%
X102750000Y-94750000D02*
X102750000Y-103250000D01*
X102750000Y-103250000D02*
X113250000Y-103250000D01*
X113250000Y-94750000D02*
X102750000Y-94750000D01*
X113250000Y-103250000D02*
X113250000Y-94750000D01*
%TO.C,R3*%
X65520000Y-127270000D02*
X68480000Y-127270000D01*
X65520000Y-128730000D02*
X65520000Y-127270000D01*
X68480000Y-127270000D02*
X68480000Y-128730000D01*
X68480000Y-128730000D02*
X65520000Y-128730000D01*
%TO.C,C10*%
X148104000Y-134648001D02*
X149564000Y-134648001D01*
X148104000Y-137608001D02*
X148104000Y-134648001D01*
X149564000Y-134648001D02*
X149564000Y-137608001D01*
X149564000Y-137608001D02*
X148104000Y-137608001D01*
%TO.C,K66*%
X157750000Y-103750000D02*
X157750000Y-112250000D01*
X157750000Y-112250000D02*
X168250000Y-112250000D01*
X168250000Y-103750000D02*
X157750000Y-103750000D01*
X168250000Y-112250000D02*
X168250000Y-103750000D01*
%TO.C,K28*%
X102750000Y-121750000D02*
X102750000Y-130250000D01*
X102750000Y-130250000D02*
X113250000Y-130250000D01*
X113250000Y-121750000D02*
X102750000Y-121750000D01*
X113250000Y-130250000D02*
X113250000Y-121750000D01*
%TO.C,R7*%
X205270000Y-134520000D02*
X206730000Y-134520000D01*
X205270000Y-137480000D02*
X205270000Y-134520000D01*
X206730000Y-134520000D02*
X206730000Y-137480000D01*
X206730000Y-137480000D02*
X205270000Y-137480000D01*
%TO.C,C6*%
X104104000Y-134648001D02*
X105564000Y-134648001D01*
X104104000Y-137608001D02*
X104104000Y-134648001D01*
X105564000Y-134648001D02*
X105564000Y-137608001D01*
X105564000Y-137608001D02*
X104104000Y-137608001D01*
%TO.C,K20*%
X91750000Y-121750000D02*
X91750000Y-130250000D01*
X91750000Y-130250000D02*
X102250000Y-130250000D01*
X102250000Y-121750000D02*
X91750000Y-121750000D01*
X102250000Y-130250000D02*
X102250000Y-121750000D01*
%TO.C,K83*%
X179750000Y-112750000D02*
X179750000Y-121250000D01*
X179750000Y-121250000D02*
X190250000Y-121250000D01*
X190250000Y-112750000D02*
X179750000Y-112750000D01*
X190250000Y-121250000D02*
X190250000Y-112750000D01*
%TO.C,JP3*%
X203050000Y-106320000D02*
X204950000Y-106320000D01*
X203050000Y-109680000D02*
X203050000Y-106320000D01*
X204950000Y-106320000D02*
X204950000Y-109680000D01*
X204950000Y-109680000D02*
X203050000Y-109680000D01*
%TO.C,U2*%
X202750000Y-132750000D02*
X205250000Y-132750000D01*
X202750000Y-137250000D02*
X202750000Y-132750000D01*
X205250000Y-132750000D02*
X205250000Y-137250000D01*
X205250000Y-137250000D02*
X202750000Y-137250000D01*
%TO.C,C14*%
X192104000Y-134648001D02*
X193564000Y-134648001D01*
X192104000Y-137608001D02*
X192104000Y-134648001D01*
X193564000Y-134648001D02*
X193564000Y-137608001D01*
X193564000Y-137608001D02*
X192104000Y-137608001D01*
%TO.C,U12*%
X171894000Y-132532000D02*
X171894000Y-140232000D01*
X171894000Y-140232000D02*
X177394000Y-140232000D01*
X177394000Y-132532000D02*
X171894000Y-132532000D01*
X177394000Y-140232000D02*
X177394000Y-132532000D01*
%TO.C,JP4*%
X207050000Y-106320000D02*
X208950000Y-106320000D01*
X207050000Y-109680000D02*
X207050000Y-106320000D01*
X208950000Y-106320000D02*
X208950000Y-109680000D01*
X208950000Y-109680000D02*
X207050000Y-109680000D01*
%TO.C,K67*%
X157750000Y-112750000D02*
X157750000Y-121250000D01*
X157750000Y-121250000D02*
X168250000Y-121250000D01*
X168250000Y-112750000D02*
X157750000Y-112750000D01*
X168250000Y-121250000D02*
X168250000Y-112750000D01*
%TO.C,JP5*%
X68064227Y-134638808D02*
X69524227Y-134638808D01*
X68064227Y-137598808D02*
X68064227Y-134638808D01*
X69524227Y-134638808D02*
X69524227Y-137598808D01*
X69524227Y-137598808D02*
X68064227Y-137598808D01*
%TO.C,R1*%
X206770000Y-134520000D02*
X208230000Y-134520000D01*
X206770000Y-137480000D02*
X206770000Y-134520000D01*
X208230000Y-134520000D02*
X208230000Y-137480000D01*
X208230000Y-137480000D02*
X206770000Y-137480000D01*
%TO.C,K18*%
X91750000Y-103750000D02*
X91750000Y-112250000D01*
X91750000Y-112250000D02*
X102250000Y-112250000D01*
X102250000Y-103750000D02*
X91750000Y-103750000D01*
X102250000Y-112250000D02*
X102250000Y-103750000D01*
%TO.C,H3*%
X214950000Y-141500000D02*
G75*
G02*
X208050000Y-141500000I-3450000J0D01*
G01*
X208050000Y-141500000D02*
G75*
G02*
X214950000Y-141500000I3450000J0D01*
G01*
%TO.C,K81*%
X179750000Y-94750000D02*
X179750000Y-103250000D01*
X179750000Y-103250000D02*
X190250000Y-103250000D01*
X190250000Y-94750000D02*
X179750000Y-94750000D01*
X190250000Y-103250000D02*
X190250000Y-94750000D01*
%TO.C,K36*%
X113750000Y-121750000D02*
X113750000Y-130250000D01*
X113750000Y-130250000D02*
X124250000Y-130250000D01*
X124250000Y-121750000D02*
X113750000Y-121750000D01*
X124250000Y-130250000D02*
X124250000Y-121750000D01*
%TO.C,H2*%
X214950000Y-88500000D02*
G75*
G02*
X208050000Y-88500000I-3450000J0D01*
G01*
X208050000Y-88500000D02*
G75*
G02*
X214950000Y-88500000I3450000J0D01*
G01*
%TO.C,R6*%
X65520000Y-124270000D02*
X68480000Y-124270000D01*
X65520000Y-125730000D02*
X65520000Y-124270000D01*
X68480000Y-124270000D02*
X68480000Y-125730000D01*
X68480000Y-125730000D02*
X65520000Y-125730000D01*
%TO.C,U8*%
X127894000Y-132532000D02*
X127894000Y-140232000D01*
X127894000Y-140232000D02*
X133394000Y-140232000D01*
X133394000Y-132532000D02*
X127894000Y-132532000D01*
X133394000Y-140232000D02*
X133394000Y-132532000D01*
%TO.C,K73*%
X168750000Y-94750000D02*
X168750000Y-103250000D01*
X168750000Y-103250000D02*
X179250000Y-103250000D01*
X179250000Y-94750000D02*
X168750000Y-94750000D01*
X179250000Y-103250000D02*
X179250000Y-94750000D01*
%TO.C,C9*%
X137104000Y-134648001D02*
X138564000Y-134648001D01*
X137104000Y-137608001D02*
X137104000Y-134648001D01*
X138564000Y-134648001D02*
X138564000Y-137608001D01*
X138564000Y-137608001D02*
X137104000Y-137608001D01*
%TO.C,U10*%
X149894000Y-132532000D02*
X149894000Y-140232000D01*
X149894000Y-140232000D02*
X155394000Y-140232000D01*
X155394000Y-132532000D02*
X149894000Y-132532000D01*
X155394000Y-140232000D02*
X155394000Y-132532000D01*
%TO.C,C7*%
X115104000Y-134648001D02*
X116564000Y-134648001D01*
X115104000Y-137608001D02*
X115104000Y-134648001D01*
X116564000Y-134648001D02*
X116564000Y-137608001D01*
X116564000Y-137608001D02*
X115104000Y-137608001D01*
%TO.C,C13*%
X181104000Y-134648001D02*
X182564000Y-134648001D01*
X181104000Y-137608001D02*
X181104000Y-134648001D01*
X182564000Y-134648001D02*
X182564000Y-137608001D01*
X182564000Y-137608001D02*
X181104000Y-137608001D01*
%TO.C,K82*%
X179750000Y-103750000D02*
X179750000Y-112250000D01*
X179750000Y-112250000D02*
X190250000Y-112250000D01*
X190250000Y-103750000D02*
X179750000Y-103750000D01*
X190250000Y-112250000D02*
X190250000Y-103750000D01*
%TO.C,C3*%
X71104000Y-134648001D02*
X72564000Y-134648001D01*
X71104000Y-137608001D02*
X71104000Y-134648001D01*
X72564000Y-134648001D02*
X72564000Y-137608001D01*
X72564000Y-137608001D02*
X71104000Y-137608001D01*
%TO.C,K4*%
X69750000Y-121750000D02*
X69750000Y-130250000D01*
X69750000Y-130250000D02*
X80250000Y-130250000D01*
X80250000Y-121750000D02*
X69750000Y-121750000D01*
X80250000Y-130250000D02*
X80250000Y-121750000D01*
%TO.C,JP6*%
X69564227Y-134638808D02*
X71024227Y-134638808D01*
X69564227Y-137598808D02*
X69564227Y-134638808D01*
X71024227Y-134638808D02*
X71024227Y-137598808D01*
X71024227Y-137598808D02*
X69564227Y-137598808D01*
%TO.C,C11*%
X159104000Y-134648001D02*
X160564000Y-134648001D01*
X159104000Y-137608001D02*
X159104000Y-134648001D01*
X160564000Y-134648001D02*
X160564000Y-137608001D01*
X160564000Y-137608001D02*
X159104000Y-137608001D01*
%TO.C,R4*%
X65520000Y-128770000D02*
X68480000Y-128770000D01*
X65520000Y-130230000D02*
X65520000Y-128770000D01*
X68480000Y-128770000D02*
X68480000Y-130230000D01*
X68480000Y-130230000D02*
X65520000Y-130230000D01*
%TO.C,K43*%
X124750000Y-112750000D02*
X124750000Y-121250000D01*
X124750000Y-121250000D02*
X135250000Y-121250000D01*
X135250000Y-112750000D02*
X124750000Y-112750000D01*
X135250000Y-121250000D02*
X135250000Y-112750000D01*
%TO.C,K60*%
X146750000Y-121750000D02*
X146750000Y-130250000D01*
X146750000Y-130250000D02*
X157250000Y-130250000D01*
X157250000Y-121750000D02*
X146750000Y-121750000D01*
X157250000Y-130250000D02*
X157250000Y-121750000D01*
%TO.C,K65*%
X157750000Y-94750000D02*
X157750000Y-103250000D01*
X157750000Y-103250000D02*
X168250000Y-103250000D01*
X168250000Y-94750000D02*
X157750000Y-94750000D01*
X168250000Y-103250000D02*
X168250000Y-94750000D01*
%TO.C,J3*%
X64100000Y-81432500D02*
X64100000Y-92232500D01*
X64100000Y-92232500D02*
X135290000Y-92232500D01*
X135290000Y-81432500D02*
X64100000Y-81432500D01*
X135290000Y-92232500D02*
X135290000Y-81432500D01*
%TO.C,K1*%
X69750000Y-94750000D02*
X69750000Y-103250000D01*
X69750000Y-103250000D02*
X80250000Y-103250000D01*
X80250000Y-94750000D02*
X69750000Y-94750000D01*
X80250000Y-103250000D02*
X80250000Y-94750000D01*
%TO.C,C8*%
X126104000Y-134648001D02*
X127564000Y-134648001D01*
X126104000Y-137608001D02*
X126104000Y-134648001D01*
X127564000Y-134648001D02*
X127564000Y-137608001D01*
X127564000Y-137608001D02*
X126104000Y-137608001D01*
%TO.C,K27*%
X102750000Y-112750000D02*
X102750000Y-121250000D01*
X102750000Y-121250000D02*
X113250000Y-121250000D01*
X113250000Y-112750000D02*
X102750000Y-112750000D01*
X113250000Y-121250000D02*
X113250000Y-112750000D01*
%TO.C,K59*%
X146750000Y-112750000D02*
X146750000Y-121250000D01*
X146750000Y-121250000D02*
X157250000Y-121250000D01*
X157250000Y-112750000D02*
X146750000Y-112750000D01*
X157250000Y-121250000D02*
X157250000Y-112750000D01*
%TO.C,K76*%
X168750000Y-121750000D02*
X168750000Y-130250000D01*
X168750000Y-130250000D02*
X179250000Y-130250000D01*
X179250000Y-121750000D02*
X168750000Y-121750000D01*
X179250000Y-130250000D02*
X179250000Y-121750000D01*
%TO.C,K10*%
X80750000Y-103750000D02*
X80750000Y-112250000D01*
X80750000Y-112250000D02*
X91250000Y-112250000D01*
X91250000Y-103750000D02*
X80750000Y-103750000D01*
X91250000Y-112250000D02*
X91250000Y-103750000D01*
%TO.C,JP2*%
X61050000Y-106232500D02*
X62950000Y-106232500D01*
X61050000Y-109592500D02*
X61050000Y-106232500D01*
X62950000Y-106232500D02*
X62950000Y-109592500D01*
X62950000Y-109592500D02*
X61050000Y-109592500D01*
%TO.C,K92*%
X190750000Y-121750000D02*
X190750000Y-130250000D01*
X190750000Y-130250000D02*
X201250000Y-130250000D01*
X201250000Y-121750000D02*
X190750000Y-121750000D01*
X201250000Y-130250000D02*
X201250000Y-121750000D01*
%TO.C,J6*%
X51432500Y-94365000D02*
X51432500Y-105635000D01*
X51432500Y-105635000D02*
X62232500Y-105635000D01*
X62232500Y-94365000D02*
X51432500Y-94365000D01*
X62232500Y-105635000D02*
X62232500Y-94365000D01*
%TO.C,K51*%
X135750000Y-112750000D02*
X135750000Y-121250000D01*
X135750000Y-121250000D02*
X146250000Y-121250000D01*
X146250000Y-112750000D02*
X135750000Y-112750000D01*
X146250000Y-121250000D02*
X146250000Y-112750000D01*
%TO.C,K26*%
X102750000Y-103750000D02*
X102750000Y-112250000D01*
X102750000Y-112250000D02*
X113250000Y-112250000D01*
X113250000Y-103750000D02*
X102750000Y-103750000D01*
X113250000Y-112250000D02*
X113250000Y-103750000D01*
%TO.C,H4*%
X61950000Y-141500000D02*
G75*
G02*
X55050000Y-141500000I-3450000J0D01*
G01*
X55050000Y-141500000D02*
G75*
G02*
X61950000Y-141500000I3450000J0D01*
G01*
%TO.C,K9*%
X80750000Y-94750000D02*
X80750000Y-103250000D01*
X80750000Y-103250000D02*
X91250000Y-103250000D01*
X91250000Y-94750000D02*
X80750000Y-94750000D01*
X91250000Y-103250000D02*
X91250000Y-94750000D01*
%TO.C,K89*%
X190750000Y-94750000D02*
X190750000Y-103250000D01*
X190750000Y-103250000D02*
X201250000Y-103250000D01*
X201250000Y-94750000D02*
X190750000Y-94750000D01*
X201250000Y-103250000D02*
X201250000Y-94750000D01*
%TO.C,K35*%
X113750000Y-112750000D02*
X113750000Y-121250000D01*
X113750000Y-121250000D02*
X124250000Y-121250000D01*
X124250000Y-112750000D02*
X113750000Y-112750000D01*
X124250000Y-121250000D02*
X124250000Y-112750000D01*
%TO.C,U14*%
X193894000Y-132532000D02*
X193894000Y-140232000D01*
X193894000Y-140232000D02*
X199394000Y-140232000D01*
X199394000Y-132532000D02*
X193894000Y-132532000D01*
X199394000Y-140232000D02*
X199394000Y-132532000D01*
%TO.C,C12*%
X170104000Y-134648001D02*
X171564000Y-134648001D01*
X170104000Y-137608001D02*
X170104000Y-134648001D01*
X171564000Y-134648001D02*
X171564000Y-137608001D01*
X171564000Y-137608001D02*
X170104000Y-137608001D01*
%TO.C,K49*%
X135750000Y-94750000D02*
X135750000Y-103250000D01*
X135750000Y-103250000D02*
X146250000Y-103250000D01*
X146250000Y-94750000D02*
X135750000Y-94750000D01*
X146250000Y-103250000D02*
X146250000Y-94750000D01*
%TD*%
M02*
