%TF.GenerationSoftware,KiCad,Pcbnew,9.0.6*%
%TF.CreationDate,2026-01-20T12:42:19+01:00*%
%TF.ProjectId,spimux,7370696d-7578-42e6-9b69-6361645f7063,rev?*%
%TF.SameCoordinates,Original*%
%TF.FileFunction,Other,Comment*%
%FSLAX46Y46*%
G04 Gerber Fmt 4.6, Leading zero omitted, Abs format (unit mm)*
G04 Created by KiCad (PCBNEW 9.0.6) date 2026-01-20 12:42:19*
%MOMM*%
%LPD*%
G01*
G04 APERTURE LIST*
%ADD10C,0.150000*%
G04 APERTURE END LIST*
D10*
X55836779Y-147454819D02*
X55836779Y-146454819D01*
X56408207Y-147454819D02*
X55979636Y-146883390D01*
X56408207Y-146454819D02*
X55836779Y-147026247D01*
X57217731Y-147407200D02*
X57122493Y-147454819D01*
X57122493Y-147454819D02*
X56932017Y-147454819D01*
X56932017Y-147454819D02*
X56836779Y-147407200D01*
X56836779Y-147407200D02*
X56789160Y-147311961D01*
X56789160Y-147311961D02*
X56789160Y-146931009D01*
X56789160Y-146931009D02*
X56836779Y-146835771D01*
X56836779Y-146835771D02*
X56932017Y-146788152D01*
X56932017Y-146788152D02*
X57122493Y-146788152D01*
X57122493Y-146788152D02*
X57217731Y-146835771D01*
X57217731Y-146835771D02*
X57265350Y-146931009D01*
X57265350Y-146931009D02*
X57265350Y-147026247D01*
X57265350Y-147026247D02*
X56789160Y-147121485D01*
X58074874Y-147407200D02*
X57979636Y-147454819D01*
X57979636Y-147454819D02*
X57789160Y-147454819D01*
X57789160Y-147454819D02*
X57693922Y-147407200D01*
X57693922Y-147407200D02*
X57646303Y-147311961D01*
X57646303Y-147311961D02*
X57646303Y-146931009D01*
X57646303Y-146931009D02*
X57693922Y-146835771D01*
X57693922Y-146835771D02*
X57789160Y-146788152D01*
X57789160Y-146788152D02*
X57979636Y-146788152D01*
X57979636Y-146788152D02*
X58074874Y-146835771D01*
X58074874Y-146835771D02*
X58122493Y-146931009D01*
X58122493Y-146931009D02*
X58122493Y-147026247D01*
X58122493Y-147026247D02*
X57646303Y-147121485D01*
X58551065Y-146788152D02*
X58551065Y-147788152D01*
X58551065Y-146835771D02*
X58646303Y-146788152D01*
X58646303Y-146788152D02*
X58836779Y-146788152D01*
X58836779Y-146788152D02*
X58932017Y-146835771D01*
X58932017Y-146835771D02*
X58979636Y-146883390D01*
X58979636Y-146883390D02*
X59027255Y-146978628D01*
X59027255Y-146978628D02*
X59027255Y-147264342D01*
X59027255Y-147264342D02*
X58979636Y-147359580D01*
X58979636Y-147359580D02*
X58932017Y-147407200D01*
X58932017Y-147407200D02*
X58836779Y-147454819D01*
X58836779Y-147454819D02*
X58646303Y-147454819D01*
X58646303Y-147454819D02*
X58551065Y-147407200D01*
X59598684Y-147454819D02*
X59503446Y-147407200D01*
X59503446Y-147407200D02*
X59455827Y-147359580D01*
X59455827Y-147359580D02*
X59408208Y-147264342D01*
X59408208Y-147264342D02*
X59408208Y-146978628D01*
X59408208Y-146978628D02*
X59455827Y-146883390D01*
X59455827Y-146883390D02*
X59503446Y-146835771D01*
X59503446Y-146835771D02*
X59598684Y-146788152D01*
X59598684Y-146788152D02*
X59741541Y-146788152D01*
X59741541Y-146788152D02*
X59836779Y-146835771D01*
X59836779Y-146835771D02*
X59884398Y-146883390D01*
X59884398Y-146883390D02*
X59932017Y-146978628D01*
X59932017Y-146978628D02*
X59932017Y-147264342D01*
X59932017Y-147264342D02*
X59884398Y-147359580D01*
X59884398Y-147359580D02*
X59836779Y-147407200D01*
X59836779Y-147407200D02*
X59741541Y-147454819D01*
X59741541Y-147454819D02*
X59598684Y-147454819D01*
X60789160Y-146788152D02*
X60789160Y-147454819D01*
X60360589Y-146788152D02*
X60360589Y-147311961D01*
X60360589Y-147311961D02*
X60408208Y-147407200D01*
X60408208Y-147407200D02*
X60503446Y-147454819D01*
X60503446Y-147454819D02*
X60646303Y-147454819D01*
X60646303Y-147454819D02*
X60741541Y-147407200D01*
X60741541Y-147407200D02*
X60789160Y-147359580D01*
X61122494Y-146788152D02*
X61503446Y-146788152D01*
X61265351Y-146454819D02*
X61265351Y-147311961D01*
X61265351Y-147311961D02*
X61312970Y-147407200D01*
X61312970Y-147407200D02*
X61408208Y-147454819D01*
X61408208Y-147454819D02*
X61503446Y-147454819D01*
X63027256Y-147454819D02*
X63027256Y-146931009D01*
X63027256Y-146931009D02*
X62979637Y-146835771D01*
X62979637Y-146835771D02*
X62884399Y-146788152D01*
X62884399Y-146788152D02*
X62693923Y-146788152D01*
X62693923Y-146788152D02*
X62598685Y-146835771D01*
X63027256Y-147407200D02*
X62932018Y-147454819D01*
X62932018Y-147454819D02*
X62693923Y-147454819D01*
X62693923Y-147454819D02*
X62598685Y-147407200D01*
X62598685Y-147407200D02*
X62551066Y-147311961D01*
X62551066Y-147311961D02*
X62551066Y-147216723D01*
X62551066Y-147216723D02*
X62598685Y-147121485D01*
X62598685Y-147121485D02*
X62693923Y-147073866D01*
X62693923Y-147073866D02*
X62932018Y-147073866D01*
X62932018Y-147073866D02*
X63027256Y-147026247D01*
X63503447Y-147454819D02*
X63503447Y-146788152D01*
X63503447Y-146978628D02*
X63551066Y-146883390D01*
X63551066Y-146883390D02*
X63598685Y-146835771D01*
X63598685Y-146835771D02*
X63693923Y-146788152D01*
X63693923Y-146788152D02*
X63789161Y-146788152D01*
X64503447Y-147407200D02*
X64408209Y-147454819D01*
X64408209Y-147454819D02*
X64217733Y-147454819D01*
X64217733Y-147454819D02*
X64122495Y-147407200D01*
X64122495Y-147407200D02*
X64074876Y-147311961D01*
X64074876Y-147311961D02*
X64074876Y-146931009D01*
X64074876Y-146931009D02*
X64122495Y-146835771D01*
X64122495Y-146835771D02*
X64217733Y-146788152D01*
X64217733Y-146788152D02*
X64408209Y-146788152D01*
X64408209Y-146788152D02*
X64503447Y-146835771D01*
X64503447Y-146835771D02*
X64551066Y-146931009D01*
X64551066Y-146931009D02*
X64551066Y-147026247D01*
X64551066Y-147026247D02*
X64074876Y-147121485D01*
X65408209Y-147454819D02*
X65408209Y-146931009D01*
X65408209Y-146931009D02*
X65360590Y-146835771D01*
X65360590Y-146835771D02*
X65265352Y-146788152D01*
X65265352Y-146788152D02*
X65074876Y-146788152D01*
X65074876Y-146788152D02*
X64979638Y-146835771D01*
X65408209Y-147407200D02*
X65312971Y-147454819D01*
X65312971Y-147454819D02*
X65074876Y-147454819D01*
X65074876Y-147454819D02*
X64979638Y-147407200D01*
X64979638Y-147407200D02*
X64932019Y-147311961D01*
X64932019Y-147311961D02*
X64932019Y-147216723D01*
X64932019Y-147216723D02*
X64979638Y-147121485D01*
X64979638Y-147121485D02*
X65074876Y-147073866D01*
X65074876Y-147073866D02*
X65312971Y-147073866D01*
X65312971Y-147073866D02*
X65408209Y-147026247D01*
X65836781Y-147407200D02*
X65932019Y-147454819D01*
X65932019Y-147454819D02*
X66122495Y-147454819D01*
X66122495Y-147454819D02*
X66217733Y-147407200D01*
X66217733Y-147407200D02*
X66265352Y-147311961D01*
X66265352Y-147311961D02*
X66265352Y-147264342D01*
X66265352Y-147264342D02*
X66217733Y-147169104D01*
X66217733Y-147169104D02*
X66122495Y-147121485D01*
X66122495Y-147121485D02*
X65979638Y-147121485D01*
X65979638Y-147121485D02*
X65884400Y-147073866D01*
X65884400Y-147073866D02*
X65836781Y-146978628D01*
X65836781Y-146978628D02*
X65836781Y-146931009D01*
X65836781Y-146931009D02*
X65884400Y-146835771D01*
X65884400Y-146835771D02*
X65979638Y-146788152D01*
X65979638Y-146788152D02*
X66122495Y-146788152D01*
X66122495Y-146788152D02*
X66217733Y-146835771D01*
X67884400Y-147454819D02*
X67884400Y-146931009D01*
X67884400Y-146931009D02*
X67836781Y-146835771D01*
X67836781Y-146835771D02*
X67741543Y-146788152D01*
X67741543Y-146788152D02*
X67551067Y-146788152D01*
X67551067Y-146788152D02*
X67455829Y-146835771D01*
X67884400Y-147407200D02*
X67789162Y-147454819D01*
X67789162Y-147454819D02*
X67551067Y-147454819D01*
X67551067Y-147454819D02*
X67455829Y-147407200D01*
X67455829Y-147407200D02*
X67408210Y-147311961D01*
X67408210Y-147311961D02*
X67408210Y-147216723D01*
X67408210Y-147216723D02*
X67455829Y-147121485D01*
X67455829Y-147121485D02*
X67551067Y-147073866D01*
X67551067Y-147073866D02*
X67789162Y-147073866D01*
X67789162Y-147073866D02*
X67884400Y-147026247D01*
X68360591Y-147454819D02*
X68360591Y-146788152D01*
X68360591Y-146978628D02*
X68408210Y-146883390D01*
X68408210Y-146883390D02*
X68455829Y-146835771D01*
X68455829Y-146835771D02*
X68551067Y-146788152D01*
X68551067Y-146788152D02*
X68646305Y-146788152D01*
X69360591Y-147407200D02*
X69265353Y-147454819D01*
X69265353Y-147454819D02*
X69074877Y-147454819D01*
X69074877Y-147454819D02*
X68979639Y-147407200D01*
X68979639Y-147407200D02*
X68932020Y-147311961D01*
X68932020Y-147311961D02*
X68932020Y-146931009D01*
X68932020Y-146931009D02*
X68979639Y-146835771D01*
X68979639Y-146835771D02*
X69074877Y-146788152D01*
X69074877Y-146788152D02*
X69265353Y-146788152D01*
X69265353Y-146788152D02*
X69360591Y-146835771D01*
X69360591Y-146835771D02*
X69408210Y-146931009D01*
X69408210Y-146931009D02*
X69408210Y-147026247D01*
X69408210Y-147026247D02*
X68932020Y-147121485D01*
X70455830Y-146788152D02*
X70836782Y-146788152D01*
X70598687Y-147454819D02*
X70598687Y-146597676D01*
X70598687Y-146597676D02*
X70646306Y-146502438D01*
X70646306Y-146502438D02*
X70741544Y-146454819D01*
X70741544Y-146454819D02*
X70836782Y-146454819D01*
X71312973Y-147454819D02*
X71217735Y-147407200D01*
X71217735Y-147407200D02*
X71170116Y-147359580D01*
X71170116Y-147359580D02*
X71122497Y-147264342D01*
X71122497Y-147264342D02*
X71122497Y-146978628D01*
X71122497Y-146978628D02*
X71170116Y-146883390D01*
X71170116Y-146883390D02*
X71217735Y-146835771D01*
X71217735Y-146835771D02*
X71312973Y-146788152D01*
X71312973Y-146788152D02*
X71455830Y-146788152D01*
X71455830Y-146788152D02*
X71551068Y-146835771D01*
X71551068Y-146835771D02*
X71598687Y-146883390D01*
X71598687Y-146883390D02*
X71646306Y-146978628D01*
X71646306Y-146978628D02*
X71646306Y-147264342D01*
X71646306Y-147264342D02*
X71598687Y-147359580D01*
X71598687Y-147359580D02*
X71551068Y-147407200D01*
X71551068Y-147407200D02*
X71455830Y-147454819D01*
X71455830Y-147454819D02*
X71312973Y-147454819D01*
X72074878Y-147454819D02*
X72074878Y-146788152D01*
X72074878Y-146978628D02*
X72122497Y-146883390D01*
X72122497Y-146883390D02*
X72170116Y-146835771D01*
X72170116Y-146835771D02*
X72265354Y-146788152D01*
X72265354Y-146788152D02*
X72360592Y-146788152D01*
X73312974Y-146788152D02*
X73693926Y-146788152D01*
X73455831Y-147454819D02*
X73455831Y-146597676D01*
X73455831Y-146597676D02*
X73503450Y-146502438D01*
X73503450Y-146502438D02*
X73598688Y-146454819D01*
X73598688Y-146454819D02*
X73693926Y-146454819D01*
X74170117Y-147454819D02*
X74074879Y-147407200D01*
X74074879Y-147407200D02*
X74027260Y-147359580D01*
X74027260Y-147359580D02*
X73979641Y-147264342D01*
X73979641Y-147264342D02*
X73979641Y-146978628D01*
X73979641Y-146978628D02*
X74027260Y-146883390D01*
X74027260Y-146883390D02*
X74074879Y-146835771D01*
X74074879Y-146835771D02*
X74170117Y-146788152D01*
X74170117Y-146788152D02*
X74312974Y-146788152D01*
X74312974Y-146788152D02*
X74408212Y-146835771D01*
X74408212Y-146835771D02*
X74455831Y-146883390D01*
X74455831Y-146883390D02*
X74503450Y-146978628D01*
X74503450Y-146978628D02*
X74503450Y-147264342D01*
X74503450Y-147264342D02*
X74455831Y-147359580D01*
X74455831Y-147359580D02*
X74408212Y-147407200D01*
X74408212Y-147407200D02*
X74312974Y-147454819D01*
X74312974Y-147454819D02*
X74170117Y-147454819D01*
X74932022Y-147454819D02*
X74932022Y-146788152D01*
X74932022Y-146978628D02*
X74979641Y-146883390D01*
X74979641Y-146883390D02*
X75027260Y-146835771D01*
X75027260Y-146835771D02*
X75122498Y-146788152D01*
X75122498Y-146788152D02*
X75217736Y-146788152D01*
X76741546Y-146788152D02*
X76741546Y-147597676D01*
X76741546Y-147597676D02*
X76693927Y-147692914D01*
X76693927Y-147692914D02*
X76646308Y-147740533D01*
X76646308Y-147740533D02*
X76551070Y-147788152D01*
X76551070Y-147788152D02*
X76408213Y-147788152D01*
X76408213Y-147788152D02*
X76312975Y-147740533D01*
X76741546Y-147407200D02*
X76646308Y-147454819D01*
X76646308Y-147454819D02*
X76455832Y-147454819D01*
X76455832Y-147454819D02*
X76360594Y-147407200D01*
X76360594Y-147407200D02*
X76312975Y-147359580D01*
X76312975Y-147359580D02*
X76265356Y-147264342D01*
X76265356Y-147264342D02*
X76265356Y-146978628D01*
X76265356Y-146978628D02*
X76312975Y-146883390D01*
X76312975Y-146883390D02*
X76360594Y-146835771D01*
X76360594Y-146835771D02*
X76455832Y-146788152D01*
X76455832Y-146788152D02*
X76646308Y-146788152D01*
X76646308Y-146788152D02*
X76741546Y-146835771D01*
X77646308Y-146788152D02*
X77646308Y-147454819D01*
X77217737Y-146788152D02*
X77217737Y-147311961D01*
X77217737Y-147311961D02*
X77265356Y-147407200D01*
X77265356Y-147407200D02*
X77360594Y-147454819D01*
X77360594Y-147454819D02*
X77503451Y-147454819D01*
X77503451Y-147454819D02*
X77598689Y-147407200D01*
X77598689Y-147407200D02*
X77646308Y-147359580D01*
X78122499Y-147454819D02*
X78122499Y-146788152D01*
X78122499Y-146454819D02*
X78074880Y-146502438D01*
X78074880Y-146502438D02*
X78122499Y-146550057D01*
X78122499Y-146550057D02*
X78170118Y-146502438D01*
X78170118Y-146502438D02*
X78122499Y-146454819D01*
X78122499Y-146454819D02*
X78122499Y-146550057D01*
X79027260Y-147454819D02*
X79027260Y-146454819D01*
X79027260Y-147407200D02*
X78932022Y-147454819D01*
X78932022Y-147454819D02*
X78741546Y-147454819D01*
X78741546Y-147454819D02*
X78646308Y-147407200D01*
X78646308Y-147407200D02*
X78598689Y-147359580D01*
X78598689Y-147359580D02*
X78551070Y-147264342D01*
X78551070Y-147264342D02*
X78551070Y-146978628D01*
X78551070Y-146978628D02*
X78598689Y-146883390D01*
X78598689Y-146883390D02*
X78646308Y-146835771D01*
X78646308Y-146835771D02*
X78741546Y-146788152D01*
X78741546Y-146788152D02*
X78932022Y-146788152D01*
X78932022Y-146788152D02*
X79027260Y-146835771D01*
X79884403Y-147407200D02*
X79789165Y-147454819D01*
X79789165Y-147454819D02*
X79598689Y-147454819D01*
X79598689Y-147454819D02*
X79503451Y-147407200D01*
X79503451Y-147407200D02*
X79455832Y-147311961D01*
X79455832Y-147311961D02*
X79455832Y-146931009D01*
X79455832Y-146931009D02*
X79503451Y-146835771D01*
X79503451Y-146835771D02*
X79598689Y-146788152D01*
X79598689Y-146788152D02*
X79789165Y-146788152D01*
X79789165Y-146788152D02*
X79884403Y-146835771D01*
X79884403Y-146835771D02*
X79932022Y-146931009D01*
X79932022Y-146931009D02*
X79932022Y-147026247D01*
X79932022Y-147026247D02*
X79455832Y-147121485D01*
X81122499Y-147454819D02*
X81122499Y-146788152D01*
X81122499Y-146978628D02*
X81170118Y-146883390D01*
X81170118Y-146883390D02*
X81217737Y-146835771D01*
X81217737Y-146835771D02*
X81312975Y-146788152D01*
X81312975Y-146788152D02*
X81408213Y-146788152D01*
X82170118Y-147454819D02*
X82170118Y-146931009D01*
X82170118Y-146931009D02*
X82122499Y-146835771D01*
X82122499Y-146835771D02*
X82027261Y-146788152D01*
X82027261Y-146788152D02*
X81836785Y-146788152D01*
X81836785Y-146788152D02*
X81741547Y-146835771D01*
X82170118Y-147407200D02*
X82074880Y-147454819D01*
X82074880Y-147454819D02*
X81836785Y-147454819D01*
X81836785Y-147454819D02*
X81741547Y-147407200D01*
X81741547Y-147407200D02*
X81693928Y-147311961D01*
X81693928Y-147311961D02*
X81693928Y-147216723D01*
X81693928Y-147216723D02*
X81741547Y-147121485D01*
X81741547Y-147121485D02*
X81836785Y-147073866D01*
X81836785Y-147073866D02*
X82074880Y-147073866D01*
X82074880Y-147073866D02*
X82170118Y-147026247D01*
X82646309Y-147454819D02*
X82646309Y-146788152D01*
X82646309Y-146454819D02*
X82598690Y-146502438D01*
X82598690Y-146502438D02*
X82646309Y-146550057D01*
X82646309Y-146550057D02*
X82693928Y-146502438D01*
X82693928Y-146502438D02*
X82646309Y-146454819D01*
X82646309Y-146454819D02*
X82646309Y-146550057D01*
X83265356Y-147454819D02*
X83170118Y-147407200D01*
X83170118Y-147407200D02*
X83122499Y-147311961D01*
X83122499Y-147311961D02*
X83122499Y-146454819D01*
X83598690Y-147407200D02*
X83693928Y-147454819D01*
X83693928Y-147454819D02*
X83884404Y-147454819D01*
X83884404Y-147454819D02*
X83979642Y-147407200D01*
X83979642Y-147407200D02*
X84027261Y-147311961D01*
X84027261Y-147311961D02*
X84027261Y-147264342D01*
X84027261Y-147264342D02*
X83979642Y-147169104D01*
X83979642Y-147169104D02*
X83884404Y-147121485D01*
X83884404Y-147121485D02*
X83741547Y-147121485D01*
X83741547Y-147121485D02*
X83646309Y-147073866D01*
X83646309Y-147073866D02*
X83598690Y-146978628D01*
X83598690Y-146978628D02*
X83598690Y-146931009D01*
X83598690Y-146931009D02*
X83646309Y-146835771D01*
X83646309Y-146835771D02*
X83741547Y-146788152D01*
X83741547Y-146788152D02*
X83884404Y-146788152D01*
X83884404Y-146788152D02*
X83979642Y-146835771D01*
%TO.C,H1*%
X61700000Y-88500000D02*
G75*
G02*
X55300000Y-88500000I-3200000J0D01*
G01*
X55300000Y-88500000D02*
G75*
G02*
X61700000Y-88500000I3200000J0D01*
G01*
%TO.C,H3*%
X214700000Y-141500000D02*
G75*
G02*
X208300000Y-141500000I-3200000J0D01*
G01*
X208300000Y-141500000D02*
G75*
G02*
X214700000Y-141500000I3200000J0D01*
G01*
%TO.C,H2*%
X214700000Y-88500000D02*
G75*
G02*
X208300000Y-88500000I-3200000J0D01*
G01*
X208300000Y-88500000D02*
G75*
G02*
X214700000Y-88500000I3200000J0D01*
G01*
%TO.C,H4*%
X61700000Y-141500000D02*
G75*
G02*
X55300000Y-141500000I-3200000J0D01*
G01*
X55300000Y-141500000D02*
G75*
G02*
X61700000Y-141500000I3200000J0D01*
G01*
%TD*%
M02*
