%TF.GenerationSoftware,KiCad,Pcbnew,9.0.6*%
%TF.CreationDate,2026-01-20T12:42:19+01:00*%
%TF.ProjectId,spimux,7370696d-7578-42e6-9b69-6361645f7063,rev?*%
%TF.SameCoordinates,Original*%
%TF.FileFunction,Paste,Bot*%
%TF.FilePolarity,Positive*%
%FSLAX46Y46*%
G04 Gerber Fmt 4.6, Leading zero omitted, Abs format (unit mm)*
G04 Created by KiCad (PCBNEW 9.0.6) date 2026-01-20 12:42:19*
%MOMM*%
%LPD*%
G01*
G04 APERTURE LIST*
%ADD10R,0.700000X2.000000*%
G04 APERTURE END LIST*
D10*
%TO.C,K22*%
X93200001Y-105000000D03*
X96400001Y-105000000D03*
X98600001Y-105000000D03*
X100800001Y-105000000D03*
X100800001Y-111000000D03*
X98600001Y-111000000D03*
X96400001Y-111000000D03*
X93200001Y-111000000D03*
%TD*%
%TO.C,K55*%
X137200001Y-114000000D03*
X140400001Y-114000000D03*
X142600001Y-114000000D03*
X144800001Y-114000000D03*
X144800001Y-120000000D03*
X142600001Y-120000000D03*
X140400001Y-120000000D03*
X137200001Y-120000000D03*
%TD*%
%TO.C,K93*%
X192200001Y-96000000D03*
X195400001Y-96000000D03*
X197600001Y-96000000D03*
X199800001Y-96000000D03*
X199800001Y-102000000D03*
X197600001Y-102000000D03*
X195400001Y-102000000D03*
X192200001Y-102000000D03*
%TD*%
%TO.C,K45*%
X126200001Y-96000000D03*
X129400001Y-96000000D03*
X131600001Y-96000000D03*
X133800001Y-96000000D03*
X133800001Y-102000000D03*
X131600001Y-102000000D03*
X129400001Y-102000000D03*
X126200001Y-102000000D03*
%TD*%
%TO.C,K5*%
X71200001Y-96000000D03*
X74400001Y-96000000D03*
X76600001Y-96000000D03*
X78800001Y-96000000D03*
X78800001Y-102000000D03*
X76600001Y-102000000D03*
X74400001Y-102000000D03*
X71200001Y-102000000D03*
%TD*%
%TO.C,K77*%
X170200001Y-96000000D03*
X173400001Y-96000000D03*
X175600001Y-96000000D03*
X177800001Y-96000000D03*
X177800001Y-102000000D03*
X175600001Y-102000000D03*
X173400001Y-102000000D03*
X170200001Y-102000000D03*
%TD*%
%TO.C,K71*%
X159200001Y-114000000D03*
X162400001Y-114000000D03*
X164600001Y-114000000D03*
X166800001Y-114000000D03*
X166800001Y-120000000D03*
X164600001Y-120000000D03*
X162400001Y-120000000D03*
X159200001Y-120000000D03*
%TD*%
%TO.C,K14*%
X82200001Y-105000000D03*
X85400001Y-105000000D03*
X87600001Y-105000000D03*
X89800001Y-105000000D03*
X89800001Y-111000000D03*
X87600001Y-111000000D03*
X85400001Y-111000000D03*
X82200001Y-111000000D03*
%TD*%
%TO.C,K96*%
X192200000Y-123000000D03*
X195400000Y-123000000D03*
X197600000Y-123000000D03*
X199800000Y-123000000D03*
X199800000Y-129000000D03*
X197600000Y-129000000D03*
X195400000Y-129000000D03*
X192200000Y-129000000D03*
%TD*%
%TO.C,K37*%
X115200001Y-96000000D03*
X118400001Y-96000000D03*
X120600001Y-96000000D03*
X122800001Y-96000000D03*
X122800001Y-102000000D03*
X120600001Y-102000000D03*
X118400001Y-102000000D03*
X115200001Y-102000000D03*
%TD*%
%TO.C,K24*%
X93200000Y-123000000D03*
X96400000Y-123000000D03*
X98600000Y-123000000D03*
X100800000Y-123000000D03*
X100800000Y-129000000D03*
X98600000Y-129000000D03*
X96400000Y-129000000D03*
X93200000Y-129000000D03*
%TD*%
%TO.C,K78*%
X170200001Y-105000000D03*
X173400001Y-105000000D03*
X175600001Y-105000000D03*
X177800001Y-105000000D03*
X177800001Y-111000000D03*
X175600001Y-111000000D03*
X173400001Y-111000000D03*
X170200001Y-111000000D03*
%TD*%
%TO.C,K40*%
X115200000Y-123000000D03*
X118400000Y-123000000D03*
X120600000Y-123000000D03*
X122800000Y-123000000D03*
X122800000Y-129000000D03*
X120600000Y-129000000D03*
X118400000Y-129000000D03*
X115200000Y-129000000D03*
%TD*%
%TO.C,K94*%
X192200001Y-105000000D03*
X195400001Y-105000000D03*
X197600001Y-105000000D03*
X199800001Y-105000000D03*
X199800001Y-111000000D03*
X197600001Y-111000000D03*
X195400001Y-111000000D03*
X192200001Y-111000000D03*
%TD*%
%TO.C,K79*%
X170200001Y-114000000D03*
X173400001Y-114000000D03*
X175600001Y-114000000D03*
X177800001Y-114000000D03*
X177800001Y-120000000D03*
X175600001Y-120000000D03*
X173400001Y-120000000D03*
X170200001Y-120000000D03*
%TD*%
%TO.C,K70*%
X159200001Y-105000000D03*
X162400001Y-105000000D03*
X164600001Y-105000000D03*
X166800001Y-105000000D03*
X166800001Y-111000000D03*
X164600001Y-111000000D03*
X162400001Y-111000000D03*
X159200001Y-111000000D03*
%TD*%
%TO.C,K31*%
X104200001Y-114000000D03*
X107400001Y-114000000D03*
X109600001Y-114000000D03*
X111800001Y-114000000D03*
X111800001Y-120000000D03*
X109600001Y-120000000D03*
X107400001Y-120000000D03*
X104200001Y-120000000D03*
%TD*%
%TO.C,K29*%
X104200001Y-96000000D03*
X107400001Y-96000000D03*
X109600001Y-96000000D03*
X111800001Y-96000000D03*
X111800001Y-102000000D03*
X109600001Y-102000000D03*
X107400001Y-102000000D03*
X104200001Y-102000000D03*
%TD*%
%TO.C,K61*%
X148200001Y-96000000D03*
X151400001Y-96000000D03*
X153600001Y-96000000D03*
X155800001Y-96000000D03*
X155800001Y-102000000D03*
X153600001Y-102000000D03*
X151400001Y-102000000D03*
X148200001Y-102000000D03*
%TD*%
%TO.C,K69*%
X159200001Y-96000000D03*
X162400001Y-96000000D03*
X164600001Y-96000000D03*
X166800001Y-96000000D03*
X166800001Y-102000000D03*
X164600001Y-102000000D03*
X162400001Y-102000000D03*
X159200001Y-102000000D03*
%TD*%
%TO.C,K32*%
X104200000Y-123000000D03*
X107400000Y-123000000D03*
X109600000Y-123000000D03*
X111800000Y-123000000D03*
X111800000Y-129000000D03*
X109600000Y-129000000D03*
X107400000Y-129000000D03*
X104200000Y-129000000D03*
%TD*%
%TO.C,K80*%
X170200000Y-123000000D03*
X173400000Y-123000000D03*
X175600000Y-123000000D03*
X177800000Y-123000000D03*
X177800000Y-129000000D03*
X175600000Y-129000000D03*
X173400000Y-129000000D03*
X170200000Y-129000000D03*
%TD*%
%TO.C,K62*%
X148200001Y-105000000D03*
X151400001Y-105000000D03*
X153600001Y-105000000D03*
X155800001Y-105000000D03*
X155800001Y-111000000D03*
X153600001Y-111000000D03*
X151400001Y-111000000D03*
X148200001Y-111000000D03*
%TD*%
%TO.C,K8*%
X71200000Y-123000000D03*
X74400000Y-123000000D03*
X76600000Y-123000000D03*
X78800000Y-123000000D03*
X78800000Y-129000000D03*
X76600000Y-129000000D03*
X74400000Y-129000000D03*
X71200000Y-129000000D03*
%TD*%
%TO.C,K72*%
X159200000Y-123000000D03*
X162400000Y-123000000D03*
X164600000Y-123000000D03*
X166800000Y-123000000D03*
X166800000Y-129000000D03*
X164600000Y-129000000D03*
X162400000Y-129000000D03*
X159200000Y-129000000D03*
%TD*%
%TO.C,K85*%
X181200001Y-96000000D03*
X184400001Y-96000000D03*
X186600001Y-96000000D03*
X188800001Y-96000000D03*
X188800001Y-102000000D03*
X186600001Y-102000000D03*
X184400001Y-102000000D03*
X181200001Y-102000000D03*
%TD*%
%TO.C,K7*%
X71200001Y-114000000D03*
X74400001Y-114000000D03*
X76600001Y-114000000D03*
X78800001Y-114000000D03*
X78800001Y-120000000D03*
X76600001Y-120000000D03*
X74400001Y-120000000D03*
X71200001Y-120000000D03*
%TD*%
%TO.C,K6*%
X71200001Y-105000000D03*
X74400001Y-105000000D03*
X76600001Y-105000000D03*
X78800001Y-105000000D03*
X78800001Y-111000000D03*
X76600001Y-111000000D03*
X74400001Y-111000000D03*
X71200001Y-111000000D03*
%TD*%
%TO.C,K21*%
X93200001Y-96000000D03*
X96400001Y-96000000D03*
X98600001Y-96000000D03*
X100800001Y-96000000D03*
X100800001Y-102000000D03*
X98600001Y-102000000D03*
X96400001Y-102000000D03*
X93200001Y-102000000D03*
%TD*%
%TO.C,K95*%
X192200001Y-114000000D03*
X195400001Y-114000000D03*
X197600001Y-114000000D03*
X199800001Y-114000000D03*
X199800001Y-120000000D03*
X197600001Y-120000000D03*
X195400001Y-120000000D03*
X192200001Y-120000000D03*
%TD*%
%TO.C,K15*%
X82200001Y-114000000D03*
X85400001Y-114000000D03*
X87600001Y-114000000D03*
X89800001Y-114000000D03*
X89800001Y-120000000D03*
X87600001Y-120000000D03*
X85400001Y-120000000D03*
X82200001Y-120000000D03*
%TD*%
%TO.C,K47*%
X126200001Y-114000000D03*
X129400001Y-114000000D03*
X131600001Y-114000000D03*
X133800001Y-114000000D03*
X133800001Y-120000000D03*
X131600001Y-120000000D03*
X129400001Y-120000000D03*
X126200001Y-120000000D03*
%TD*%
%TO.C,K13*%
X82200001Y-96000000D03*
X85400001Y-96000000D03*
X87600001Y-96000000D03*
X89800001Y-96000000D03*
X89800001Y-102000000D03*
X87600001Y-102000000D03*
X85400001Y-102000000D03*
X82200001Y-102000000D03*
%TD*%
%TO.C,K23*%
X93200001Y-114000000D03*
X96400001Y-114000000D03*
X98600001Y-114000000D03*
X100800001Y-114000000D03*
X100800001Y-120000000D03*
X98600001Y-120000000D03*
X96400001Y-120000000D03*
X93200001Y-120000000D03*
%TD*%
%TO.C,K39*%
X115200001Y-114000000D03*
X118400001Y-114000000D03*
X120600001Y-114000000D03*
X122800001Y-114000000D03*
X122800001Y-120000000D03*
X120600001Y-120000000D03*
X118400001Y-120000000D03*
X115200001Y-120000000D03*
%TD*%
%TO.C,K48*%
X126200000Y-123000000D03*
X129400000Y-123000000D03*
X131600000Y-123000000D03*
X133800000Y-123000000D03*
X133800000Y-129000000D03*
X131600000Y-129000000D03*
X129400000Y-129000000D03*
X126200000Y-129000000D03*
%TD*%
%TO.C,K64*%
X148200000Y-123000000D03*
X151400000Y-123000000D03*
X153600000Y-123000000D03*
X155800000Y-123000000D03*
X155800000Y-129000000D03*
X153600000Y-129000000D03*
X151400000Y-129000000D03*
X148200000Y-129000000D03*
%TD*%
%TO.C,K30*%
X104200001Y-105000000D03*
X107400001Y-105000000D03*
X109600001Y-105000000D03*
X111800001Y-105000000D03*
X111800001Y-111000000D03*
X109600001Y-111000000D03*
X107400001Y-111000000D03*
X104200001Y-111000000D03*
%TD*%
%TO.C,K53*%
X137200001Y-96000000D03*
X140400001Y-96000000D03*
X142600001Y-96000000D03*
X144800001Y-96000000D03*
X144800001Y-102000000D03*
X142600001Y-102000000D03*
X140400001Y-102000000D03*
X137200001Y-102000000D03*
%TD*%
%TO.C,K16*%
X82200000Y-123000000D03*
X85400000Y-123000000D03*
X87600000Y-123000000D03*
X89800000Y-123000000D03*
X89800000Y-129000000D03*
X87600000Y-129000000D03*
X85400000Y-129000000D03*
X82200000Y-129000000D03*
%TD*%
%TO.C,K86*%
X181200001Y-105000000D03*
X184400001Y-105000000D03*
X186600001Y-105000000D03*
X188800001Y-105000000D03*
X188800001Y-111000000D03*
X186600001Y-111000000D03*
X184400001Y-111000000D03*
X181200001Y-111000000D03*
%TD*%
%TO.C,K54*%
X137200001Y-105000000D03*
X140400001Y-105000000D03*
X142600001Y-105000000D03*
X144800001Y-105000000D03*
X144800001Y-111000000D03*
X142600001Y-111000000D03*
X140400001Y-111000000D03*
X137200001Y-111000000D03*
%TD*%
%TO.C,K46*%
X126200001Y-105000000D03*
X129400001Y-105000000D03*
X131600001Y-105000000D03*
X133800001Y-105000000D03*
X133800001Y-111000000D03*
X131600001Y-111000000D03*
X129400001Y-111000000D03*
X126200001Y-111000000D03*
%TD*%
%TO.C,K38*%
X115200001Y-105000000D03*
X118400001Y-105000000D03*
X120600001Y-105000000D03*
X122800001Y-105000000D03*
X122800001Y-111000000D03*
X120600001Y-111000000D03*
X118400001Y-111000000D03*
X115200001Y-111000000D03*
%TD*%
%TO.C,K87*%
X181200001Y-114000000D03*
X184400001Y-114000000D03*
X186600001Y-114000000D03*
X188800001Y-114000000D03*
X188800001Y-120000000D03*
X186600001Y-120000000D03*
X184400001Y-120000000D03*
X181200001Y-120000000D03*
%TD*%
%TO.C,K88*%
X181200000Y-123000000D03*
X184400000Y-123000000D03*
X186600000Y-123000000D03*
X188800000Y-123000000D03*
X188800000Y-129000000D03*
X186600000Y-129000000D03*
X184400000Y-129000000D03*
X181200000Y-129000000D03*
%TD*%
%TO.C,K63*%
X148200001Y-114000000D03*
X151400001Y-114000000D03*
X153600001Y-114000000D03*
X155800001Y-114000000D03*
X155800001Y-120000000D03*
X153600001Y-120000000D03*
X151400001Y-120000000D03*
X148200001Y-120000000D03*
%TD*%
%TO.C,K56*%
X137200000Y-123000000D03*
X140400000Y-123000000D03*
X142600000Y-123000000D03*
X144800000Y-123000000D03*
X144800000Y-129000000D03*
X142600000Y-129000000D03*
X140400000Y-129000000D03*
X137200000Y-129000000D03*
%TD*%
M02*
