%TF.GenerationSoftware,KiCad,Pcbnew,9.0.6*%
%TF.CreationDate,2026-01-20T12:42:19+01:00*%
%TF.ProjectId,spimux,7370696d-7578-42e6-9b69-6361645f7063,rev?*%
%TF.SameCoordinates,Original*%
%TF.FileFunction,OtherDrawing,Comment*%
%FSLAX46Y46*%
G04 Gerber Fmt 4.6, Leading zero omitted, Abs format (unit mm)*
G04 Created by KiCad (PCBNEW 9.0.6) date 2026-01-20 12:42:19*
%MOMM*%
%LPD*%
G01*
G04 APERTURE LIST*
%ADD10C,0.150000*%
%ADD11C,0.100000*%
G04 APERTURE END LIST*
D10*
X130476190Y-73304819D02*
X129904762Y-73304819D01*
X130190476Y-73304819D02*
X130190476Y-72304819D01*
X130190476Y-72304819D02*
X130095238Y-72447676D01*
X130095238Y-72447676D02*
X130000000Y-72542914D01*
X130000000Y-72542914D02*
X129904762Y-72590533D01*
X131333333Y-72304819D02*
X131142857Y-72304819D01*
X131142857Y-72304819D02*
X131047619Y-72352438D01*
X131047619Y-72352438D02*
X131000000Y-72400057D01*
X131000000Y-72400057D02*
X130904762Y-72542914D01*
X130904762Y-72542914D02*
X130857143Y-72733390D01*
X130857143Y-72733390D02*
X130857143Y-73114342D01*
X130857143Y-73114342D02*
X130904762Y-73209580D01*
X130904762Y-73209580D02*
X130952381Y-73257200D01*
X130952381Y-73257200D02*
X131047619Y-73304819D01*
X131047619Y-73304819D02*
X131238095Y-73304819D01*
X131238095Y-73304819D02*
X131333333Y-73257200D01*
X131333333Y-73257200D02*
X131380952Y-73209580D01*
X131380952Y-73209580D02*
X131428571Y-73114342D01*
X131428571Y-73114342D02*
X131428571Y-72876247D01*
X131428571Y-72876247D02*
X131380952Y-72781009D01*
X131380952Y-72781009D02*
X131333333Y-72733390D01*
X131333333Y-72733390D02*
X131238095Y-72685771D01*
X131238095Y-72685771D02*
X131047619Y-72685771D01*
X131047619Y-72685771D02*
X130952381Y-72733390D01*
X130952381Y-72733390D02*
X130904762Y-72781009D01*
X130904762Y-72781009D02*
X130857143Y-72876247D01*
X132047619Y-72304819D02*
X132142857Y-72304819D01*
X132142857Y-72304819D02*
X132238095Y-72352438D01*
X132238095Y-72352438D02*
X132285714Y-72400057D01*
X132285714Y-72400057D02*
X132333333Y-72495295D01*
X132333333Y-72495295D02*
X132380952Y-72685771D01*
X132380952Y-72685771D02*
X132380952Y-72923866D01*
X132380952Y-72923866D02*
X132333333Y-73114342D01*
X132333333Y-73114342D02*
X132285714Y-73209580D01*
X132285714Y-73209580D02*
X132238095Y-73257200D01*
X132238095Y-73257200D02*
X132142857Y-73304819D01*
X132142857Y-73304819D02*
X132047619Y-73304819D01*
X132047619Y-73304819D02*
X131952381Y-73257200D01*
X131952381Y-73257200D02*
X131904762Y-73209580D01*
X131904762Y-73209580D02*
X131857143Y-73114342D01*
X131857143Y-73114342D02*
X131809524Y-72923866D01*
X131809524Y-72923866D02*
X131809524Y-72685771D01*
X131809524Y-72685771D02*
X131857143Y-72495295D01*
X131857143Y-72495295D02*
X131904762Y-72400057D01*
X131904762Y-72400057D02*
X131952381Y-72352438D01*
X131952381Y-72352438D02*
X132047619Y-72304819D01*
X132809524Y-73209580D02*
X132857143Y-73257200D01*
X132857143Y-73257200D02*
X132809524Y-73304819D01*
X132809524Y-73304819D02*
X132761905Y-73257200D01*
X132761905Y-73257200D02*
X132809524Y-73209580D01*
X132809524Y-73209580D02*
X132809524Y-73304819D01*
X133476190Y-72304819D02*
X133571428Y-72304819D01*
X133571428Y-72304819D02*
X133666666Y-72352438D01*
X133666666Y-72352438D02*
X133714285Y-72400057D01*
X133714285Y-72400057D02*
X133761904Y-72495295D01*
X133761904Y-72495295D02*
X133809523Y-72685771D01*
X133809523Y-72685771D02*
X133809523Y-72923866D01*
X133809523Y-72923866D02*
X133761904Y-73114342D01*
X133761904Y-73114342D02*
X133714285Y-73209580D01*
X133714285Y-73209580D02*
X133666666Y-73257200D01*
X133666666Y-73257200D02*
X133571428Y-73304819D01*
X133571428Y-73304819D02*
X133476190Y-73304819D01*
X133476190Y-73304819D02*
X133380952Y-73257200D01*
X133380952Y-73257200D02*
X133333333Y-73209580D01*
X133333333Y-73209580D02*
X133285714Y-73114342D01*
X133285714Y-73114342D02*
X133238095Y-72923866D01*
X133238095Y-72923866D02*
X133238095Y-72685771D01*
X133238095Y-72685771D02*
X133285714Y-72495295D01*
X133285714Y-72495295D02*
X133333333Y-72400057D01*
X133333333Y-72400057D02*
X133380952Y-72352438D01*
X133380952Y-72352438D02*
X133476190Y-72304819D01*
X134428571Y-72304819D02*
X134523809Y-72304819D01*
X134523809Y-72304819D02*
X134619047Y-72352438D01*
X134619047Y-72352438D02*
X134666666Y-72400057D01*
X134666666Y-72400057D02*
X134714285Y-72495295D01*
X134714285Y-72495295D02*
X134761904Y-72685771D01*
X134761904Y-72685771D02*
X134761904Y-72923866D01*
X134761904Y-72923866D02*
X134714285Y-73114342D01*
X134714285Y-73114342D02*
X134666666Y-73209580D01*
X134666666Y-73209580D02*
X134619047Y-73257200D01*
X134619047Y-73257200D02*
X134523809Y-73304819D01*
X134523809Y-73304819D02*
X134428571Y-73304819D01*
X134428571Y-73304819D02*
X134333333Y-73257200D01*
X134333333Y-73257200D02*
X134285714Y-73209580D01*
X134285714Y-73209580D02*
X134238095Y-73114342D01*
X134238095Y-73114342D02*
X134190476Y-72923866D01*
X134190476Y-72923866D02*
X134190476Y-72685771D01*
X134190476Y-72685771D02*
X134238095Y-72495295D01*
X134238095Y-72495295D02*
X134285714Y-72400057D01*
X134285714Y-72400057D02*
X134333333Y-72352438D01*
X134333333Y-72352438D02*
X134428571Y-72304819D01*
X135380952Y-72304819D02*
X135476190Y-72304819D01*
X135476190Y-72304819D02*
X135571428Y-72352438D01*
X135571428Y-72352438D02*
X135619047Y-72400057D01*
X135619047Y-72400057D02*
X135666666Y-72495295D01*
X135666666Y-72495295D02*
X135714285Y-72685771D01*
X135714285Y-72685771D02*
X135714285Y-72923866D01*
X135714285Y-72923866D02*
X135666666Y-73114342D01*
X135666666Y-73114342D02*
X135619047Y-73209580D01*
X135619047Y-73209580D02*
X135571428Y-73257200D01*
X135571428Y-73257200D02*
X135476190Y-73304819D01*
X135476190Y-73304819D02*
X135380952Y-73304819D01*
X135380952Y-73304819D02*
X135285714Y-73257200D01*
X135285714Y-73257200D02*
X135238095Y-73209580D01*
X135238095Y-73209580D02*
X135190476Y-73114342D01*
X135190476Y-73114342D02*
X135142857Y-72923866D01*
X135142857Y-72923866D02*
X135142857Y-72685771D01*
X135142857Y-72685771D02*
X135190476Y-72495295D01*
X135190476Y-72495295D02*
X135238095Y-72400057D01*
X135238095Y-72400057D02*
X135285714Y-72352438D01*
X135285714Y-72352438D02*
X135380952Y-72304819D01*
X136333333Y-72304819D02*
X136428571Y-72304819D01*
X136428571Y-72304819D02*
X136523809Y-72352438D01*
X136523809Y-72352438D02*
X136571428Y-72400057D01*
X136571428Y-72400057D02*
X136619047Y-72495295D01*
X136619047Y-72495295D02*
X136666666Y-72685771D01*
X136666666Y-72685771D02*
X136666666Y-72923866D01*
X136666666Y-72923866D02*
X136619047Y-73114342D01*
X136619047Y-73114342D02*
X136571428Y-73209580D01*
X136571428Y-73209580D02*
X136523809Y-73257200D01*
X136523809Y-73257200D02*
X136428571Y-73304819D01*
X136428571Y-73304819D02*
X136333333Y-73304819D01*
X136333333Y-73304819D02*
X136238095Y-73257200D01*
X136238095Y-73257200D02*
X136190476Y-73209580D01*
X136190476Y-73209580D02*
X136142857Y-73114342D01*
X136142857Y-73114342D02*
X136095238Y-72923866D01*
X136095238Y-72923866D02*
X136095238Y-72685771D01*
X136095238Y-72685771D02*
X136142857Y-72495295D01*
X136142857Y-72495295D02*
X136190476Y-72400057D01*
X136190476Y-72400057D02*
X136238095Y-72352438D01*
X136238095Y-72352438D02*
X136333333Y-72304819D01*
X137857143Y-73304819D02*
X137857143Y-72638152D01*
X137857143Y-72733390D02*
X137904762Y-72685771D01*
X137904762Y-72685771D02*
X138000000Y-72638152D01*
X138000000Y-72638152D02*
X138142857Y-72638152D01*
X138142857Y-72638152D02*
X138238095Y-72685771D01*
X138238095Y-72685771D02*
X138285714Y-72781009D01*
X138285714Y-72781009D02*
X138285714Y-73304819D01*
X138285714Y-72781009D02*
X138333333Y-72685771D01*
X138333333Y-72685771D02*
X138428571Y-72638152D01*
X138428571Y-72638152D02*
X138571428Y-72638152D01*
X138571428Y-72638152D02*
X138666667Y-72685771D01*
X138666667Y-72685771D02*
X138714286Y-72781009D01*
X138714286Y-72781009D02*
X138714286Y-73304819D01*
X139190476Y-73304819D02*
X139190476Y-72638152D01*
X139190476Y-72733390D02*
X139238095Y-72685771D01*
X139238095Y-72685771D02*
X139333333Y-72638152D01*
X139333333Y-72638152D02*
X139476190Y-72638152D01*
X139476190Y-72638152D02*
X139571428Y-72685771D01*
X139571428Y-72685771D02*
X139619047Y-72781009D01*
X139619047Y-72781009D02*
X139619047Y-73304819D01*
X139619047Y-72781009D02*
X139666666Y-72685771D01*
X139666666Y-72685771D02*
X139761904Y-72638152D01*
X139761904Y-72638152D02*
X139904761Y-72638152D01*
X139904761Y-72638152D02*
X140000000Y-72685771D01*
X140000000Y-72685771D02*
X140047619Y-72781009D01*
X140047619Y-72781009D02*
X140047619Y-73304819D01*
D11*
X55000000Y-84500000D02*
X55000000Y-73413580D01*
X215000000Y-84500000D02*
X215000000Y-73413580D01*
X55000000Y-74000000D02*
X215000000Y-74000000D01*
X55000000Y-74000000D02*
X56126504Y-73413579D01*
X55000000Y-74000000D02*
X56126504Y-74586421D01*
X215000000Y-74000000D02*
X213873496Y-74586421D01*
X215000000Y-74000000D02*
X213873496Y-73413579D01*
D10*
X130476190Y-75804820D02*
X129904762Y-75804820D01*
X130190476Y-75804820D02*
X130190476Y-74804820D01*
X130190476Y-74804820D02*
X130095238Y-74947677D01*
X130095238Y-74947677D02*
X130000000Y-75042915D01*
X130000000Y-75042915D02*
X129904762Y-75090534D01*
X131380952Y-74804820D02*
X130904762Y-74804820D01*
X130904762Y-74804820D02*
X130857143Y-75281010D01*
X130857143Y-75281010D02*
X130904762Y-75233391D01*
X130904762Y-75233391D02*
X131000000Y-75185772D01*
X131000000Y-75185772D02*
X131238095Y-75185772D01*
X131238095Y-75185772D02*
X131333333Y-75233391D01*
X131333333Y-75233391D02*
X131380952Y-75281010D01*
X131380952Y-75281010D02*
X131428571Y-75376248D01*
X131428571Y-75376248D02*
X131428571Y-75614343D01*
X131428571Y-75614343D02*
X131380952Y-75709581D01*
X131380952Y-75709581D02*
X131333333Y-75757201D01*
X131333333Y-75757201D02*
X131238095Y-75804820D01*
X131238095Y-75804820D02*
X131000000Y-75804820D01*
X131000000Y-75804820D02*
X130904762Y-75757201D01*
X130904762Y-75757201D02*
X130857143Y-75709581D01*
X132333333Y-74804820D02*
X131857143Y-74804820D01*
X131857143Y-74804820D02*
X131809524Y-75281010D01*
X131809524Y-75281010D02*
X131857143Y-75233391D01*
X131857143Y-75233391D02*
X131952381Y-75185772D01*
X131952381Y-75185772D02*
X132190476Y-75185772D01*
X132190476Y-75185772D02*
X132285714Y-75233391D01*
X132285714Y-75233391D02*
X132333333Y-75281010D01*
X132333333Y-75281010D02*
X132380952Y-75376248D01*
X132380952Y-75376248D02*
X132380952Y-75614343D01*
X132380952Y-75614343D02*
X132333333Y-75709581D01*
X132333333Y-75709581D02*
X132285714Y-75757201D01*
X132285714Y-75757201D02*
X132190476Y-75804820D01*
X132190476Y-75804820D02*
X131952381Y-75804820D01*
X131952381Y-75804820D02*
X131857143Y-75757201D01*
X131857143Y-75757201D02*
X131809524Y-75709581D01*
X132809524Y-75709581D02*
X132857143Y-75757201D01*
X132857143Y-75757201D02*
X132809524Y-75804820D01*
X132809524Y-75804820D02*
X132761905Y-75757201D01*
X132761905Y-75757201D02*
X132809524Y-75709581D01*
X132809524Y-75709581D02*
X132809524Y-75804820D01*
X133476190Y-74804820D02*
X133571428Y-74804820D01*
X133571428Y-74804820D02*
X133666666Y-74852439D01*
X133666666Y-74852439D02*
X133714285Y-74900058D01*
X133714285Y-74900058D02*
X133761904Y-74995296D01*
X133761904Y-74995296D02*
X133809523Y-75185772D01*
X133809523Y-75185772D02*
X133809523Y-75423867D01*
X133809523Y-75423867D02*
X133761904Y-75614343D01*
X133761904Y-75614343D02*
X133714285Y-75709581D01*
X133714285Y-75709581D02*
X133666666Y-75757201D01*
X133666666Y-75757201D02*
X133571428Y-75804820D01*
X133571428Y-75804820D02*
X133476190Y-75804820D01*
X133476190Y-75804820D02*
X133380952Y-75757201D01*
X133380952Y-75757201D02*
X133333333Y-75709581D01*
X133333333Y-75709581D02*
X133285714Y-75614343D01*
X133285714Y-75614343D02*
X133238095Y-75423867D01*
X133238095Y-75423867D02*
X133238095Y-75185772D01*
X133238095Y-75185772D02*
X133285714Y-74995296D01*
X133285714Y-74995296D02*
X133333333Y-74900058D01*
X133333333Y-74900058D02*
X133380952Y-74852439D01*
X133380952Y-74852439D02*
X133476190Y-74804820D01*
X134428571Y-74804820D02*
X134523809Y-74804820D01*
X134523809Y-74804820D02*
X134619047Y-74852439D01*
X134619047Y-74852439D02*
X134666666Y-74900058D01*
X134666666Y-74900058D02*
X134714285Y-74995296D01*
X134714285Y-74995296D02*
X134761904Y-75185772D01*
X134761904Y-75185772D02*
X134761904Y-75423867D01*
X134761904Y-75423867D02*
X134714285Y-75614343D01*
X134714285Y-75614343D02*
X134666666Y-75709581D01*
X134666666Y-75709581D02*
X134619047Y-75757201D01*
X134619047Y-75757201D02*
X134523809Y-75804820D01*
X134523809Y-75804820D02*
X134428571Y-75804820D01*
X134428571Y-75804820D02*
X134333333Y-75757201D01*
X134333333Y-75757201D02*
X134285714Y-75709581D01*
X134285714Y-75709581D02*
X134238095Y-75614343D01*
X134238095Y-75614343D02*
X134190476Y-75423867D01*
X134190476Y-75423867D02*
X134190476Y-75185772D01*
X134190476Y-75185772D02*
X134238095Y-74995296D01*
X134238095Y-74995296D02*
X134285714Y-74900058D01*
X134285714Y-74900058D02*
X134333333Y-74852439D01*
X134333333Y-74852439D02*
X134428571Y-74804820D01*
X135380952Y-74804820D02*
X135476190Y-74804820D01*
X135476190Y-74804820D02*
X135571428Y-74852439D01*
X135571428Y-74852439D02*
X135619047Y-74900058D01*
X135619047Y-74900058D02*
X135666666Y-74995296D01*
X135666666Y-74995296D02*
X135714285Y-75185772D01*
X135714285Y-75185772D02*
X135714285Y-75423867D01*
X135714285Y-75423867D02*
X135666666Y-75614343D01*
X135666666Y-75614343D02*
X135619047Y-75709581D01*
X135619047Y-75709581D02*
X135571428Y-75757201D01*
X135571428Y-75757201D02*
X135476190Y-75804820D01*
X135476190Y-75804820D02*
X135380952Y-75804820D01*
X135380952Y-75804820D02*
X135285714Y-75757201D01*
X135285714Y-75757201D02*
X135238095Y-75709581D01*
X135238095Y-75709581D02*
X135190476Y-75614343D01*
X135190476Y-75614343D02*
X135142857Y-75423867D01*
X135142857Y-75423867D02*
X135142857Y-75185772D01*
X135142857Y-75185772D02*
X135190476Y-74995296D01*
X135190476Y-74995296D02*
X135238095Y-74900058D01*
X135238095Y-74900058D02*
X135285714Y-74852439D01*
X135285714Y-74852439D02*
X135380952Y-74804820D01*
X136333333Y-74804820D02*
X136428571Y-74804820D01*
X136428571Y-74804820D02*
X136523809Y-74852439D01*
X136523809Y-74852439D02*
X136571428Y-74900058D01*
X136571428Y-74900058D02*
X136619047Y-74995296D01*
X136619047Y-74995296D02*
X136666666Y-75185772D01*
X136666666Y-75185772D02*
X136666666Y-75423867D01*
X136666666Y-75423867D02*
X136619047Y-75614343D01*
X136619047Y-75614343D02*
X136571428Y-75709581D01*
X136571428Y-75709581D02*
X136523809Y-75757201D01*
X136523809Y-75757201D02*
X136428571Y-75804820D01*
X136428571Y-75804820D02*
X136333333Y-75804820D01*
X136333333Y-75804820D02*
X136238095Y-75757201D01*
X136238095Y-75757201D02*
X136190476Y-75709581D01*
X136190476Y-75709581D02*
X136142857Y-75614343D01*
X136142857Y-75614343D02*
X136095238Y-75423867D01*
X136095238Y-75423867D02*
X136095238Y-75185772D01*
X136095238Y-75185772D02*
X136142857Y-74995296D01*
X136142857Y-74995296D02*
X136190476Y-74900058D01*
X136190476Y-74900058D02*
X136238095Y-74852439D01*
X136238095Y-74852439D02*
X136333333Y-74804820D01*
X137857143Y-75804820D02*
X137857143Y-75138153D01*
X137857143Y-75233391D02*
X137904762Y-75185772D01*
X137904762Y-75185772D02*
X138000000Y-75138153D01*
X138000000Y-75138153D02*
X138142857Y-75138153D01*
X138142857Y-75138153D02*
X138238095Y-75185772D01*
X138238095Y-75185772D02*
X138285714Y-75281010D01*
X138285714Y-75281010D02*
X138285714Y-75804820D01*
X138285714Y-75281010D02*
X138333333Y-75185772D01*
X138333333Y-75185772D02*
X138428571Y-75138153D01*
X138428571Y-75138153D02*
X138571428Y-75138153D01*
X138571428Y-75138153D02*
X138666667Y-75185772D01*
X138666667Y-75185772D02*
X138714286Y-75281010D01*
X138714286Y-75281010D02*
X138714286Y-75804820D01*
X139190476Y-75804820D02*
X139190476Y-75138153D01*
X139190476Y-75233391D02*
X139238095Y-75185772D01*
X139238095Y-75185772D02*
X139333333Y-75138153D01*
X139333333Y-75138153D02*
X139476190Y-75138153D01*
X139476190Y-75138153D02*
X139571428Y-75185772D01*
X139571428Y-75185772D02*
X139619047Y-75281010D01*
X139619047Y-75281010D02*
X139619047Y-75804820D01*
X139619047Y-75281010D02*
X139666666Y-75185772D01*
X139666666Y-75185772D02*
X139761904Y-75138153D01*
X139761904Y-75138153D02*
X139904761Y-75138153D01*
X139904761Y-75138153D02*
X140000000Y-75185772D01*
X140000000Y-75185772D02*
X140047619Y-75281010D01*
X140047619Y-75281010D02*
X140047619Y-75804820D01*
D11*
X212500000Y-87000000D02*
X212500000Y-75913581D01*
X57500000Y-87000000D02*
X57500000Y-75913581D01*
X212500000Y-76500001D02*
X57500000Y-76500001D01*
X212500000Y-76500001D02*
X211373496Y-77086422D01*
X212500000Y-76500001D02*
X211373496Y-75913580D01*
X57500000Y-76500001D02*
X58626504Y-75913580D01*
X57500000Y-76500001D02*
X58626504Y-77086422D01*
D10*
X39304820Y-119142856D02*
X39304820Y-119333332D01*
X39304820Y-119333332D02*
X39352439Y-119428570D01*
X39352439Y-119428570D02*
X39400058Y-119476189D01*
X39400058Y-119476189D02*
X39542915Y-119571427D01*
X39542915Y-119571427D02*
X39733391Y-119619046D01*
X39733391Y-119619046D02*
X40114343Y-119619046D01*
X40114343Y-119619046D02*
X40209581Y-119571427D01*
X40209581Y-119571427D02*
X40257201Y-119523808D01*
X40257201Y-119523808D02*
X40304820Y-119428570D01*
X40304820Y-119428570D02*
X40304820Y-119238094D01*
X40304820Y-119238094D02*
X40257201Y-119142856D01*
X40257201Y-119142856D02*
X40209581Y-119095237D01*
X40209581Y-119095237D02*
X40114343Y-119047618D01*
X40114343Y-119047618D02*
X39876248Y-119047618D01*
X39876248Y-119047618D02*
X39781010Y-119095237D01*
X39781010Y-119095237D02*
X39733391Y-119142856D01*
X39733391Y-119142856D02*
X39685772Y-119238094D01*
X39685772Y-119238094D02*
X39685772Y-119428570D01*
X39685772Y-119428570D02*
X39733391Y-119523808D01*
X39733391Y-119523808D02*
X39781010Y-119571427D01*
X39781010Y-119571427D02*
X39876248Y-119619046D01*
X39304820Y-118428570D02*
X39304820Y-118333332D01*
X39304820Y-118333332D02*
X39352439Y-118238094D01*
X39352439Y-118238094D02*
X39400058Y-118190475D01*
X39400058Y-118190475D02*
X39495296Y-118142856D01*
X39495296Y-118142856D02*
X39685772Y-118095237D01*
X39685772Y-118095237D02*
X39923867Y-118095237D01*
X39923867Y-118095237D02*
X40114343Y-118142856D01*
X40114343Y-118142856D02*
X40209581Y-118190475D01*
X40209581Y-118190475D02*
X40257201Y-118238094D01*
X40257201Y-118238094D02*
X40304820Y-118333332D01*
X40304820Y-118333332D02*
X40304820Y-118428570D01*
X40304820Y-118428570D02*
X40257201Y-118523808D01*
X40257201Y-118523808D02*
X40209581Y-118571427D01*
X40209581Y-118571427D02*
X40114343Y-118619046D01*
X40114343Y-118619046D02*
X39923867Y-118666665D01*
X39923867Y-118666665D02*
X39685772Y-118666665D01*
X39685772Y-118666665D02*
X39495296Y-118619046D01*
X39495296Y-118619046D02*
X39400058Y-118571427D01*
X39400058Y-118571427D02*
X39352439Y-118523808D01*
X39352439Y-118523808D02*
X39304820Y-118428570D01*
X40209581Y-117666665D02*
X40257201Y-117619046D01*
X40257201Y-117619046D02*
X40304820Y-117666665D01*
X40304820Y-117666665D02*
X40257201Y-117714284D01*
X40257201Y-117714284D02*
X40209581Y-117666665D01*
X40209581Y-117666665D02*
X40304820Y-117666665D01*
X39304820Y-116999999D02*
X39304820Y-116904761D01*
X39304820Y-116904761D02*
X39352439Y-116809523D01*
X39352439Y-116809523D02*
X39400058Y-116761904D01*
X39400058Y-116761904D02*
X39495296Y-116714285D01*
X39495296Y-116714285D02*
X39685772Y-116666666D01*
X39685772Y-116666666D02*
X39923867Y-116666666D01*
X39923867Y-116666666D02*
X40114343Y-116714285D01*
X40114343Y-116714285D02*
X40209581Y-116761904D01*
X40209581Y-116761904D02*
X40257201Y-116809523D01*
X40257201Y-116809523D02*
X40304820Y-116904761D01*
X40304820Y-116904761D02*
X40304820Y-116999999D01*
X40304820Y-116999999D02*
X40257201Y-117095237D01*
X40257201Y-117095237D02*
X40209581Y-117142856D01*
X40209581Y-117142856D02*
X40114343Y-117190475D01*
X40114343Y-117190475D02*
X39923867Y-117238094D01*
X39923867Y-117238094D02*
X39685772Y-117238094D01*
X39685772Y-117238094D02*
X39495296Y-117190475D01*
X39495296Y-117190475D02*
X39400058Y-117142856D01*
X39400058Y-117142856D02*
X39352439Y-117095237D01*
X39352439Y-117095237D02*
X39304820Y-116999999D01*
X39304820Y-116047618D02*
X39304820Y-115952380D01*
X39304820Y-115952380D02*
X39352439Y-115857142D01*
X39352439Y-115857142D02*
X39400058Y-115809523D01*
X39400058Y-115809523D02*
X39495296Y-115761904D01*
X39495296Y-115761904D02*
X39685772Y-115714285D01*
X39685772Y-115714285D02*
X39923867Y-115714285D01*
X39923867Y-115714285D02*
X40114343Y-115761904D01*
X40114343Y-115761904D02*
X40209581Y-115809523D01*
X40209581Y-115809523D02*
X40257201Y-115857142D01*
X40257201Y-115857142D02*
X40304820Y-115952380D01*
X40304820Y-115952380D02*
X40304820Y-116047618D01*
X40304820Y-116047618D02*
X40257201Y-116142856D01*
X40257201Y-116142856D02*
X40209581Y-116190475D01*
X40209581Y-116190475D02*
X40114343Y-116238094D01*
X40114343Y-116238094D02*
X39923867Y-116285713D01*
X39923867Y-116285713D02*
X39685772Y-116285713D01*
X39685772Y-116285713D02*
X39495296Y-116238094D01*
X39495296Y-116238094D02*
X39400058Y-116190475D01*
X39400058Y-116190475D02*
X39352439Y-116142856D01*
X39352439Y-116142856D02*
X39304820Y-116047618D01*
X39304820Y-115095237D02*
X39304820Y-114999999D01*
X39304820Y-114999999D02*
X39352439Y-114904761D01*
X39352439Y-114904761D02*
X39400058Y-114857142D01*
X39400058Y-114857142D02*
X39495296Y-114809523D01*
X39495296Y-114809523D02*
X39685772Y-114761904D01*
X39685772Y-114761904D02*
X39923867Y-114761904D01*
X39923867Y-114761904D02*
X40114343Y-114809523D01*
X40114343Y-114809523D02*
X40209581Y-114857142D01*
X40209581Y-114857142D02*
X40257201Y-114904761D01*
X40257201Y-114904761D02*
X40304820Y-114999999D01*
X40304820Y-114999999D02*
X40304820Y-115095237D01*
X40304820Y-115095237D02*
X40257201Y-115190475D01*
X40257201Y-115190475D02*
X40209581Y-115238094D01*
X40209581Y-115238094D02*
X40114343Y-115285713D01*
X40114343Y-115285713D02*
X39923867Y-115333332D01*
X39923867Y-115333332D02*
X39685772Y-115333332D01*
X39685772Y-115333332D02*
X39495296Y-115285713D01*
X39495296Y-115285713D02*
X39400058Y-115238094D01*
X39400058Y-115238094D02*
X39352439Y-115190475D01*
X39352439Y-115190475D02*
X39304820Y-115095237D01*
X39304820Y-114142856D02*
X39304820Y-114047618D01*
X39304820Y-114047618D02*
X39352439Y-113952380D01*
X39352439Y-113952380D02*
X39400058Y-113904761D01*
X39400058Y-113904761D02*
X39495296Y-113857142D01*
X39495296Y-113857142D02*
X39685772Y-113809523D01*
X39685772Y-113809523D02*
X39923867Y-113809523D01*
X39923867Y-113809523D02*
X40114343Y-113857142D01*
X40114343Y-113857142D02*
X40209581Y-113904761D01*
X40209581Y-113904761D02*
X40257201Y-113952380D01*
X40257201Y-113952380D02*
X40304820Y-114047618D01*
X40304820Y-114047618D02*
X40304820Y-114142856D01*
X40304820Y-114142856D02*
X40257201Y-114238094D01*
X40257201Y-114238094D02*
X40209581Y-114285713D01*
X40209581Y-114285713D02*
X40114343Y-114333332D01*
X40114343Y-114333332D02*
X39923867Y-114380951D01*
X39923867Y-114380951D02*
X39685772Y-114380951D01*
X39685772Y-114380951D02*
X39495296Y-114333332D01*
X39495296Y-114333332D02*
X39400058Y-114285713D01*
X39400058Y-114285713D02*
X39352439Y-114238094D01*
X39352439Y-114238094D02*
X39304820Y-114142856D01*
X40304820Y-112619046D02*
X39638153Y-112619046D01*
X39733391Y-112619046D02*
X39685772Y-112571427D01*
X39685772Y-112571427D02*
X39638153Y-112476189D01*
X39638153Y-112476189D02*
X39638153Y-112333332D01*
X39638153Y-112333332D02*
X39685772Y-112238094D01*
X39685772Y-112238094D02*
X39781010Y-112190475D01*
X39781010Y-112190475D02*
X40304820Y-112190475D01*
X39781010Y-112190475D02*
X39685772Y-112142856D01*
X39685772Y-112142856D02*
X39638153Y-112047618D01*
X39638153Y-112047618D02*
X39638153Y-111904761D01*
X39638153Y-111904761D02*
X39685772Y-111809522D01*
X39685772Y-111809522D02*
X39781010Y-111761903D01*
X39781010Y-111761903D02*
X40304820Y-111761903D01*
X40304820Y-111285713D02*
X39638153Y-111285713D01*
X39733391Y-111285713D02*
X39685772Y-111238094D01*
X39685772Y-111238094D02*
X39638153Y-111142856D01*
X39638153Y-111142856D02*
X39638153Y-110999999D01*
X39638153Y-110999999D02*
X39685772Y-110904761D01*
X39685772Y-110904761D02*
X39781010Y-110857142D01*
X39781010Y-110857142D02*
X40304820Y-110857142D01*
X39781010Y-110857142D02*
X39685772Y-110809523D01*
X39685772Y-110809523D02*
X39638153Y-110714285D01*
X39638153Y-110714285D02*
X39638153Y-110571428D01*
X39638153Y-110571428D02*
X39685772Y-110476189D01*
X39685772Y-110476189D02*
X39781010Y-110428570D01*
X39781010Y-110428570D02*
X40304820Y-110428570D01*
D11*
X54500000Y-85000000D02*
X40413581Y-85000000D01*
X54500000Y-145000000D02*
X40413581Y-145000000D01*
X41000001Y-85000000D02*
X41000001Y-145000000D01*
X41000001Y-85000000D02*
X41586422Y-86126504D01*
X41000001Y-85000000D02*
X40413580Y-86126504D01*
X41000001Y-145000000D02*
X40413580Y-143873496D01*
X41000001Y-145000000D02*
X41586422Y-143873496D01*
D10*
X42304820Y-119095237D02*
X42304820Y-119571427D01*
X42304820Y-119571427D02*
X42781010Y-119619046D01*
X42781010Y-119619046D02*
X42733391Y-119571427D01*
X42733391Y-119571427D02*
X42685772Y-119476189D01*
X42685772Y-119476189D02*
X42685772Y-119238094D01*
X42685772Y-119238094D02*
X42733391Y-119142856D01*
X42733391Y-119142856D02*
X42781010Y-119095237D01*
X42781010Y-119095237D02*
X42876248Y-119047618D01*
X42876248Y-119047618D02*
X43114343Y-119047618D01*
X43114343Y-119047618D02*
X43209581Y-119095237D01*
X43209581Y-119095237D02*
X43257201Y-119142856D01*
X43257201Y-119142856D02*
X43304820Y-119238094D01*
X43304820Y-119238094D02*
X43304820Y-119476189D01*
X43304820Y-119476189D02*
X43257201Y-119571427D01*
X43257201Y-119571427D02*
X43209581Y-119619046D01*
X42304820Y-118142856D02*
X42304820Y-118619046D01*
X42304820Y-118619046D02*
X42781010Y-118666665D01*
X42781010Y-118666665D02*
X42733391Y-118619046D01*
X42733391Y-118619046D02*
X42685772Y-118523808D01*
X42685772Y-118523808D02*
X42685772Y-118285713D01*
X42685772Y-118285713D02*
X42733391Y-118190475D01*
X42733391Y-118190475D02*
X42781010Y-118142856D01*
X42781010Y-118142856D02*
X42876248Y-118095237D01*
X42876248Y-118095237D02*
X43114343Y-118095237D01*
X43114343Y-118095237D02*
X43209581Y-118142856D01*
X43209581Y-118142856D02*
X43257201Y-118190475D01*
X43257201Y-118190475D02*
X43304820Y-118285713D01*
X43304820Y-118285713D02*
X43304820Y-118523808D01*
X43304820Y-118523808D02*
X43257201Y-118619046D01*
X43257201Y-118619046D02*
X43209581Y-118666665D01*
X43209581Y-117666665D02*
X43257201Y-117619046D01*
X43257201Y-117619046D02*
X43304820Y-117666665D01*
X43304820Y-117666665D02*
X43257201Y-117714284D01*
X43257201Y-117714284D02*
X43209581Y-117666665D01*
X43209581Y-117666665D02*
X43304820Y-117666665D01*
X42304820Y-116999999D02*
X42304820Y-116904761D01*
X42304820Y-116904761D02*
X42352439Y-116809523D01*
X42352439Y-116809523D02*
X42400058Y-116761904D01*
X42400058Y-116761904D02*
X42495296Y-116714285D01*
X42495296Y-116714285D02*
X42685772Y-116666666D01*
X42685772Y-116666666D02*
X42923867Y-116666666D01*
X42923867Y-116666666D02*
X43114343Y-116714285D01*
X43114343Y-116714285D02*
X43209581Y-116761904D01*
X43209581Y-116761904D02*
X43257201Y-116809523D01*
X43257201Y-116809523D02*
X43304820Y-116904761D01*
X43304820Y-116904761D02*
X43304820Y-116999999D01*
X43304820Y-116999999D02*
X43257201Y-117095237D01*
X43257201Y-117095237D02*
X43209581Y-117142856D01*
X43209581Y-117142856D02*
X43114343Y-117190475D01*
X43114343Y-117190475D02*
X42923867Y-117238094D01*
X42923867Y-117238094D02*
X42685772Y-117238094D01*
X42685772Y-117238094D02*
X42495296Y-117190475D01*
X42495296Y-117190475D02*
X42400058Y-117142856D01*
X42400058Y-117142856D02*
X42352439Y-117095237D01*
X42352439Y-117095237D02*
X42304820Y-116999999D01*
X42304820Y-116047618D02*
X42304820Y-115952380D01*
X42304820Y-115952380D02*
X42352439Y-115857142D01*
X42352439Y-115857142D02*
X42400058Y-115809523D01*
X42400058Y-115809523D02*
X42495296Y-115761904D01*
X42495296Y-115761904D02*
X42685772Y-115714285D01*
X42685772Y-115714285D02*
X42923867Y-115714285D01*
X42923867Y-115714285D02*
X43114343Y-115761904D01*
X43114343Y-115761904D02*
X43209581Y-115809523D01*
X43209581Y-115809523D02*
X43257201Y-115857142D01*
X43257201Y-115857142D02*
X43304820Y-115952380D01*
X43304820Y-115952380D02*
X43304820Y-116047618D01*
X43304820Y-116047618D02*
X43257201Y-116142856D01*
X43257201Y-116142856D02*
X43209581Y-116190475D01*
X43209581Y-116190475D02*
X43114343Y-116238094D01*
X43114343Y-116238094D02*
X42923867Y-116285713D01*
X42923867Y-116285713D02*
X42685772Y-116285713D01*
X42685772Y-116285713D02*
X42495296Y-116238094D01*
X42495296Y-116238094D02*
X42400058Y-116190475D01*
X42400058Y-116190475D02*
X42352439Y-116142856D01*
X42352439Y-116142856D02*
X42304820Y-116047618D01*
X42304820Y-115095237D02*
X42304820Y-114999999D01*
X42304820Y-114999999D02*
X42352439Y-114904761D01*
X42352439Y-114904761D02*
X42400058Y-114857142D01*
X42400058Y-114857142D02*
X42495296Y-114809523D01*
X42495296Y-114809523D02*
X42685772Y-114761904D01*
X42685772Y-114761904D02*
X42923867Y-114761904D01*
X42923867Y-114761904D02*
X43114343Y-114809523D01*
X43114343Y-114809523D02*
X43209581Y-114857142D01*
X43209581Y-114857142D02*
X43257201Y-114904761D01*
X43257201Y-114904761D02*
X43304820Y-114999999D01*
X43304820Y-114999999D02*
X43304820Y-115095237D01*
X43304820Y-115095237D02*
X43257201Y-115190475D01*
X43257201Y-115190475D02*
X43209581Y-115238094D01*
X43209581Y-115238094D02*
X43114343Y-115285713D01*
X43114343Y-115285713D02*
X42923867Y-115333332D01*
X42923867Y-115333332D02*
X42685772Y-115333332D01*
X42685772Y-115333332D02*
X42495296Y-115285713D01*
X42495296Y-115285713D02*
X42400058Y-115238094D01*
X42400058Y-115238094D02*
X42352439Y-115190475D01*
X42352439Y-115190475D02*
X42304820Y-115095237D01*
X42304820Y-114142856D02*
X42304820Y-114047618D01*
X42304820Y-114047618D02*
X42352439Y-113952380D01*
X42352439Y-113952380D02*
X42400058Y-113904761D01*
X42400058Y-113904761D02*
X42495296Y-113857142D01*
X42495296Y-113857142D02*
X42685772Y-113809523D01*
X42685772Y-113809523D02*
X42923867Y-113809523D01*
X42923867Y-113809523D02*
X43114343Y-113857142D01*
X43114343Y-113857142D02*
X43209581Y-113904761D01*
X43209581Y-113904761D02*
X43257201Y-113952380D01*
X43257201Y-113952380D02*
X43304820Y-114047618D01*
X43304820Y-114047618D02*
X43304820Y-114142856D01*
X43304820Y-114142856D02*
X43257201Y-114238094D01*
X43257201Y-114238094D02*
X43209581Y-114285713D01*
X43209581Y-114285713D02*
X43114343Y-114333332D01*
X43114343Y-114333332D02*
X42923867Y-114380951D01*
X42923867Y-114380951D02*
X42685772Y-114380951D01*
X42685772Y-114380951D02*
X42495296Y-114333332D01*
X42495296Y-114333332D02*
X42400058Y-114285713D01*
X42400058Y-114285713D02*
X42352439Y-114238094D01*
X42352439Y-114238094D02*
X42304820Y-114142856D01*
X43304820Y-112619046D02*
X42638153Y-112619046D01*
X42733391Y-112619046D02*
X42685772Y-112571427D01*
X42685772Y-112571427D02*
X42638153Y-112476189D01*
X42638153Y-112476189D02*
X42638153Y-112333332D01*
X42638153Y-112333332D02*
X42685772Y-112238094D01*
X42685772Y-112238094D02*
X42781010Y-112190475D01*
X42781010Y-112190475D02*
X43304820Y-112190475D01*
X42781010Y-112190475D02*
X42685772Y-112142856D01*
X42685772Y-112142856D02*
X42638153Y-112047618D01*
X42638153Y-112047618D02*
X42638153Y-111904761D01*
X42638153Y-111904761D02*
X42685772Y-111809522D01*
X42685772Y-111809522D02*
X42781010Y-111761903D01*
X42781010Y-111761903D02*
X43304820Y-111761903D01*
X43304820Y-111285713D02*
X42638153Y-111285713D01*
X42733391Y-111285713D02*
X42685772Y-111238094D01*
X42685772Y-111238094D02*
X42638153Y-111142856D01*
X42638153Y-111142856D02*
X42638153Y-110999999D01*
X42638153Y-110999999D02*
X42685772Y-110904761D01*
X42685772Y-110904761D02*
X42781010Y-110857142D01*
X42781010Y-110857142D02*
X43304820Y-110857142D01*
X42781010Y-110857142D02*
X42685772Y-110809523D01*
X42685772Y-110809523D02*
X42638153Y-110714285D01*
X42638153Y-110714285D02*
X42638153Y-110571428D01*
X42638153Y-110571428D02*
X42685772Y-110476189D01*
X42685772Y-110476189D02*
X42781010Y-110428570D01*
X42781010Y-110428570D02*
X43304820Y-110428570D01*
D11*
X57000000Y-87500000D02*
X43413581Y-87500000D01*
X57000000Y-142500000D02*
X43413581Y-142500000D01*
X44000001Y-87500000D02*
X44000001Y-142500000D01*
X44000001Y-87500000D02*
X44586422Y-88626504D01*
X44000001Y-87500000D02*
X43413580Y-88626504D01*
X44000001Y-142500000D02*
X43413580Y-141373496D01*
X44000001Y-142500000D02*
X44586422Y-141373496D01*
M02*
