%TF.GenerationSoftware,KiCad,Pcbnew,9.0.6*%
%TF.CreationDate,2026-01-20T12:42:19+01:00*%
%TF.ProjectId,spimux,7370696d-7578-42e6-9b69-6361645f7063,rev?*%
%TF.SameCoordinates,Original*%
%TF.FileFunction,Legend,Top*%
%TF.FilePolarity,Positive*%
%FSLAX46Y46*%
G04 Gerber Fmt 4.6, Leading zero omitted, Abs format (unit mm)*
G04 Created by KiCad (PCBNEW 9.0.6) date 2026-01-20 12:42:19*
%MOMM*%
%LPD*%
G01*
G04 APERTURE LIST*
%ADD10C,0.300000*%
%ADD11C,0.150000*%
%ADD12C,0.120000*%
G04 APERTURE END LIST*
D10*
X66800828Y-121445489D02*
X65300828Y-121445489D01*
X66800828Y-120731203D02*
X65300828Y-120731203D01*
X65300828Y-120731203D02*
X66800828Y-119874060D01*
X66800828Y-119874060D02*
X65300828Y-119874060D01*
X66800828Y-119159774D02*
X65300828Y-119159774D01*
X65300828Y-119159774D02*
X65300828Y-118588345D01*
X65300828Y-118588345D02*
X65372257Y-118445488D01*
X65372257Y-118445488D02*
X65443685Y-118374059D01*
X65443685Y-118374059D02*
X65586542Y-118302631D01*
X65586542Y-118302631D02*
X65800828Y-118302631D01*
X65800828Y-118302631D02*
X65943685Y-118374059D01*
X65943685Y-118374059D02*
X66015114Y-118445488D01*
X66015114Y-118445488D02*
X66086542Y-118588345D01*
X66086542Y-118588345D02*
X66086542Y-119159774D01*
X65300828Y-117659774D02*
X66515114Y-117659774D01*
X66515114Y-117659774D02*
X66657971Y-117588345D01*
X66657971Y-117588345D02*
X66729400Y-117516917D01*
X66729400Y-117516917D02*
X66800828Y-117374059D01*
X66800828Y-117374059D02*
X66800828Y-117088345D01*
X66800828Y-117088345D02*
X66729400Y-116945488D01*
X66729400Y-116945488D02*
X66657971Y-116874059D01*
X66657971Y-116874059D02*
X66515114Y-116802631D01*
X66515114Y-116802631D02*
X65300828Y-116802631D01*
X65300828Y-116302630D02*
X65300828Y-115445488D01*
X66800828Y-115874059D02*
X65300828Y-115874059D01*
X107712680Y-144469303D02*
X107712680Y-142969303D01*
X107712680Y-142969303D02*
X108379347Y-144040732D01*
X108379347Y-144040732D02*
X109046013Y-142969303D01*
X109046013Y-142969303D02*
X109046013Y-144469303D01*
X109998394Y-144469303D02*
X109998394Y-142969303D01*
X110950775Y-144469303D02*
X110950775Y-142969303D01*
X110950775Y-142969303D02*
X112093632Y-144469303D01*
X112093632Y-144469303D02*
X112093632Y-142969303D01*
X112950775Y-144040732D02*
X113903156Y-144040732D01*
X112760299Y-144469303D02*
X113426965Y-142969303D01*
X113426965Y-142969303D02*
X114093632Y-144469303D01*
X116188871Y-144397875D02*
X116474585Y-144469303D01*
X116474585Y-144469303D02*
X116950776Y-144469303D01*
X116950776Y-144469303D02*
X117141252Y-144397875D01*
X117141252Y-144397875D02*
X117236490Y-144326446D01*
X117236490Y-144326446D02*
X117331728Y-144183589D01*
X117331728Y-144183589D02*
X117331728Y-144040732D01*
X117331728Y-144040732D02*
X117236490Y-143897875D01*
X117236490Y-143897875D02*
X117141252Y-143826446D01*
X117141252Y-143826446D02*
X116950776Y-143755017D01*
X116950776Y-143755017D02*
X116569823Y-143683589D01*
X116569823Y-143683589D02*
X116379347Y-143612160D01*
X116379347Y-143612160D02*
X116284109Y-143540732D01*
X116284109Y-143540732D02*
X116188871Y-143397875D01*
X116188871Y-143397875D02*
X116188871Y-143255017D01*
X116188871Y-143255017D02*
X116284109Y-143112160D01*
X116284109Y-143112160D02*
X116379347Y-143040732D01*
X116379347Y-143040732D02*
X116569823Y-142969303D01*
X116569823Y-142969303D02*
X117046014Y-142969303D01*
X117046014Y-142969303D02*
X117331728Y-143040732D01*
X118188871Y-144469303D02*
X118188871Y-142969303D01*
X118188871Y-142969303D02*
X118950776Y-142969303D01*
X118950776Y-142969303D02*
X119141252Y-143040732D01*
X119141252Y-143040732D02*
X119236490Y-143112160D01*
X119236490Y-143112160D02*
X119331728Y-143255017D01*
X119331728Y-143255017D02*
X119331728Y-143469303D01*
X119331728Y-143469303D02*
X119236490Y-143612160D01*
X119236490Y-143612160D02*
X119141252Y-143683589D01*
X119141252Y-143683589D02*
X118950776Y-143755017D01*
X118950776Y-143755017D02*
X118188871Y-143755017D01*
X120188871Y-144469303D02*
X120188871Y-142969303D01*
X121141252Y-144469303D02*
X121141252Y-142969303D01*
X121141252Y-142969303D02*
X121807919Y-144040732D01*
X121807919Y-144040732D02*
X122474585Y-142969303D01*
X122474585Y-142969303D02*
X122474585Y-144469303D01*
X123426966Y-142969303D02*
X123426966Y-144183589D01*
X123426966Y-144183589D02*
X123522204Y-144326446D01*
X123522204Y-144326446D02*
X123617442Y-144397875D01*
X123617442Y-144397875D02*
X123807918Y-144469303D01*
X123807918Y-144469303D02*
X124188871Y-144469303D01*
X124188871Y-144469303D02*
X124379347Y-144397875D01*
X124379347Y-144397875D02*
X124474585Y-144326446D01*
X124474585Y-144326446D02*
X124569823Y-144183589D01*
X124569823Y-144183589D02*
X124569823Y-142969303D01*
X125331728Y-142969303D02*
X126665061Y-144469303D01*
X126665061Y-142969303D02*
X125331728Y-144469303D01*
X130093633Y-144469303D02*
X129426966Y-143755017D01*
X128950776Y-144469303D02*
X128950776Y-142969303D01*
X128950776Y-142969303D02*
X129712681Y-142969303D01*
X129712681Y-142969303D02*
X129903157Y-143040732D01*
X129903157Y-143040732D02*
X129998395Y-143112160D01*
X129998395Y-143112160D02*
X130093633Y-143255017D01*
X130093633Y-143255017D02*
X130093633Y-143469303D01*
X130093633Y-143469303D02*
X129998395Y-143612160D01*
X129998395Y-143612160D02*
X129903157Y-143683589D01*
X129903157Y-143683589D02*
X129712681Y-143755017D01*
X129712681Y-143755017D02*
X128950776Y-143755017D01*
X131712681Y-144397875D02*
X131522205Y-144469303D01*
X131522205Y-144469303D02*
X131141252Y-144469303D01*
X131141252Y-144469303D02*
X130950776Y-144397875D01*
X130950776Y-144397875D02*
X130855538Y-144255017D01*
X130855538Y-144255017D02*
X130855538Y-143683589D01*
X130855538Y-143683589D02*
X130950776Y-143540732D01*
X130950776Y-143540732D02*
X131141252Y-143469303D01*
X131141252Y-143469303D02*
X131522205Y-143469303D01*
X131522205Y-143469303D02*
X131712681Y-143540732D01*
X131712681Y-143540732D02*
X131807919Y-143683589D01*
X131807919Y-143683589D02*
X131807919Y-143826446D01*
X131807919Y-143826446D02*
X130855538Y-143969303D01*
X132474586Y-143469303D02*
X132950776Y-144469303D01*
X132950776Y-144469303D02*
X133426967Y-143469303D01*
X135617444Y-143112160D02*
X135712682Y-143040732D01*
X135712682Y-143040732D02*
X135903158Y-142969303D01*
X135903158Y-142969303D02*
X136379349Y-142969303D01*
X136379349Y-142969303D02*
X136569825Y-143040732D01*
X136569825Y-143040732D02*
X136665063Y-143112160D01*
X136665063Y-143112160D02*
X136760301Y-143255017D01*
X136760301Y-143255017D02*
X136760301Y-143397875D01*
X136760301Y-143397875D02*
X136665063Y-143612160D01*
X136665063Y-143612160D02*
X135522206Y-144469303D01*
X135522206Y-144469303D02*
X136760301Y-144469303D01*
X137617444Y-144326446D02*
X137712682Y-144397875D01*
X137712682Y-144397875D02*
X137617444Y-144469303D01*
X137617444Y-144469303D02*
X137522206Y-144397875D01*
X137522206Y-144397875D02*
X137617444Y-144326446D01*
X137617444Y-144326446D02*
X137617444Y-144469303D01*
X138950777Y-142969303D02*
X139141254Y-142969303D01*
X139141254Y-142969303D02*
X139331730Y-143040732D01*
X139331730Y-143040732D02*
X139426968Y-143112160D01*
X139426968Y-143112160D02*
X139522206Y-143255017D01*
X139522206Y-143255017D02*
X139617444Y-143540732D01*
X139617444Y-143540732D02*
X139617444Y-143897875D01*
X139617444Y-143897875D02*
X139522206Y-144183589D01*
X139522206Y-144183589D02*
X139426968Y-144326446D01*
X139426968Y-144326446D02*
X139331730Y-144397875D01*
X139331730Y-144397875D02*
X139141254Y-144469303D01*
X139141254Y-144469303D02*
X138950777Y-144469303D01*
X138950777Y-144469303D02*
X138760301Y-144397875D01*
X138760301Y-144397875D02*
X138665063Y-144326446D01*
X138665063Y-144326446D02*
X138569825Y-144183589D01*
X138569825Y-144183589D02*
X138474587Y-143897875D01*
X138474587Y-143897875D02*
X138474587Y-143540732D01*
X138474587Y-143540732D02*
X138569825Y-143255017D01*
X138569825Y-143255017D02*
X138665063Y-143112160D01*
X138665063Y-143112160D02*
X138760301Y-143040732D01*
X138760301Y-143040732D02*
X138950777Y-142969303D01*
X140474587Y-144326446D02*
X140569825Y-144397875D01*
X140569825Y-144397875D02*
X140474587Y-144469303D01*
X140474587Y-144469303D02*
X140379349Y-144397875D01*
X140379349Y-144397875D02*
X140474587Y-144326446D01*
X140474587Y-144326446D02*
X140474587Y-144469303D01*
X141807920Y-142969303D02*
X141998397Y-142969303D01*
X141998397Y-142969303D02*
X142188873Y-143040732D01*
X142188873Y-143040732D02*
X142284111Y-143112160D01*
X142284111Y-143112160D02*
X142379349Y-143255017D01*
X142379349Y-143255017D02*
X142474587Y-143540732D01*
X142474587Y-143540732D02*
X142474587Y-143897875D01*
X142474587Y-143897875D02*
X142379349Y-144183589D01*
X142379349Y-144183589D02*
X142284111Y-144326446D01*
X142284111Y-144326446D02*
X142188873Y-144397875D01*
X142188873Y-144397875D02*
X141998397Y-144469303D01*
X141998397Y-144469303D02*
X141807920Y-144469303D01*
X141807920Y-144469303D02*
X141617444Y-144397875D01*
X141617444Y-144397875D02*
X141522206Y-144326446D01*
X141522206Y-144326446D02*
X141426968Y-144183589D01*
X141426968Y-144183589D02*
X141331730Y-143897875D01*
X141331730Y-143897875D02*
X141331730Y-143540732D01*
X141331730Y-143540732D02*
X141426968Y-143255017D01*
X141426968Y-143255017D02*
X141522206Y-143112160D01*
X141522206Y-143112160D02*
X141617444Y-143040732D01*
X141617444Y-143040732D02*
X141807920Y-142969303D01*
X144855540Y-144469303D02*
X144855540Y-142969303D01*
X144855540Y-143540732D02*
X145046016Y-143469303D01*
X145046016Y-143469303D02*
X145426969Y-143469303D01*
X145426969Y-143469303D02*
X145617445Y-143540732D01*
X145617445Y-143540732D02*
X145712683Y-143612160D01*
X145712683Y-143612160D02*
X145807921Y-143755017D01*
X145807921Y-143755017D02*
X145807921Y-144183589D01*
X145807921Y-144183589D02*
X145712683Y-144326446D01*
X145712683Y-144326446D02*
X145617445Y-144397875D01*
X145617445Y-144397875D02*
X145426969Y-144469303D01*
X145426969Y-144469303D02*
X145046016Y-144469303D01*
X145046016Y-144469303D02*
X144855540Y-144397875D01*
X146474588Y-143469303D02*
X146950778Y-144469303D01*
X147426969Y-143469303D02*
X146950778Y-144469303D01*
X146950778Y-144469303D02*
X146760302Y-144826446D01*
X146760302Y-144826446D02*
X146665064Y-144897875D01*
X146665064Y-144897875D02*
X146474588Y-144969303D01*
X150379351Y-143683589D02*
X150665065Y-143755017D01*
X150665065Y-143755017D02*
X150760303Y-143826446D01*
X150760303Y-143826446D02*
X150855541Y-143969303D01*
X150855541Y-143969303D02*
X150855541Y-144183589D01*
X150855541Y-144183589D02*
X150760303Y-144326446D01*
X150760303Y-144326446D02*
X150665065Y-144397875D01*
X150665065Y-144397875D02*
X150474589Y-144469303D01*
X150474589Y-144469303D02*
X149712684Y-144469303D01*
X149712684Y-144469303D02*
X149712684Y-142969303D01*
X149712684Y-142969303D02*
X150379351Y-142969303D01*
X150379351Y-142969303D02*
X150569827Y-143040732D01*
X150569827Y-143040732D02*
X150665065Y-143112160D01*
X150665065Y-143112160D02*
X150760303Y-143255017D01*
X150760303Y-143255017D02*
X150760303Y-143397875D01*
X150760303Y-143397875D02*
X150665065Y-143540732D01*
X150665065Y-143540732D02*
X150569827Y-143612160D01*
X150569827Y-143612160D02*
X150379351Y-143683589D01*
X150379351Y-143683589D02*
X149712684Y-143683589D01*
X152474589Y-144397875D02*
X152284113Y-144469303D01*
X152284113Y-144469303D02*
X151903160Y-144469303D01*
X151903160Y-144469303D02*
X151712684Y-144397875D01*
X151712684Y-144397875D02*
X151617446Y-144255017D01*
X151617446Y-144255017D02*
X151617446Y-143683589D01*
X151617446Y-143683589D02*
X151712684Y-143540732D01*
X151712684Y-143540732D02*
X151903160Y-143469303D01*
X151903160Y-143469303D02*
X152284113Y-143469303D01*
X152284113Y-143469303D02*
X152474589Y-143540732D01*
X152474589Y-143540732D02*
X152569827Y-143683589D01*
X152569827Y-143683589D02*
X152569827Y-143826446D01*
X152569827Y-143826446D02*
X151617446Y-143969303D01*
X153426970Y-144469303D02*
X153426970Y-143469303D01*
X153426970Y-142969303D02*
X153331732Y-143040732D01*
X153331732Y-143040732D02*
X153426970Y-143112160D01*
X153426970Y-143112160D02*
X153522208Y-143040732D01*
X153522208Y-143040732D02*
X153426970Y-142969303D01*
X153426970Y-142969303D02*
X153426970Y-143112160D01*
X154665065Y-144469303D02*
X154474589Y-144397875D01*
X154474589Y-144397875D02*
X154379351Y-144255017D01*
X154379351Y-144255017D02*
X154379351Y-142969303D01*
X156188875Y-144397875D02*
X155998399Y-144469303D01*
X155998399Y-144469303D02*
X155617446Y-144469303D01*
X155617446Y-144469303D02*
X155426970Y-144397875D01*
X155426970Y-144397875D02*
X155331732Y-144255017D01*
X155331732Y-144255017D02*
X155331732Y-143683589D01*
X155331732Y-143683589D02*
X155426970Y-143540732D01*
X155426970Y-143540732D02*
X155617446Y-143469303D01*
X155617446Y-143469303D02*
X155998399Y-143469303D01*
X155998399Y-143469303D02*
X156188875Y-143540732D01*
X156188875Y-143540732D02*
X156284113Y-143683589D01*
X156284113Y-143683589D02*
X156284113Y-143826446D01*
X156284113Y-143826446D02*
X155331732Y-143969303D01*
X157998399Y-143469303D02*
X157998399Y-144683589D01*
X157998399Y-144683589D02*
X157903161Y-144826446D01*
X157903161Y-144826446D02*
X157807923Y-144897875D01*
X157807923Y-144897875D02*
X157617446Y-144969303D01*
X157617446Y-144969303D02*
X157331732Y-144969303D01*
X157331732Y-144969303D02*
X157141256Y-144897875D01*
X157998399Y-144397875D02*
X157807923Y-144469303D01*
X157807923Y-144469303D02*
X157426970Y-144469303D01*
X157426970Y-144469303D02*
X157236494Y-144397875D01*
X157236494Y-144397875D02*
X157141256Y-144326446D01*
X157141256Y-144326446D02*
X157046018Y-144183589D01*
X157046018Y-144183589D02*
X157046018Y-143755017D01*
X157046018Y-143755017D02*
X157141256Y-143612160D01*
X157141256Y-143612160D02*
X157236494Y-143540732D01*
X157236494Y-143540732D02*
X157426970Y-143469303D01*
X157426970Y-143469303D02*
X157807923Y-143469303D01*
X157807923Y-143469303D02*
X157998399Y-143540732D01*
X159807923Y-144469303D02*
X159807923Y-143683589D01*
X159807923Y-143683589D02*
X159712685Y-143540732D01*
X159712685Y-143540732D02*
X159522209Y-143469303D01*
X159522209Y-143469303D02*
X159141256Y-143469303D01*
X159141256Y-143469303D02*
X158950780Y-143540732D01*
X159807923Y-144397875D02*
X159617447Y-144469303D01*
X159617447Y-144469303D02*
X159141256Y-144469303D01*
X159141256Y-144469303D02*
X158950780Y-144397875D01*
X158950780Y-144397875D02*
X158855542Y-144255017D01*
X158855542Y-144255017D02*
X158855542Y-144112160D01*
X158855542Y-144112160D02*
X158950780Y-143969303D01*
X158950780Y-143969303D02*
X159141256Y-143897875D01*
X159141256Y-143897875D02*
X159617447Y-143897875D01*
X159617447Y-143897875D02*
X159807923Y-143826446D01*
X161617447Y-144469303D02*
X161617447Y-143683589D01*
X161617447Y-143683589D02*
X161522209Y-143540732D01*
X161522209Y-143540732D02*
X161331733Y-143469303D01*
X161331733Y-143469303D02*
X160950780Y-143469303D01*
X160950780Y-143469303D02*
X160760304Y-143540732D01*
X161617447Y-144397875D02*
X161426971Y-144469303D01*
X161426971Y-144469303D02*
X160950780Y-144469303D01*
X160950780Y-144469303D02*
X160760304Y-144397875D01*
X160760304Y-144397875D02*
X160665066Y-144255017D01*
X160665066Y-144255017D02*
X160665066Y-144112160D01*
X160665066Y-144112160D02*
X160760304Y-143969303D01*
X160760304Y-143969303D02*
X160950780Y-143897875D01*
X160950780Y-143897875D02*
X161426971Y-143897875D01*
X161426971Y-143897875D02*
X161617447Y-143826446D01*
X162569828Y-144469303D02*
X162569828Y-143469303D01*
X162569828Y-143755017D02*
X162665066Y-143612160D01*
X162665066Y-143612160D02*
X162760304Y-143540732D01*
X162760304Y-143540732D02*
X162950780Y-143469303D01*
X162950780Y-143469303D02*
X163141257Y-143469303D01*
X164665066Y-144469303D02*
X164665066Y-142969303D01*
X164665066Y-144397875D02*
X164474590Y-144469303D01*
X164474590Y-144469303D02*
X164093637Y-144469303D01*
X164093637Y-144469303D02*
X163903161Y-144397875D01*
X163903161Y-144397875D02*
X163807923Y-144326446D01*
X163807923Y-144326446D02*
X163712685Y-144183589D01*
X163712685Y-144183589D02*
X163712685Y-143755017D01*
X163712685Y-143755017D02*
X163807923Y-143612160D01*
X163807923Y-143612160D02*
X163903161Y-143540732D01*
X163903161Y-143540732D02*
X164093637Y-143469303D01*
X164093637Y-143469303D02*
X164474590Y-143469303D01*
X164474590Y-143469303D02*
X164665066Y-143540732D01*
X203300828Y-125159774D02*
X203300828Y-124874060D01*
X203300828Y-124874060D02*
X203372257Y-124731203D01*
X203372257Y-124731203D02*
X203515114Y-124588346D01*
X203515114Y-124588346D02*
X203800828Y-124516917D01*
X203800828Y-124516917D02*
X204300828Y-124516917D01*
X204300828Y-124516917D02*
X204586542Y-124588346D01*
X204586542Y-124588346D02*
X204729400Y-124731203D01*
X204729400Y-124731203D02*
X204800828Y-124874060D01*
X204800828Y-124874060D02*
X204800828Y-125159774D01*
X204800828Y-125159774D02*
X204729400Y-125302632D01*
X204729400Y-125302632D02*
X204586542Y-125445489D01*
X204586542Y-125445489D02*
X204300828Y-125516917D01*
X204300828Y-125516917D02*
X203800828Y-125516917D01*
X203800828Y-125516917D02*
X203515114Y-125445489D01*
X203515114Y-125445489D02*
X203372257Y-125302632D01*
X203372257Y-125302632D02*
X203300828Y-125159774D01*
X203300828Y-123874060D02*
X204515114Y-123874060D01*
X204515114Y-123874060D02*
X204657971Y-123802631D01*
X204657971Y-123802631D02*
X204729400Y-123731203D01*
X204729400Y-123731203D02*
X204800828Y-123588345D01*
X204800828Y-123588345D02*
X204800828Y-123302631D01*
X204800828Y-123302631D02*
X204729400Y-123159774D01*
X204729400Y-123159774D02*
X204657971Y-123088345D01*
X204657971Y-123088345D02*
X204515114Y-123016917D01*
X204515114Y-123016917D02*
X203300828Y-123016917D01*
X203300828Y-122516916D02*
X203300828Y-121659774D01*
X204800828Y-122088345D02*
X203300828Y-122088345D01*
X204800828Y-121159774D02*
X203300828Y-121159774D01*
X203300828Y-121159774D02*
X203300828Y-120588345D01*
X203300828Y-120588345D02*
X203372257Y-120445488D01*
X203372257Y-120445488D02*
X203443685Y-120374059D01*
X203443685Y-120374059D02*
X203586542Y-120302631D01*
X203586542Y-120302631D02*
X203800828Y-120302631D01*
X203800828Y-120302631D02*
X203943685Y-120374059D01*
X203943685Y-120374059D02*
X204015114Y-120445488D01*
X204015114Y-120445488D02*
X204086542Y-120588345D01*
X204086542Y-120588345D02*
X204086542Y-121159774D01*
X203300828Y-119659774D02*
X204515114Y-119659774D01*
X204515114Y-119659774D02*
X204657971Y-119588345D01*
X204657971Y-119588345D02*
X204729400Y-119516917D01*
X204729400Y-119516917D02*
X204800828Y-119374059D01*
X204800828Y-119374059D02*
X204800828Y-119088345D01*
X204800828Y-119088345D02*
X204729400Y-118945488D01*
X204729400Y-118945488D02*
X204657971Y-118874059D01*
X204657971Y-118874059D02*
X204515114Y-118802631D01*
X204515114Y-118802631D02*
X203300828Y-118802631D01*
X203300828Y-118302630D02*
X203300828Y-117445488D01*
X204800828Y-117874059D02*
X203300828Y-117874059D01*
D11*
X100654819Y-137143904D02*
X101464342Y-137143904D01*
X101464342Y-137143904D02*
X101559580Y-137096285D01*
X101559580Y-137096285D02*
X101607200Y-137048666D01*
X101607200Y-137048666D02*
X101654819Y-136953428D01*
X101654819Y-136953428D02*
X101654819Y-136762952D01*
X101654819Y-136762952D02*
X101607200Y-136667714D01*
X101607200Y-136667714D02*
X101559580Y-136620095D01*
X101559580Y-136620095D02*
X101464342Y-136572476D01*
X101464342Y-136572476D02*
X100654819Y-136572476D01*
X100654819Y-135620095D02*
X100654819Y-136096285D01*
X100654819Y-136096285D02*
X101131009Y-136143904D01*
X101131009Y-136143904D02*
X101083390Y-136096285D01*
X101083390Y-136096285D02*
X101035771Y-136001047D01*
X101035771Y-136001047D02*
X101035771Y-135762952D01*
X101035771Y-135762952D02*
X101083390Y-135667714D01*
X101083390Y-135667714D02*
X101131009Y-135620095D01*
X101131009Y-135620095D02*
X101226247Y-135572476D01*
X101226247Y-135572476D02*
X101464342Y-135572476D01*
X101464342Y-135572476D02*
X101559580Y-135620095D01*
X101559580Y-135620095D02*
X101607200Y-135667714D01*
X101607200Y-135667714D02*
X101654819Y-135762952D01*
X101654819Y-135762952D02*
X101654819Y-136001047D01*
X101654819Y-136001047D02*
X101607200Y-136096285D01*
X101607200Y-136096285D02*
X101559580Y-136143904D01*
X147454819Y-109214285D02*
X146454819Y-109214285D01*
X147454819Y-108642857D02*
X146883390Y-109071428D01*
X146454819Y-108642857D02*
X147026247Y-109214285D01*
X146454819Y-107738095D02*
X146454819Y-108214285D01*
X146454819Y-108214285D02*
X146931009Y-108261904D01*
X146931009Y-108261904D02*
X146883390Y-108214285D01*
X146883390Y-108214285D02*
X146835771Y-108119047D01*
X146835771Y-108119047D02*
X146835771Y-107880952D01*
X146835771Y-107880952D02*
X146883390Y-107785714D01*
X146883390Y-107785714D02*
X146931009Y-107738095D01*
X146931009Y-107738095D02*
X147026247Y-107690476D01*
X147026247Y-107690476D02*
X147264342Y-107690476D01*
X147264342Y-107690476D02*
X147359580Y-107738095D01*
X147359580Y-107738095D02*
X147407200Y-107785714D01*
X147407200Y-107785714D02*
X147454819Y-107880952D01*
X147454819Y-107880952D02*
X147454819Y-108119047D01*
X147454819Y-108119047D02*
X147407200Y-108214285D01*
X147407200Y-108214285D02*
X147359580Y-108261904D01*
X146454819Y-107071428D02*
X146454819Y-106976190D01*
X146454819Y-106976190D02*
X146502438Y-106880952D01*
X146502438Y-106880952D02*
X146550057Y-106833333D01*
X146550057Y-106833333D02*
X146645295Y-106785714D01*
X146645295Y-106785714D02*
X146835771Y-106738095D01*
X146835771Y-106738095D02*
X147073866Y-106738095D01*
X147073866Y-106738095D02*
X147264342Y-106785714D01*
X147264342Y-106785714D02*
X147359580Y-106833333D01*
X147359580Y-106833333D02*
X147407200Y-106880952D01*
X147407200Y-106880952D02*
X147454819Y-106976190D01*
X147454819Y-106976190D02*
X147454819Y-107071428D01*
X147454819Y-107071428D02*
X147407200Y-107166666D01*
X147407200Y-107166666D02*
X147359580Y-107214285D01*
X147359580Y-107214285D02*
X147264342Y-107261904D01*
X147264342Y-107261904D02*
X147073866Y-107309523D01*
X147073866Y-107309523D02*
X146835771Y-107309523D01*
X146835771Y-107309523D02*
X146645295Y-107261904D01*
X146645295Y-107261904D02*
X146550057Y-107214285D01*
X146550057Y-107214285D02*
X146502438Y-107166666D01*
X146502438Y-107166666D02*
X146454819Y-107071428D01*
X202454819Y-118214285D02*
X201454819Y-118214285D01*
X202454819Y-117642857D02*
X201883390Y-118071428D01*
X201454819Y-117642857D02*
X202026247Y-118214285D01*
X202454819Y-117166666D02*
X202454819Y-116976190D01*
X202454819Y-116976190D02*
X202407200Y-116880952D01*
X202407200Y-116880952D02*
X202359580Y-116833333D01*
X202359580Y-116833333D02*
X202216723Y-116738095D01*
X202216723Y-116738095D02*
X202026247Y-116690476D01*
X202026247Y-116690476D02*
X201645295Y-116690476D01*
X201645295Y-116690476D02*
X201550057Y-116738095D01*
X201550057Y-116738095D02*
X201502438Y-116785714D01*
X201502438Y-116785714D02*
X201454819Y-116880952D01*
X201454819Y-116880952D02*
X201454819Y-117071428D01*
X201454819Y-117071428D02*
X201502438Y-117166666D01*
X201502438Y-117166666D02*
X201550057Y-117214285D01*
X201550057Y-117214285D02*
X201645295Y-117261904D01*
X201645295Y-117261904D02*
X201883390Y-117261904D01*
X201883390Y-117261904D02*
X201978628Y-117214285D01*
X201978628Y-117214285D02*
X202026247Y-117166666D01*
X202026247Y-117166666D02*
X202073866Y-117071428D01*
X202073866Y-117071428D02*
X202073866Y-116880952D01*
X202073866Y-116880952D02*
X202026247Y-116785714D01*
X202026247Y-116785714D02*
X201978628Y-116738095D01*
X201978628Y-116738095D02*
X201883390Y-116690476D01*
X202454819Y-115738095D02*
X202454819Y-116309523D01*
X202454819Y-116023809D02*
X201454819Y-116023809D01*
X201454819Y-116023809D02*
X201597676Y-116119047D01*
X201597676Y-116119047D02*
X201692914Y-116214285D01*
X201692914Y-116214285D02*
X201740533Y-116309523D01*
X122654819Y-137143904D02*
X123464342Y-137143904D01*
X123464342Y-137143904D02*
X123559580Y-137096285D01*
X123559580Y-137096285D02*
X123607200Y-137048666D01*
X123607200Y-137048666D02*
X123654819Y-136953428D01*
X123654819Y-136953428D02*
X123654819Y-136762952D01*
X123654819Y-136762952D02*
X123607200Y-136667714D01*
X123607200Y-136667714D02*
X123559580Y-136620095D01*
X123559580Y-136620095D02*
X123464342Y-136572476D01*
X123464342Y-136572476D02*
X122654819Y-136572476D01*
X122654819Y-136191523D02*
X122654819Y-135524857D01*
X122654819Y-135524857D02*
X123654819Y-135953428D01*
X57149166Y-136444819D02*
X57149166Y-137159104D01*
X57149166Y-137159104D02*
X57101547Y-137301961D01*
X57101547Y-137301961D02*
X57006309Y-137397200D01*
X57006309Y-137397200D02*
X56863452Y-137444819D01*
X56863452Y-137444819D02*
X56768214Y-137444819D01*
X57577738Y-136540057D02*
X57625357Y-136492438D01*
X57625357Y-136492438D02*
X57720595Y-136444819D01*
X57720595Y-136444819D02*
X57958690Y-136444819D01*
X57958690Y-136444819D02*
X58053928Y-136492438D01*
X58053928Y-136492438D02*
X58101547Y-136540057D01*
X58101547Y-136540057D02*
X58149166Y-136635295D01*
X58149166Y-136635295D02*
X58149166Y-136730533D01*
X58149166Y-136730533D02*
X58101547Y-136873390D01*
X58101547Y-136873390D02*
X57530119Y-137444819D01*
X57530119Y-137444819D02*
X58149166Y-137444819D01*
X180454819Y-118214285D02*
X179454819Y-118214285D01*
X180454819Y-117642857D02*
X179883390Y-118071428D01*
X179454819Y-117642857D02*
X180026247Y-118214285D01*
X179454819Y-117309523D02*
X179454819Y-116642857D01*
X179454819Y-116642857D02*
X180454819Y-117071428D01*
X179454819Y-115785714D02*
X179454819Y-116261904D01*
X179454819Y-116261904D02*
X179931009Y-116309523D01*
X179931009Y-116309523D02*
X179883390Y-116261904D01*
X179883390Y-116261904D02*
X179835771Y-116166666D01*
X179835771Y-116166666D02*
X179835771Y-115928571D01*
X179835771Y-115928571D02*
X179883390Y-115833333D01*
X179883390Y-115833333D02*
X179931009Y-115785714D01*
X179931009Y-115785714D02*
X180026247Y-115738095D01*
X180026247Y-115738095D02*
X180264342Y-115738095D01*
X180264342Y-115738095D02*
X180359580Y-115785714D01*
X180359580Y-115785714D02*
X180407200Y-115833333D01*
X180407200Y-115833333D02*
X180454819Y-115928571D01*
X180454819Y-115928571D02*
X180454819Y-116166666D01*
X180454819Y-116166666D02*
X180407200Y-116261904D01*
X180407200Y-116261904D02*
X180359580Y-116309523D01*
X203238095Y-142454819D02*
X203238095Y-143264342D01*
X203238095Y-143264342D02*
X203285714Y-143359580D01*
X203285714Y-143359580D02*
X203333333Y-143407200D01*
X203333333Y-143407200D02*
X203428571Y-143454819D01*
X203428571Y-143454819D02*
X203619047Y-143454819D01*
X203619047Y-143454819D02*
X203714285Y-143407200D01*
X203714285Y-143407200D02*
X203761904Y-143359580D01*
X203761904Y-143359580D02*
X203809523Y-143264342D01*
X203809523Y-143264342D02*
X203809523Y-142454819D01*
X204809523Y-143454819D02*
X204238095Y-143454819D01*
X204523809Y-143454819D02*
X204523809Y-142454819D01*
X204523809Y-142454819D02*
X204428571Y-142597676D01*
X204428571Y-142597676D02*
X204333333Y-142692914D01*
X204333333Y-142692914D02*
X204238095Y-142740533D01*
X125454819Y-109214285D02*
X124454819Y-109214285D01*
X125454819Y-108642857D02*
X124883390Y-109071428D01*
X124454819Y-108642857D02*
X125026247Y-109214285D01*
X124454819Y-108309523D02*
X124454819Y-107690476D01*
X124454819Y-107690476D02*
X124835771Y-108023809D01*
X124835771Y-108023809D02*
X124835771Y-107880952D01*
X124835771Y-107880952D02*
X124883390Y-107785714D01*
X124883390Y-107785714D02*
X124931009Y-107738095D01*
X124931009Y-107738095D02*
X125026247Y-107690476D01*
X125026247Y-107690476D02*
X125264342Y-107690476D01*
X125264342Y-107690476D02*
X125359580Y-107738095D01*
X125359580Y-107738095D02*
X125407200Y-107785714D01*
X125407200Y-107785714D02*
X125454819Y-107880952D01*
X125454819Y-107880952D02*
X125454819Y-108166666D01*
X125454819Y-108166666D02*
X125407200Y-108261904D01*
X125407200Y-108261904D02*
X125359580Y-108309523D01*
X124788152Y-106833333D02*
X125454819Y-106833333D01*
X124407200Y-107071428D02*
X125121485Y-107309523D01*
X125121485Y-107309523D02*
X125121485Y-106690476D01*
X188654819Y-137620094D02*
X189464342Y-137620094D01*
X189464342Y-137620094D02*
X189559580Y-137572475D01*
X189559580Y-137572475D02*
X189607200Y-137524856D01*
X189607200Y-137524856D02*
X189654819Y-137429618D01*
X189654819Y-137429618D02*
X189654819Y-137239142D01*
X189654819Y-137239142D02*
X189607200Y-137143904D01*
X189607200Y-137143904D02*
X189559580Y-137096285D01*
X189559580Y-137096285D02*
X189464342Y-137048666D01*
X189464342Y-137048666D02*
X188654819Y-137048666D01*
X189654819Y-136048666D02*
X189654819Y-136620094D01*
X189654819Y-136334380D02*
X188654819Y-136334380D01*
X188654819Y-136334380D02*
X188797676Y-136429618D01*
X188797676Y-136429618D02*
X188892914Y-136524856D01*
X188892914Y-136524856D02*
X188940533Y-136620094D01*
X188654819Y-135715332D02*
X188654819Y-135096285D01*
X188654819Y-135096285D02*
X189035771Y-135429618D01*
X189035771Y-135429618D02*
X189035771Y-135286761D01*
X189035771Y-135286761D02*
X189083390Y-135191523D01*
X189083390Y-135191523D02*
X189131009Y-135143904D01*
X189131009Y-135143904D02*
X189226247Y-135096285D01*
X189226247Y-135096285D02*
X189464342Y-135096285D01*
X189464342Y-135096285D02*
X189559580Y-135143904D01*
X189559580Y-135143904D02*
X189607200Y-135191523D01*
X189607200Y-135191523D02*
X189654819Y-135286761D01*
X189654819Y-135286761D02*
X189654819Y-135572475D01*
X189654819Y-135572475D02*
X189607200Y-135667713D01*
X189607200Y-135667713D02*
X189559580Y-135715332D01*
X169454819Y-127214285D02*
X168454819Y-127214285D01*
X169454819Y-126642857D02*
X168883390Y-127071428D01*
X168454819Y-126642857D02*
X169026247Y-127214285D01*
X168454819Y-125785714D02*
X168454819Y-125976190D01*
X168454819Y-125976190D02*
X168502438Y-126071428D01*
X168502438Y-126071428D02*
X168550057Y-126119047D01*
X168550057Y-126119047D02*
X168692914Y-126214285D01*
X168692914Y-126214285D02*
X168883390Y-126261904D01*
X168883390Y-126261904D02*
X169264342Y-126261904D01*
X169264342Y-126261904D02*
X169359580Y-126214285D01*
X169359580Y-126214285D02*
X169407200Y-126166666D01*
X169407200Y-126166666D02*
X169454819Y-126071428D01*
X169454819Y-126071428D02*
X169454819Y-125880952D01*
X169454819Y-125880952D02*
X169407200Y-125785714D01*
X169407200Y-125785714D02*
X169359580Y-125738095D01*
X169359580Y-125738095D02*
X169264342Y-125690476D01*
X169264342Y-125690476D02*
X169026247Y-125690476D01*
X169026247Y-125690476D02*
X168931009Y-125738095D01*
X168931009Y-125738095D02*
X168883390Y-125785714D01*
X168883390Y-125785714D02*
X168835771Y-125880952D01*
X168835771Y-125880952D02*
X168835771Y-126071428D01*
X168835771Y-126071428D02*
X168883390Y-126166666D01*
X168883390Y-126166666D02*
X168931009Y-126214285D01*
X168931009Y-126214285D02*
X169026247Y-126261904D01*
X168883390Y-125119047D02*
X168835771Y-125214285D01*
X168835771Y-125214285D02*
X168788152Y-125261904D01*
X168788152Y-125261904D02*
X168692914Y-125309523D01*
X168692914Y-125309523D02*
X168645295Y-125309523D01*
X168645295Y-125309523D02*
X168550057Y-125261904D01*
X168550057Y-125261904D02*
X168502438Y-125214285D01*
X168502438Y-125214285D02*
X168454819Y-125119047D01*
X168454819Y-125119047D02*
X168454819Y-124928571D01*
X168454819Y-124928571D02*
X168502438Y-124833333D01*
X168502438Y-124833333D02*
X168550057Y-124785714D01*
X168550057Y-124785714D02*
X168645295Y-124738095D01*
X168645295Y-124738095D02*
X168692914Y-124738095D01*
X168692914Y-124738095D02*
X168788152Y-124785714D01*
X168788152Y-124785714D02*
X168835771Y-124833333D01*
X168835771Y-124833333D02*
X168883390Y-124928571D01*
X168883390Y-124928571D02*
X168883390Y-125119047D01*
X168883390Y-125119047D02*
X168931009Y-125214285D01*
X168931009Y-125214285D02*
X168978628Y-125261904D01*
X168978628Y-125261904D02*
X169073866Y-125309523D01*
X169073866Y-125309523D02*
X169264342Y-125309523D01*
X169264342Y-125309523D02*
X169359580Y-125261904D01*
X169359580Y-125261904D02*
X169407200Y-125214285D01*
X169407200Y-125214285D02*
X169454819Y-125119047D01*
X169454819Y-125119047D02*
X169454819Y-124928571D01*
X169454819Y-124928571D02*
X169407200Y-124833333D01*
X169407200Y-124833333D02*
X169359580Y-124785714D01*
X169359580Y-124785714D02*
X169264342Y-124738095D01*
X169264342Y-124738095D02*
X169073866Y-124738095D01*
X169073866Y-124738095D02*
X168978628Y-124785714D01*
X168978628Y-124785714D02*
X168931009Y-124833333D01*
X168931009Y-124833333D02*
X168883390Y-124928571D01*
X69008333Y-126944819D02*
X68675000Y-126468628D01*
X68436905Y-126944819D02*
X68436905Y-125944819D01*
X68436905Y-125944819D02*
X68817857Y-125944819D01*
X68817857Y-125944819D02*
X68913095Y-125992438D01*
X68913095Y-125992438D02*
X68960714Y-126040057D01*
X68960714Y-126040057D02*
X69008333Y-126135295D01*
X69008333Y-126135295D02*
X69008333Y-126278152D01*
X69008333Y-126278152D02*
X68960714Y-126373390D01*
X68960714Y-126373390D02*
X68913095Y-126421009D01*
X68913095Y-126421009D02*
X68817857Y-126468628D01*
X68817857Y-126468628D02*
X68436905Y-126468628D01*
X69913095Y-125944819D02*
X69436905Y-125944819D01*
X69436905Y-125944819D02*
X69389286Y-126421009D01*
X69389286Y-126421009D02*
X69436905Y-126373390D01*
X69436905Y-126373390D02*
X69532143Y-126325771D01*
X69532143Y-126325771D02*
X69770238Y-126325771D01*
X69770238Y-126325771D02*
X69865476Y-126373390D01*
X69865476Y-126373390D02*
X69913095Y-126421009D01*
X69913095Y-126421009D02*
X69960714Y-126516247D01*
X69960714Y-126516247D02*
X69960714Y-126754342D01*
X69960714Y-126754342D02*
X69913095Y-126849580D01*
X69913095Y-126849580D02*
X69865476Y-126897200D01*
X69865476Y-126897200D02*
X69770238Y-126944819D01*
X69770238Y-126944819D02*
X69532143Y-126944819D01*
X69532143Y-126944819D02*
X69436905Y-126897200D01*
X69436905Y-126897200D02*
X69389286Y-126849580D01*
X147454819Y-127214285D02*
X146454819Y-127214285D01*
X147454819Y-126642857D02*
X146883390Y-127071428D01*
X146454819Y-126642857D02*
X147026247Y-127214285D01*
X146454819Y-125738095D02*
X146454819Y-126214285D01*
X146454819Y-126214285D02*
X146931009Y-126261904D01*
X146931009Y-126261904D02*
X146883390Y-126214285D01*
X146883390Y-126214285D02*
X146835771Y-126119047D01*
X146835771Y-126119047D02*
X146835771Y-125880952D01*
X146835771Y-125880952D02*
X146883390Y-125785714D01*
X146883390Y-125785714D02*
X146931009Y-125738095D01*
X146931009Y-125738095D02*
X147026247Y-125690476D01*
X147026247Y-125690476D02*
X147264342Y-125690476D01*
X147264342Y-125690476D02*
X147359580Y-125738095D01*
X147359580Y-125738095D02*
X147407200Y-125785714D01*
X147407200Y-125785714D02*
X147454819Y-125880952D01*
X147454819Y-125880952D02*
X147454819Y-126119047D01*
X147454819Y-126119047D02*
X147407200Y-126214285D01*
X147407200Y-126214285D02*
X147359580Y-126261904D01*
X146550057Y-125309523D02*
X146502438Y-125261904D01*
X146502438Y-125261904D02*
X146454819Y-125166666D01*
X146454819Y-125166666D02*
X146454819Y-124928571D01*
X146454819Y-124928571D02*
X146502438Y-124833333D01*
X146502438Y-124833333D02*
X146550057Y-124785714D01*
X146550057Y-124785714D02*
X146645295Y-124738095D01*
X146645295Y-124738095D02*
X146740533Y-124738095D01*
X146740533Y-124738095D02*
X146883390Y-124785714D01*
X146883390Y-124785714D02*
X147454819Y-125357142D01*
X147454819Y-125357142D02*
X147454819Y-124738095D01*
X201859580Y-142666666D02*
X201907200Y-142714285D01*
X201907200Y-142714285D02*
X201954819Y-142857142D01*
X201954819Y-142857142D02*
X201954819Y-142952380D01*
X201954819Y-142952380D02*
X201907200Y-143095237D01*
X201907200Y-143095237D02*
X201811961Y-143190475D01*
X201811961Y-143190475D02*
X201716723Y-143238094D01*
X201716723Y-143238094D02*
X201526247Y-143285713D01*
X201526247Y-143285713D02*
X201383390Y-143285713D01*
X201383390Y-143285713D02*
X201192914Y-143238094D01*
X201192914Y-143238094D02*
X201097676Y-143190475D01*
X201097676Y-143190475D02*
X201002438Y-143095237D01*
X201002438Y-143095237D02*
X200954819Y-142952380D01*
X200954819Y-142952380D02*
X200954819Y-142857142D01*
X200954819Y-142857142D02*
X201002438Y-142714285D01*
X201002438Y-142714285D02*
X201050057Y-142666666D01*
X201050057Y-142285713D02*
X201002438Y-142238094D01*
X201002438Y-142238094D02*
X200954819Y-142142856D01*
X200954819Y-142142856D02*
X200954819Y-141904761D01*
X200954819Y-141904761D02*
X201002438Y-141809523D01*
X201002438Y-141809523D02*
X201050057Y-141761904D01*
X201050057Y-141761904D02*
X201145295Y-141714285D01*
X201145295Y-141714285D02*
X201240533Y-141714285D01*
X201240533Y-141714285D02*
X201383390Y-141761904D01*
X201383390Y-141761904D02*
X201954819Y-142333332D01*
X201954819Y-142333332D02*
X201954819Y-141714285D01*
X125454819Y-100214285D02*
X124454819Y-100214285D01*
X125454819Y-99642857D02*
X124883390Y-100071428D01*
X124454819Y-99642857D02*
X125026247Y-100214285D01*
X124454819Y-99309523D02*
X124454819Y-98690476D01*
X124454819Y-98690476D02*
X124835771Y-99023809D01*
X124835771Y-99023809D02*
X124835771Y-98880952D01*
X124835771Y-98880952D02*
X124883390Y-98785714D01*
X124883390Y-98785714D02*
X124931009Y-98738095D01*
X124931009Y-98738095D02*
X125026247Y-98690476D01*
X125026247Y-98690476D02*
X125264342Y-98690476D01*
X125264342Y-98690476D02*
X125359580Y-98738095D01*
X125359580Y-98738095D02*
X125407200Y-98785714D01*
X125407200Y-98785714D02*
X125454819Y-98880952D01*
X125454819Y-98880952D02*
X125454819Y-99166666D01*
X125454819Y-99166666D02*
X125407200Y-99261904D01*
X125407200Y-99261904D02*
X125359580Y-99309523D01*
X124454819Y-98357142D02*
X124454819Y-97738095D01*
X124454819Y-97738095D02*
X124835771Y-98071428D01*
X124835771Y-98071428D02*
X124835771Y-97928571D01*
X124835771Y-97928571D02*
X124883390Y-97833333D01*
X124883390Y-97833333D02*
X124931009Y-97785714D01*
X124931009Y-97785714D02*
X125026247Y-97738095D01*
X125026247Y-97738095D02*
X125264342Y-97738095D01*
X125264342Y-97738095D02*
X125359580Y-97785714D01*
X125359580Y-97785714D02*
X125407200Y-97833333D01*
X125407200Y-97833333D02*
X125454819Y-97928571D01*
X125454819Y-97928571D02*
X125454819Y-98214285D01*
X125454819Y-98214285D02*
X125407200Y-98309523D01*
X125407200Y-98309523D02*
X125359580Y-98357142D01*
X180454819Y-109214285D02*
X179454819Y-109214285D01*
X180454819Y-108642857D02*
X179883390Y-109071428D01*
X179454819Y-108642857D02*
X180026247Y-109214285D01*
X179454819Y-108309523D02*
X179454819Y-107642857D01*
X179454819Y-107642857D02*
X180454819Y-108071428D01*
X179788152Y-106833333D02*
X180454819Y-106833333D01*
X179407200Y-107071428D02*
X180121485Y-107309523D01*
X180121485Y-107309523D02*
X180121485Y-106690476D01*
X69008333Y-131414819D02*
X68675000Y-130938628D01*
X68436905Y-131414819D02*
X68436905Y-130414819D01*
X68436905Y-130414819D02*
X68817857Y-130414819D01*
X68817857Y-130414819D02*
X68913095Y-130462438D01*
X68913095Y-130462438D02*
X68960714Y-130510057D01*
X68960714Y-130510057D02*
X69008333Y-130605295D01*
X69008333Y-130605295D02*
X69008333Y-130748152D01*
X69008333Y-130748152D02*
X68960714Y-130843390D01*
X68960714Y-130843390D02*
X68913095Y-130891009D01*
X68913095Y-130891009D02*
X68817857Y-130938628D01*
X68817857Y-130938628D02*
X68436905Y-130938628D01*
X69389286Y-130510057D02*
X69436905Y-130462438D01*
X69436905Y-130462438D02*
X69532143Y-130414819D01*
X69532143Y-130414819D02*
X69770238Y-130414819D01*
X69770238Y-130414819D02*
X69865476Y-130462438D01*
X69865476Y-130462438D02*
X69913095Y-130510057D01*
X69913095Y-130510057D02*
X69960714Y-130605295D01*
X69960714Y-130605295D02*
X69960714Y-130700533D01*
X69960714Y-130700533D02*
X69913095Y-130843390D01*
X69913095Y-130843390D02*
X69341667Y-131414819D01*
X69341667Y-131414819D02*
X69960714Y-131414819D01*
X81454819Y-117738094D02*
X80454819Y-117738094D01*
X81454819Y-117166666D02*
X80883390Y-117595237D01*
X80454819Y-117166666D02*
X81026247Y-117738094D01*
X80454819Y-116833332D02*
X80454819Y-116214285D01*
X80454819Y-116214285D02*
X80835771Y-116547618D01*
X80835771Y-116547618D02*
X80835771Y-116404761D01*
X80835771Y-116404761D02*
X80883390Y-116309523D01*
X80883390Y-116309523D02*
X80931009Y-116261904D01*
X80931009Y-116261904D02*
X81026247Y-116214285D01*
X81026247Y-116214285D02*
X81264342Y-116214285D01*
X81264342Y-116214285D02*
X81359580Y-116261904D01*
X81359580Y-116261904D02*
X81407200Y-116309523D01*
X81407200Y-116309523D02*
X81454819Y-116404761D01*
X81454819Y-116404761D02*
X81454819Y-116690475D01*
X81454819Y-116690475D02*
X81407200Y-116785713D01*
X81407200Y-116785713D02*
X81359580Y-116833332D01*
X202454819Y-109214285D02*
X201454819Y-109214285D01*
X202454819Y-108642857D02*
X201883390Y-109071428D01*
X201454819Y-108642857D02*
X202026247Y-109214285D01*
X202454819Y-108166666D02*
X202454819Y-107976190D01*
X202454819Y-107976190D02*
X202407200Y-107880952D01*
X202407200Y-107880952D02*
X202359580Y-107833333D01*
X202359580Y-107833333D02*
X202216723Y-107738095D01*
X202216723Y-107738095D02*
X202026247Y-107690476D01*
X202026247Y-107690476D02*
X201645295Y-107690476D01*
X201645295Y-107690476D02*
X201550057Y-107738095D01*
X201550057Y-107738095D02*
X201502438Y-107785714D01*
X201502438Y-107785714D02*
X201454819Y-107880952D01*
X201454819Y-107880952D02*
X201454819Y-108071428D01*
X201454819Y-108071428D02*
X201502438Y-108166666D01*
X201502438Y-108166666D02*
X201550057Y-108214285D01*
X201550057Y-108214285D02*
X201645295Y-108261904D01*
X201645295Y-108261904D02*
X201883390Y-108261904D01*
X201883390Y-108261904D02*
X201978628Y-108214285D01*
X201978628Y-108214285D02*
X202026247Y-108166666D01*
X202026247Y-108166666D02*
X202073866Y-108071428D01*
X202073866Y-108071428D02*
X202073866Y-107880952D01*
X202073866Y-107880952D02*
X202026247Y-107785714D01*
X202026247Y-107785714D02*
X201978628Y-107738095D01*
X201978628Y-107738095D02*
X201883390Y-107690476D01*
X201454819Y-107071428D02*
X201454819Y-106976190D01*
X201454819Y-106976190D02*
X201502438Y-106880952D01*
X201502438Y-106880952D02*
X201550057Y-106833333D01*
X201550057Y-106833333D02*
X201645295Y-106785714D01*
X201645295Y-106785714D02*
X201835771Y-106738095D01*
X201835771Y-106738095D02*
X202073866Y-106738095D01*
X202073866Y-106738095D02*
X202264342Y-106785714D01*
X202264342Y-106785714D02*
X202359580Y-106833333D01*
X202359580Y-106833333D02*
X202407200Y-106880952D01*
X202407200Y-106880952D02*
X202454819Y-106976190D01*
X202454819Y-106976190D02*
X202454819Y-107071428D01*
X202454819Y-107071428D02*
X202407200Y-107166666D01*
X202407200Y-107166666D02*
X202359580Y-107214285D01*
X202359580Y-107214285D02*
X202264342Y-107261904D01*
X202264342Y-107261904D02*
X202073866Y-107309523D01*
X202073866Y-107309523D02*
X201835771Y-107309523D01*
X201835771Y-107309523D02*
X201645295Y-107261904D01*
X201645295Y-107261904D02*
X201550057Y-107214285D01*
X201550057Y-107214285D02*
X201502438Y-107166666D01*
X201502438Y-107166666D02*
X201454819Y-107071428D01*
X136454819Y-127214285D02*
X135454819Y-127214285D01*
X136454819Y-126642857D02*
X135883390Y-127071428D01*
X135454819Y-126642857D02*
X136026247Y-127214285D01*
X135788152Y-125785714D02*
X136454819Y-125785714D01*
X135407200Y-126023809D02*
X136121485Y-126261904D01*
X136121485Y-126261904D02*
X136121485Y-125642857D01*
X135788152Y-124833333D02*
X136454819Y-124833333D01*
X135407200Y-125071428D02*
X136121485Y-125309523D01*
X136121485Y-125309523D02*
X136121485Y-124690476D01*
X136454819Y-109214285D02*
X135454819Y-109214285D01*
X136454819Y-108642857D02*
X135883390Y-109071428D01*
X135454819Y-108642857D02*
X136026247Y-109214285D01*
X135788152Y-107785714D02*
X136454819Y-107785714D01*
X135407200Y-108023809D02*
X136121485Y-108261904D01*
X136121485Y-108261904D02*
X136121485Y-107642857D01*
X135550057Y-107309523D02*
X135502438Y-107261904D01*
X135502438Y-107261904D02*
X135454819Y-107166666D01*
X135454819Y-107166666D02*
X135454819Y-106928571D01*
X135454819Y-106928571D02*
X135502438Y-106833333D01*
X135502438Y-106833333D02*
X135550057Y-106785714D01*
X135550057Y-106785714D02*
X135645295Y-106738095D01*
X135645295Y-106738095D02*
X135740533Y-106738095D01*
X135740533Y-106738095D02*
X135883390Y-106785714D01*
X135883390Y-106785714D02*
X136454819Y-107357142D01*
X136454819Y-107357142D02*
X136454819Y-106738095D01*
X191454819Y-127214285D02*
X190454819Y-127214285D01*
X191454819Y-126642857D02*
X190883390Y-127071428D01*
X190454819Y-126642857D02*
X191026247Y-127214285D01*
X190883390Y-126071428D02*
X190835771Y-126166666D01*
X190835771Y-126166666D02*
X190788152Y-126214285D01*
X190788152Y-126214285D02*
X190692914Y-126261904D01*
X190692914Y-126261904D02*
X190645295Y-126261904D01*
X190645295Y-126261904D02*
X190550057Y-126214285D01*
X190550057Y-126214285D02*
X190502438Y-126166666D01*
X190502438Y-126166666D02*
X190454819Y-126071428D01*
X190454819Y-126071428D02*
X190454819Y-125880952D01*
X190454819Y-125880952D02*
X190502438Y-125785714D01*
X190502438Y-125785714D02*
X190550057Y-125738095D01*
X190550057Y-125738095D02*
X190645295Y-125690476D01*
X190645295Y-125690476D02*
X190692914Y-125690476D01*
X190692914Y-125690476D02*
X190788152Y-125738095D01*
X190788152Y-125738095D02*
X190835771Y-125785714D01*
X190835771Y-125785714D02*
X190883390Y-125880952D01*
X190883390Y-125880952D02*
X190883390Y-126071428D01*
X190883390Y-126071428D02*
X190931009Y-126166666D01*
X190931009Y-126166666D02*
X190978628Y-126214285D01*
X190978628Y-126214285D02*
X191073866Y-126261904D01*
X191073866Y-126261904D02*
X191264342Y-126261904D01*
X191264342Y-126261904D02*
X191359580Y-126214285D01*
X191359580Y-126214285D02*
X191407200Y-126166666D01*
X191407200Y-126166666D02*
X191454819Y-126071428D01*
X191454819Y-126071428D02*
X191454819Y-125880952D01*
X191454819Y-125880952D02*
X191407200Y-125785714D01*
X191407200Y-125785714D02*
X191359580Y-125738095D01*
X191359580Y-125738095D02*
X191264342Y-125690476D01*
X191264342Y-125690476D02*
X191073866Y-125690476D01*
X191073866Y-125690476D02*
X190978628Y-125738095D01*
X190978628Y-125738095D02*
X190931009Y-125785714D01*
X190931009Y-125785714D02*
X190883390Y-125880952D01*
X190788152Y-124833333D02*
X191454819Y-124833333D01*
X190407200Y-125071428D02*
X191121485Y-125309523D01*
X191121485Y-125309523D02*
X191121485Y-124690476D01*
X81454819Y-108738094D02*
X80454819Y-108738094D01*
X81454819Y-108166666D02*
X80883390Y-108595237D01*
X80454819Y-108166666D02*
X81026247Y-108738094D01*
X80550057Y-107785713D02*
X80502438Y-107738094D01*
X80502438Y-107738094D02*
X80454819Y-107642856D01*
X80454819Y-107642856D02*
X80454819Y-107404761D01*
X80454819Y-107404761D02*
X80502438Y-107309523D01*
X80502438Y-107309523D02*
X80550057Y-107261904D01*
X80550057Y-107261904D02*
X80645295Y-107214285D01*
X80645295Y-107214285D02*
X80740533Y-107214285D01*
X80740533Y-107214285D02*
X80883390Y-107261904D01*
X80883390Y-107261904D02*
X81454819Y-107833332D01*
X81454819Y-107833332D02*
X81454819Y-107214285D01*
X144654819Y-137143904D02*
X145464342Y-137143904D01*
X145464342Y-137143904D02*
X145559580Y-137096285D01*
X145559580Y-137096285D02*
X145607200Y-137048666D01*
X145607200Y-137048666D02*
X145654819Y-136953428D01*
X145654819Y-136953428D02*
X145654819Y-136762952D01*
X145654819Y-136762952D02*
X145607200Y-136667714D01*
X145607200Y-136667714D02*
X145559580Y-136620095D01*
X145559580Y-136620095D02*
X145464342Y-136572476D01*
X145464342Y-136572476D02*
X144654819Y-136572476D01*
X145654819Y-136048666D02*
X145654819Y-135858190D01*
X145654819Y-135858190D02*
X145607200Y-135762952D01*
X145607200Y-135762952D02*
X145559580Y-135715333D01*
X145559580Y-135715333D02*
X145416723Y-135620095D01*
X145416723Y-135620095D02*
X145226247Y-135572476D01*
X145226247Y-135572476D02*
X144845295Y-135572476D01*
X144845295Y-135572476D02*
X144750057Y-135620095D01*
X144750057Y-135620095D02*
X144702438Y-135667714D01*
X144702438Y-135667714D02*
X144654819Y-135762952D01*
X144654819Y-135762952D02*
X144654819Y-135953428D01*
X144654819Y-135953428D02*
X144702438Y-136048666D01*
X144702438Y-136048666D02*
X144750057Y-136096285D01*
X144750057Y-136096285D02*
X144845295Y-136143904D01*
X144845295Y-136143904D02*
X145083390Y-136143904D01*
X145083390Y-136143904D02*
X145178628Y-136096285D01*
X145178628Y-136096285D02*
X145226247Y-136048666D01*
X145226247Y-136048666D02*
X145273866Y-135953428D01*
X145273866Y-135953428D02*
X145273866Y-135762952D01*
X145273866Y-135762952D02*
X145226247Y-135667714D01*
X145226247Y-135667714D02*
X145178628Y-135620095D01*
X145178628Y-135620095D02*
X145083390Y-135572476D01*
X89654819Y-137143904D02*
X90464342Y-137143904D01*
X90464342Y-137143904D02*
X90559580Y-137096285D01*
X90559580Y-137096285D02*
X90607200Y-137048666D01*
X90607200Y-137048666D02*
X90654819Y-136953428D01*
X90654819Y-136953428D02*
X90654819Y-136762952D01*
X90654819Y-136762952D02*
X90607200Y-136667714D01*
X90607200Y-136667714D02*
X90559580Y-136620095D01*
X90559580Y-136620095D02*
X90464342Y-136572476D01*
X90464342Y-136572476D02*
X89654819Y-136572476D01*
X89988152Y-135667714D02*
X90654819Y-135667714D01*
X89607200Y-135905809D02*
X90321485Y-136143904D01*
X90321485Y-136143904D02*
X90321485Y-135524857D01*
X92763580Y-136294667D02*
X92811200Y-136342286D01*
X92811200Y-136342286D02*
X92858819Y-136485143D01*
X92858819Y-136485143D02*
X92858819Y-136580381D01*
X92858819Y-136580381D02*
X92811200Y-136723238D01*
X92811200Y-136723238D02*
X92715961Y-136818476D01*
X92715961Y-136818476D02*
X92620723Y-136866095D01*
X92620723Y-136866095D02*
X92430247Y-136913714D01*
X92430247Y-136913714D02*
X92287390Y-136913714D01*
X92287390Y-136913714D02*
X92096914Y-136866095D01*
X92096914Y-136866095D02*
X92001676Y-136818476D01*
X92001676Y-136818476D02*
X91906438Y-136723238D01*
X91906438Y-136723238D02*
X91858819Y-136580381D01*
X91858819Y-136580381D02*
X91858819Y-136485143D01*
X91858819Y-136485143D02*
X91906438Y-136342286D01*
X91906438Y-136342286D02*
X91954057Y-136294667D01*
X91858819Y-135389905D02*
X91858819Y-135866095D01*
X91858819Y-135866095D02*
X92335009Y-135913714D01*
X92335009Y-135913714D02*
X92287390Y-135866095D01*
X92287390Y-135866095D02*
X92239771Y-135770857D01*
X92239771Y-135770857D02*
X92239771Y-135532762D01*
X92239771Y-135532762D02*
X92287390Y-135437524D01*
X92287390Y-135437524D02*
X92335009Y-135389905D01*
X92335009Y-135389905D02*
X92430247Y-135342286D01*
X92430247Y-135342286D02*
X92668342Y-135342286D01*
X92668342Y-135342286D02*
X92763580Y-135389905D01*
X92763580Y-135389905D02*
X92811200Y-135437524D01*
X92811200Y-135437524D02*
X92858819Y-135532762D01*
X92858819Y-135532762D02*
X92858819Y-135770857D01*
X92858819Y-135770857D02*
X92811200Y-135866095D01*
X92811200Y-135866095D02*
X92763580Y-135913714D01*
X201859580Y-132666666D02*
X201907200Y-132714285D01*
X201907200Y-132714285D02*
X201954819Y-132857142D01*
X201954819Y-132857142D02*
X201954819Y-132952380D01*
X201954819Y-132952380D02*
X201907200Y-133095237D01*
X201907200Y-133095237D02*
X201811961Y-133190475D01*
X201811961Y-133190475D02*
X201716723Y-133238094D01*
X201716723Y-133238094D02*
X201526247Y-133285713D01*
X201526247Y-133285713D02*
X201383390Y-133285713D01*
X201383390Y-133285713D02*
X201192914Y-133238094D01*
X201192914Y-133238094D02*
X201097676Y-133190475D01*
X201097676Y-133190475D02*
X201002438Y-133095237D01*
X201002438Y-133095237D02*
X200954819Y-132952380D01*
X200954819Y-132952380D02*
X200954819Y-132857142D01*
X200954819Y-132857142D02*
X201002438Y-132714285D01*
X201002438Y-132714285D02*
X201050057Y-132666666D01*
X201954819Y-131714285D02*
X201954819Y-132285713D01*
X201954819Y-131999999D02*
X200954819Y-131999999D01*
X200954819Y-131999999D02*
X201097676Y-132095237D01*
X201097676Y-132095237D02*
X201192914Y-132190475D01*
X201192914Y-132190475D02*
X201240533Y-132285713D01*
X103454819Y-118214285D02*
X102454819Y-118214285D01*
X103454819Y-117642857D02*
X102883390Y-118071428D01*
X102454819Y-117642857D02*
X103026247Y-118214285D01*
X103454819Y-116690476D02*
X103454819Y-117261904D01*
X103454819Y-116976190D02*
X102454819Y-116976190D01*
X102454819Y-116976190D02*
X102597676Y-117071428D01*
X102597676Y-117071428D02*
X102692914Y-117166666D01*
X102692914Y-117166666D02*
X102740533Y-117261904D01*
X103454819Y-116214285D02*
X103454819Y-116023809D01*
X103454819Y-116023809D02*
X103407200Y-115928571D01*
X103407200Y-115928571D02*
X103359580Y-115880952D01*
X103359580Y-115880952D02*
X103216723Y-115785714D01*
X103216723Y-115785714D02*
X103026247Y-115738095D01*
X103026247Y-115738095D02*
X102645295Y-115738095D01*
X102645295Y-115738095D02*
X102550057Y-115785714D01*
X102550057Y-115785714D02*
X102502438Y-115833333D01*
X102502438Y-115833333D02*
X102454819Y-115928571D01*
X102454819Y-115928571D02*
X102454819Y-116119047D01*
X102454819Y-116119047D02*
X102502438Y-116214285D01*
X102502438Y-116214285D02*
X102550057Y-116261904D01*
X102550057Y-116261904D02*
X102645295Y-116309523D01*
X102645295Y-116309523D02*
X102883390Y-116309523D01*
X102883390Y-116309523D02*
X102978628Y-116261904D01*
X102978628Y-116261904D02*
X103026247Y-116214285D01*
X103026247Y-116214285D02*
X103073866Y-116119047D01*
X103073866Y-116119047D02*
X103073866Y-115928571D01*
X103073866Y-115928571D02*
X103026247Y-115833333D01*
X103026247Y-115833333D02*
X102978628Y-115785714D01*
X102978628Y-115785714D02*
X102883390Y-115738095D01*
X92454819Y-127214285D02*
X91454819Y-127214285D01*
X92454819Y-126642857D02*
X91883390Y-127071428D01*
X91454819Y-126642857D02*
X92026247Y-127214285D01*
X92454819Y-125690476D02*
X92454819Y-126261904D01*
X92454819Y-125976190D02*
X91454819Y-125976190D01*
X91454819Y-125976190D02*
X91597676Y-126071428D01*
X91597676Y-126071428D02*
X91692914Y-126166666D01*
X91692914Y-126166666D02*
X91740533Y-126261904D01*
X91550057Y-125309523D02*
X91502438Y-125261904D01*
X91502438Y-125261904D02*
X91454819Y-125166666D01*
X91454819Y-125166666D02*
X91454819Y-124928571D01*
X91454819Y-124928571D02*
X91502438Y-124833333D01*
X91502438Y-124833333D02*
X91550057Y-124785714D01*
X91550057Y-124785714D02*
X91645295Y-124738095D01*
X91645295Y-124738095D02*
X91740533Y-124738095D01*
X91740533Y-124738095D02*
X91883390Y-124785714D01*
X91883390Y-124785714D02*
X92454819Y-125357142D01*
X92454819Y-125357142D02*
X92454819Y-124738095D01*
X136454819Y-100214285D02*
X135454819Y-100214285D01*
X136454819Y-99642857D02*
X135883390Y-100071428D01*
X135454819Y-99642857D02*
X136026247Y-100214285D01*
X135788152Y-98785714D02*
X136454819Y-98785714D01*
X135407200Y-99023809D02*
X136121485Y-99261904D01*
X136121485Y-99261904D02*
X136121485Y-98642857D01*
X136454819Y-97738095D02*
X136454819Y-98309523D01*
X136454819Y-98023809D02*
X135454819Y-98023809D01*
X135454819Y-98023809D02*
X135597676Y-98119047D01*
X135597676Y-98119047D02*
X135692914Y-98214285D01*
X135692914Y-98214285D02*
X135740533Y-98309523D01*
X57738095Y-84754819D02*
X57738095Y-83754819D01*
X57738095Y-84231009D02*
X58309523Y-84231009D01*
X58309523Y-84754819D02*
X58309523Y-83754819D01*
X59309523Y-84754819D02*
X58738095Y-84754819D01*
X59023809Y-84754819D02*
X59023809Y-83754819D01*
X59023809Y-83754819D02*
X58928571Y-83897676D01*
X58928571Y-83897676D02*
X58833333Y-83992914D01*
X58833333Y-83992914D02*
X58738095Y-84040533D01*
X158454819Y-109214285D02*
X157454819Y-109214285D01*
X158454819Y-108642857D02*
X157883390Y-109071428D01*
X157454819Y-108642857D02*
X158026247Y-109214285D01*
X157454819Y-107738095D02*
X157454819Y-108214285D01*
X157454819Y-108214285D02*
X157931009Y-108261904D01*
X157931009Y-108261904D02*
X157883390Y-108214285D01*
X157883390Y-108214285D02*
X157835771Y-108119047D01*
X157835771Y-108119047D02*
X157835771Y-107880952D01*
X157835771Y-107880952D02*
X157883390Y-107785714D01*
X157883390Y-107785714D02*
X157931009Y-107738095D01*
X157931009Y-107738095D02*
X158026247Y-107690476D01*
X158026247Y-107690476D02*
X158264342Y-107690476D01*
X158264342Y-107690476D02*
X158359580Y-107738095D01*
X158359580Y-107738095D02*
X158407200Y-107785714D01*
X158407200Y-107785714D02*
X158454819Y-107880952D01*
X158454819Y-107880952D02*
X158454819Y-108119047D01*
X158454819Y-108119047D02*
X158407200Y-108214285D01*
X158407200Y-108214285D02*
X158359580Y-108261904D01*
X157883390Y-107119047D02*
X157835771Y-107214285D01*
X157835771Y-107214285D02*
X157788152Y-107261904D01*
X157788152Y-107261904D02*
X157692914Y-107309523D01*
X157692914Y-107309523D02*
X157645295Y-107309523D01*
X157645295Y-107309523D02*
X157550057Y-107261904D01*
X157550057Y-107261904D02*
X157502438Y-107214285D01*
X157502438Y-107214285D02*
X157454819Y-107119047D01*
X157454819Y-107119047D02*
X157454819Y-106928571D01*
X157454819Y-106928571D02*
X157502438Y-106833333D01*
X157502438Y-106833333D02*
X157550057Y-106785714D01*
X157550057Y-106785714D02*
X157645295Y-106738095D01*
X157645295Y-106738095D02*
X157692914Y-106738095D01*
X157692914Y-106738095D02*
X157788152Y-106785714D01*
X157788152Y-106785714D02*
X157835771Y-106833333D01*
X157835771Y-106833333D02*
X157883390Y-106928571D01*
X157883390Y-106928571D02*
X157883390Y-107119047D01*
X157883390Y-107119047D02*
X157931009Y-107214285D01*
X157931009Y-107214285D02*
X157978628Y-107261904D01*
X157978628Y-107261904D02*
X158073866Y-107309523D01*
X158073866Y-107309523D02*
X158264342Y-107309523D01*
X158264342Y-107309523D02*
X158359580Y-107261904D01*
X158359580Y-107261904D02*
X158407200Y-107214285D01*
X158407200Y-107214285D02*
X158454819Y-107119047D01*
X158454819Y-107119047D02*
X158454819Y-106928571D01*
X158454819Y-106928571D02*
X158407200Y-106833333D01*
X158407200Y-106833333D02*
X158359580Y-106785714D01*
X158359580Y-106785714D02*
X158264342Y-106738095D01*
X158264342Y-106738095D02*
X158073866Y-106738095D01*
X158073866Y-106738095D02*
X157978628Y-106785714D01*
X157978628Y-106785714D02*
X157931009Y-106833333D01*
X157931009Y-106833333D02*
X157883390Y-106928571D01*
X81763580Y-136294667D02*
X81811200Y-136342286D01*
X81811200Y-136342286D02*
X81858819Y-136485143D01*
X81858819Y-136485143D02*
X81858819Y-136580381D01*
X81858819Y-136580381D02*
X81811200Y-136723238D01*
X81811200Y-136723238D02*
X81715961Y-136818476D01*
X81715961Y-136818476D02*
X81620723Y-136866095D01*
X81620723Y-136866095D02*
X81430247Y-136913714D01*
X81430247Y-136913714D02*
X81287390Y-136913714D01*
X81287390Y-136913714D02*
X81096914Y-136866095D01*
X81096914Y-136866095D02*
X81001676Y-136818476D01*
X81001676Y-136818476D02*
X80906438Y-136723238D01*
X80906438Y-136723238D02*
X80858819Y-136580381D01*
X80858819Y-136580381D02*
X80858819Y-136485143D01*
X80858819Y-136485143D02*
X80906438Y-136342286D01*
X80906438Y-136342286D02*
X80954057Y-136294667D01*
X81192152Y-135437524D02*
X81858819Y-135437524D01*
X80811200Y-135675619D02*
X81525485Y-135913714D01*
X81525485Y-135913714D02*
X81525485Y-135294667D01*
X166654819Y-137620094D02*
X167464342Y-137620094D01*
X167464342Y-137620094D02*
X167559580Y-137572475D01*
X167559580Y-137572475D02*
X167607200Y-137524856D01*
X167607200Y-137524856D02*
X167654819Y-137429618D01*
X167654819Y-137429618D02*
X167654819Y-137239142D01*
X167654819Y-137239142D02*
X167607200Y-137143904D01*
X167607200Y-137143904D02*
X167559580Y-137096285D01*
X167559580Y-137096285D02*
X167464342Y-137048666D01*
X167464342Y-137048666D02*
X166654819Y-137048666D01*
X167654819Y-136048666D02*
X167654819Y-136620094D01*
X167654819Y-136334380D02*
X166654819Y-136334380D01*
X166654819Y-136334380D02*
X166797676Y-136429618D01*
X166797676Y-136429618D02*
X166892914Y-136524856D01*
X166892914Y-136524856D02*
X166940533Y-136620094D01*
X167654819Y-135096285D02*
X167654819Y-135667713D01*
X167654819Y-135381999D02*
X166654819Y-135381999D01*
X166654819Y-135381999D02*
X166797676Y-135477237D01*
X166797676Y-135477237D02*
X166892914Y-135572475D01*
X166892914Y-135572475D02*
X166940533Y-135667713D01*
X170611666Y-93387319D02*
X170611666Y-94101604D01*
X170611666Y-94101604D02*
X170564047Y-94244461D01*
X170564047Y-94244461D02*
X170468809Y-94339700D01*
X170468809Y-94339700D02*
X170325952Y-94387319D01*
X170325952Y-94387319D02*
X170230714Y-94387319D01*
X171516428Y-93720652D02*
X171516428Y-94387319D01*
X171278333Y-93339700D02*
X171040238Y-94053985D01*
X171040238Y-94053985D02*
X171659285Y-94053985D01*
X92454819Y-118214285D02*
X91454819Y-118214285D01*
X92454819Y-117642857D02*
X91883390Y-118071428D01*
X91454819Y-117642857D02*
X92026247Y-118214285D01*
X92454819Y-116690476D02*
X92454819Y-117261904D01*
X92454819Y-116976190D02*
X91454819Y-116976190D01*
X91454819Y-116976190D02*
X91597676Y-117071428D01*
X91597676Y-117071428D02*
X91692914Y-117166666D01*
X91692914Y-117166666D02*
X91740533Y-117261904D01*
X92454819Y-115738095D02*
X92454819Y-116309523D01*
X92454819Y-116023809D02*
X91454819Y-116023809D01*
X91454819Y-116023809D02*
X91597676Y-116119047D01*
X91597676Y-116119047D02*
X91692914Y-116214285D01*
X91692914Y-116214285D02*
X91740533Y-116309523D01*
X78654819Y-137143904D02*
X79464342Y-137143904D01*
X79464342Y-137143904D02*
X79559580Y-137096285D01*
X79559580Y-137096285D02*
X79607200Y-137048666D01*
X79607200Y-137048666D02*
X79654819Y-136953428D01*
X79654819Y-136953428D02*
X79654819Y-136762952D01*
X79654819Y-136762952D02*
X79607200Y-136667714D01*
X79607200Y-136667714D02*
X79559580Y-136620095D01*
X79559580Y-136620095D02*
X79464342Y-136572476D01*
X79464342Y-136572476D02*
X78654819Y-136572476D01*
X78654819Y-136191523D02*
X78654819Y-135572476D01*
X78654819Y-135572476D02*
X79035771Y-135905809D01*
X79035771Y-135905809D02*
X79035771Y-135762952D01*
X79035771Y-135762952D02*
X79083390Y-135667714D01*
X79083390Y-135667714D02*
X79131009Y-135620095D01*
X79131009Y-135620095D02*
X79226247Y-135572476D01*
X79226247Y-135572476D02*
X79464342Y-135572476D01*
X79464342Y-135572476D02*
X79559580Y-135620095D01*
X79559580Y-135620095D02*
X79607200Y-135667714D01*
X79607200Y-135667714D02*
X79654819Y-135762952D01*
X79654819Y-135762952D02*
X79654819Y-136048666D01*
X79654819Y-136048666D02*
X79607200Y-136143904D01*
X79607200Y-136143904D02*
X79559580Y-136191523D01*
X103454819Y-100214285D02*
X102454819Y-100214285D01*
X103454819Y-99642857D02*
X102883390Y-100071428D01*
X102454819Y-99642857D02*
X103026247Y-100214285D01*
X103454819Y-98690476D02*
X103454819Y-99261904D01*
X103454819Y-98976190D02*
X102454819Y-98976190D01*
X102454819Y-98976190D02*
X102597676Y-99071428D01*
X102597676Y-99071428D02*
X102692914Y-99166666D01*
X102692914Y-99166666D02*
X102740533Y-99261904D01*
X102454819Y-98357142D02*
X102454819Y-97690476D01*
X102454819Y-97690476D02*
X103454819Y-98119047D01*
X158454819Y-100214285D02*
X157454819Y-100214285D01*
X158454819Y-99642857D02*
X157883390Y-100071428D01*
X157454819Y-99642857D02*
X158026247Y-100214285D01*
X157454819Y-98738095D02*
X157454819Y-99214285D01*
X157454819Y-99214285D02*
X157931009Y-99261904D01*
X157931009Y-99261904D02*
X157883390Y-99214285D01*
X157883390Y-99214285D02*
X157835771Y-99119047D01*
X157835771Y-99119047D02*
X157835771Y-98880952D01*
X157835771Y-98880952D02*
X157883390Y-98785714D01*
X157883390Y-98785714D02*
X157931009Y-98738095D01*
X157931009Y-98738095D02*
X158026247Y-98690476D01*
X158026247Y-98690476D02*
X158264342Y-98690476D01*
X158264342Y-98690476D02*
X158359580Y-98738095D01*
X158359580Y-98738095D02*
X158407200Y-98785714D01*
X158407200Y-98785714D02*
X158454819Y-98880952D01*
X158454819Y-98880952D02*
X158454819Y-99119047D01*
X158454819Y-99119047D02*
X158407200Y-99214285D01*
X158407200Y-99214285D02*
X158359580Y-99261904D01*
X157454819Y-98357142D02*
X157454819Y-97690476D01*
X157454819Y-97690476D02*
X158454819Y-98119047D01*
X111654819Y-137143904D02*
X112464342Y-137143904D01*
X112464342Y-137143904D02*
X112559580Y-137096285D01*
X112559580Y-137096285D02*
X112607200Y-137048666D01*
X112607200Y-137048666D02*
X112654819Y-136953428D01*
X112654819Y-136953428D02*
X112654819Y-136762952D01*
X112654819Y-136762952D02*
X112607200Y-136667714D01*
X112607200Y-136667714D02*
X112559580Y-136620095D01*
X112559580Y-136620095D02*
X112464342Y-136572476D01*
X112464342Y-136572476D02*
X111654819Y-136572476D01*
X111654819Y-135667714D02*
X111654819Y-135858190D01*
X111654819Y-135858190D02*
X111702438Y-135953428D01*
X111702438Y-135953428D02*
X111750057Y-136001047D01*
X111750057Y-136001047D02*
X111892914Y-136096285D01*
X111892914Y-136096285D02*
X112083390Y-136143904D01*
X112083390Y-136143904D02*
X112464342Y-136143904D01*
X112464342Y-136143904D02*
X112559580Y-136096285D01*
X112559580Y-136096285D02*
X112607200Y-136048666D01*
X112607200Y-136048666D02*
X112654819Y-135953428D01*
X112654819Y-135953428D02*
X112654819Y-135762952D01*
X112654819Y-135762952D02*
X112607200Y-135667714D01*
X112607200Y-135667714D02*
X112559580Y-135620095D01*
X112559580Y-135620095D02*
X112464342Y-135572476D01*
X112464342Y-135572476D02*
X112226247Y-135572476D01*
X112226247Y-135572476D02*
X112131009Y-135620095D01*
X112131009Y-135620095D02*
X112083390Y-135667714D01*
X112083390Y-135667714D02*
X112035771Y-135762952D01*
X112035771Y-135762952D02*
X112035771Y-135953428D01*
X112035771Y-135953428D02*
X112083390Y-136048666D01*
X112083390Y-136048666D02*
X112131009Y-136096285D01*
X112131009Y-136096285D02*
X112226247Y-136143904D01*
X66454819Y-108833333D02*
X67169104Y-108833333D01*
X67169104Y-108833333D02*
X67311961Y-108880952D01*
X67311961Y-108880952D02*
X67407200Y-108976190D01*
X67407200Y-108976190D02*
X67454819Y-109119047D01*
X67454819Y-109119047D02*
X67454819Y-109214285D01*
X67454819Y-108357142D02*
X66454819Y-108357142D01*
X66454819Y-108357142D02*
X66454819Y-107976190D01*
X66454819Y-107976190D02*
X66502438Y-107880952D01*
X66502438Y-107880952D02*
X66550057Y-107833333D01*
X66550057Y-107833333D02*
X66645295Y-107785714D01*
X66645295Y-107785714D02*
X66788152Y-107785714D01*
X66788152Y-107785714D02*
X66883390Y-107833333D01*
X66883390Y-107833333D02*
X66931009Y-107880952D01*
X66931009Y-107880952D02*
X66978628Y-107976190D01*
X66978628Y-107976190D02*
X66978628Y-108357142D01*
X67454819Y-106833333D02*
X67454819Y-107404761D01*
X67454819Y-107119047D02*
X66454819Y-107119047D01*
X66454819Y-107119047D02*
X66597676Y-107214285D01*
X66597676Y-107214285D02*
X66692914Y-107309523D01*
X66692914Y-107309523D02*
X66740533Y-107404761D01*
X114454819Y-100214285D02*
X113454819Y-100214285D01*
X114454819Y-99642857D02*
X113883390Y-100071428D01*
X113454819Y-99642857D02*
X114026247Y-100214285D01*
X113550057Y-99261904D02*
X113502438Y-99214285D01*
X113502438Y-99214285D02*
X113454819Y-99119047D01*
X113454819Y-99119047D02*
X113454819Y-98880952D01*
X113454819Y-98880952D02*
X113502438Y-98785714D01*
X113502438Y-98785714D02*
X113550057Y-98738095D01*
X113550057Y-98738095D02*
X113645295Y-98690476D01*
X113645295Y-98690476D02*
X113740533Y-98690476D01*
X113740533Y-98690476D02*
X113883390Y-98738095D01*
X113883390Y-98738095D02*
X114454819Y-99309523D01*
X114454819Y-99309523D02*
X114454819Y-98690476D01*
X113454819Y-97785714D02*
X113454819Y-98261904D01*
X113454819Y-98261904D02*
X113931009Y-98309523D01*
X113931009Y-98309523D02*
X113883390Y-98261904D01*
X113883390Y-98261904D02*
X113835771Y-98166666D01*
X113835771Y-98166666D02*
X113835771Y-97928571D01*
X113835771Y-97928571D02*
X113883390Y-97833333D01*
X113883390Y-97833333D02*
X113931009Y-97785714D01*
X113931009Y-97785714D02*
X114026247Y-97738095D01*
X114026247Y-97738095D02*
X114264342Y-97738095D01*
X114264342Y-97738095D02*
X114359580Y-97785714D01*
X114359580Y-97785714D02*
X114407200Y-97833333D01*
X114407200Y-97833333D02*
X114454819Y-97928571D01*
X114454819Y-97928571D02*
X114454819Y-98166666D01*
X114454819Y-98166666D02*
X114407200Y-98261904D01*
X114407200Y-98261904D02*
X114359580Y-98309523D01*
X68952581Y-128303537D02*
X68619248Y-127827346D01*
X68381153Y-128303537D02*
X68381153Y-127303537D01*
X68381153Y-127303537D02*
X68762105Y-127303537D01*
X68762105Y-127303537D02*
X68857343Y-127351156D01*
X68857343Y-127351156D02*
X68904962Y-127398775D01*
X68904962Y-127398775D02*
X68952581Y-127494013D01*
X68952581Y-127494013D02*
X68952581Y-127636870D01*
X68952581Y-127636870D02*
X68904962Y-127732108D01*
X68904962Y-127732108D02*
X68857343Y-127779727D01*
X68857343Y-127779727D02*
X68762105Y-127827346D01*
X68762105Y-127827346D02*
X68381153Y-127827346D01*
X69285915Y-127303537D02*
X69904962Y-127303537D01*
X69904962Y-127303537D02*
X69571629Y-127684489D01*
X69571629Y-127684489D02*
X69714486Y-127684489D01*
X69714486Y-127684489D02*
X69809724Y-127732108D01*
X69809724Y-127732108D02*
X69857343Y-127779727D01*
X69857343Y-127779727D02*
X69904962Y-127874965D01*
X69904962Y-127874965D02*
X69904962Y-128113060D01*
X69904962Y-128113060D02*
X69857343Y-128208298D01*
X69857343Y-128208298D02*
X69809724Y-128255918D01*
X69809724Y-128255918D02*
X69714486Y-128303537D01*
X69714486Y-128303537D02*
X69428772Y-128303537D01*
X69428772Y-128303537D02*
X69333534Y-128255918D01*
X69333534Y-128255918D02*
X69285915Y-128208298D01*
X147763580Y-136770858D02*
X147811200Y-136818477D01*
X147811200Y-136818477D02*
X147858819Y-136961334D01*
X147858819Y-136961334D02*
X147858819Y-137056572D01*
X147858819Y-137056572D02*
X147811200Y-137199429D01*
X147811200Y-137199429D02*
X147715961Y-137294667D01*
X147715961Y-137294667D02*
X147620723Y-137342286D01*
X147620723Y-137342286D02*
X147430247Y-137389905D01*
X147430247Y-137389905D02*
X147287390Y-137389905D01*
X147287390Y-137389905D02*
X147096914Y-137342286D01*
X147096914Y-137342286D02*
X147001676Y-137294667D01*
X147001676Y-137294667D02*
X146906438Y-137199429D01*
X146906438Y-137199429D02*
X146858819Y-137056572D01*
X146858819Y-137056572D02*
X146858819Y-136961334D01*
X146858819Y-136961334D02*
X146906438Y-136818477D01*
X146906438Y-136818477D02*
X146954057Y-136770858D01*
X147858819Y-135818477D02*
X147858819Y-136389905D01*
X147858819Y-136104191D02*
X146858819Y-136104191D01*
X146858819Y-136104191D02*
X147001676Y-136199429D01*
X147001676Y-136199429D02*
X147096914Y-136294667D01*
X147096914Y-136294667D02*
X147144533Y-136389905D01*
X146858819Y-135199429D02*
X146858819Y-135104191D01*
X146858819Y-135104191D02*
X146906438Y-135008953D01*
X146906438Y-135008953D02*
X146954057Y-134961334D01*
X146954057Y-134961334D02*
X147049295Y-134913715D01*
X147049295Y-134913715D02*
X147239771Y-134866096D01*
X147239771Y-134866096D02*
X147477866Y-134866096D01*
X147477866Y-134866096D02*
X147668342Y-134913715D01*
X147668342Y-134913715D02*
X147763580Y-134961334D01*
X147763580Y-134961334D02*
X147811200Y-135008953D01*
X147811200Y-135008953D02*
X147858819Y-135104191D01*
X147858819Y-135104191D02*
X147858819Y-135199429D01*
X147858819Y-135199429D02*
X147811200Y-135294667D01*
X147811200Y-135294667D02*
X147763580Y-135342286D01*
X147763580Y-135342286D02*
X147668342Y-135389905D01*
X147668342Y-135389905D02*
X147477866Y-135437524D01*
X147477866Y-135437524D02*
X147239771Y-135437524D01*
X147239771Y-135437524D02*
X147049295Y-135389905D01*
X147049295Y-135389905D02*
X146954057Y-135342286D01*
X146954057Y-135342286D02*
X146906438Y-135294667D01*
X146906438Y-135294667D02*
X146858819Y-135199429D01*
X169454819Y-109214285D02*
X168454819Y-109214285D01*
X169454819Y-108642857D02*
X168883390Y-109071428D01*
X168454819Y-108642857D02*
X169026247Y-109214285D01*
X168454819Y-107785714D02*
X168454819Y-107976190D01*
X168454819Y-107976190D02*
X168502438Y-108071428D01*
X168502438Y-108071428D02*
X168550057Y-108119047D01*
X168550057Y-108119047D02*
X168692914Y-108214285D01*
X168692914Y-108214285D02*
X168883390Y-108261904D01*
X168883390Y-108261904D02*
X169264342Y-108261904D01*
X169264342Y-108261904D02*
X169359580Y-108214285D01*
X169359580Y-108214285D02*
X169407200Y-108166666D01*
X169407200Y-108166666D02*
X169454819Y-108071428D01*
X169454819Y-108071428D02*
X169454819Y-107880952D01*
X169454819Y-107880952D02*
X169407200Y-107785714D01*
X169407200Y-107785714D02*
X169359580Y-107738095D01*
X169359580Y-107738095D02*
X169264342Y-107690476D01*
X169264342Y-107690476D02*
X169026247Y-107690476D01*
X169026247Y-107690476D02*
X168931009Y-107738095D01*
X168931009Y-107738095D02*
X168883390Y-107785714D01*
X168883390Y-107785714D02*
X168835771Y-107880952D01*
X168835771Y-107880952D02*
X168835771Y-108071428D01*
X168835771Y-108071428D02*
X168883390Y-108166666D01*
X168883390Y-108166666D02*
X168931009Y-108214285D01*
X168931009Y-108214285D02*
X169026247Y-108261904D01*
X168454819Y-106833333D02*
X168454819Y-107023809D01*
X168454819Y-107023809D02*
X168502438Y-107119047D01*
X168502438Y-107119047D02*
X168550057Y-107166666D01*
X168550057Y-107166666D02*
X168692914Y-107261904D01*
X168692914Y-107261904D02*
X168883390Y-107309523D01*
X168883390Y-107309523D02*
X169264342Y-107309523D01*
X169264342Y-107309523D02*
X169359580Y-107261904D01*
X169359580Y-107261904D02*
X169407200Y-107214285D01*
X169407200Y-107214285D02*
X169454819Y-107119047D01*
X169454819Y-107119047D02*
X169454819Y-106928571D01*
X169454819Y-106928571D02*
X169407200Y-106833333D01*
X169407200Y-106833333D02*
X169359580Y-106785714D01*
X169359580Y-106785714D02*
X169264342Y-106738095D01*
X169264342Y-106738095D02*
X169026247Y-106738095D01*
X169026247Y-106738095D02*
X168931009Y-106785714D01*
X168931009Y-106785714D02*
X168883390Y-106833333D01*
X168883390Y-106833333D02*
X168835771Y-106928571D01*
X168835771Y-106928571D02*
X168835771Y-107119047D01*
X168835771Y-107119047D02*
X168883390Y-107214285D01*
X168883390Y-107214285D02*
X168931009Y-107261904D01*
X168931009Y-107261904D02*
X169026247Y-107309523D01*
X114454819Y-127214285D02*
X113454819Y-127214285D01*
X114454819Y-126642857D02*
X113883390Y-127071428D01*
X113454819Y-126642857D02*
X114026247Y-127214285D01*
X113550057Y-126261904D02*
X113502438Y-126214285D01*
X113502438Y-126214285D02*
X113454819Y-126119047D01*
X113454819Y-126119047D02*
X113454819Y-125880952D01*
X113454819Y-125880952D02*
X113502438Y-125785714D01*
X113502438Y-125785714D02*
X113550057Y-125738095D01*
X113550057Y-125738095D02*
X113645295Y-125690476D01*
X113645295Y-125690476D02*
X113740533Y-125690476D01*
X113740533Y-125690476D02*
X113883390Y-125738095D01*
X113883390Y-125738095D02*
X114454819Y-126309523D01*
X114454819Y-126309523D02*
X114454819Y-125690476D01*
X113883390Y-125119047D02*
X113835771Y-125214285D01*
X113835771Y-125214285D02*
X113788152Y-125261904D01*
X113788152Y-125261904D02*
X113692914Y-125309523D01*
X113692914Y-125309523D02*
X113645295Y-125309523D01*
X113645295Y-125309523D02*
X113550057Y-125261904D01*
X113550057Y-125261904D02*
X113502438Y-125214285D01*
X113502438Y-125214285D02*
X113454819Y-125119047D01*
X113454819Y-125119047D02*
X113454819Y-124928571D01*
X113454819Y-124928571D02*
X113502438Y-124833333D01*
X113502438Y-124833333D02*
X113550057Y-124785714D01*
X113550057Y-124785714D02*
X113645295Y-124738095D01*
X113645295Y-124738095D02*
X113692914Y-124738095D01*
X113692914Y-124738095D02*
X113788152Y-124785714D01*
X113788152Y-124785714D02*
X113835771Y-124833333D01*
X113835771Y-124833333D02*
X113883390Y-124928571D01*
X113883390Y-124928571D02*
X113883390Y-125119047D01*
X113883390Y-125119047D02*
X113931009Y-125214285D01*
X113931009Y-125214285D02*
X113978628Y-125261904D01*
X113978628Y-125261904D02*
X114073866Y-125309523D01*
X114073866Y-125309523D02*
X114264342Y-125309523D01*
X114264342Y-125309523D02*
X114359580Y-125261904D01*
X114359580Y-125261904D02*
X114407200Y-125214285D01*
X114407200Y-125214285D02*
X114454819Y-125119047D01*
X114454819Y-125119047D02*
X114454819Y-124928571D01*
X114454819Y-124928571D02*
X114407200Y-124833333D01*
X114407200Y-124833333D02*
X114359580Y-124785714D01*
X114359580Y-124785714D02*
X114264342Y-124738095D01*
X114264342Y-124738095D02*
X114073866Y-124738095D01*
X114073866Y-124738095D02*
X113978628Y-124785714D01*
X113978628Y-124785714D02*
X113931009Y-124833333D01*
X113931009Y-124833333D02*
X113883390Y-124928571D01*
X206454819Y-133666666D02*
X205978628Y-133999999D01*
X206454819Y-134238094D02*
X205454819Y-134238094D01*
X205454819Y-134238094D02*
X205454819Y-133857142D01*
X205454819Y-133857142D02*
X205502438Y-133761904D01*
X205502438Y-133761904D02*
X205550057Y-133714285D01*
X205550057Y-133714285D02*
X205645295Y-133666666D01*
X205645295Y-133666666D02*
X205788152Y-133666666D01*
X205788152Y-133666666D02*
X205883390Y-133714285D01*
X205883390Y-133714285D02*
X205931009Y-133761904D01*
X205931009Y-133761904D02*
X205978628Y-133857142D01*
X205978628Y-133857142D02*
X205978628Y-134238094D01*
X205454819Y-133333332D02*
X205454819Y-132666666D01*
X205454819Y-132666666D02*
X206454819Y-133095237D01*
X103763580Y-136294667D02*
X103811200Y-136342286D01*
X103811200Y-136342286D02*
X103858819Y-136485143D01*
X103858819Y-136485143D02*
X103858819Y-136580381D01*
X103858819Y-136580381D02*
X103811200Y-136723238D01*
X103811200Y-136723238D02*
X103715961Y-136818476D01*
X103715961Y-136818476D02*
X103620723Y-136866095D01*
X103620723Y-136866095D02*
X103430247Y-136913714D01*
X103430247Y-136913714D02*
X103287390Y-136913714D01*
X103287390Y-136913714D02*
X103096914Y-136866095D01*
X103096914Y-136866095D02*
X103001676Y-136818476D01*
X103001676Y-136818476D02*
X102906438Y-136723238D01*
X102906438Y-136723238D02*
X102858819Y-136580381D01*
X102858819Y-136580381D02*
X102858819Y-136485143D01*
X102858819Y-136485143D02*
X102906438Y-136342286D01*
X102906438Y-136342286D02*
X102954057Y-136294667D01*
X102858819Y-135437524D02*
X102858819Y-135628000D01*
X102858819Y-135628000D02*
X102906438Y-135723238D01*
X102906438Y-135723238D02*
X102954057Y-135770857D01*
X102954057Y-135770857D02*
X103096914Y-135866095D01*
X103096914Y-135866095D02*
X103287390Y-135913714D01*
X103287390Y-135913714D02*
X103668342Y-135913714D01*
X103668342Y-135913714D02*
X103763580Y-135866095D01*
X103763580Y-135866095D02*
X103811200Y-135818476D01*
X103811200Y-135818476D02*
X103858819Y-135723238D01*
X103858819Y-135723238D02*
X103858819Y-135532762D01*
X103858819Y-135532762D02*
X103811200Y-135437524D01*
X103811200Y-135437524D02*
X103763580Y-135389905D01*
X103763580Y-135389905D02*
X103668342Y-135342286D01*
X103668342Y-135342286D02*
X103430247Y-135342286D01*
X103430247Y-135342286D02*
X103335009Y-135389905D01*
X103335009Y-135389905D02*
X103287390Y-135437524D01*
X103287390Y-135437524D02*
X103239771Y-135532762D01*
X103239771Y-135532762D02*
X103239771Y-135723238D01*
X103239771Y-135723238D02*
X103287390Y-135818476D01*
X103287390Y-135818476D02*
X103335009Y-135866095D01*
X103335009Y-135866095D02*
X103430247Y-135913714D01*
X103454819Y-127214285D02*
X102454819Y-127214285D01*
X103454819Y-126642857D02*
X102883390Y-127071428D01*
X102454819Y-126642857D02*
X103026247Y-127214285D01*
X102550057Y-126261904D02*
X102502438Y-126214285D01*
X102502438Y-126214285D02*
X102454819Y-126119047D01*
X102454819Y-126119047D02*
X102454819Y-125880952D01*
X102454819Y-125880952D02*
X102502438Y-125785714D01*
X102502438Y-125785714D02*
X102550057Y-125738095D01*
X102550057Y-125738095D02*
X102645295Y-125690476D01*
X102645295Y-125690476D02*
X102740533Y-125690476D01*
X102740533Y-125690476D02*
X102883390Y-125738095D01*
X102883390Y-125738095D02*
X103454819Y-126309523D01*
X103454819Y-126309523D02*
X103454819Y-125690476D01*
X102454819Y-125071428D02*
X102454819Y-124976190D01*
X102454819Y-124976190D02*
X102502438Y-124880952D01*
X102502438Y-124880952D02*
X102550057Y-124833333D01*
X102550057Y-124833333D02*
X102645295Y-124785714D01*
X102645295Y-124785714D02*
X102835771Y-124738095D01*
X102835771Y-124738095D02*
X103073866Y-124738095D01*
X103073866Y-124738095D02*
X103264342Y-124785714D01*
X103264342Y-124785714D02*
X103359580Y-124833333D01*
X103359580Y-124833333D02*
X103407200Y-124880952D01*
X103407200Y-124880952D02*
X103454819Y-124976190D01*
X103454819Y-124976190D02*
X103454819Y-125071428D01*
X103454819Y-125071428D02*
X103407200Y-125166666D01*
X103407200Y-125166666D02*
X103359580Y-125214285D01*
X103359580Y-125214285D02*
X103264342Y-125261904D01*
X103264342Y-125261904D02*
X103073866Y-125309523D01*
X103073866Y-125309523D02*
X102835771Y-125309523D01*
X102835771Y-125309523D02*
X102645295Y-125261904D01*
X102645295Y-125261904D02*
X102550057Y-125214285D01*
X102550057Y-125214285D02*
X102502438Y-125166666D01*
X102502438Y-125166666D02*
X102454819Y-125071428D01*
X191454819Y-118214285D02*
X190454819Y-118214285D01*
X191454819Y-117642857D02*
X190883390Y-118071428D01*
X190454819Y-117642857D02*
X191026247Y-118214285D01*
X190883390Y-117071428D02*
X190835771Y-117166666D01*
X190835771Y-117166666D02*
X190788152Y-117214285D01*
X190788152Y-117214285D02*
X190692914Y-117261904D01*
X190692914Y-117261904D02*
X190645295Y-117261904D01*
X190645295Y-117261904D02*
X190550057Y-117214285D01*
X190550057Y-117214285D02*
X190502438Y-117166666D01*
X190502438Y-117166666D02*
X190454819Y-117071428D01*
X190454819Y-117071428D02*
X190454819Y-116880952D01*
X190454819Y-116880952D02*
X190502438Y-116785714D01*
X190502438Y-116785714D02*
X190550057Y-116738095D01*
X190550057Y-116738095D02*
X190645295Y-116690476D01*
X190645295Y-116690476D02*
X190692914Y-116690476D01*
X190692914Y-116690476D02*
X190788152Y-116738095D01*
X190788152Y-116738095D02*
X190835771Y-116785714D01*
X190835771Y-116785714D02*
X190883390Y-116880952D01*
X190883390Y-116880952D02*
X190883390Y-117071428D01*
X190883390Y-117071428D02*
X190931009Y-117166666D01*
X190931009Y-117166666D02*
X190978628Y-117214285D01*
X190978628Y-117214285D02*
X191073866Y-117261904D01*
X191073866Y-117261904D02*
X191264342Y-117261904D01*
X191264342Y-117261904D02*
X191359580Y-117214285D01*
X191359580Y-117214285D02*
X191407200Y-117166666D01*
X191407200Y-117166666D02*
X191454819Y-117071428D01*
X191454819Y-117071428D02*
X191454819Y-116880952D01*
X191454819Y-116880952D02*
X191407200Y-116785714D01*
X191407200Y-116785714D02*
X191359580Y-116738095D01*
X191359580Y-116738095D02*
X191264342Y-116690476D01*
X191264342Y-116690476D02*
X191073866Y-116690476D01*
X191073866Y-116690476D02*
X190978628Y-116738095D01*
X190978628Y-116738095D02*
X190931009Y-116785714D01*
X190931009Y-116785714D02*
X190883390Y-116880952D01*
X190454819Y-116357142D02*
X190454819Y-115738095D01*
X190454819Y-115738095D02*
X190835771Y-116071428D01*
X190835771Y-116071428D02*
X190835771Y-115928571D01*
X190835771Y-115928571D02*
X190883390Y-115833333D01*
X190883390Y-115833333D02*
X190931009Y-115785714D01*
X190931009Y-115785714D02*
X191026247Y-115738095D01*
X191026247Y-115738095D02*
X191264342Y-115738095D01*
X191264342Y-115738095D02*
X191359580Y-115785714D01*
X191359580Y-115785714D02*
X191407200Y-115833333D01*
X191407200Y-115833333D02*
X191454819Y-115928571D01*
X191454819Y-115928571D02*
X191454819Y-116214285D01*
X191454819Y-116214285D02*
X191407200Y-116309523D01*
X191407200Y-116309523D02*
X191359580Y-116357142D01*
X203454819Y-105833333D02*
X204169104Y-105833333D01*
X204169104Y-105833333D02*
X204311961Y-105880952D01*
X204311961Y-105880952D02*
X204407200Y-105976190D01*
X204407200Y-105976190D02*
X204454819Y-106119047D01*
X204454819Y-106119047D02*
X204454819Y-106214285D01*
X204454819Y-105357142D02*
X203454819Y-105357142D01*
X203454819Y-105357142D02*
X203454819Y-104976190D01*
X203454819Y-104976190D02*
X203502438Y-104880952D01*
X203502438Y-104880952D02*
X203550057Y-104833333D01*
X203550057Y-104833333D02*
X203645295Y-104785714D01*
X203645295Y-104785714D02*
X203788152Y-104785714D01*
X203788152Y-104785714D02*
X203883390Y-104833333D01*
X203883390Y-104833333D02*
X203931009Y-104880952D01*
X203931009Y-104880952D02*
X203978628Y-104976190D01*
X203978628Y-104976190D02*
X203978628Y-105357142D01*
X203454819Y-104452380D02*
X203454819Y-103833333D01*
X203454819Y-103833333D02*
X203835771Y-104166666D01*
X203835771Y-104166666D02*
X203835771Y-104023809D01*
X203835771Y-104023809D02*
X203883390Y-103928571D01*
X203883390Y-103928571D02*
X203931009Y-103880952D01*
X203931009Y-103880952D02*
X204026247Y-103833333D01*
X204026247Y-103833333D02*
X204264342Y-103833333D01*
X204264342Y-103833333D02*
X204359580Y-103880952D01*
X204359580Y-103880952D02*
X204407200Y-103928571D01*
X204407200Y-103928571D02*
X204454819Y-104023809D01*
X204454819Y-104023809D02*
X204454819Y-104309523D01*
X204454819Y-104309523D02*
X204407200Y-104404761D01*
X204407200Y-104404761D02*
X204359580Y-104452380D01*
X203238095Y-131454819D02*
X203238095Y-132264342D01*
X203238095Y-132264342D02*
X203285714Y-132359580D01*
X203285714Y-132359580D02*
X203333333Y-132407200D01*
X203333333Y-132407200D02*
X203428571Y-132454819D01*
X203428571Y-132454819D02*
X203619047Y-132454819D01*
X203619047Y-132454819D02*
X203714285Y-132407200D01*
X203714285Y-132407200D02*
X203761904Y-132359580D01*
X203761904Y-132359580D02*
X203809523Y-132264342D01*
X203809523Y-132264342D02*
X203809523Y-131454819D01*
X204238095Y-131550057D02*
X204285714Y-131502438D01*
X204285714Y-131502438D02*
X204380952Y-131454819D01*
X204380952Y-131454819D02*
X204619047Y-131454819D01*
X204619047Y-131454819D02*
X204714285Y-131502438D01*
X204714285Y-131502438D02*
X204761904Y-131550057D01*
X204761904Y-131550057D02*
X204809523Y-131645295D01*
X204809523Y-131645295D02*
X204809523Y-131740533D01*
X204809523Y-131740533D02*
X204761904Y-131883390D01*
X204761904Y-131883390D02*
X204190476Y-132454819D01*
X204190476Y-132454819D02*
X204809523Y-132454819D01*
X191763580Y-136770858D02*
X191811200Y-136818477D01*
X191811200Y-136818477D02*
X191858819Y-136961334D01*
X191858819Y-136961334D02*
X191858819Y-137056572D01*
X191858819Y-137056572D02*
X191811200Y-137199429D01*
X191811200Y-137199429D02*
X191715961Y-137294667D01*
X191715961Y-137294667D02*
X191620723Y-137342286D01*
X191620723Y-137342286D02*
X191430247Y-137389905D01*
X191430247Y-137389905D02*
X191287390Y-137389905D01*
X191287390Y-137389905D02*
X191096914Y-137342286D01*
X191096914Y-137342286D02*
X191001676Y-137294667D01*
X191001676Y-137294667D02*
X190906438Y-137199429D01*
X190906438Y-137199429D02*
X190858819Y-137056572D01*
X190858819Y-137056572D02*
X190858819Y-136961334D01*
X190858819Y-136961334D02*
X190906438Y-136818477D01*
X190906438Y-136818477D02*
X190954057Y-136770858D01*
X191858819Y-135818477D02*
X191858819Y-136389905D01*
X191858819Y-136104191D02*
X190858819Y-136104191D01*
X190858819Y-136104191D02*
X191001676Y-136199429D01*
X191001676Y-136199429D02*
X191096914Y-136294667D01*
X191096914Y-136294667D02*
X191144533Y-136389905D01*
X191192152Y-134961334D02*
X191858819Y-134961334D01*
X190811200Y-135199429D02*
X191525485Y-135437524D01*
X191525485Y-135437524D02*
X191525485Y-134818477D01*
X177654819Y-137620094D02*
X178464342Y-137620094D01*
X178464342Y-137620094D02*
X178559580Y-137572475D01*
X178559580Y-137572475D02*
X178607200Y-137524856D01*
X178607200Y-137524856D02*
X178654819Y-137429618D01*
X178654819Y-137429618D02*
X178654819Y-137239142D01*
X178654819Y-137239142D02*
X178607200Y-137143904D01*
X178607200Y-137143904D02*
X178559580Y-137096285D01*
X178559580Y-137096285D02*
X178464342Y-137048666D01*
X178464342Y-137048666D02*
X177654819Y-137048666D01*
X178654819Y-136048666D02*
X178654819Y-136620094D01*
X178654819Y-136334380D02*
X177654819Y-136334380D01*
X177654819Y-136334380D02*
X177797676Y-136429618D01*
X177797676Y-136429618D02*
X177892914Y-136524856D01*
X177892914Y-136524856D02*
X177940533Y-136620094D01*
X177750057Y-135667713D02*
X177702438Y-135620094D01*
X177702438Y-135620094D02*
X177654819Y-135524856D01*
X177654819Y-135524856D02*
X177654819Y-135286761D01*
X177654819Y-135286761D02*
X177702438Y-135191523D01*
X177702438Y-135191523D02*
X177750057Y-135143904D01*
X177750057Y-135143904D02*
X177845295Y-135096285D01*
X177845295Y-135096285D02*
X177940533Y-135096285D01*
X177940533Y-135096285D02*
X178083390Y-135143904D01*
X178083390Y-135143904D02*
X178654819Y-135715332D01*
X178654819Y-135715332D02*
X178654819Y-135096285D01*
X207454819Y-105833333D02*
X208169104Y-105833333D01*
X208169104Y-105833333D02*
X208311961Y-105880952D01*
X208311961Y-105880952D02*
X208407200Y-105976190D01*
X208407200Y-105976190D02*
X208454819Y-106119047D01*
X208454819Y-106119047D02*
X208454819Y-106214285D01*
X208454819Y-105357142D02*
X207454819Y-105357142D01*
X207454819Y-105357142D02*
X207454819Y-104976190D01*
X207454819Y-104976190D02*
X207502438Y-104880952D01*
X207502438Y-104880952D02*
X207550057Y-104833333D01*
X207550057Y-104833333D02*
X207645295Y-104785714D01*
X207645295Y-104785714D02*
X207788152Y-104785714D01*
X207788152Y-104785714D02*
X207883390Y-104833333D01*
X207883390Y-104833333D02*
X207931009Y-104880952D01*
X207931009Y-104880952D02*
X207978628Y-104976190D01*
X207978628Y-104976190D02*
X207978628Y-105357142D01*
X207788152Y-103928571D02*
X208454819Y-103928571D01*
X207407200Y-104166666D02*
X208121485Y-104404761D01*
X208121485Y-104404761D02*
X208121485Y-103785714D01*
X169454819Y-118214285D02*
X168454819Y-118214285D01*
X169454819Y-117642857D02*
X168883390Y-118071428D01*
X168454819Y-117642857D02*
X169026247Y-118214285D01*
X168454819Y-116785714D02*
X168454819Y-116976190D01*
X168454819Y-116976190D02*
X168502438Y-117071428D01*
X168502438Y-117071428D02*
X168550057Y-117119047D01*
X168550057Y-117119047D02*
X168692914Y-117214285D01*
X168692914Y-117214285D02*
X168883390Y-117261904D01*
X168883390Y-117261904D02*
X169264342Y-117261904D01*
X169264342Y-117261904D02*
X169359580Y-117214285D01*
X169359580Y-117214285D02*
X169407200Y-117166666D01*
X169407200Y-117166666D02*
X169454819Y-117071428D01*
X169454819Y-117071428D02*
X169454819Y-116880952D01*
X169454819Y-116880952D02*
X169407200Y-116785714D01*
X169407200Y-116785714D02*
X169359580Y-116738095D01*
X169359580Y-116738095D02*
X169264342Y-116690476D01*
X169264342Y-116690476D02*
X169026247Y-116690476D01*
X169026247Y-116690476D02*
X168931009Y-116738095D01*
X168931009Y-116738095D02*
X168883390Y-116785714D01*
X168883390Y-116785714D02*
X168835771Y-116880952D01*
X168835771Y-116880952D02*
X168835771Y-117071428D01*
X168835771Y-117071428D02*
X168883390Y-117166666D01*
X168883390Y-117166666D02*
X168931009Y-117214285D01*
X168931009Y-117214285D02*
X169026247Y-117261904D01*
X168454819Y-116357142D02*
X168454819Y-115690476D01*
X168454819Y-115690476D02*
X169454819Y-116119047D01*
X68249046Y-134127141D02*
X68963331Y-134127141D01*
X68963331Y-134127141D02*
X69106188Y-134174760D01*
X69106188Y-134174760D02*
X69201427Y-134269998D01*
X69201427Y-134269998D02*
X69249046Y-134412855D01*
X69249046Y-134412855D02*
X69249046Y-134508093D01*
X69249046Y-133650950D02*
X68249046Y-133650950D01*
X68249046Y-133650950D02*
X68249046Y-133269998D01*
X68249046Y-133269998D02*
X68296665Y-133174760D01*
X68296665Y-133174760D02*
X68344284Y-133127141D01*
X68344284Y-133127141D02*
X68439522Y-133079522D01*
X68439522Y-133079522D02*
X68582379Y-133079522D01*
X68582379Y-133079522D02*
X68677617Y-133127141D01*
X68677617Y-133127141D02*
X68725236Y-133174760D01*
X68725236Y-133174760D02*
X68772855Y-133269998D01*
X68772855Y-133269998D02*
X68772855Y-133650950D01*
X68249046Y-132174760D02*
X68249046Y-132650950D01*
X68249046Y-132650950D02*
X68725236Y-132698569D01*
X68725236Y-132698569D02*
X68677617Y-132650950D01*
X68677617Y-132650950D02*
X68629998Y-132555712D01*
X68629998Y-132555712D02*
X68629998Y-132317617D01*
X68629998Y-132317617D02*
X68677617Y-132222379D01*
X68677617Y-132222379D02*
X68725236Y-132174760D01*
X68725236Y-132174760D02*
X68820474Y-132127141D01*
X68820474Y-132127141D02*
X69058569Y-132127141D01*
X69058569Y-132127141D02*
X69153807Y-132174760D01*
X69153807Y-132174760D02*
X69201427Y-132222379D01*
X69201427Y-132222379D02*
X69249046Y-132317617D01*
X69249046Y-132317617D02*
X69249046Y-132555712D01*
X69249046Y-132555712D02*
X69201427Y-132650950D01*
X69201427Y-132650950D02*
X69153807Y-132698569D01*
X208004819Y-133666666D02*
X207528628Y-133999999D01*
X208004819Y-134238094D02*
X207004819Y-134238094D01*
X207004819Y-134238094D02*
X207004819Y-133857142D01*
X207004819Y-133857142D02*
X207052438Y-133761904D01*
X207052438Y-133761904D02*
X207100057Y-133714285D01*
X207100057Y-133714285D02*
X207195295Y-133666666D01*
X207195295Y-133666666D02*
X207338152Y-133666666D01*
X207338152Y-133666666D02*
X207433390Y-133714285D01*
X207433390Y-133714285D02*
X207481009Y-133761904D01*
X207481009Y-133761904D02*
X207528628Y-133857142D01*
X207528628Y-133857142D02*
X207528628Y-134238094D01*
X208004819Y-132714285D02*
X208004819Y-133285713D01*
X208004819Y-132999999D02*
X207004819Y-132999999D01*
X207004819Y-132999999D02*
X207147676Y-133095237D01*
X207147676Y-133095237D02*
X207242914Y-133190475D01*
X207242914Y-133190475D02*
X207290533Y-133285713D01*
X103454819Y-109214285D02*
X102454819Y-109214285D01*
X103454819Y-108642857D02*
X102883390Y-109071428D01*
X102454819Y-108642857D02*
X103026247Y-109214285D01*
X103454819Y-107690476D02*
X103454819Y-108261904D01*
X103454819Y-107976190D02*
X102454819Y-107976190D01*
X102454819Y-107976190D02*
X102597676Y-108071428D01*
X102597676Y-108071428D02*
X102692914Y-108166666D01*
X102692914Y-108166666D02*
X102740533Y-108261904D01*
X102883390Y-107119047D02*
X102835771Y-107214285D01*
X102835771Y-107214285D02*
X102788152Y-107261904D01*
X102788152Y-107261904D02*
X102692914Y-107309523D01*
X102692914Y-107309523D02*
X102645295Y-107309523D01*
X102645295Y-107309523D02*
X102550057Y-107261904D01*
X102550057Y-107261904D02*
X102502438Y-107214285D01*
X102502438Y-107214285D02*
X102454819Y-107119047D01*
X102454819Y-107119047D02*
X102454819Y-106928571D01*
X102454819Y-106928571D02*
X102502438Y-106833333D01*
X102502438Y-106833333D02*
X102550057Y-106785714D01*
X102550057Y-106785714D02*
X102645295Y-106738095D01*
X102645295Y-106738095D02*
X102692914Y-106738095D01*
X102692914Y-106738095D02*
X102788152Y-106785714D01*
X102788152Y-106785714D02*
X102835771Y-106833333D01*
X102835771Y-106833333D02*
X102883390Y-106928571D01*
X102883390Y-106928571D02*
X102883390Y-107119047D01*
X102883390Y-107119047D02*
X102931009Y-107214285D01*
X102931009Y-107214285D02*
X102978628Y-107261904D01*
X102978628Y-107261904D02*
X103073866Y-107309523D01*
X103073866Y-107309523D02*
X103264342Y-107309523D01*
X103264342Y-107309523D02*
X103359580Y-107261904D01*
X103359580Y-107261904D02*
X103407200Y-107214285D01*
X103407200Y-107214285D02*
X103454819Y-107119047D01*
X103454819Y-107119047D02*
X103454819Y-106928571D01*
X103454819Y-106928571D02*
X103407200Y-106833333D01*
X103407200Y-106833333D02*
X103359580Y-106785714D01*
X103359580Y-106785714D02*
X103264342Y-106738095D01*
X103264342Y-106738095D02*
X103073866Y-106738095D01*
X103073866Y-106738095D02*
X102978628Y-106785714D01*
X102978628Y-106785714D02*
X102931009Y-106833333D01*
X102931009Y-106833333D02*
X102883390Y-106928571D01*
X210738095Y-137754819D02*
X210738095Y-136754819D01*
X210738095Y-137231009D02*
X211309523Y-137231009D01*
X211309523Y-137754819D02*
X211309523Y-136754819D01*
X211690476Y-136754819D02*
X212309523Y-136754819D01*
X212309523Y-136754819D02*
X211976190Y-137135771D01*
X211976190Y-137135771D02*
X212119047Y-137135771D01*
X212119047Y-137135771D02*
X212214285Y-137183390D01*
X212214285Y-137183390D02*
X212261904Y-137231009D01*
X212261904Y-137231009D02*
X212309523Y-137326247D01*
X212309523Y-137326247D02*
X212309523Y-137564342D01*
X212309523Y-137564342D02*
X212261904Y-137659580D01*
X212261904Y-137659580D02*
X212214285Y-137707200D01*
X212214285Y-137707200D02*
X212119047Y-137754819D01*
X212119047Y-137754819D02*
X211833333Y-137754819D01*
X211833333Y-137754819D02*
X211738095Y-137707200D01*
X211738095Y-137707200D02*
X211690476Y-137659580D01*
X191454819Y-100214285D02*
X190454819Y-100214285D01*
X191454819Y-99642857D02*
X190883390Y-100071428D01*
X190454819Y-99642857D02*
X191026247Y-100214285D01*
X190883390Y-99071428D02*
X190835771Y-99166666D01*
X190835771Y-99166666D02*
X190788152Y-99214285D01*
X190788152Y-99214285D02*
X190692914Y-99261904D01*
X190692914Y-99261904D02*
X190645295Y-99261904D01*
X190645295Y-99261904D02*
X190550057Y-99214285D01*
X190550057Y-99214285D02*
X190502438Y-99166666D01*
X190502438Y-99166666D02*
X190454819Y-99071428D01*
X190454819Y-99071428D02*
X190454819Y-98880952D01*
X190454819Y-98880952D02*
X190502438Y-98785714D01*
X190502438Y-98785714D02*
X190550057Y-98738095D01*
X190550057Y-98738095D02*
X190645295Y-98690476D01*
X190645295Y-98690476D02*
X190692914Y-98690476D01*
X190692914Y-98690476D02*
X190788152Y-98738095D01*
X190788152Y-98738095D02*
X190835771Y-98785714D01*
X190835771Y-98785714D02*
X190883390Y-98880952D01*
X190883390Y-98880952D02*
X190883390Y-99071428D01*
X190883390Y-99071428D02*
X190931009Y-99166666D01*
X190931009Y-99166666D02*
X190978628Y-99214285D01*
X190978628Y-99214285D02*
X191073866Y-99261904D01*
X191073866Y-99261904D02*
X191264342Y-99261904D01*
X191264342Y-99261904D02*
X191359580Y-99214285D01*
X191359580Y-99214285D02*
X191407200Y-99166666D01*
X191407200Y-99166666D02*
X191454819Y-99071428D01*
X191454819Y-99071428D02*
X191454819Y-98880952D01*
X191454819Y-98880952D02*
X191407200Y-98785714D01*
X191407200Y-98785714D02*
X191359580Y-98738095D01*
X191359580Y-98738095D02*
X191264342Y-98690476D01*
X191264342Y-98690476D02*
X191073866Y-98690476D01*
X191073866Y-98690476D02*
X190978628Y-98738095D01*
X190978628Y-98738095D02*
X190931009Y-98785714D01*
X190931009Y-98785714D02*
X190883390Y-98880952D01*
X191454819Y-97738095D02*
X191454819Y-98309523D01*
X191454819Y-98023809D02*
X190454819Y-98023809D01*
X190454819Y-98023809D02*
X190597676Y-98119047D01*
X190597676Y-98119047D02*
X190692914Y-98214285D01*
X190692914Y-98214285D02*
X190740533Y-98309523D01*
X125454819Y-127214285D02*
X124454819Y-127214285D01*
X125454819Y-126642857D02*
X124883390Y-127071428D01*
X124454819Y-126642857D02*
X125026247Y-127214285D01*
X124454819Y-126309523D02*
X124454819Y-125690476D01*
X124454819Y-125690476D02*
X124835771Y-126023809D01*
X124835771Y-126023809D02*
X124835771Y-125880952D01*
X124835771Y-125880952D02*
X124883390Y-125785714D01*
X124883390Y-125785714D02*
X124931009Y-125738095D01*
X124931009Y-125738095D02*
X125026247Y-125690476D01*
X125026247Y-125690476D02*
X125264342Y-125690476D01*
X125264342Y-125690476D02*
X125359580Y-125738095D01*
X125359580Y-125738095D02*
X125407200Y-125785714D01*
X125407200Y-125785714D02*
X125454819Y-125880952D01*
X125454819Y-125880952D02*
X125454819Y-126166666D01*
X125454819Y-126166666D02*
X125407200Y-126261904D01*
X125407200Y-126261904D02*
X125359580Y-126309523D01*
X124454819Y-124833333D02*
X124454819Y-125023809D01*
X124454819Y-125023809D02*
X124502438Y-125119047D01*
X124502438Y-125119047D02*
X124550057Y-125166666D01*
X124550057Y-125166666D02*
X124692914Y-125261904D01*
X124692914Y-125261904D02*
X124883390Y-125309523D01*
X124883390Y-125309523D02*
X125264342Y-125309523D01*
X125264342Y-125309523D02*
X125359580Y-125261904D01*
X125359580Y-125261904D02*
X125407200Y-125214285D01*
X125407200Y-125214285D02*
X125454819Y-125119047D01*
X125454819Y-125119047D02*
X125454819Y-124928571D01*
X125454819Y-124928571D02*
X125407200Y-124833333D01*
X125407200Y-124833333D02*
X125359580Y-124785714D01*
X125359580Y-124785714D02*
X125264342Y-124738095D01*
X125264342Y-124738095D02*
X125026247Y-124738095D01*
X125026247Y-124738095D02*
X124931009Y-124785714D01*
X124931009Y-124785714D02*
X124883390Y-124833333D01*
X124883390Y-124833333D02*
X124835771Y-124928571D01*
X124835771Y-124928571D02*
X124835771Y-125119047D01*
X124835771Y-125119047D02*
X124883390Y-125214285D01*
X124883390Y-125214285D02*
X124931009Y-125261904D01*
X124931009Y-125261904D02*
X125026247Y-125309523D01*
X69008333Y-125454819D02*
X68675000Y-124978628D01*
X68436905Y-125454819D02*
X68436905Y-124454819D01*
X68436905Y-124454819D02*
X68817857Y-124454819D01*
X68817857Y-124454819D02*
X68913095Y-124502438D01*
X68913095Y-124502438D02*
X68960714Y-124550057D01*
X68960714Y-124550057D02*
X69008333Y-124645295D01*
X69008333Y-124645295D02*
X69008333Y-124788152D01*
X69008333Y-124788152D02*
X68960714Y-124883390D01*
X68960714Y-124883390D02*
X68913095Y-124931009D01*
X68913095Y-124931009D02*
X68817857Y-124978628D01*
X68817857Y-124978628D02*
X68436905Y-124978628D01*
X69865476Y-124454819D02*
X69675000Y-124454819D01*
X69675000Y-124454819D02*
X69579762Y-124502438D01*
X69579762Y-124502438D02*
X69532143Y-124550057D01*
X69532143Y-124550057D02*
X69436905Y-124692914D01*
X69436905Y-124692914D02*
X69389286Y-124883390D01*
X69389286Y-124883390D02*
X69389286Y-125264342D01*
X69389286Y-125264342D02*
X69436905Y-125359580D01*
X69436905Y-125359580D02*
X69484524Y-125407200D01*
X69484524Y-125407200D02*
X69579762Y-125454819D01*
X69579762Y-125454819D02*
X69770238Y-125454819D01*
X69770238Y-125454819D02*
X69865476Y-125407200D01*
X69865476Y-125407200D02*
X69913095Y-125359580D01*
X69913095Y-125359580D02*
X69960714Y-125264342D01*
X69960714Y-125264342D02*
X69960714Y-125026247D01*
X69960714Y-125026247D02*
X69913095Y-124931009D01*
X69913095Y-124931009D02*
X69865476Y-124883390D01*
X69865476Y-124883390D02*
X69770238Y-124835771D01*
X69770238Y-124835771D02*
X69579762Y-124835771D01*
X69579762Y-124835771D02*
X69484524Y-124883390D01*
X69484524Y-124883390D02*
X69436905Y-124931009D01*
X69436905Y-124931009D02*
X69389286Y-125026247D01*
X133654819Y-137143904D02*
X134464342Y-137143904D01*
X134464342Y-137143904D02*
X134559580Y-137096285D01*
X134559580Y-137096285D02*
X134607200Y-137048666D01*
X134607200Y-137048666D02*
X134654819Y-136953428D01*
X134654819Y-136953428D02*
X134654819Y-136762952D01*
X134654819Y-136762952D02*
X134607200Y-136667714D01*
X134607200Y-136667714D02*
X134559580Y-136620095D01*
X134559580Y-136620095D02*
X134464342Y-136572476D01*
X134464342Y-136572476D02*
X133654819Y-136572476D01*
X134083390Y-135953428D02*
X134035771Y-136048666D01*
X134035771Y-136048666D02*
X133988152Y-136096285D01*
X133988152Y-136096285D02*
X133892914Y-136143904D01*
X133892914Y-136143904D02*
X133845295Y-136143904D01*
X133845295Y-136143904D02*
X133750057Y-136096285D01*
X133750057Y-136096285D02*
X133702438Y-136048666D01*
X133702438Y-136048666D02*
X133654819Y-135953428D01*
X133654819Y-135953428D02*
X133654819Y-135762952D01*
X133654819Y-135762952D02*
X133702438Y-135667714D01*
X133702438Y-135667714D02*
X133750057Y-135620095D01*
X133750057Y-135620095D02*
X133845295Y-135572476D01*
X133845295Y-135572476D02*
X133892914Y-135572476D01*
X133892914Y-135572476D02*
X133988152Y-135620095D01*
X133988152Y-135620095D02*
X134035771Y-135667714D01*
X134035771Y-135667714D02*
X134083390Y-135762952D01*
X134083390Y-135762952D02*
X134083390Y-135953428D01*
X134083390Y-135953428D02*
X134131009Y-136048666D01*
X134131009Y-136048666D02*
X134178628Y-136096285D01*
X134178628Y-136096285D02*
X134273866Y-136143904D01*
X134273866Y-136143904D02*
X134464342Y-136143904D01*
X134464342Y-136143904D02*
X134559580Y-136096285D01*
X134559580Y-136096285D02*
X134607200Y-136048666D01*
X134607200Y-136048666D02*
X134654819Y-135953428D01*
X134654819Y-135953428D02*
X134654819Y-135762952D01*
X134654819Y-135762952D02*
X134607200Y-135667714D01*
X134607200Y-135667714D02*
X134559580Y-135620095D01*
X134559580Y-135620095D02*
X134464342Y-135572476D01*
X134464342Y-135572476D02*
X134273866Y-135572476D01*
X134273866Y-135572476D02*
X134178628Y-135620095D01*
X134178628Y-135620095D02*
X134131009Y-135667714D01*
X134131009Y-135667714D02*
X134083390Y-135762952D01*
X180454819Y-100214285D02*
X179454819Y-100214285D01*
X180454819Y-99642857D02*
X179883390Y-100071428D01*
X179454819Y-99642857D02*
X180026247Y-100214285D01*
X179454819Y-99309523D02*
X179454819Y-98642857D01*
X179454819Y-98642857D02*
X180454819Y-99071428D01*
X179454819Y-98357142D02*
X179454819Y-97738095D01*
X179454819Y-97738095D02*
X179835771Y-98071428D01*
X179835771Y-98071428D02*
X179835771Y-97928571D01*
X179835771Y-97928571D02*
X179883390Y-97833333D01*
X179883390Y-97833333D02*
X179931009Y-97785714D01*
X179931009Y-97785714D02*
X180026247Y-97738095D01*
X180026247Y-97738095D02*
X180264342Y-97738095D01*
X180264342Y-97738095D02*
X180359580Y-97785714D01*
X180359580Y-97785714D02*
X180407200Y-97833333D01*
X180407200Y-97833333D02*
X180454819Y-97928571D01*
X180454819Y-97928571D02*
X180454819Y-98214285D01*
X180454819Y-98214285D02*
X180407200Y-98309523D01*
X180407200Y-98309523D02*
X180359580Y-98357142D01*
X136763580Y-136294667D02*
X136811200Y-136342286D01*
X136811200Y-136342286D02*
X136858819Y-136485143D01*
X136858819Y-136485143D02*
X136858819Y-136580381D01*
X136858819Y-136580381D02*
X136811200Y-136723238D01*
X136811200Y-136723238D02*
X136715961Y-136818476D01*
X136715961Y-136818476D02*
X136620723Y-136866095D01*
X136620723Y-136866095D02*
X136430247Y-136913714D01*
X136430247Y-136913714D02*
X136287390Y-136913714D01*
X136287390Y-136913714D02*
X136096914Y-136866095D01*
X136096914Y-136866095D02*
X136001676Y-136818476D01*
X136001676Y-136818476D02*
X135906438Y-136723238D01*
X135906438Y-136723238D02*
X135858819Y-136580381D01*
X135858819Y-136580381D02*
X135858819Y-136485143D01*
X135858819Y-136485143D02*
X135906438Y-136342286D01*
X135906438Y-136342286D02*
X135954057Y-136294667D01*
X136858819Y-135818476D02*
X136858819Y-135628000D01*
X136858819Y-135628000D02*
X136811200Y-135532762D01*
X136811200Y-135532762D02*
X136763580Y-135485143D01*
X136763580Y-135485143D02*
X136620723Y-135389905D01*
X136620723Y-135389905D02*
X136430247Y-135342286D01*
X136430247Y-135342286D02*
X136049295Y-135342286D01*
X136049295Y-135342286D02*
X135954057Y-135389905D01*
X135954057Y-135389905D02*
X135906438Y-135437524D01*
X135906438Y-135437524D02*
X135858819Y-135532762D01*
X135858819Y-135532762D02*
X135858819Y-135723238D01*
X135858819Y-135723238D02*
X135906438Y-135818476D01*
X135906438Y-135818476D02*
X135954057Y-135866095D01*
X135954057Y-135866095D02*
X136049295Y-135913714D01*
X136049295Y-135913714D02*
X136287390Y-135913714D01*
X136287390Y-135913714D02*
X136382628Y-135866095D01*
X136382628Y-135866095D02*
X136430247Y-135818476D01*
X136430247Y-135818476D02*
X136477866Y-135723238D01*
X136477866Y-135723238D02*
X136477866Y-135532762D01*
X136477866Y-135532762D02*
X136430247Y-135437524D01*
X136430247Y-135437524D02*
X136382628Y-135389905D01*
X136382628Y-135389905D02*
X136287390Y-135342286D01*
X155654819Y-137620094D02*
X156464342Y-137620094D01*
X156464342Y-137620094D02*
X156559580Y-137572475D01*
X156559580Y-137572475D02*
X156607200Y-137524856D01*
X156607200Y-137524856D02*
X156654819Y-137429618D01*
X156654819Y-137429618D02*
X156654819Y-137239142D01*
X156654819Y-137239142D02*
X156607200Y-137143904D01*
X156607200Y-137143904D02*
X156559580Y-137096285D01*
X156559580Y-137096285D02*
X156464342Y-137048666D01*
X156464342Y-137048666D02*
X155654819Y-137048666D01*
X156654819Y-136048666D02*
X156654819Y-136620094D01*
X156654819Y-136334380D02*
X155654819Y-136334380D01*
X155654819Y-136334380D02*
X155797676Y-136429618D01*
X155797676Y-136429618D02*
X155892914Y-136524856D01*
X155892914Y-136524856D02*
X155940533Y-136620094D01*
X155654819Y-135429618D02*
X155654819Y-135334380D01*
X155654819Y-135334380D02*
X155702438Y-135239142D01*
X155702438Y-135239142D02*
X155750057Y-135191523D01*
X155750057Y-135191523D02*
X155845295Y-135143904D01*
X155845295Y-135143904D02*
X156035771Y-135096285D01*
X156035771Y-135096285D02*
X156273866Y-135096285D01*
X156273866Y-135096285D02*
X156464342Y-135143904D01*
X156464342Y-135143904D02*
X156559580Y-135191523D01*
X156559580Y-135191523D02*
X156607200Y-135239142D01*
X156607200Y-135239142D02*
X156654819Y-135334380D01*
X156654819Y-135334380D02*
X156654819Y-135429618D01*
X156654819Y-135429618D02*
X156607200Y-135524856D01*
X156607200Y-135524856D02*
X156559580Y-135572475D01*
X156559580Y-135572475D02*
X156464342Y-135620094D01*
X156464342Y-135620094D02*
X156273866Y-135667713D01*
X156273866Y-135667713D02*
X156035771Y-135667713D01*
X156035771Y-135667713D02*
X155845295Y-135620094D01*
X155845295Y-135620094D02*
X155750057Y-135572475D01*
X155750057Y-135572475D02*
X155702438Y-135524856D01*
X155702438Y-135524856D02*
X155654819Y-135429618D01*
X114763580Y-136294667D02*
X114811200Y-136342286D01*
X114811200Y-136342286D02*
X114858819Y-136485143D01*
X114858819Y-136485143D02*
X114858819Y-136580381D01*
X114858819Y-136580381D02*
X114811200Y-136723238D01*
X114811200Y-136723238D02*
X114715961Y-136818476D01*
X114715961Y-136818476D02*
X114620723Y-136866095D01*
X114620723Y-136866095D02*
X114430247Y-136913714D01*
X114430247Y-136913714D02*
X114287390Y-136913714D01*
X114287390Y-136913714D02*
X114096914Y-136866095D01*
X114096914Y-136866095D02*
X114001676Y-136818476D01*
X114001676Y-136818476D02*
X113906438Y-136723238D01*
X113906438Y-136723238D02*
X113858819Y-136580381D01*
X113858819Y-136580381D02*
X113858819Y-136485143D01*
X113858819Y-136485143D02*
X113906438Y-136342286D01*
X113906438Y-136342286D02*
X113954057Y-136294667D01*
X113858819Y-135961333D02*
X113858819Y-135294667D01*
X113858819Y-135294667D02*
X114858819Y-135723238D01*
X180763580Y-136770858D02*
X180811200Y-136818477D01*
X180811200Y-136818477D02*
X180858819Y-136961334D01*
X180858819Y-136961334D02*
X180858819Y-137056572D01*
X180858819Y-137056572D02*
X180811200Y-137199429D01*
X180811200Y-137199429D02*
X180715961Y-137294667D01*
X180715961Y-137294667D02*
X180620723Y-137342286D01*
X180620723Y-137342286D02*
X180430247Y-137389905D01*
X180430247Y-137389905D02*
X180287390Y-137389905D01*
X180287390Y-137389905D02*
X180096914Y-137342286D01*
X180096914Y-137342286D02*
X180001676Y-137294667D01*
X180001676Y-137294667D02*
X179906438Y-137199429D01*
X179906438Y-137199429D02*
X179858819Y-137056572D01*
X179858819Y-137056572D02*
X179858819Y-136961334D01*
X179858819Y-136961334D02*
X179906438Y-136818477D01*
X179906438Y-136818477D02*
X179954057Y-136770858D01*
X180858819Y-135818477D02*
X180858819Y-136389905D01*
X180858819Y-136104191D02*
X179858819Y-136104191D01*
X179858819Y-136104191D02*
X180001676Y-136199429D01*
X180001676Y-136199429D02*
X180096914Y-136294667D01*
X180096914Y-136294667D02*
X180144533Y-136389905D01*
X179858819Y-135485143D02*
X179858819Y-134866096D01*
X179858819Y-134866096D02*
X180239771Y-135199429D01*
X180239771Y-135199429D02*
X180239771Y-135056572D01*
X180239771Y-135056572D02*
X180287390Y-134961334D01*
X180287390Y-134961334D02*
X180335009Y-134913715D01*
X180335009Y-134913715D02*
X180430247Y-134866096D01*
X180430247Y-134866096D02*
X180668342Y-134866096D01*
X180668342Y-134866096D02*
X180763580Y-134913715D01*
X180763580Y-134913715D02*
X180811200Y-134961334D01*
X180811200Y-134961334D02*
X180858819Y-135056572D01*
X180858819Y-135056572D02*
X180858819Y-135342286D01*
X180858819Y-135342286D02*
X180811200Y-135437524D01*
X180811200Y-135437524D02*
X180763580Y-135485143D01*
X191454819Y-109214285D02*
X190454819Y-109214285D01*
X191454819Y-108642857D02*
X190883390Y-109071428D01*
X190454819Y-108642857D02*
X191026247Y-109214285D01*
X190883390Y-108071428D02*
X190835771Y-108166666D01*
X190835771Y-108166666D02*
X190788152Y-108214285D01*
X190788152Y-108214285D02*
X190692914Y-108261904D01*
X190692914Y-108261904D02*
X190645295Y-108261904D01*
X190645295Y-108261904D02*
X190550057Y-108214285D01*
X190550057Y-108214285D02*
X190502438Y-108166666D01*
X190502438Y-108166666D02*
X190454819Y-108071428D01*
X190454819Y-108071428D02*
X190454819Y-107880952D01*
X190454819Y-107880952D02*
X190502438Y-107785714D01*
X190502438Y-107785714D02*
X190550057Y-107738095D01*
X190550057Y-107738095D02*
X190645295Y-107690476D01*
X190645295Y-107690476D02*
X190692914Y-107690476D01*
X190692914Y-107690476D02*
X190788152Y-107738095D01*
X190788152Y-107738095D02*
X190835771Y-107785714D01*
X190835771Y-107785714D02*
X190883390Y-107880952D01*
X190883390Y-107880952D02*
X190883390Y-108071428D01*
X190883390Y-108071428D02*
X190931009Y-108166666D01*
X190931009Y-108166666D02*
X190978628Y-108214285D01*
X190978628Y-108214285D02*
X191073866Y-108261904D01*
X191073866Y-108261904D02*
X191264342Y-108261904D01*
X191264342Y-108261904D02*
X191359580Y-108214285D01*
X191359580Y-108214285D02*
X191407200Y-108166666D01*
X191407200Y-108166666D02*
X191454819Y-108071428D01*
X191454819Y-108071428D02*
X191454819Y-107880952D01*
X191454819Y-107880952D02*
X191407200Y-107785714D01*
X191407200Y-107785714D02*
X191359580Y-107738095D01*
X191359580Y-107738095D02*
X191264342Y-107690476D01*
X191264342Y-107690476D02*
X191073866Y-107690476D01*
X191073866Y-107690476D02*
X190978628Y-107738095D01*
X190978628Y-107738095D02*
X190931009Y-107785714D01*
X190931009Y-107785714D02*
X190883390Y-107880952D01*
X190550057Y-107309523D02*
X190502438Y-107261904D01*
X190502438Y-107261904D02*
X190454819Y-107166666D01*
X190454819Y-107166666D02*
X190454819Y-106928571D01*
X190454819Y-106928571D02*
X190502438Y-106833333D01*
X190502438Y-106833333D02*
X190550057Y-106785714D01*
X190550057Y-106785714D02*
X190645295Y-106738095D01*
X190645295Y-106738095D02*
X190740533Y-106738095D01*
X190740533Y-106738095D02*
X190883390Y-106785714D01*
X190883390Y-106785714D02*
X191454819Y-107357142D01*
X191454819Y-107357142D02*
X191454819Y-106738095D01*
X72359580Y-133666666D02*
X72407200Y-133714285D01*
X72407200Y-133714285D02*
X72454819Y-133857142D01*
X72454819Y-133857142D02*
X72454819Y-133952380D01*
X72454819Y-133952380D02*
X72407200Y-134095237D01*
X72407200Y-134095237D02*
X72311961Y-134190475D01*
X72311961Y-134190475D02*
X72216723Y-134238094D01*
X72216723Y-134238094D02*
X72026247Y-134285713D01*
X72026247Y-134285713D02*
X71883390Y-134285713D01*
X71883390Y-134285713D02*
X71692914Y-134238094D01*
X71692914Y-134238094D02*
X71597676Y-134190475D01*
X71597676Y-134190475D02*
X71502438Y-134095237D01*
X71502438Y-134095237D02*
X71454819Y-133952380D01*
X71454819Y-133952380D02*
X71454819Y-133857142D01*
X71454819Y-133857142D02*
X71502438Y-133714285D01*
X71502438Y-133714285D02*
X71550057Y-133666666D01*
X71454819Y-133333332D02*
X71454819Y-132714285D01*
X71454819Y-132714285D02*
X71835771Y-133047618D01*
X71835771Y-133047618D02*
X71835771Y-132904761D01*
X71835771Y-132904761D02*
X71883390Y-132809523D01*
X71883390Y-132809523D02*
X71931009Y-132761904D01*
X71931009Y-132761904D02*
X72026247Y-132714285D01*
X72026247Y-132714285D02*
X72264342Y-132714285D01*
X72264342Y-132714285D02*
X72359580Y-132761904D01*
X72359580Y-132761904D02*
X72407200Y-132809523D01*
X72407200Y-132809523D02*
X72454819Y-132904761D01*
X72454819Y-132904761D02*
X72454819Y-133190475D01*
X72454819Y-133190475D02*
X72407200Y-133285713D01*
X72407200Y-133285713D02*
X72359580Y-133333332D01*
X81454819Y-126738094D02*
X80454819Y-126738094D01*
X81454819Y-126166666D02*
X80883390Y-126595237D01*
X80454819Y-126166666D02*
X81026247Y-126738094D01*
X80788152Y-125309523D02*
X81454819Y-125309523D01*
X80407200Y-125547618D02*
X81121485Y-125785713D01*
X81121485Y-125785713D02*
X81121485Y-125166666D01*
X69759046Y-134127141D02*
X70473331Y-134127141D01*
X70473331Y-134127141D02*
X70616188Y-134174760D01*
X70616188Y-134174760D02*
X70711427Y-134269998D01*
X70711427Y-134269998D02*
X70759046Y-134412855D01*
X70759046Y-134412855D02*
X70759046Y-134508093D01*
X70759046Y-133650950D02*
X69759046Y-133650950D01*
X69759046Y-133650950D02*
X69759046Y-133269998D01*
X69759046Y-133269998D02*
X69806665Y-133174760D01*
X69806665Y-133174760D02*
X69854284Y-133127141D01*
X69854284Y-133127141D02*
X69949522Y-133079522D01*
X69949522Y-133079522D02*
X70092379Y-133079522D01*
X70092379Y-133079522D02*
X70187617Y-133127141D01*
X70187617Y-133127141D02*
X70235236Y-133174760D01*
X70235236Y-133174760D02*
X70282855Y-133269998D01*
X70282855Y-133269998D02*
X70282855Y-133650950D01*
X69759046Y-132222379D02*
X69759046Y-132412855D01*
X69759046Y-132412855D02*
X69806665Y-132508093D01*
X69806665Y-132508093D02*
X69854284Y-132555712D01*
X69854284Y-132555712D02*
X69997141Y-132650950D01*
X69997141Y-132650950D02*
X70187617Y-132698569D01*
X70187617Y-132698569D02*
X70568569Y-132698569D01*
X70568569Y-132698569D02*
X70663807Y-132650950D01*
X70663807Y-132650950D02*
X70711427Y-132603331D01*
X70711427Y-132603331D02*
X70759046Y-132508093D01*
X70759046Y-132508093D02*
X70759046Y-132317617D01*
X70759046Y-132317617D02*
X70711427Y-132222379D01*
X70711427Y-132222379D02*
X70663807Y-132174760D01*
X70663807Y-132174760D02*
X70568569Y-132127141D01*
X70568569Y-132127141D02*
X70330474Y-132127141D01*
X70330474Y-132127141D02*
X70235236Y-132174760D01*
X70235236Y-132174760D02*
X70187617Y-132222379D01*
X70187617Y-132222379D02*
X70139998Y-132317617D01*
X70139998Y-132317617D02*
X70139998Y-132508093D01*
X70139998Y-132508093D02*
X70187617Y-132603331D01*
X70187617Y-132603331D02*
X70235236Y-132650950D01*
X70235236Y-132650950D02*
X70330474Y-132698569D01*
X158763580Y-136770858D02*
X158811200Y-136818477D01*
X158811200Y-136818477D02*
X158858819Y-136961334D01*
X158858819Y-136961334D02*
X158858819Y-137056572D01*
X158858819Y-137056572D02*
X158811200Y-137199429D01*
X158811200Y-137199429D02*
X158715961Y-137294667D01*
X158715961Y-137294667D02*
X158620723Y-137342286D01*
X158620723Y-137342286D02*
X158430247Y-137389905D01*
X158430247Y-137389905D02*
X158287390Y-137389905D01*
X158287390Y-137389905D02*
X158096914Y-137342286D01*
X158096914Y-137342286D02*
X158001676Y-137294667D01*
X158001676Y-137294667D02*
X157906438Y-137199429D01*
X157906438Y-137199429D02*
X157858819Y-137056572D01*
X157858819Y-137056572D02*
X157858819Y-136961334D01*
X157858819Y-136961334D02*
X157906438Y-136818477D01*
X157906438Y-136818477D02*
X157954057Y-136770858D01*
X158858819Y-135818477D02*
X158858819Y-136389905D01*
X158858819Y-136104191D02*
X157858819Y-136104191D01*
X157858819Y-136104191D02*
X158001676Y-136199429D01*
X158001676Y-136199429D02*
X158096914Y-136294667D01*
X158096914Y-136294667D02*
X158144533Y-136389905D01*
X158858819Y-134866096D02*
X158858819Y-135437524D01*
X158858819Y-135151810D02*
X157858819Y-135151810D01*
X157858819Y-135151810D02*
X158001676Y-135247048D01*
X158001676Y-135247048D02*
X158096914Y-135342286D01*
X158096914Y-135342286D02*
X158144533Y-135437524D01*
X68990826Y-130167981D02*
X68657493Y-129691790D01*
X68419398Y-130167981D02*
X68419398Y-129167981D01*
X68419398Y-129167981D02*
X68800350Y-129167981D01*
X68800350Y-129167981D02*
X68895588Y-129215600D01*
X68895588Y-129215600D02*
X68943207Y-129263219D01*
X68943207Y-129263219D02*
X68990826Y-129358457D01*
X68990826Y-129358457D02*
X68990826Y-129501314D01*
X68990826Y-129501314D02*
X68943207Y-129596552D01*
X68943207Y-129596552D02*
X68895588Y-129644171D01*
X68895588Y-129644171D02*
X68800350Y-129691790D01*
X68800350Y-129691790D02*
X68419398Y-129691790D01*
X69847969Y-129501314D02*
X69847969Y-130167981D01*
X69609874Y-129120362D02*
X69371779Y-129834647D01*
X69371779Y-129834647D02*
X69990826Y-129834647D01*
X136454819Y-118214285D02*
X135454819Y-118214285D01*
X136454819Y-117642857D02*
X135883390Y-118071428D01*
X135454819Y-117642857D02*
X136026247Y-118214285D01*
X135788152Y-116785714D02*
X136454819Y-116785714D01*
X135407200Y-117023809D02*
X136121485Y-117261904D01*
X136121485Y-117261904D02*
X136121485Y-116642857D01*
X135454819Y-116357142D02*
X135454819Y-115738095D01*
X135454819Y-115738095D02*
X135835771Y-116071428D01*
X135835771Y-116071428D02*
X135835771Y-115928571D01*
X135835771Y-115928571D02*
X135883390Y-115833333D01*
X135883390Y-115833333D02*
X135931009Y-115785714D01*
X135931009Y-115785714D02*
X136026247Y-115738095D01*
X136026247Y-115738095D02*
X136264342Y-115738095D01*
X136264342Y-115738095D02*
X136359580Y-115785714D01*
X136359580Y-115785714D02*
X136407200Y-115833333D01*
X136407200Y-115833333D02*
X136454819Y-115928571D01*
X136454819Y-115928571D02*
X136454819Y-116214285D01*
X136454819Y-116214285D02*
X136407200Y-116309523D01*
X136407200Y-116309523D02*
X136359580Y-116357142D01*
X158454819Y-127214285D02*
X157454819Y-127214285D01*
X158454819Y-126642857D02*
X157883390Y-127071428D01*
X157454819Y-126642857D02*
X158026247Y-127214285D01*
X157454819Y-125785714D02*
X157454819Y-125976190D01*
X157454819Y-125976190D02*
X157502438Y-126071428D01*
X157502438Y-126071428D02*
X157550057Y-126119047D01*
X157550057Y-126119047D02*
X157692914Y-126214285D01*
X157692914Y-126214285D02*
X157883390Y-126261904D01*
X157883390Y-126261904D02*
X158264342Y-126261904D01*
X158264342Y-126261904D02*
X158359580Y-126214285D01*
X158359580Y-126214285D02*
X158407200Y-126166666D01*
X158407200Y-126166666D02*
X158454819Y-126071428D01*
X158454819Y-126071428D02*
X158454819Y-125880952D01*
X158454819Y-125880952D02*
X158407200Y-125785714D01*
X158407200Y-125785714D02*
X158359580Y-125738095D01*
X158359580Y-125738095D02*
X158264342Y-125690476D01*
X158264342Y-125690476D02*
X158026247Y-125690476D01*
X158026247Y-125690476D02*
X157931009Y-125738095D01*
X157931009Y-125738095D02*
X157883390Y-125785714D01*
X157883390Y-125785714D02*
X157835771Y-125880952D01*
X157835771Y-125880952D02*
X157835771Y-126071428D01*
X157835771Y-126071428D02*
X157883390Y-126166666D01*
X157883390Y-126166666D02*
X157931009Y-126214285D01*
X157931009Y-126214285D02*
X158026247Y-126261904D01*
X157454819Y-125071428D02*
X157454819Y-124976190D01*
X157454819Y-124976190D02*
X157502438Y-124880952D01*
X157502438Y-124880952D02*
X157550057Y-124833333D01*
X157550057Y-124833333D02*
X157645295Y-124785714D01*
X157645295Y-124785714D02*
X157835771Y-124738095D01*
X157835771Y-124738095D02*
X158073866Y-124738095D01*
X158073866Y-124738095D02*
X158264342Y-124785714D01*
X158264342Y-124785714D02*
X158359580Y-124833333D01*
X158359580Y-124833333D02*
X158407200Y-124880952D01*
X158407200Y-124880952D02*
X158454819Y-124976190D01*
X158454819Y-124976190D02*
X158454819Y-125071428D01*
X158454819Y-125071428D02*
X158407200Y-125166666D01*
X158407200Y-125166666D02*
X158359580Y-125214285D01*
X158359580Y-125214285D02*
X158264342Y-125261904D01*
X158264342Y-125261904D02*
X158073866Y-125309523D01*
X158073866Y-125309523D02*
X157835771Y-125309523D01*
X157835771Y-125309523D02*
X157645295Y-125261904D01*
X157645295Y-125261904D02*
X157550057Y-125214285D01*
X157550057Y-125214285D02*
X157502438Y-125166666D01*
X157502438Y-125166666D02*
X157454819Y-125071428D01*
X169454819Y-100214285D02*
X168454819Y-100214285D01*
X169454819Y-99642857D02*
X168883390Y-100071428D01*
X168454819Y-99642857D02*
X169026247Y-100214285D01*
X168454819Y-98785714D02*
X168454819Y-98976190D01*
X168454819Y-98976190D02*
X168502438Y-99071428D01*
X168502438Y-99071428D02*
X168550057Y-99119047D01*
X168550057Y-99119047D02*
X168692914Y-99214285D01*
X168692914Y-99214285D02*
X168883390Y-99261904D01*
X168883390Y-99261904D02*
X169264342Y-99261904D01*
X169264342Y-99261904D02*
X169359580Y-99214285D01*
X169359580Y-99214285D02*
X169407200Y-99166666D01*
X169407200Y-99166666D02*
X169454819Y-99071428D01*
X169454819Y-99071428D02*
X169454819Y-98880952D01*
X169454819Y-98880952D02*
X169407200Y-98785714D01*
X169407200Y-98785714D02*
X169359580Y-98738095D01*
X169359580Y-98738095D02*
X169264342Y-98690476D01*
X169264342Y-98690476D02*
X169026247Y-98690476D01*
X169026247Y-98690476D02*
X168931009Y-98738095D01*
X168931009Y-98738095D02*
X168883390Y-98785714D01*
X168883390Y-98785714D02*
X168835771Y-98880952D01*
X168835771Y-98880952D02*
X168835771Y-99071428D01*
X168835771Y-99071428D02*
X168883390Y-99166666D01*
X168883390Y-99166666D02*
X168931009Y-99214285D01*
X168931009Y-99214285D02*
X169026247Y-99261904D01*
X168454819Y-97785714D02*
X168454819Y-98261904D01*
X168454819Y-98261904D02*
X168931009Y-98309523D01*
X168931009Y-98309523D02*
X168883390Y-98261904D01*
X168883390Y-98261904D02*
X168835771Y-98166666D01*
X168835771Y-98166666D02*
X168835771Y-97928571D01*
X168835771Y-97928571D02*
X168883390Y-97833333D01*
X168883390Y-97833333D02*
X168931009Y-97785714D01*
X168931009Y-97785714D02*
X169026247Y-97738095D01*
X169026247Y-97738095D02*
X169264342Y-97738095D01*
X169264342Y-97738095D02*
X169359580Y-97785714D01*
X169359580Y-97785714D02*
X169407200Y-97833333D01*
X169407200Y-97833333D02*
X169454819Y-97928571D01*
X169454819Y-97928571D02*
X169454819Y-98166666D01*
X169454819Y-98166666D02*
X169407200Y-98261904D01*
X169407200Y-98261904D02*
X169359580Y-98309523D01*
X99306666Y-93387319D02*
X99306666Y-94101604D01*
X99306666Y-94101604D02*
X99259047Y-94244461D01*
X99259047Y-94244461D02*
X99163809Y-94339700D01*
X99163809Y-94339700D02*
X99020952Y-94387319D01*
X99020952Y-94387319D02*
X98925714Y-94387319D01*
X99687619Y-93387319D02*
X100306666Y-93387319D01*
X100306666Y-93387319D02*
X99973333Y-93768271D01*
X99973333Y-93768271D02*
X100116190Y-93768271D01*
X100116190Y-93768271D02*
X100211428Y-93815890D01*
X100211428Y-93815890D02*
X100259047Y-93863509D01*
X100259047Y-93863509D02*
X100306666Y-93958747D01*
X100306666Y-93958747D02*
X100306666Y-94196842D01*
X100306666Y-94196842D02*
X100259047Y-94292080D01*
X100259047Y-94292080D02*
X100211428Y-94339700D01*
X100211428Y-94339700D02*
X100116190Y-94387319D01*
X100116190Y-94387319D02*
X99830476Y-94387319D01*
X99830476Y-94387319D02*
X99735238Y-94339700D01*
X99735238Y-94339700D02*
X99687619Y-94292080D01*
X81454819Y-99738094D02*
X80454819Y-99738094D01*
X81454819Y-99166666D02*
X80883390Y-99595237D01*
X80454819Y-99166666D02*
X81026247Y-99738094D01*
X81454819Y-98214285D02*
X81454819Y-98785713D01*
X81454819Y-98499999D02*
X80454819Y-98499999D01*
X80454819Y-98499999D02*
X80597676Y-98595237D01*
X80597676Y-98595237D02*
X80692914Y-98690475D01*
X80692914Y-98690475D02*
X80740533Y-98785713D01*
X125763580Y-136294667D02*
X125811200Y-136342286D01*
X125811200Y-136342286D02*
X125858819Y-136485143D01*
X125858819Y-136485143D02*
X125858819Y-136580381D01*
X125858819Y-136580381D02*
X125811200Y-136723238D01*
X125811200Y-136723238D02*
X125715961Y-136818476D01*
X125715961Y-136818476D02*
X125620723Y-136866095D01*
X125620723Y-136866095D02*
X125430247Y-136913714D01*
X125430247Y-136913714D02*
X125287390Y-136913714D01*
X125287390Y-136913714D02*
X125096914Y-136866095D01*
X125096914Y-136866095D02*
X125001676Y-136818476D01*
X125001676Y-136818476D02*
X124906438Y-136723238D01*
X124906438Y-136723238D02*
X124858819Y-136580381D01*
X124858819Y-136580381D02*
X124858819Y-136485143D01*
X124858819Y-136485143D02*
X124906438Y-136342286D01*
X124906438Y-136342286D02*
X124954057Y-136294667D01*
X125287390Y-135723238D02*
X125239771Y-135818476D01*
X125239771Y-135818476D02*
X125192152Y-135866095D01*
X125192152Y-135866095D02*
X125096914Y-135913714D01*
X125096914Y-135913714D02*
X125049295Y-135913714D01*
X125049295Y-135913714D02*
X124954057Y-135866095D01*
X124954057Y-135866095D02*
X124906438Y-135818476D01*
X124906438Y-135818476D02*
X124858819Y-135723238D01*
X124858819Y-135723238D02*
X124858819Y-135532762D01*
X124858819Y-135532762D02*
X124906438Y-135437524D01*
X124906438Y-135437524D02*
X124954057Y-135389905D01*
X124954057Y-135389905D02*
X125049295Y-135342286D01*
X125049295Y-135342286D02*
X125096914Y-135342286D01*
X125096914Y-135342286D02*
X125192152Y-135389905D01*
X125192152Y-135389905D02*
X125239771Y-135437524D01*
X125239771Y-135437524D02*
X125287390Y-135532762D01*
X125287390Y-135532762D02*
X125287390Y-135723238D01*
X125287390Y-135723238D02*
X125335009Y-135818476D01*
X125335009Y-135818476D02*
X125382628Y-135866095D01*
X125382628Y-135866095D02*
X125477866Y-135913714D01*
X125477866Y-135913714D02*
X125668342Y-135913714D01*
X125668342Y-135913714D02*
X125763580Y-135866095D01*
X125763580Y-135866095D02*
X125811200Y-135818476D01*
X125811200Y-135818476D02*
X125858819Y-135723238D01*
X125858819Y-135723238D02*
X125858819Y-135532762D01*
X125858819Y-135532762D02*
X125811200Y-135437524D01*
X125811200Y-135437524D02*
X125763580Y-135389905D01*
X125763580Y-135389905D02*
X125668342Y-135342286D01*
X125668342Y-135342286D02*
X125477866Y-135342286D01*
X125477866Y-135342286D02*
X125382628Y-135389905D01*
X125382628Y-135389905D02*
X125335009Y-135437524D01*
X125335009Y-135437524D02*
X125287390Y-135532762D01*
X114454819Y-118214285D02*
X113454819Y-118214285D01*
X114454819Y-117642857D02*
X113883390Y-118071428D01*
X113454819Y-117642857D02*
X114026247Y-118214285D01*
X113550057Y-117261904D02*
X113502438Y-117214285D01*
X113502438Y-117214285D02*
X113454819Y-117119047D01*
X113454819Y-117119047D02*
X113454819Y-116880952D01*
X113454819Y-116880952D02*
X113502438Y-116785714D01*
X113502438Y-116785714D02*
X113550057Y-116738095D01*
X113550057Y-116738095D02*
X113645295Y-116690476D01*
X113645295Y-116690476D02*
X113740533Y-116690476D01*
X113740533Y-116690476D02*
X113883390Y-116738095D01*
X113883390Y-116738095D02*
X114454819Y-117309523D01*
X114454819Y-117309523D02*
X114454819Y-116690476D01*
X113454819Y-116357142D02*
X113454819Y-115690476D01*
X113454819Y-115690476D02*
X114454819Y-116119047D01*
X158454819Y-118214285D02*
X157454819Y-118214285D01*
X158454819Y-117642857D02*
X157883390Y-118071428D01*
X157454819Y-117642857D02*
X158026247Y-118214285D01*
X157454819Y-116738095D02*
X157454819Y-117214285D01*
X157454819Y-117214285D02*
X157931009Y-117261904D01*
X157931009Y-117261904D02*
X157883390Y-117214285D01*
X157883390Y-117214285D02*
X157835771Y-117119047D01*
X157835771Y-117119047D02*
X157835771Y-116880952D01*
X157835771Y-116880952D02*
X157883390Y-116785714D01*
X157883390Y-116785714D02*
X157931009Y-116738095D01*
X157931009Y-116738095D02*
X158026247Y-116690476D01*
X158026247Y-116690476D02*
X158264342Y-116690476D01*
X158264342Y-116690476D02*
X158359580Y-116738095D01*
X158359580Y-116738095D02*
X158407200Y-116785714D01*
X158407200Y-116785714D02*
X158454819Y-116880952D01*
X158454819Y-116880952D02*
X158454819Y-117119047D01*
X158454819Y-117119047D02*
X158407200Y-117214285D01*
X158407200Y-117214285D02*
X158359580Y-117261904D01*
X158454819Y-116214285D02*
X158454819Y-116023809D01*
X158454819Y-116023809D02*
X158407200Y-115928571D01*
X158407200Y-115928571D02*
X158359580Y-115880952D01*
X158359580Y-115880952D02*
X158216723Y-115785714D01*
X158216723Y-115785714D02*
X158026247Y-115738095D01*
X158026247Y-115738095D02*
X157645295Y-115738095D01*
X157645295Y-115738095D02*
X157550057Y-115785714D01*
X157550057Y-115785714D02*
X157502438Y-115833333D01*
X157502438Y-115833333D02*
X157454819Y-115928571D01*
X157454819Y-115928571D02*
X157454819Y-116119047D01*
X157454819Y-116119047D02*
X157502438Y-116214285D01*
X157502438Y-116214285D02*
X157550057Y-116261904D01*
X157550057Y-116261904D02*
X157645295Y-116309523D01*
X157645295Y-116309523D02*
X157883390Y-116309523D01*
X157883390Y-116309523D02*
X157978628Y-116261904D01*
X157978628Y-116261904D02*
X158026247Y-116214285D01*
X158026247Y-116214285D02*
X158073866Y-116119047D01*
X158073866Y-116119047D02*
X158073866Y-115928571D01*
X158073866Y-115928571D02*
X158026247Y-115833333D01*
X158026247Y-115833333D02*
X157978628Y-115785714D01*
X157978628Y-115785714D02*
X157883390Y-115738095D01*
X180454819Y-127214285D02*
X179454819Y-127214285D01*
X180454819Y-126642857D02*
X179883390Y-127071428D01*
X179454819Y-126642857D02*
X180026247Y-127214285D01*
X179454819Y-126309523D02*
X179454819Y-125642857D01*
X179454819Y-125642857D02*
X180454819Y-126071428D01*
X179454819Y-124833333D02*
X179454819Y-125023809D01*
X179454819Y-125023809D02*
X179502438Y-125119047D01*
X179502438Y-125119047D02*
X179550057Y-125166666D01*
X179550057Y-125166666D02*
X179692914Y-125261904D01*
X179692914Y-125261904D02*
X179883390Y-125309523D01*
X179883390Y-125309523D02*
X180264342Y-125309523D01*
X180264342Y-125309523D02*
X180359580Y-125261904D01*
X180359580Y-125261904D02*
X180407200Y-125214285D01*
X180407200Y-125214285D02*
X180454819Y-125119047D01*
X180454819Y-125119047D02*
X180454819Y-124928571D01*
X180454819Y-124928571D02*
X180407200Y-124833333D01*
X180407200Y-124833333D02*
X180359580Y-124785714D01*
X180359580Y-124785714D02*
X180264342Y-124738095D01*
X180264342Y-124738095D02*
X180026247Y-124738095D01*
X180026247Y-124738095D02*
X179931009Y-124785714D01*
X179931009Y-124785714D02*
X179883390Y-124833333D01*
X179883390Y-124833333D02*
X179835771Y-124928571D01*
X179835771Y-124928571D02*
X179835771Y-125119047D01*
X179835771Y-125119047D02*
X179883390Y-125214285D01*
X179883390Y-125214285D02*
X179931009Y-125261904D01*
X179931009Y-125261904D02*
X180026247Y-125309523D01*
X92454819Y-109214285D02*
X91454819Y-109214285D01*
X92454819Y-108642857D02*
X91883390Y-109071428D01*
X91454819Y-108642857D02*
X92026247Y-109214285D01*
X92454819Y-107690476D02*
X92454819Y-108261904D01*
X92454819Y-107976190D02*
X91454819Y-107976190D01*
X91454819Y-107976190D02*
X91597676Y-108071428D01*
X91597676Y-108071428D02*
X91692914Y-108166666D01*
X91692914Y-108166666D02*
X91740533Y-108261904D01*
X91454819Y-107071428D02*
X91454819Y-106976190D01*
X91454819Y-106976190D02*
X91502438Y-106880952D01*
X91502438Y-106880952D02*
X91550057Y-106833333D01*
X91550057Y-106833333D02*
X91645295Y-106785714D01*
X91645295Y-106785714D02*
X91835771Y-106738095D01*
X91835771Y-106738095D02*
X92073866Y-106738095D01*
X92073866Y-106738095D02*
X92264342Y-106785714D01*
X92264342Y-106785714D02*
X92359580Y-106833333D01*
X92359580Y-106833333D02*
X92407200Y-106880952D01*
X92407200Y-106880952D02*
X92454819Y-106976190D01*
X92454819Y-106976190D02*
X92454819Y-107071428D01*
X92454819Y-107071428D02*
X92407200Y-107166666D01*
X92407200Y-107166666D02*
X92359580Y-107214285D01*
X92359580Y-107214285D02*
X92264342Y-107261904D01*
X92264342Y-107261904D02*
X92073866Y-107309523D01*
X92073866Y-107309523D02*
X91835771Y-107309523D01*
X91835771Y-107309523D02*
X91645295Y-107261904D01*
X91645295Y-107261904D02*
X91550057Y-107214285D01*
X91550057Y-107214285D02*
X91502438Y-107166666D01*
X91502438Y-107166666D02*
X91454819Y-107071428D01*
X59954819Y-108833333D02*
X60669104Y-108833333D01*
X60669104Y-108833333D02*
X60811961Y-108880952D01*
X60811961Y-108880952D02*
X60907200Y-108976190D01*
X60907200Y-108976190D02*
X60954819Y-109119047D01*
X60954819Y-109119047D02*
X60954819Y-109214285D01*
X60954819Y-108357142D02*
X59954819Y-108357142D01*
X59954819Y-108357142D02*
X59954819Y-107976190D01*
X59954819Y-107976190D02*
X60002438Y-107880952D01*
X60002438Y-107880952D02*
X60050057Y-107833333D01*
X60050057Y-107833333D02*
X60145295Y-107785714D01*
X60145295Y-107785714D02*
X60288152Y-107785714D01*
X60288152Y-107785714D02*
X60383390Y-107833333D01*
X60383390Y-107833333D02*
X60431009Y-107880952D01*
X60431009Y-107880952D02*
X60478628Y-107976190D01*
X60478628Y-107976190D02*
X60478628Y-108357142D01*
X60050057Y-107404761D02*
X60002438Y-107357142D01*
X60002438Y-107357142D02*
X59954819Y-107261904D01*
X59954819Y-107261904D02*
X59954819Y-107023809D01*
X59954819Y-107023809D02*
X60002438Y-106928571D01*
X60002438Y-106928571D02*
X60050057Y-106880952D01*
X60050057Y-106880952D02*
X60145295Y-106833333D01*
X60145295Y-106833333D02*
X60240533Y-106833333D01*
X60240533Y-106833333D02*
X60383390Y-106880952D01*
X60383390Y-106880952D02*
X60954819Y-107452380D01*
X60954819Y-107452380D02*
X60954819Y-106833333D01*
X202454819Y-127214285D02*
X201454819Y-127214285D01*
X202454819Y-126642857D02*
X201883390Y-127071428D01*
X201454819Y-126642857D02*
X202026247Y-127214285D01*
X202454819Y-126166666D02*
X202454819Y-125976190D01*
X202454819Y-125976190D02*
X202407200Y-125880952D01*
X202407200Y-125880952D02*
X202359580Y-125833333D01*
X202359580Y-125833333D02*
X202216723Y-125738095D01*
X202216723Y-125738095D02*
X202026247Y-125690476D01*
X202026247Y-125690476D02*
X201645295Y-125690476D01*
X201645295Y-125690476D02*
X201550057Y-125738095D01*
X201550057Y-125738095D02*
X201502438Y-125785714D01*
X201502438Y-125785714D02*
X201454819Y-125880952D01*
X201454819Y-125880952D02*
X201454819Y-126071428D01*
X201454819Y-126071428D02*
X201502438Y-126166666D01*
X201502438Y-126166666D02*
X201550057Y-126214285D01*
X201550057Y-126214285D02*
X201645295Y-126261904D01*
X201645295Y-126261904D02*
X201883390Y-126261904D01*
X201883390Y-126261904D02*
X201978628Y-126214285D01*
X201978628Y-126214285D02*
X202026247Y-126166666D01*
X202026247Y-126166666D02*
X202073866Y-126071428D01*
X202073866Y-126071428D02*
X202073866Y-125880952D01*
X202073866Y-125880952D02*
X202026247Y-125785714D01*
X202026247Y-125785714D02*
X201978628Y-125738095D01*
X201978628Y-125738095D02*
X201883390Y-125690476D01*
X201550057Y-125309523D02*
X201502438Y-125261904D01*
X201502438Y-125261904D02*
X201454819Y-125166666D01*
X201454819Y-125166666D02*
X201454819Y-124928571D01*
X201454819Y-124928571D02*
X201502438Y-124833333D01*
X201502438Y-124833333D02*
X201550057Y-124785714D01*
X201550057Y-124785714D02*
X201645295Y-124738095D01*
X201645295Y-124738095D02*
X201740533Y-124738095D01*
X201740533Y-124738095D02*
X201883390Y-124785714D01*
X201883390Y-124785714D02*
X202454819Y-125357142D01*
X202454819Y-125357142D02*
X202454819Y-124738095D01*
X62387319Y-100388333D02*
X63101604Y-100388333D01*
X63101604Y-100388333D02*
X63244461Y-100435952D01*
X63244461Y-100435952D02*
X63339700Y-100531190D01*
X63339700Y-100531190D02*
X63387319Y-100674047D01*
X63387319Y-100674047D02*
X63387319Y-100769285D01*
X62387319Y-99483571D02*
X62387319Y-99674047D01*
X62387319Y-99674047D02*
X62434938Y-99769285D01*
X62434938Y-99769285D02*
X62482557Y-99816904D01*
X62482557Y-99816904D02*
X62625414Y-99912142D01*
X62625414Y-99912142D02*
X62815890Y-99959761D01*
X62815890Y-99959761D02*
X63196842Y-99959761D01*
X63196842Y-99959761D02*
X63292080Y-99912142D01*
X63292080Y-99912142D02*
X63339700Y-99864523D01*
X63339700Y-99864523D02*
X63387319Y-99769285D01*
X63387319Y-99769285D02*
X63387319Y-99578809D01*
X63387319Y-99578809D02*
X63339700Y-99483571D01*
X63339700Y-99483571D02*
X63292080Y-99435952D01*
X63292080Y-99435952D02*
X63196842Y-99388333D01*
X63196842Y-99388333D02*
X62958747Y-99388333D01*
X62958747Y-99388333D02*
X62863509Y-99435952D01*
X62863509Y-99435952D02*
X62815890Y-99483571D01*
X62815890Y-99483571D02*
X62768271Y-99578809D01*
X62768271Y-99578809D02*
X62768271Y-99769285D01*
X62768271Y-99769285D02*
X62815890Y-99864523D01*
X62815890Y-99864523D02*
X62863509Y-99912142D01*
X62863509Y-99912142D02*
X62958747Y-99959761D01*
X147454819Y-118214285D02*
X146454819Y-118214285D01*
X147454819Y-117642857D02*
X146883390Y-118071428D01*
X146454819Y-117642857D02*
X147026247Y-118214285D01*
X146454819Y-116738095D02*
X146454819Y-117214285D01*
X146454819Y-117214285D02*
X146931009Y-117261904D01*
X146931009Y-117261904D02*
X146883390Y-117214285D01*
X146883390Y-117214285D02*
X146835771Y-117119047D01*
X146835771Y-117119047D02*
X146835771Y-116880952D01*
X146835771Y-116880952D02*
X146883390Y-116785714D01*
X146883390Y-116785714D02*
X146931009Y-116738095D01*
X146931009Y-116738095D02*
X147026247Y-116690476D01*
X147026247Y-116690476D02*
X147264342Y-116690476D01*
X147264342Y-116690476D02*
X147359580Y-116738095D01*
X147359580Y-116738095D02*
X147407200Y-116785714D01*
X147407200Y-116785714D02*
X147454819Y-116880952D01*
X147454819Y-116880952D02*
X147454819Y-117119047D01*
X147454819Y-117119047D02*
X147407200Y-117214285D01*
X147407200Y-117214285D02*
X147359580Y-117261904D01*
X147454819Y-115738095D02*
X147454819Y-116309523D01*
X147454819Y-116023809D02*
X146454819Y-116023809D01*
X146454819Y-116023809D02*
X146597676Y-116119047D01*
X146597676Y-116119047D02*
X146692914Y-116214285D01*
X146692914Y-116214285D02*
X146740533Y-116309523D01*
X114454819Y-109214285D02*
X113454819Y-109214285D01*
X114454819Y-108642857D02*
X113883390Y-109071428D01*
X113454819Y-108642857D02*
X114026247Y-109214285D01*
X113550057Y-108261904D02*
X113502438Y-108214285D01*
X113502438Y-108214285D02*
X113454819Y-108119047D01*
X113454819Y-108119047D02*
X113454819Y-107880952D01*
X113454819Y-107880952D02*
X113502438Y-107785714D01*
X113502438Y-107785714D02*
X113550057Y-107738095D01*
X113550057Y-107738095D02*
X113645295Y-107690476D01*
X113645295Y-107690476D02*
X113740533Y-107690476D01*
X113740533Y-107690476D02*
X113883390Y-107738095D01*
X113883390Y-107738095D02*
X114454819Y-108309523D01*
X114454819Y-108309523D02*
X114454819Y-107690476D01*
X113454819Y-106833333D02*
X113454819Y-107023809D01*
X113454819Y-107023809D02*
X113502438Y-107119047D01*
X113502438Y-107119047D02*
X113550057Y-107166666D01*
X113550057Y-107166666D02*
X113692914Y-107261904D01*
X113692914Y-107261904D02*
X113883390Y-107309523D01*
X113883390Y-107309523D02*
X114264342Y-107309523D01*
X114264342Y-107309523D02*
X114359580Y-107261904D01*
X114359580Y-107261904D02*
X114407200Y-107214285D01*
X114407200Y-107214285D02*
X114454819Y-107119047D01*
X114454819Y-107119047D02*
X114454819Y-106928571D01*
X114454819Y-106928571D02*
X114407200Y-106833333D01*
X114407200Y-106833333D02*
X114359580Y-106785714D01*
X114359580Y-106785714D02*
X114264342Y-106738095D01*
X114264342Y-106738095D02*
X114026247Y-106738095D01*
X114026247Y-106738095D02*
X113931009Y-106785714D01*
X113931009Y-106785714D02*
X113883390Y-106833333D01*
X113883390Y-106833333D02*
X113835771Y-106928571D01*
X113835771Y-106928571D02*
X113835771Y-107119047D01*
X113835771Y-107119047D02*
X113883390Y-107214285D01*
X113883390Y-107214285D02*
X113931009Y-107261904D01*
X113931009Y-107261904D02*
X114026247Y-107309523D01*
X92454819Y-99738094D02*
X91454819Y-99738094D01*
X92454819Y-99166666D02*
X91883390Y-99595237D01*
X91454819Y-99166666D02*
X92026247Y-99738094D01*
X92454819Y-98690475D02*
X92454819Y-98499999D01*
X92454819Y-98499999D02*
X92407200Y-98404761D01*
X92407200Y-98404761D02*
X92359580Y-98357142D01*
X92359580Y-98357142D02*
X92216723Y-98261904D01*
X92216723Y-98261904D02*
X92026247Y-98214285D01*
X92026247Y-98214285D02*
X91645295Y-98214285D01*
X91645295Y-98214285D02*
X91550057Y-98261904D01*
X91550057Y-98261904D02*
X91502438Y-98309523D01*
X91502438Y-98309523D02*
X91454819Y-98404761D01*
X91454819Y-98404761D02*
X91454819Y-98595237D01*
X91454819Y-98595237D02*
X91502438Y-98690475D01*
X91502438Y-98690475D02*
X91550057Y-98738094D01*
X91550057Y-98738094D02*
X91645295Y-98785713D01*
X91645295Y-98785713D02*
X91883390Y-98785713D01*
X91883390Y-98785713D02*
X91978628Y-98738094D01*
X91978628Y-98738094D02*
X92026247Y-98690475D01*
X92026247Y-98690475D02*
X92073866Y-98595237D01*
X92073866Y-98595237D02*
X92073866Y-98404761D01*
X92073866Y-98404761D02*
X92026247Y-98309523D01*
X92026247Y-98309523D02*
X91978628Y-98261904D01*
X91978628Y-98261904D02*
X91883390Y-98214285D01*
X202454819Y-100214285D02*
X201454819Y-100214285D01*
X202454819Y-99642857D02*
X201883390Y-100071428D01*
X201454819Y-99642857D02*
X202026247Y-100214285D01*
X201883390Y-99071428D02*
X201835771Y-99166666D01*
X201835771Y-99166666D02*
X201788152Y-99214285D01*
X201788152Y-99214285D02*
X201692914Y-99261904D01*
X201692914Y-99261904D02*
X201645295Y-99261904D01*
X201645295Y-99261904D02*
X201550057Y-99214285D01*
X201550057Y-99214285D02*
X201502438Y-99166666D01*
X201502438Y-99166666D02*
X201454819Y-99071428D01*
X201454819Y-99071428D02*
X201454819Y-98880952D01*
X201454819Y-98880952D02*
X201502438Y-98785714D01*
X201502438Y-98785714D02*
X201550057Y-98738095D01*
X201550057Y-98738095D02*
X201645295Y-98690476D01*
X201645295Y-98690476D02*
X201692914Y-98690476D01*
X201692914Y-98690476D02*
X201788152Y-98738095D01*
X201788152Y-98738095D02*
X201835771Y-98785714D01*
X201835771Y-98785714D02*
X201883390Y-98880952D01*
X201883390Y-98880952D02*
X201883390Y-99071428D01*
X201883390Y-99071428D02*
X201931009Y-99166666D01*
X201931009Y-99166666D02*
X201978628Y-99214285D01*
X201978628Y-99214285D02*
X202073866Y-99261904D01*
X202073866Y-99261904D02*
X202264342Y-99261904D01*
X202264342Y-99261904D02*
X202359580Y-99214285D01*
X202359580Y-99214285D02*
X202407200Y-99166666D01*
X202407200Y-99166666D02*
X202454819Y-99071428D01*
X202454819Y-99071428D02*
X202454819Y-98880952D01*
X202454819Y-98880952D02*
X202407200Y-98785714D01*
X202407200Y-98785714D02*
X202359580Y-98738095D01*
X202359580Y-98738095D02*
X202264342Y-98690476D01*
X202264342Y-98690476D02*
X202073866Y-98690476D01*
X202073866Y-98690476D02*
X201978628Y-98738095D01*
X201978628Y-98738095D02*
X201931009Y-98785714D01*
X201931009Y-98785714D02*
X201883390Y-98880952D01*
X202454819Y-98214285D02*
X202454819Y-98023809D01*
X202454819Y-98023809D02*
X202407200Y-97928571D01*
X202407200Y-97928571D02*
X202359580Y-97880952D01*
X202359580Y-97880952D02*
X202216723Y-97785714D01*
X202216723Y-97785714D02*
X202026247Y-97738095D01*
X202026247Y-97738095D02*
X201645295Y-97738095D01*
X201645295Y-97738095D02*
X201550057Y-97785714D01*
X201550057Y-97785714D02*
X201502438Y-97833333D01*
X201502438Y-97833333D02*
X201454819Y-97928571D01*
X201454819Y-97928571D02*
X201454819Y-98119047D01*
X201454819Y-98119047D02*
X201502438Y-98214285D01*
X201502438Y-98214285D02*
X201550057Y-98261904D01*
X201550057Y-98261904D02*
X201645295Y-98309523D01*
X201645295Y-98309523D02*
X201883390Y-98309523D01*
X201883390Y-98309523D02*
X201978628Y-98261904D01*
X201978628Y-98261904D02*
X202026247Y-98214285D01*
X202026247Y-98214285D02*
X202073866Y-98119047D01*
X202073866Y-98119047D02*
X202073866Y-97928571D01*
X202073866Y-97928571D02*
X202026247Y-97833333D01*
X202026247Y-97833333D02*
X201978628Y-97785714D01*
X201978628Y-97785714D02*
X201883390Y-97738095D01*
X125454819Y-118214285D02*
X124454819Y-118214285D01*
X125454819Y-117642857D02*
X124883390Y-118071428D01*
X124454819Y-117642857D02*
X125026247Y-118214285D01*
X124454819Y-117309523D02*
X124454819Y-116690476D01*
X124454819Y-116690476D02*
X124835771Y-117023809D01*
X124835771Y-117023809D02*
X124835771Y-116880952D01*
X124835771Y-116880952D02*
X124883390Y-116785714D01*
X124883390Y-116785714D02*
X124931009Y-116738095D01*
X124931009Y-116738095D02*
X125026247Y-116690476D01*
X125026247Y-116690476D02*
X125264342Y-116690476D01*
X125264342Y-116690476D02*
X125359580Y-116738095D01*
X125359580Y-116738095D02*
X125407200Y-116785714D01*
X125407200Y-116785714D02*
X125454819Y-116880952D01*
X125454819Y-116880952D02*
X125454819Y-117166666D01*
X125454819Y-117166666D02*
X125407200Y-117261904D01*
X125407200Y-117261904D02*
X125359580Y-117309523D01*
X124454819Y-115785714D02*
X124454819Y-116261904D01*
X124454819Y-116261904D02*
X124931009Y-116309523D01*
X124931009Y-116309523D02*
X124883390Y-116261904D01*
X124883390Y-116261904D02*
X124835771Y-116166666D01*
X124835771Y-116166666D02*
X124835771Y-115928571D01*
X124835771Y-115928571D02*
X124883390Y-115833333D01*
X124883390Y-115833333D02*
X124931009Y-115785714D01*
X124931009Y-115785714D02*
X125026247Y-115738095D01*
X125026247Y-115738095D02*
X125264342Y-115738095D01*
X125264342Y-115738095D02*
X125359580Y-115785714D01*
X125359580Y-115785714D02*
X125407200Y-115833333D01*
X125407200Y-115833333D02*
X125454819Y-115928571D01*
X125454819Y-115928571D02*
X125454819Y-116166666D01*
X125454819Y-116166666D02*
X125407200Y-116261904D01*
X125407200Y-116261904D02*
X125359580Y-116309523D01*
X199654819Y-137620094D02*
X200464342Y-137620094D01*
X200464342Y-137620094D02*
X200559580Y-137572475D01*
X200559580Y-137572475D02*
X200607200Y-137524856D01*
X200607200Y-137524856D02*
X200654819Y-137429618D01*
X200654819Y-137429618D02*
X200654819Y-137239142D01*
X200654819Y-137239142D02*
X200607200Y-137143904D01*
X200607200Y-137143904D02*
X200559580Y-137096285D01*
X200559580Y-137096285D02*
X200464342Y-137048666D01*
X200464342Y-137048666D02*
X199654819Y-137048666D01*
X200654819Y-136048666D02*
X200654819Y-136620094D01*
X200654819Y-136334380D02*
X199654819Y-136334380D01*
X199654819Y-136334380D02*
X199797676Y-136429618D01*
X199797676Y-136429618D02*
X199892914Y-136524856D01*
X199892914Y-136524856D02*
X199940533Y-136620094D01*
X199988152Y-135191523D02*
X200654819Y-135191523D01*
X199607200Y-135429618D02*
X200321485Y-135667713D01*
X200321485Y-135667713D02*
X200321485Y-135048666D01*
X169763580Y-136770858D02*
X169811200Y-136818477D01*
X169811200Y-136818477D02*
X169858819Y-136961334D01*
X169858819Y-136961334D02*
X169858819Y-137056572D01*
X169858819Y-137056572D02*
X169811200Y-137199429D01*
X169811200Y-137199429D02*
X169715961Y-137294667D01*
X169715961Y-137294667D02*
X169620723Y-137342286D01*
X169620723Y-137342286D02*
X169430247Y-137389905D01*
X169430247Y-137389905D02*
X169287390Y-137389905D01*
X169287390Y-137389905D02*
X169096914Y-137342286D01*
X169096914Y-137342286D02*
X169001676Y-137294667D01*
X169001676Y-137294667D02*
X168906438Y-137199429D01*
X168906438Y-137199429D02*
X168858819Y-137056572D01*
X168858819Y-137056572D02*
X168858819Y-136961334D01*
X168858819Y-136961334D02*
X168906438Y-136818477D01*
X168906438Y-136818477D02*
X168954057Y-136770858D01*
X169858819Y-135818477D02*
X169858819Y-136389905D01*
X169858819Y-136104191D02*
X168858819Y-136104191D01*
X168858819Y-136104191D02*
X169001676Y-136199429D01*
X169001676Y-136199429D02*
X169096914Y-136294667D01*
X169096914Y-136294667D02*
X169144533Y-136389905D01*
X168954057Y-135437524D02*
X168906438Y-135389905D01*
X168906438Y-135389905D02*
X168858819Y-135294667D01*
X168858819Y-135294667D02*
X168858819Y-135056572D01*
X168858819Y-135056572D02*
X168906438Y-134961334D01*
X168906438Y-134961334D02*
X168954057Y-134913715D01*
X168954057Y-134913715D02*
X169049295Y-134866096D01*
X169049295Y-134866096D02*
X169144533Y-134866096D01*
X169144533Y-134866096D02*
X169287390Y-134913715D01*
X169287390Y-134913715D02*
X169858819Y-135485143D01*
X169858819Y-135485143D02*
X169858819Y-134866096D01*
X147454819Y-100214285D02*
X146454819Y-100214285D01*
X147454819Y-99642857D02*
X146883390Y-100071428D01*
X146454819Y-99642857D02*
X147026247Y-100214285D01*
X146788152Y-98785714D02*
X147454819Y-98785714D01*
X146407200Y-99023809D02*
X147121485Y-99261904D01*
X147121485Y-99261904D02*
X147121485Y-98642857D01*
X147454819Y-98214285D02*
X147454819Y-98023809D01*
X147454819Y-98023809D02*
X147407200Y-97928571D01*
X147407200Y-97928571D02*
X147359580Y-97880952D01*
X147359580Y-97880952D02*
X147216723Y-97785714D01*
X147216723Y-97785714D02*
X147026247Y-97738095D01*
X147026247Y-97738095D02*
X146645295Y-97738095D01*
X146645295Y-97738095D02*
X146550057Y-97785714D01*
X146550057Y-97785714D02*
X146502438Y-97833333D01*
X146502438Y-97833333D02*
X146454819Y-97928571D01*
X146454819Y-97928571D02*
X146454819Y-98119047D01*
X146454819Y-98119047D02*
X146502438Y-98214285D01*
X146502438Y-98214285D02*
X146550057Y-98261904D01*
X146550057Y-98261904D02*
X146645295Y-98309523D01*
X146645295Y-98309523D02*
X146883390Y-98309523D01*
X146883390Y-98309523D02*
X146978628Y-98261904D01*
X146978628Y-98261904D02*
X147026247Y-98214285D01*
X147026247Y-98214285D02*
X147073866Y-98119047D01*
X147073866Y-98119047D02*
X147073866Y-97928571D01*
X147073866Y-97928571D02*
X147026247Y-97833333D01*
X147026247Y-97833333D02*
X146978628Y-97785714D01*
X146978628Y-97785714D02*
X146883390Y-97738095D01*
D12*
%TO.C,U5*%
X94909000Y-136382000D02*
X94909000Y-134182000D01*
X94909000Y-136382000D02*
X94909000Y-139982000D01*
X100379000Y-136382000D02*
X100379000Y-134182000D01*
X100379000Y-136382000D02*
X100379000Y-138582000D01*
%TO.C,K50*%
X135800000Y-104800000D02*
X135800000Y-105550000D01*
X135800000Y-110450000D02*
X135800000Y-111200000D01*
X136550000Y-104800000D02*
X135800000Y-104800000D01*
X136550000Y-111200000D02*
X135800000Y-111200000D01*
X146200000Y-104800000D02*
X145450000Y-104800000D01*
X146200000Y-104950000D02*
X146050000Y-104800000D01*
X146200000Y-105100000D02*
X145900000Y-104800000D01*
X146200000Y-105250000D02*
X145750000Y-104800000D01*
X146200000Y-105400000D02*
X145600000Y-104800000D01*
X146200000Y-105550000D02*
X146200000Y-104800000D01*
X146200000Y-110450000D02*
X146200000Y-111200000D01*
X146200000Y-111200000D02*
X145450000Y-111200000D01*
%TO.C,K91*%
X190800000Y-113800000D02*
X190800000Y-114550000D01*
X190800000Y-119450000D02*
X190800000Y-120200000D01*
X191550000Y-113800000D02*
X190800000Y-113800000D01*
X191550000Y-120200000D02*
X190800000Y-120200000D01*
X201200000Y-113800000D02*
X200450000Y-113800000D01*
X201200000Y-113950000D02*
X201050000Y-113800000D01*
X201200000Y-114100000D02*
X200900000Y-113800000D01*
X201200000Y-114250000D02*
X200750000Y-113800000D01*
X201200000Y-114400000D02*
X200600000Y-113800000D01*
X201200000Y-114550000D02*
X201200000Y-113800000D01*
X201200000Y-119450000D02*
X201200000Y-120200000D01*
X201200000Y-120200000D02*
X200450000Y-120200000D01*
%TO.C,U7*%
X116909000Y-136382000D02*
X116909000Y-134182000D01*
X116909000Y-136382000D02*
X116909000Y-139982000D01*
X122379000Y-136382000D02*
X122379000Y-134182000D01*
X122379000Y-136382000D02*
X122379000Y-138582000D01*
%TO.C,J2*%
X50307500Y-107900000D02*
X59427500Y-107900000D01*
X50307500Y-136100000D02*
X50307500Y-107900000D01*
X59427500Y-107900000D02*
X59427500Y-136100000D01*
X59427500Y-119950000D02*
X50307500Y-119950000D01*
X59427500Y-124050000D02*
X50307500Y-124050000D01*
X59427500Y-136100000D02*
X50307500Y-136100000D01*
X65047500Y-130890000D02*
X66047500Y-131390000D01*
X66047500Y-130390000D02*
X65047500Y-130890000D01*
X66047500Y-131390000D02*
X66047500Y-130390000D01*
%TO.C,K75*%
X168800000Y-113800000D02*
X168800000Y-114550000D01*
X168800000Y-119450000D02*
X168800000Y-120200000D01*
X169550000Y-113800000D02*
X168800000Y-113800000D01*
X169550000Y-120200000D02*
X168800000Y-120200000D01*
X179200000Y-113800000D02*
X178450000Y-113800000D01*
X179200000Y-113950000D02*
X179050000Y-113800000D01*
X179200000Y-114100000D02*
X178900000Y-113800000D01*
X179200000Y-114250000D02*
X178750000Y-113800000D01*
X179200000Y-114400000D02*
X178600000Y-113800000D01*
X179200000Y-114550000D02*
X179200000Y-113800000D01*
X179200000Y-119450000D02*
X179200000Y-120200000D01*
X179200000Y-120200000D02*
X178450000Y-120200000D01*
%TO.C,U1*%
X202900000Y-138900000D02*
X202900000Y-141900000D01*
X205100000Y-138900000D02*
X205100000Y-141100000D01*
%TO.C,K34*%
X113800000Y-104800000D02*
X113800000Y-105550000D01*
X113800000Y-110450000D02*
X113800000Y-111200000D01*
X114550000Y-104800000D02*
X113800000Y-104800000D01*
X114550000Y-111200000D02*
X113800000Y-111200000D01*
X124200000Y-104800000D02*
X123450000Y-104800000D01*
X124200000Y-104950000D02*
X124050000Y-104800000D01*
X124200000Y-105100000D02*
X123900000Y-104800000D01*
X124200000Y-105250000D02*
X123750000Y-104800000D01*
X124200000Y-105400000D02*
X123600000Y-104800000D01*
X124200000Y-105550000D02*
X124200000Y-104800000D01*
X124200000Y-110450000D02*
X124200000Y-111200000D01*
X124200000Y-111200000D02*
X123450000Y-111200000D01*
%TO.C,U13*%
X182909000Y-136382000D02*
X182909000Y-134182000D01*
X182909000Y-136382000D02*
X182909000Y-139982000D01*
X188379000Y-136382000D02*
X188379000Y-134182000D01*
X188379000Y-136382000D02*
X188379000Y-138582000D01*
%TO.C,K68*%
X157800000Y-122800000D02*
X157800000Y-123550000D01*
X157800000Y-128450000D02*
X157800000Y-129200000D01*
X158550000Y-122800000D02*
X157800000Y-122800000D01*
X158550000Y-129200000D02*
X157800000Y-129200000D01*
X168200000Y-122800000D02*
X167450000Y-122800000D01*
X168200000Y-122950000D02*
X168050000Y-122800000D01*
X168200000Y-123100000D02*
X167900000Y-122800000D01*
X168200000Y-123250000D02*
X167750000Y-122800000D01*
X168200000Y-123400000D02*
X167600000Y-122800000D01*
X168200000Y-123550000D02*
X168200000Y-122800000D01*
X168200000Y-128450000D02*
X168200000Y-129200000D01*
X168200000Y-129200000D02*
X167450000Y-129200000D01*
%TO.C,R5*%
X67237258Y-125977500D02*
X66762742Y-125977500D01*
X67237258Y-127022500D02*
X66762742Y-127022500D01*
%TO.C,K52*%
X135800000Y-122800000D02*
X135800000Y-123550000D01*
X135800000Y-128450000D02*
X135800000Y-129200000D01*
X136550000Y-122800000D02*
X135800000Y-122800000D01*
X136550000Y-129200000D02*
X135800000Y-129200000D01*
X146200000Y-122800000D02*
X145450000Y-122800000D01*
X146200000Y-122950000D02*
X146050000Y-122800000D01*
X146200000Y-123100000D02*
X145900000Y-122800000D01*
X146200000Y-123250000D02*
X145750000Y-122800000D01*
X146200000Y-123400000D02*
X145600000Y-122800000D01*
X146200000Y-123550000D02*
X146200000Y-122800000D01*
X146200000Y-128450000D02*
X146200000Y-129200000D01*
X146200000Y-129200000D02*
X145450000Y-129200000D01*
%TO.C,C2*%
X200990000Y-139859420D02*
X200990000Y-140140580D01*
X202010000Y-139859420D02*
X202010000Y-140140580D01*
%TO.C,K33*%
X113800000Y-95800000D02*
X113800000Y-96550000D01*
X113800000Y-101450000D02*
X113800000Y-102200000D01*
X114550000Y-95800000D02*
X113800000Y-95800000D01*
X114550000Y-102200000D02*
X113800000Y-102200000D01*
X124200000Y-95800000D02*
X123450000Y-95800000D01*
X124200000Y-95950000D02*
X124050000Y-95800000D01*
X124200000Y-96100000D02*
X123900000Y-95800000D01*
X124200000Y-96250000D02*
X123750000Y-95800000D01*
X124200000Y-96400000D02*
X123600000Y-95800000D01*
X124200000Y-96550000D02*
X124200000Y-95800000D01*
X124200000Y-101450000D02*
X124200000Y-102200000D01*
X124200000Y-102200000D02*
X123450000Y-102200000D01*
%TO.C,K74*%
X168800000Y-104800000D02*
X168800000Y-105550000D01*
X168800000Y-110450000D02*
X168800000Y-111200000D01*
X169550000Y-104800000D02*
X168800000Y-104800000D01*
X169550000Y-111200000D02*
X168800000Y-111200000D01*
X179200000Y-104800000D02*
X178450000Y-104800000D01*
X179200000Y-104950000D02*
X179050000Y-104800000D01*
X179200000Y-105100000D02*
X178900000Y-104800000D01*
X179200000Y-105250000D02*
X178750000Y-104800000D01*
X179200000Y-105400000D02*
X178600000Y-104800000D01*
X179200000Y-105550000D02*
X179200000Y-104800000D01*
X179200000Y-110450000D02*
X179200000Y-111200000D01*
X179200000Y-111200000D02*
X178450000Y-111200000D01*
%TO.C,R2*%
X67237258Y-130477500D02*
X66762742Y-130477500D01*
X67237258Y-131522500D02*
X66762742Y-131522500D01*
%TO.C,K3*%
X69800000Y-113800000D02*
X69800000Y-114550000D01*
X69800000Y-119450000D02*
X69800000Y-120200000D01*
X70550000Y-113800000D02*
X69800000Y-113800000D01*
X70550000Y-120200000D02*
X69800000Y-120200000D01*
X80200000Y-113800000D02*
X79450000Y-113800000D01*
X80200000Y-113950000D02*
X80050000Y-113800000D01*
X80200000Y-114100000D02*
X79900000Y-113800000D01*
X80200000Y-114250000D02*
X79750000Y-113800000D01*
X80200000Y-114400000D02*
X79600000Y-113800000D01*
X80200000Y-114550000D02*
X80200000Y-113800000D01*
X80200000Y-119450000D02*
X80200000Y-120200000D01*
X80200000Y-120200000D02*
X79450000Y-120200000D01*
%TO.C,K90*%
X190800000Y-104800000D02*
X190800000Y-105550000D01*
X190800000Y-110450000D02*
X190800000Y-111200000D01*
X191550000Y-104800000D02*
X190800000Y-104800000D01*
X191550000Y-111200000D02*
X190800000Y-111200000D01*
X201200000Y-104800000D02*
X200450000Y-104800000D01*
X201200000Y-104950000D02*
X201050000Y-104800000D01*
X201200000Y-105100000D02*
X200900000Y-104800000D01*
X201200000Y-105250000D02*
X200750000Y-104800000D01*
X201200000Y-105400000D02*
X200600000Y-104800000D01*
X201200000Y-105550000D02*
X201200000Y-104800000D01*
X201200000Y-110450000D02*
X201200000Y-111200000D01*
X201200000Y-111200000D02*
X200450000Y-111200000D01*
%TO.C,K44*%
X124800000Y-122800000D02*
X124800000Y-123550000D01*
X124800000Y-128450000D02*
X124800000Y-129200000D01*
X125550000Y-122800000D02*
X124800000Y-122800000D01*
X125550000Y-129200000D02*
X124800000Y-129200000D01*
X135200000Y-122800000D02*
X134450000Y-122800000D01*
X135200000Y-122950000D02*
X135050000Y-122800000D01*
X135200000Y-123100000D02*
X134900000Y-122800000D01*
X135200000Y-123250000D02*
X134750000Y-122800000D01*
X135200000Y-123400000D02*
X134600000Y-122800000D01*
X135200000Y-123550000D02*
X135200000Y-122800000D01*
X135200000Y-128450000D02*
X135200000Y-129200000D01*
X135200000Y-129200000D02*
X134450000Y-129200000D01*
%TO.C,K42*%
X124800000Y-104800000D02*
X124800000Y-105550000D01*
X124800000Y-110450000D02*
X124800000Y-111200000D01*
X125550000Y-104800000D02*
X124800000Y-104800000D01*
X125550000Y-111200000D02*
X124800000Y-111200000D01*
X135200000Y-104800000D02*
X134450000Y-104800000D01*
X135200000Y-104950000D02*
X135050000Y-104800000D01*
X135200000Y-105100000D02*
X134900000Y-104800000D01*
X135200000Y-105250000D02*
X134750000Y-104800000D01*
X135200000Y-105400000D02*
X134600000Y-104800000D01*
X135200000Y-105550000D02*
X135200000Y-104800000D01*
X135200000Y-110450000D02*
X135200000Y-111200000D01*
X135200000Y-111200000D02*
X134450000Y-111200000D01*
%TO.C,K84*%
X179800000Y-122800000D02*
X179800000Y-123550000D01*
X179800000Y-128450000D02*
X179800000Y-129200000D01*
X180550000Y-122800000D02*
X179800000Y-122800000D01*
X180550000Y-129200000D02*
X179800000Y-129200000D01*
X190200000Y-122800000D02*
X189450000Y-122800000D01*
X190200000Y-122950000D02*
X190050000Y-122800000D01*
X190200000Y-123100000D02*
X189900000Y-122800000D01*
X190200000Y-123250000D02*
X189750000Y-122800000D01*
X190200000Y-123400000D02*
X189600000Y-122800000D01*
X190200000Y-123550000D02*
X190200000Y-122800000D01*
X190200000Y-128450000D02*
X190200000Y-129200000D01*
X190200000Y-129200000D02*
X189450000Y-129200000D01*
%TO.C,K2*%
X69800000Y-104800000D02*
X69800000Y-105550000D01*
X69800000Y-110450000D02*
X69800000Y-111200000D01*
X70550000Y-104800000D02*
X69800000Y-104800000D01*
X70550000Y-111200000D02*
X69800000Y-111200000D01*
X80200000Y-104800000D02*
X79450000Y-104800000D01*
X80200000Y-104950000D02*
X80050000Y-104800000D01*
X80200000Y-105100000D02*
X79900000Y-104800000D01*
X80200000Y-105250000D02*
X79750000Y-104800000D01*
X80200000Y-105400000D02*
X79600000Y-104800000D01*
X80200000Y-105550000D02*
X80200000Y-104800000D01*
X80200000Y-110450000D02*
X80200000Y-111200000D01*
X80200000Y-111200000D02*
X79450000Y-111200000D01*
%TO.C,U9*%
X138909000Y-136382000D02*
X138909000Y-134182000D01*
X138909000Y-136382000D02*
X138909000Y-139982000D01*
X144379000Y-136382000D02*
X144379000Y-134182000D01*
X144379000Y-136382000D02*
X144379000Y-138582000D01*
%TO.C,U4*%
X83909000Y-136382000D02*
X83909000Y-134182000D01*
X83909000Y-136382000D02*
X83909000Y-139982000D01*
X89379000Y-136382000D02*
X89379000Y-134182000D01*
X89379000Y-136382000D02*
X89379000Y-138582000D01*
%TO.C,C5*%
X93324000Y-136268581D02*
X93324000Y-135987421D01*
X94344000Y-136268581D02*
X94344000Y-135987421D01*
%TO.C,C1*%
X200990000Y-134859420D02*
X200990000Y-135140580D01*
X202010000Y-134859420D02*
X202010000Y-135140580D01*
%TO.C,K19*%
X91800000Y-113800000D02*
X91800000Y-114550000D01*
X91800000Y-119450000D02*
X91800000Y-120200000D01*
X92550000Y-113800000D02*
X91800000Y-113800000D01*
X92550000Y-120200000D02*
X91800000Y-120200000D01*
X102200000Y-113800000D02*
X101450000Y-113800000D01*
X102200000Y-113950000D02*
X102050000Y-113800000D01*
X102200000Y-114100000D02*
X101900000Y-113800000D01*
X102200000Y-114250000D02*
X101750000Y-113800000D01*
X102200000Y-114400000D02*
X101600000Y-113800000D01*
X102200000Y-114550000D02*
X102200000Y-113800000D01*
X102200000Y-119450000D02*
X102200000Y-120200000D01*
X102200000Y-120200000D02*
X101450000Y-120200000D01*
%TO.C,K12*%
X80800000Y-122800000D02*
X80800000Y-123550000D01*
X80800000Y-128450000D02*
X80800000Y-129200000D01*
X81550000Y-122800000D02*
X80800000Y-122800000D01*
X81550000Y-129200000D02*
X80800000Y-129200000D01*
X91200000Y-122800000D02*
X90450000Y-122800000D01*
X91200000Y-122950000D02*
X91050000Y-122800000D01*
X91200000Y-123100000D02*
X90900000Y-122800000D01*
X91200000Y-123250000D02*
X90750000Y-122800000D01*
X91200000Y-123400000D02*
X90600000Y-122800000D01*
X91200000Y-123550000D02*
X91200000Y-122800000D01*
X91200000Y-128450000D02*
X91200000Y-129200000D01*
X91200000Y-129200000D02*
X90450000Y-129200000D01*
%TO.C,K41*%
X124800000Y-95800000D02*
X124800000Y-96550000D01*
X124800000Y-101450000D02*
X124800000Y-102200000D01*
X125550000Y-95800000D02*
X124800000Y-95800000D01*
X125550000Y-102200000D02*
X124800000Y-102200000D01*
X135200000Y-95800000D02*
X134450000Y-95800000D01*
X135200000Y-95950000D02*
X135050000Y-95800000D01*
X135200000Y-96100000D02*
X134900000Y-95800000D01*
X135200000Y-96250000D02*
X134750000Y-95800000D01*
X135200000Y-96400000D02*
X134600000Y-95800000D01*
X135200000Y-96550000D02*
X135200000Y-95800000D01*
X135200000Y-101450000D02*
X135200000Y-102200000D01*
X135200000Y-102200000D02*
X134450000Y-102200000D01*
%TO.C,K58*%
X146800000Y-104800000D02*
X146800000Y-105550000D01*
X146800000Y-110450000D02*
X146800000Y-111200000D01*
X147550000Y-104800000D02*
X146800000Y-104800000D01*
X147550000Y-111200000D02*
X146800000Y-111200000D01*
X157200000Y-104800000D02*
X156450000Y-104800000D01*
X157200000Y-104950000D02*
X157050000Y-104800000D01*
X157200000Y-105100000D02*
X156900000Y-104800000D01*
X157200000Y-105250000D02*
X156750000Y-104800000D01*
X157200000Y-105400000D02*
X156600000Y-104800000D01*
X157200000Y-105550000D02*
X157200000Y-104800000D01*
X157200000Y-110450000D02*
X157200000Y-111200000D01*
X157200000Y-111200000D02*
X156450000Y-111200000D01*
%TO.C,C4*%
X82324000Y-136268581D02*
X82324000Y-135987421D01*
X83344000Y-136268581D02*
X83344000Y-135987421D01*
%TO.C,U11*%
X160909000Y-136382000D02*
X160909000Y-134182000D01*
X160909000Y-136382000D02*
X160909000Y-139982000D01*
X166379000Y-136382000D02*
X166379000Y-134182000D01*
X166379000Y-136382000D02*
X166379000Y-138582000D01*
%TO.C,J4*%
X135795000Y-81822500D02*
X135795000Y-91242500D01*
X135795000Y-91242500D02*
X141955000Y-91242500D01*
X140595000Y-91242500D02*
X140595000Y-81822500D01*
X147035000Y-91242500D02*
X144055000Y-91242500D01*
X152115000Y-91242500D02*
X149135000Y-91242500D01*
X157195000Y-91242500D02*
X154215000Y-91242500D01*
X162275000Y-91242500D02*
X159295000Y-91242500D01*
X167355000Y-91242500D02*
X164375000Y-91242500D01*
X172435000Y-91242500D02*
X169455000Y-91242500D01*
X177515000Y-91242500D02*
X174535000Y-91242500D01*
X182595000Y-91242500D02*
X179615000Y-91242500D01*
X187675000Y-91242500D02*
X184695000Y-91242500D01*
X192755000Y-91242500D02*
X189775000Y-91242500D01*
X197585000Y-91242500D02*
X194855000Y-91242500D01*
X198585000Y-92532500D02*
X198885000Y-91932500D01*
X198885000Y-91932500D02*
X199185000Y-92532500D01*
X199185000Y-92532500D02*
X198585000Y-92532500D01*
X201295000Y-85132500D02*
X140595000Y-85132500D01*
X201295000Y-91242500D02*
X201295000Y-81822500D01*
X206095000Y-81822500D02*
X135795000Y-81822500D01*
X206095000Y-91242500D02*
X200185000Y-91232500D01*
X206095000Y-91242500D02*
X206095000Y-81822500D01*
%TO.C,K11*%
X80800000Y-113800000D02*
X80800000Y-114550000D01*
X80800000Y-119450000D02*
X80800000Y-120200000D01*
X81550000Y-113800000D02*
X80800000Y-113800000D01*
X81550000Y-120200000D02*
X80800000Y-120200000D01*
X91200000Y-113800000D02*
X90450000Y-113800000D01*
X91200000Y-113950000D02*
X91050000Y-113800000D01*
X91200000Y-114100000D02*
X90900000Y-113800000D01*
X91200000Y-114250000D02*
X90750000Y-113800000D01*
X91200000Y-114400000D02*
X90600000Y-113800000D01*
X91200000Y-114550000D02*
X91200000Y-113800000D01*
X91200000Y-119450000D02*
X91200000Y-120200000D01*
X91200000Y-120200000D02*
X90450000Y-120200000D01*
%TO.C,U3*%
X72909000Y-136382000D02*
X72909000Y-134182000D01*
X72909000Y-136382000D02*
X72909000Y-139982000D01*
X78379000Y-136382000D02*
X78379000Y-134182000D01*
X78379000Y-136382000D02*
X78379000Y-138582000D01*
%TO.C,K17*%
X91800000Y-95800000D02*
X91800000Y-96550000D01*
X91800000Y-101450000D02*
X91800000Y-102200000D01*
X92550000Y-95800000D02*
X91800000Y-95800000D01*
X92550000Y-102200000D02*
X91800000Y-102200000D01*
X102200000Y-95800000D02*
X101450000Y-95800000D01*
X102200000Y-95950000D02*
X102050000Y-95800000D01*
X102200000Y-96100000D02*
X101900000Y-95800000D01*
X102200000Y-96250000D02*
X101750000Y-95800000D01*
X102200000Y-96400000D02*
X101600000Y-95800000D01*
X102200000Y-96550000D02*
X102200000Y-95800000D01*
X102200000Y-101450000D02*
X102200000Y-102200000D01*
X102200000Y-102200000D02*
X101450000Y-102200000D01*
%TO.C,K57*%
X146800000Y-95800000D02*
X146800000Y-96550000D01*
X146800000Y-101450000D02*
X146800000Y-102200000D01*
X147550000Y-95800000D02*
X146800000Y-95800000D01*
X147550000Y-102200000D02*
X146800000Y-102200000D01*
X157200000Y-95800000D02*
X156450000Y-95800000D01*
X157200000Y-95950000D02*
X157050000Y-95800000D01*
X157200000Y-96100000D02*
X156900000Y-95800000D01*
X157200000Y-96250000D02*
X156750000Y-95800000D01*
X157200000Y-96400000D02*
X156600000Y-95800000D01*
X157200000Y-96550000D02*
X157200000Y-95800000D01*
X157200000Y-101450000D02*
X157200000Y-102200000D01*
X157200000Y-102200000D02*
X156450000Y-102200000D01*
%TO.C,U6*%
X105909000Y-136382000D02*
X105909000Y-134182000D01*
X105909000Y-136382000D02*
X105909000Y-139982000D01*
X111379000Y-136382000D02*
X111379000Y-134182000D01*
X111379000Y-136382000D02*
X111379000Y-138582000D01*
%TO.C,JP1*%
X64265000Y-108227064D02*
X64265000Y-107772936D01*
X65735000Y-108227064D02*
X65735000Y-107772936D01*
%TO.C,K25*%
X102800000Y-95800000D02*
X102800000Y-96550000D01*
X102800000Y-101450000D02*
X102800000Y-102200000D01*
X103550000Y-95800000D02*
X102800000Y-95800000D01*
X103550000Y-102200000D02*
X102800000Y-102200000D01*
X113200000Y-95800000D02*
X112450000Y-95800000D01*
X113200000Y-95950000D02*
X113050000Y-95800000D01*
X113200000Y-96100000D02*
X112900000Y-95800000D01*
X113200000Y-96250000D02*
X112750000Y-95800000D01*
X113200000Y-96400000D02*
X112600000Y-95800000D01*
X113200000Y-96550000D02*
X113200000Y-95800000D01*
X113200000Y-101450000D02*
X113200000Y-102200000D01*
X113200000Y-102200000D02*
X112450000Y-102200000D01*
%TO.C,R3*%
X67237258Y-127477500D02*
X66762742Y-127477500D01*
X67237258Y-128522500D02*
X66762742Y-128522500D01*
%TO.C,C10*%
X148324000Y-136268581D02*
X148324000Y-135987421D01*
X149344000Y-136268581D02*
X149344000Y-135987421D01*
%TO.C,K66*%
X157800000Y-104800000D02*
X157800000Y-105550000D01*
X157800000Y-110450000D02*
X157800000Y-111200000D01*
X158550000Y-104800000D02*
X157800000Y-104800000D01*
X158550000Y-111200000D02*
X157800000Y-111200000D01*
X168200000Y-104800000D02*
X167450000Y-104800000D01*
X168200000Y-104950000D02*
X168050000Y-104800000D01*
X168200000Y-105100000D02*
X167900000Y-104800000D01*
X168200000Y-105250000D02*
X167750000Y-104800000D01*
X168200000Y-105400000D02*
X167600000Y-104800000D01*
X168200000Y-105550000D02*
X168200000Y-104800000D01*
X168200000Y-110450000D02*
X168200000Y-111200000D01*
X168200000Y-111200000D02*
X167450000Y-111200000D01*
%TO.C,K28*%
X102800000Y-122800000D02*
X102800000Y-123550000D01*
X102800000Y-128450000D02*
X102800000Y-129200000D01*
X103550000Y-122800000D02*
X102800000Y-122800000D01*
X103550000Y-129200000D02*
X102800000Y-129200000D01*
X113200000Y-122800000D02*
X112450000Y-122800000D01*
X113200000Y-122950000D02*
X113050000Y-122800000D01*
X113200000Y-123100000D02*
X112900000Y-122800000D01*
X113200000Y-123250000D02*
X112750000Y-122800000D01*
X113200000Y-123400000D02*
X112600000Y-122800000D01*
X113200000Y-123550000D02*
X113200000Y-122800000D01*
X113200000Y-128450000D02*
X113200000Y-129200000D01*
X113200000Y-129200000D02*
X112450000Y-129200000D01*
%TO.C,R7*%
X205477500Y-136237258D02*
X205477500Y-135762742D01*
X206522500Y-136237258D02*
X206522500Y-135762742D01*
%TO.C,C6*%
X104324000Y-136268581D02*
X104324000Y-135987421D01*
X105344000Y-136268581D02*
X105344000Y-135987421D01*
%TO.C,K20*%
X91800000Y-122800000D02*
X91800000Y-123550000D01*
X91800000Y-128450000D02*
X91800000Y-129200000D01*
X92550000Y-122800000D02*
X91800000Y-122800000D01*
X92550000Y-129200000D02*
X91800000Y-129200000D01*
X102200000Y-122800000D02*
X101450000Y-122800000D01*
X102200000Y-122950000D02*
X102050000Y-122800000D01*
X102200000Y-123100000D02*
X101900000Y-122800000D01*
X102200000Y-123250000D02*
X101750000Y-122800000D01*
X102200000Y-123400000D02*
X101600000Y-122800000D01*
X102200000Y-123550000D02*
X102200000Y-122800000D01*
X102200000Y-128450000D02*
X102200000Y-129200000D01*
X102200000Y-129200000D02*
X101450000Y-129200000D01*
%TO.C,K83*%
X179800000Y-113800000D02*
X179800000Y-114550000D01*
X179800000Y-119450000D02*
X179800000Y-120200000D01*
X180550000Y-113800000D02*
X179800000Y-113800000D01*
X180550000Y-120200000D02*
X179800000Y-120200000D01*
X190200000Y-113800000D02*
X189450000Y-113800000D01*
X190200000Y-113950000D02*
X190050000Y-113800000D01*
X190200000Y-114100000D02*
X189900000Y-113800000D01*
X190200000Y-114250000D02*
X189750000Y-113800000D01*
X190200000Y-114400000D02*
X189600000Y-113800000D01*
X190200000Y-114550000D02*
X190200000Y-113800000D01*
X190200000Y-119450000D02*
X190200000Y-120200000D01*
X190200000Y-120200000D02*
X189450000Y-120200000D01*
%TO.C,JP3*%
X203265000Y-108227064D02*
X203265000Y-107772936D01*
X204735000Y-108227064D02*
X204735000Y-107772936D01*
%TO.C,U2*%
X202900000Y-133900000D02*
X202900000Y-136900000D01*
X205100000Y-133900000D02*
X205100000Y-136100000D01*
%TO.C,C14*%
X192324000Y-136268581D02*
X192324000Y-135987421D01*
X193344000Y-136268581D02*
X193344000Y-135987421D01*
%TO.C,U12*%
X171909000Y-136382000D02*
X171909000Y-134182000D01*
X171909000Y-136382000D02*
X171909000Y-139982000D01*
X177379000Y-136382000D02*
X177379000Y-134182000D01*
X177379000Y-136382000D02*
X177379000Y-138582000D01*
%TO.C,JP4*%
X207265000Y-108227064D02*
X207265000Y-107772936D01*
X208735000Y-108227064D02*
X208735000Y-107772936D01*
%TO.C,K67*%
X157800000Y-113800000D02*
X157800000Y-114550000D01*
X157800000Y-119450000D02*
X157800000Y-120200000D01*
X158550000Y-113800000D02*
X157800000Y-113800000D01*
X158550000Y-120200000D02*
X157800000Y-120200000D01*
X168200000Y-113800000D02*
X167450000Y-113800000D01*
X168200000Y-113950000D02*
X168050000Y-113800000D01*
X168200000Y-114100000D02*
X167900000Y-113800000D01*
X168200000Y-114250000D02*
X167750000Y-113800000D01*
X168200000Y-114400000D02*
X167600000Y-113800000D01*
X168200000Y-114550000D02*
X168200000Y-113800000D01*
X168200000Y-119450000D02*
X168200000Y-120200000D01*
X168200000Y-120200000D02*
X167450000Y-120200000D01*
%TO.C,JP5*%
X68271727Y-136356066D02*
X68271727Y-135881550D01*
X69316727Y-136356066D02*
X69316727Y-135881550D01*
%TO.C,R1*%
X206977500Y-136237258D02*
X206977500Y-135762742D01*
X208022500Y-136237258D02*
X208022500Y-135762742D01*
%TO.C,K18*%
X91800000Y-104800000D02*
X91800000Y-105550000D01*
X91800000Y-110450000D02*
X91800000Y-111200000D01*
X92550000Y-104800000D02*
X91800000Y-104800000D01*
X92550000Y-111200000D02*
X91800000Y-111200000D01*
X102200000Y-104800000D02*
X101450000Y-104800000D01*
X102200000Y-104950000D02*
X102050000Y-104800000D01*
X102200000Y-105100000D02*
X101900000Y-104800000D01*
X102200000Y-105250000D02*
X101750000Y-104800000D01*
X102200000Y-105400000D02*
X101600000Y-104800000D01*
X102200000Y-105550000D02*
X102200000Y-104800000D01*
X102200000Y-110450000D02*
X102200000Y-111200000D01*
X102200000Y-111200000D02*
X101450000Y-111200000D01*
%TO.C,K81*%
X179800000Y-95800000D02*
X179800000Y-96550000D01*
X179800000Y-101450000D02*
X179800000Y-102200000D01*
X180550000Y-95800000D02*
X179800000Y-95800000D01*
X180550000Y-102200000D02*
X179800000Y-102200000D01*
X190200000Y-95800000D02*
X189450000Y-95800000D01*
X190200000Y-95950000D02*
X190050000Y-95800000D01*
X190200000Y-96100000D02*
X189900000Y-95800000D01*
X190200000Y-96250000D02*
X189750000Y-95800000D01*
X190200000Y-96400000D02*
X189600000Y-95800000D01*
X190200000Y-96550000D02*
X190200000Y-95800000D01*
X190200000Y-101450000D02*
X190200000Y-102200000D01*
X190200000Y-102200000D02*
X189450000Y-102200000D01*
%TO.C,K36*%
X113800000Y-122800000D02*
X113800000Y-123550000D01*
X113800000Y-128450000D02*
X113800000Y-129200000D01*
X114550000Y-122800000D02*
X113800000Y-122800000D01*
X114550000Y-129200000D02*
X113800000Y-129200000D01*
X124200000Y-122800000D02*
X123450000Y-122800000D01*
X124200000Y-122950000D02*
X124050000Y-122800000D01*
X124200000Y-123100000D02*
X123900000Y-122800000D01*
X124200000Y-123250000D02*
X123750000Y-122800000D01*
X124200000Y-123400000D02*
X123600000Y-122800000D01*
X124200000Y-123550000D02*
X124200000Y-122800000D01*
X124200000Y-128450000D02*
X124200000Y-129200000D01*
X124200000Y-129200000D02*
X123450000Y-129200000D01*
%TO.C,R6*%
X67237258Y-124477500D02*
X66762742Y-124477500D01*
X67237258Y-125522500D02*
X66762742Y-125522500D01*
%TO.C,U8*%
X127909000Y-136382000D02*
X127909000Y-134182000D01*
X127909000Y-136382000D02*
X127909000Y-139982000D01*
X133379000Y-136382000D02*
X133379000Y-134182000D01*
X133379000Y-136382000D02*
X133379000Y-138582000D01*
%TO.C,K73*%
X168800000Y-95800000D02*
X168800000Y-96550000D01*
X168800000Y-101450000D02*
X168800000Y-102200000D01*
X169550000Y-95800000D02*
X168800000Y-95800000D01*
X169550000Y-102200000D02*
X168800000Y-102200000D01*
X179200000Y-95800000D02*
X178450000Y-95800000D01*
X179200000Y-95950000D02*
X179050000Y-95800000D01*
X179200000Y-96100000D02*
X178900000Y-95800000D01*
X179200000Y-96250000D02*
X178750000Y-95800000D01*
X179200000Y-96400000D02*
X178600000Y-95800000D01*
X179200000Y-96550000D02*
X179200000Y-95800000D01*
X179200000Y-101450000D02*
X179200000Y-102200000D01*
X179200000Y-102200000D02*
X178450000Y-102200000D01*
%TO.C,C9*%
X137324000Y-136268581D02*
X137324000Y-135987421D01*
X138344000Y-136268581D02*
X138344000Y-135987421D01*
%TO.C,U10*%
X149909000Y-136382000D02*
X149909000Y-134182000D01*
X149909000Y-136382000D02*
X149909000Y-139982000D01*
X155379000Y-136382000D02*
X155379000Y-134182000D01*
X155379000Y-136382000D02*
X155379000Y-138582000D01*
%TO.C,C7*%
X115324000Y-136268581D02*
X115324000Y-135987421D01*
X116344000Y-136268581D02*
X116344000Y-135987421D01*
%TO.C,C13*%
X181324000Y-136268581D02*
X181324000Y-135987421D01*
X182344000Y-136268581D02*
X182344000Y-135987421D01*
%TO.C,K82*%
X179800000Y-104800000D02*
X179800000Y-105550000D01*
X179800000Y-110450000D02*
X179800000Y-111200000D01*
X180550000Y-104800000D02*
X179800000Y-104800000D01*
X180550000Y-111200000D02*
X179800000Y-111200000D01*
X190200000Y-104800000D02*
X189450000Y-104800000D01*
X190200000Y-104950000D02*
X190050000Y-104800000D01*
X190200000Y-105100000D02*
X189900000Y-104800000D01*
X190200000Y-105250000D02*
X189750000Y-104800000D01*
X190200000Y-105400000D02*
X189600000Y-104800000D01*
X190200000Y-105550000D02*
X190200000Y-104800000D01*
X190200000Y-110450000D02*
X190200000Y-111200000D01*
X190200000Y-111200000D02*
X189450000Y-111200000D01*
%TO.C,C3*%
X71324000Y-136268581D02*
X71324000Y-135987421D01*
X72344000Y-136268581D02*
X72344000Y-135987421D01*
%TO.C,K4*%
X69800000Y-122800000D02*
X69800000Y-123550000D01*
X69800000Y-128450000D02*
X69800000Y-129200000D01*
X70550000Y-122800000D02*
X69800000Y-122800000D01*
X70550000Y-129200000D02*
X69800000Y-129200000D01*
X80200000Y-122800000D02*
X79450000Y-122800000D01*
X80200000Y-122950000D02*
X80050000Y-122800000D01*
X80200000Y-123100000D02*
X79900000Y-122800000D01*
X80200000Y-123250000D02*
X79750000Y-122800000D01*
X80200000Y-123400000D02*
X79600000Y-122800000D01*
X80200000Y-123550000D02*
X80200000Y-122800000D01*
X80200000Y-128450000D02*
X80200000Y-129200000D01*
X80200000Y-129200000D02*
X79450000Y-129200000D01*
%TO.C,JP6*%
X69771727Y-136356066D02*
X69771727Y-135881550D01*
X70816727Y-136356066D02*
X70816727Y-135881550D01*
%TO.C,C11*%
X159324000Y-136268581D02*
X159324000Y-135987421D01*
X160344000Y-136268581D02*
X160344000Y-135987421D01*
%TO.C,R4*%
X67237258Y-128977500D02*
X66762742Y-128977500D01*
X67237258Y-130022500D02*
X66762742Y-130022500D01*
%TO.C,K43*%
X124800000Y-113800000D02*
X124800000Y-114550000D01*
X124800000Y-119450000D02*
X124800000Y-120200000D01*
X125550000Y-113800000D02*
X124800000Y-113800000D01*
X125550000Y-120200000D02*
X124800000Y-120200000D01*
X135200000Y-113800000D02*
X134450000Y-113800000D01*
X135200000Y-113950000D02*
X135050000Y-113800000D01*
X135200000Y-114100000D02*
X134900000Y-113800000D01*
X135200000Y-114250000D02*
X134750000Y-113800000D01*
X135200000Y-114400000D02*
X134600000Y-113800000D01*
X135200000Y-114550000D02*
X135200000Y-113800000D01*
X135200000Y-119450000D02*
X135200000Y-120200000D01*
X135200000Y-120200000D02*
X134450000Y-120200000D01*
%TO.C,K60*%
X146800000Y-122800000D02*
X146800000Y-123550000D01*
X146800000Y-128450000D02*
X146800000Y-129200000D01*
X147550000Y-122800000D02*
X146800000Y-122800000D01*
X147550000Y-129200000D02*
X146800000Y-129200000D01*
X157200000Y-122800000D02*
X156450000Y-122800000D01*
X157200000Y-122950000D02*
X157050000Y-122800000D01*
X157200000Y-123100000D02*
X156900000Y-122800000D01*
X157200000Y-123250000D02*
X156750000Y-122800000D01*
X157200000Y-123400000D02*
X156600000Y-122800000D01*
X157200000Y-123550000D02*
X157200000Y-122800000D01*
X157200000Y-128450000D02*
X157200000Y-129200000D01*
X157200000Y-129200000D02*
X156450000Y-129200000D01*
%TO.C,K65*%
X157800000Y-95800000D02*
X157800000Y-96550000D01*
X157800000Y-101450000D02*
X157800000Y-102200000D01*
X158550000Y-95800000D02*
X157800000Y-95800000D01*
X158550000Y-102200000D02*
X157800000Y-102200000D01*
X168200000Y-95800000D02*
X167450000Y-95800000D01*
X168200000Y-95950000D02*
X168050000Y-95800000D01*
X168200000Y-96100000D02*
X167900000Y-95800000D01*
X168200000Y-96250000D02*
X167750000Y-95800000D01*
X168200000Y-96400000D02*
X167600000Y-95800000D01*
X168200000Y-96550000D02*
X168200000Y-95800000D01*
X168200000Y-101450000D02*
X168200000Y-102200000D01*
X168200000Y-102200000D02*
X167450000Y-102200000D01*
%TO.C,J3*%
X64490000Y-81822500D02*
X64490000Y-91242500D01*
X64490000Y-91242500D02*
X70650000Y-91242500D01*
X69290000Y-91242500D02*
X69290000Y-81822500D01*
X75730000Y-91242500D02*
X72750000Y-91242500D01*
X80810000Y-91242500D02*
X77830000Y-91242500D01*
X85890000Y-91242500D02*
X82910000Y-91242500D01*
X90970000Y-91242500D02*
X87990000Y-91242500D01*
X96050000Y-91242500D02*
X93070000Y-91242500D01*
X101130000Y-91242500D02*
X98150000Y-91242500D01*
X106210000Y-91242500D02*
X103230000Y-91242500D01*
X111290000Y-91242500D02*
X108310000Y-91242500D01*
X116370000Y-91242500D02*
X113390000Y-91242500D01*
X121450000Y-91242500D02*
X118470000Y-91242500D01*
X126280000Y-91242500D02*
X123550000Y-91242500D01*
X127280000Y-92532500D02*
X127580000Y-91932500D01*
X127580000Y-91932500D02*
X127880000Y-92532500D01*
X127880000Y-92532500D02*
X127280000Y-92532500D01*
X129990000Y-85132500D02*
X69290000Y-85132500D01*
X129990000Y-91242500D02*
X129990000Y-81822500D01*
X134790000Y-81822500D02*
X64490000Y-81822500D01*
X134790000Y-91242500D02*
X128880000Y-91232500D01*
X134790000Y-91242500D02*
X134790000Y-81822500D01*
%TO.C,K1*%
X69800000Y-95800000D02*
X69800000Y-96550000D01*
X69800000Y-101450000D02*
X69800000Y-102200000D01*
X70550000Y-95800000D02*
X69800000Y-95800000D01*
X70550000Y-102200000D02*
X69800000Y-102200000D01*
X80200000Y-95800000D02*
X79450000Y-95800000D01*
X80200000Y-95950000D02*
X80050000Y-95800000D01*
X80200000Y-96100000D02*
X79900000Y-95800000D01*
X80200000Y-96250000D02*
X79750000Y-95800000D01*
X80200000Y-96400000D02*
X79600000Y-95800000D01*
X80200000Y-96550000D02*
X80200000Y-95800000D01*
X80200000Y-101450000D02*
X80200000Y-102200000D01*
X80200000Y-102200000D02*
X79450000Y-102200000D01*
%TO.C,C8*%
X126324000Y-136268581D02*
X126324000Y-135987421D01*
X127344000Y-136268581D02*
X127344000Y-135987421D01*
%TO.C,K27*%
X102800000Y-113800000D02*
X102800000Y-114550000D01*
X102800000Y-119450000D02*
X102800000Y-120200000D01*
X103550000Y-113800000D02*
X102800000Y-113800000D01*
X103550000Y-120200000D02*
X102800000Y-120200000D01*
X113200000Y-113800000D02*
X112450000Y-113800000D01*
X113200000Y-113950000D02*
X113050000Y-113800000D01*
X113200000Y-114100000D02*
X112900000Y-113800000D01*
X113200000Y-114250000D02*
X112750000Y-113800000D01*
X113200000Y-114400000D02*
X112600000Y-113800000D01*
X113200000Y-114550000D02*
X113200000Y-113800000D01*
X113200000Y-119450000D02*
X113200000Y-120200000D01*
X113200000Y-120200000D02*
X112450000Y-120200000D01*
%TO.C,K59*%
X146800000Y-113800000D02*
X146800000Y-114550000D01*
X146800000Y-119450000D02*
X146800000Y-120200000D01*
X147550000Y-113800000D02*
X146800000Y-113800000D01*
X147550000Y-120200000D02*
X146800000Y-120200000D01*
X157200000Y-113800000D02*
X156450000Y-113800000D01*
X157200000Y-113950000D02*
X157050000Y-113800000D01*
X157200000Y-114100000D02*
X156900000Y-113800000D01*
X157200000Y-114250000D02*
X156750000Y-113800000D01*
X157200000Y-114400000D02*
X156600000Y-113800000D01*
X157200000Y-114550000D02*
X157200000Y-113800000D01*
X157200000Y-119450000D02*
X157200000Y-120200000D01*
X157200000Y-120200000D02*
X156450000Y-120200000D01*
%TO.C,K76*%
X168800000Y-122800000D02*
X168800000Y-123550000D01*
X168800000Y-128450000D02*
X168800000Y-129200000D01*
X169550000Y-122800000D02*
X168800000Y-122800000D01*
X169550000Y-129200000D02*
X168800000Y-129200000D01*
X179200000Y-122800000D02*
X178450000Y-122800000D01*
X179200000Y-122950000D02*
X179050000Y-122800000D01*
X179200000Y-123100000D02*
X178900000Y-122800000D01*
X179200000Y-123250000D02*
X178750000Y-122800000D01*
X179200000Y-123400000D02*
X178600000Y-122800000D01*
X179200000Y-123550000D02*
X179200000Y-122800000D01*
X179200000Y-128450000D02*
X179200000Y-129200000D01*
X179200000Y-129200000D02*
X178450000Y-129200000D01*
%TO.C,K10*%
X80800000Y-104800000D02*
X80800000Y-105550000D01*
X80800000Y-110450000D02*
X80800000Y-111200000D01*
X81550000Y-104800000D02*
X80800000Y-104800000D01*
X81550000Y-111200000D02*
X80800000Y-111200000D01*
X91200000Y-104800000D02*
X90450000Y-104800000D01*
X91200000Y-104950000D02*
X91050000Y-104800000D01*
X91200000Y-105100000D02*
X90900000Y-104800000D01*
X91200000Y-105250000D02*
X90750000Y-104800000D01*
X91200000Y-105400000D02*
X90600000Y-104800000D01*
X91200000Y-105550000D02*
X91200000Y-104800000D01*
X91200000Y-110450000D02*
X91200000Y-111200000D01*
X91200000Y-111200000D02*
X90450000Y-111200000D01*
%TO.C,JP2*%
X61265000Y-108139564D02*
X61265000Y-107685436D01*
X62735000Y-108139564D02*
X62735000Y-107685436D01*
%TO.C,K92*%
X190800000Y-122800000D02*
X190800000Y-123550000D01*
X190800000Y-128450000D02*
X190800000Y-129200000D01*
X191550000Y-122800000D02*
X190800000Y-122800000D01*
X191550000Y-129200000D02*
X190800000Y-129200000D01*
X201200000Y-122800000D02*
X200450000Y-122800000D01*
X201200000Y-122950000D02*
X201050000Y-122800000D01*
X201200000Y-123100000D02*
X200900000Y-122800000D01*
X201200000Y-123250000D02*
X200750000Y-122800000D01*
X201200000Y-123400000D02*
X200600000Y-122800000D01*
X201200000Y-123550000D02*
X201200000Y-122800000D01*
X201200000Y-128450000D02*
X201200000Y-129200000D01*
X201200000Y-129200000D02*
X200450000Y-129200000D01*
%TO.C,J6*%
X51822500Y-94865000D02*
X51822500Y-105245000D01*
X51822500Y-105245000D02*
X61242500Y-105245000D01*
X55132500Y-94865000D02*
X55132500Y-105245000D01*
X61242500Y-94865000D02*
X51822500Y-94865000D01*
X61242500Y-94865000D02*
X61242500Y-96215000D01*
X61242500Y-98815000D02*
X61242500Y-101545000D01*
X61242500Y-105245000D02*
X61242500Y-103645000D01*
X61932500Y-97515000D02*
X62532500Y-97215000D01*
X62532500Y-97215000D02*
X62532500Y-97815000D01*
X62532500Y-97815000D02*
X61932500Y-97515000D01*
%TO.C,K51*%
X135800000Y-113800000D02*
X135800000Y-114550000D01*
X135800000Y-119450000D02*
X135800000Y-120200000D01*
X136550000Y-113800000D02*
X135800000Y-113800000D01*
X136550000Y-120200000D02*
X135800000Y-120200000D01*
X146200000Y-113800000D02*
X145450000Y-113800000D01*
X146200000Y-113950000D02*
X146050000Y-113800000D01*
X146200000Y-114100000D02*
X145900000Y-113800000D01*
X146200000Y-114250000D02*
X145750000Y-113800000D01*
X146200000Y-114400000D02*
X145600000Y-113800000D01*
X146200000Y-114550000D02*
X146200000Y-113800000D01*
X146200000Y-119450000D02*
X146200000Y-120200000D01*
X146200000Y-120200000D02*
X145450000Y-120200000D01*
%TO.C,K26*%
X102800000Y-104800000D02*
X102800000Y-105550000D01*
X102800000Y-110450000D02*
X102800000Y-111200000D01*
X103550000Y-104800000D02*
X102800000Y-104800000D01*
X103550000Y-111200000D02*
X102800000Y-111200000D01*
X113200000Y-104800000D02*
X112450000Y-104800000D01*
X113200000Y-104950000D02*
X113050000Y-104800000D01*
X113200000Y-105100000D02*
X112900000Y-104800000D01*
X113200000Y-105250000D02*
X112750000Y-104800000D01*
X113200000Y-105400000D02*
X112600000Y-104800000D01*
X113200000Y-105550000D02*
X113200000Y-104800000D01*
X113200000Y-110450000D02*
X113200000Y-111200000D01*
X113200000Y-111200000D02*
X112450000Y-111200000D01*
%TO.C,K9*%
X80800000Y-95800000D02*
X80800000Y-96550000D01*
X80800000Y-101450000D02*
X80800000Y-102200000D01*
X81550000Y-95800000D02*
X80800000Y-95800000D01*
X81550000Y-102200000D02*
X80800000Y-102200000D01*
X91200000Y-95800000D02*
X90450000Y-95800000D01*
X91200000Y-95950000D02*
X91050000Y-95800000D01*
X91200000Y-96100000D02*
X90900000Y-95800000D01*
X91200000Y-96250000D02*
X90750000Y-95800000D01*
X91200000Y-96400000D02*
X90600000Y-95800000D01*
X91200000Y-96550000D02*
X91200000Y-95800000D01*
X91200000Y-101450000D02*
X91200000Y-102200000D01*
X91200000Y-102200000D02*
X90450000Y-102200000D01*
%TO.C,K89*%
X190800000Y-95800000D02*
X190800000Y-96550000D01*
X190800000Y-101450000D02*
X190800000Y-102200000D01*
X191550000Y-95800000D02*
X190800000Y-95800000D01*
X191550000Y-102200000D02*
X190800000Y-102200000D01*
X201200000Y-95800000D02*
X200450000Y-95800000D01*
X201200000Y-95950000D02*
X201050000Y-95800000D01*
X201200000Y-96100000D02*
X200900000Y-95800000D01*
X201200000Y-96250000D02*
X200750000Y-95800000D01*
X201200000Y-96400000D02*
X200600000Y-95800000D01*
X201200000Y-96550000D02*
X201200000Y-95800000D01*
X201200000Y-101450000D02*
X201200000Y-102200000D01*
X201200000Y-102200000D02*
X200450000Y-102200000D01*
%TO.C,K35*%
X113800000Y-113800000D02*
X113800000Y-114550000D01*
X113800000Y-119450000D02*
X113800000Y-120200000D01*
X114550000Y-113800000D02*
X113800000Y-113800000D01*
X114550000Y-120200000D02*
X113800000Y-120200000D01*
X124200000Y-113800000D02*
X123450000Y-113800000D01*
X124200000Y-113950000D02*
X124050000Y-113800000D01*
X124200000Y-114100000D02*
X123900000Y-113800000D01*
X124200000Y-114250000D02*
X123750000Y-113800000D01*
X124200000Y-114400000D02*
X123600000Y-113800000D01*
X124200000Y-114550000D02*
X124200000Y-113800000D01*
X124200000Y-119450000D02*
X124200000Y-120200000D01*
X124200000Y-120200000D02*
X123450000Y-120200000D01*
%TO.C,U14*%
X193909000Y-136382000D02*
X193909000Y-134182000D01*
X193909000Y-136382000D02*
X193909000Y-139982000D01*
X199379000Y-136382000D02*
X199379000Y-134182000D01*
X199379000Y-136382000D02*
X199379000Y-138582000D01*
%TO.C,C12*%
X170324000Y-136268581D02*
X170324000Y-135987421D01*
X171344000Y-136268581D02*
X171344000Y-135987421D01*
%TO.C,K49*%
X135800000Y-95800000D02*
X135800000Y-96550000D01*
X135800000Y-101450000D02*
X135800000Y-102200000D01*
X136550000Y-95800000D02*
X135800000Y-95800000D01*
X136550000Y-102200000D02*
X135800000Y-102200000D01*
X146200000Y-95800000D02*
X145450000Y-95800000D01*
X146200000Y-95950000D02*
X146050000Y-95800000D01*
X146200000Y-96100000D02*
X145900000Y-95800000D01*
X146200000Y-96250000D02*
X145750000Y-95800000D01*
X146200000Y-96400000D02*
X145600000Y-95800000D01*
X146200000Y-96550000D02*
X146200000Y-95800000D01*
X146200000Y-101450000D02*
X146200000Y-102200000D01*
X146200000Y-102200000D02*
X145450000Y-102200000D01*
%TD*%
M02*
